<svg xmlns="http://www.w3.org/2000/svg" width="48.468979" height="82.309456" viewBox="0 0 48.468979 82.309455"><defs><clipPath id="a"><path d="M0 0h750v500H0V0z"/></clipPath><clipPath id="b"><path d="M-56.5737 331.639H485.811V69.7686H-56.5737V331.639z"/></clipPath><clipPath id="c"><path d="M449.797 331.639h331.43V69.7686h-331.43V331.639z"/></clipPath><clipPath id="d"><path d="M0 0h750v500H0V0z"/></clipPath><clipPath id="j"><path d="M0 500h750V0H0v500z"/></clipPath><clipPath id="k"><path d="M448.667 419.093h1.977v-1.976h-1.977v1.976z"/></clipPath><clipPath id="l"><path d="M444.117 417.858h4.063v-2.74h-4.063v2.74z"/></clipPath><clipPath id="m"><path d="M439.186 419.802h5.362v-5.161h-5.362v5.161z"/></clipPath><clipPath id="n"><path d="M441.399 419.758h5.362v-5.161h-5.362v5.161z"/></clipPath><clipPath id="o"><path d="M452.698 419.534h5.362v-5.161h-5.362v5.161z"/></clipPath><clipPath id="p"><path d="M454.911 419.491h5.361v-5.162h-5.361v5.162z"/></clipPath><clipPath id="q"><path d="M299.615 153.262h51.871V52.8467h-51.871V153.262z"/></clipPath><clipPath id="e"><path d="M0 0h750v500H0V0z"/></clipPath><clipPath id="f"><path d="M153.43 505.41h246.243V96.3369H153.43V505.41z"/></clipPath><clipPath id="g"><path d="M-56.5737 331.639H485.811V69.7686H-56.5737V331.639z"/></clipPath><clipPath id="h"><path d="M449.797 331.639h331.43V69.7686h-331.43V331.639z"/></clipPath><clipPath id="i"><path d="M0 0h750v500H0V0z"/></clipPath></defs><path fill="#fff" stroke="#fff" stroke-width="104.23851776" d="M-534.7652-60.21629h286.80566v9.7582073H-534.7652z"/><path d="M-392.5318 19.3252175h131.1000625V-112.035995H-392.5318V19.3252175z" fill="#fff"/><g clip-path="url(#a)" transform="matrix(.26272 0 0 -.26272 -392.5318 19.3252175)"><g clip-path="url(#b)" opacity=".60000598"><path d="M327.308 69.769h24.172v138.868h-24.172V69.769z" fill="#b9c9ea"/><path d="M148.254 275.429h9.342v3.017h-9.342v-3.017z" fill="#d7e7f8"/><path d="M147.062 274.773h11.727v1.312h-11.727v-1.312z" fill="#d7e7f8"/><path d="M144.13 252.809h17.59v21.964h-17.59v-21.964z" fill="#a5c3ea"/><path d="M151.832 295.8931h2.187l-.786 15.741h-.616l-.785-15.741z" fill="#d7e7f8"/><path d="M151.932 294.975h.663v-15.873h-.663v15.873zm1.325 0h.662v-15.873h-.662v15.873zm-2.816-17.184h4.969v18.365h-4.969v-18.365z" fill="#d7e7f8"/><path d="M174.2979 135.5713h26.884v83.853l-26.884-83.853z" fill="#c8dcf3"/><path d="M48.043 216.906H47.01v21.861h1.033v-21.861zm-2.065 0h-1.033v21.861h1.033v-21.861zM74.191 69.769v117.362h-9.193v16.884h-2.714v12.891H50.367v25.052h-2.189l-1.204 34.181h-.96l-1.203-34.181h-2.19v-25.052h-16.54V69.769h48.11z" fill="#a4c2eb"/><path d="M461.322 226.472h24.488V69.769h-24.488v156.703z" fill="#b9c9ea"/><path d="M447.87 251.099h21.385V69.768H447.87v181.331z" fill="#e0ebf9"/><path d="M412.9834 183.7402h39.199l.372 119.64-39.571 9.98v-129.62z" fill="#b7d3f0"/><path d="M421.3906 304.0308l31.164-.651-39.571 9.981 8.407-9.33z" fill="#e0ebf9"/><path d="M141.085 138.103h33.022V238.89h-33.022V138.103z" fill="#b7d3f0"/><path d="M166.8428 234.0186l7.265 4.871h-33.023l25.758-4.871z" fill="#e0ebf9"/><path d="M428.112 221.643h10.716v4.902h-10.716v-4.902z" fill="#d7e7f8"/><path d="M426.745 220.576h13.451v2.132h-13.451v-2.132zM423.382 215.034h20.177v5.542h-20.177v-5.542zM432.2168 254.896h2.508l-.901 25.58h-.707l-.9-25.58z" fill="#d7e7f8"/><path d="M432.33 253.404h.761v-25.792h-.761v25.792zm1.521 0h.76v-25.792h-.76v25.792zm-3.23-27.925h5.699v29.843h-5.699v-29.843zM178.268 184.612h12.217v3.19h-12.217v-3.19z" fill="#d7e7f8"/><path d="M176.708 183.918h15.336v1.388h-15.336v-1.388zM172.875 180.312h23.004v3.606h-23.004v-3.606zM182.9473 206.251h2.859l-1.026 16.646h-.807l-1.026-16.646z" fill="#d7e7f8"/><path d="M183.077 205.28h.866v-16.784h-.866v16.784zm1.733 0h.866v-16.784h-.866v16.784zm-3.683-18.172h6.499v19.42h-6.499v-19.42z" fill="#d7e7f8"/><path d="M411.655 216.152h59.669V69.768h-59.669v146.384z" fill="#e0ebf9"/><path d="M80.661 260.183h8.178v3.742h-8.178v-3.742z" fill="#d7e7f8"/><path d="M79.617 259.37h10.267v1.626H79.617v-1.626zM77.05 255.14h15.399v4.23H77.05v-4.23zM83.793 300.8335h1.914l-.687 19.523h-.54l-.687-19.523z" fill="#d7e7f8"/><path d="M83.88 284.424h.58v-19.686h-.58v19.686zm1.16 0h.58v-19.686h-.58v19.686zm-2.465-21.313h4.35v38.047h-4.35v-38.047z" fill="#d7e7f8"/><path d="M65.029 161.448h31.214v121.091H65.029V161.448z" fill="#e0ebf9"/><path d="M81.039 268.23h3.195v5.561h-3.195v-5.561zM74.191 268.23h3.195v5.561h-3.195v-5.561zM87.886 258.908h3.195v5.561h-3.195v-5.561z" fill="#f7fbfd"/><path d="M81.039 258.908h3.195v5.561h-3.195v-5.561zM74.191 258.908h3.195v5.561h-3.195v-5.561z" fill="#b9c9ea"/><path d="M81.039 249.586h3.195v5.561h-3.195v-5.561zM74.191 249.586h3.195v5.561h-3.195v-5.561zM67.343 249.586h3.196v5.561h-3.196v-5.561zM87.886 240.265h3.195v5.561h-3.195v-5.561zM81.039 230.942h3.195v5.561h-3.195v-5.561zM74.191 230.942h3.195v5.561h-3.195v-5.561zM67.343 230.942h3.196v5.561h-3.196v-5.561z" fill="#f7fbfd"/><path d="M56.3301 202.5586h26.884v36.446l-26.884-36.446z" fill="#c8dcf3"/><path d="M54.165 205.548h31.214V69.769H54.165v135.779z" fill="#e0ebf9"/><path d="M79.516 250.614h31.214V69.769H79.516v180.845z" fill="#e0ebf9"/><path d="M92.967 250.614h4.312V69.769h-4.312v180.845z" fill="#b9c9ea"/><path d="M74.342 255.935h36.388v-5.321H74.342v5.321z" fill="#e0ebf9"/><path d="M218.204 237.41h-13.01v4.109h13.01v-4.109z" fill="#d7e7f8"/><path d="M219.864 236.517h-16.331v1.787h16.331v-1.787zM223.947 231.871H199.45v4.646h24.497v-4.646zM213.083 242.413h-.923v8.58h.923v-8.58zm-1.845 0h-.923v8.58h.923v-8.58zm-2.999-1.786h6.92v28.747h-6.92v-28.747z" fill="#d7e7f8"/><path d="M22.328 171.344h-49.654v132.999h49.654V171.344z" fill="#e0ebf9"/><path d="M7.755 288.626H2.672v6.107h5.083v-6.107zM7.755 278.387H2.672v6.107h5.083v-6.107z" fill="#f7fbfd"/><path d="M7.755 268.149H2.672v6.107h5.083v-6.107z" fill="#b9c9ea"/><path d="M18.648 268.149h-5.083v6.107h5.083v-6.107zM7.755 247.672H2.672v6.107h5.083v-6.107zM18.648 247.672h-5.083v6.107h5.083v-6.107z" fill="#f7fbfd"/><path d="M36.167 216.4961H-6.599v40.03l42.766-40.03z" fill="#c8dcf3"/><path d="M-10.043 219.779h49.654V69.768h-49.654v150.011z" fill="#e0ebf9"/><path d="M24.221 203.077h-3.196v5.56h3.196v-5.56zM31.217 203.077h-3.195v5.56h3.195v-5.56z" fill="#f7fbfd"/><path d="M24.115 193.755h-3.196v5.561h3.196v-5.561zM17.374 184.433h-3.196v5.561h3.196v-5.561z" fill="#b9c9ea"/><path d="M31.069 184.433h-3.196v5.561h3.196v-5.561zM17.374 156.379h-3.196v5.56h3.196v-5.56zM31.069 156.379h-3.196v5.56h3.196v-5.56zM24.115 175.111h-3.196v5.561h3.196v-5.561zM24.115 148.45h-3.196v5.561h3.196v-5.561z" fill="#f7fbfd"/><path d="M24.221 165.789h-3.196v5.561h3.196v-5.561z" fill="#b9c9ea"/><path d="M247.243 209.359h-9.342v3.018h9.342v-3.018z" fill="#d7e7f8"/><path d="M248.436 208.703h-11.727v1.312h11.727v-1.312z" fill="#d7e7f8"/><path d="M251.367 186.739h-17.59v21.964h17.59v-21.964z" fill="#a5c3ea"/><path d="M243.6655 229.8232h-2.187l.786 15.741h.616l.785-15.741z" fill="#d7e7f8"/><path d="M243.566 213.032h-.663v15.873h.663v-15.873zm-1.325 0h-.663v15.873h.663v-15.873zm-2.153-1.311h4.969v18.365h-4.969v-18.365zM357.744 231.87h-8.178v3.742h8.178v-3.742z" fill="#d7e7f8"/><path d="M358.789 231.057h-10.267v1.627h10.267v-1.627zM361.355 226.827h-15.399v4.229h15.399v-4.229zM354.6123 272.521h-1.914l.687 19.523h.54l.687-19.523z" fill="#d7e7f8"/><path d="M354.525 236.426h-.58v19.686h.58v-19.686zm-1.16 0h-.58v19.686h.58v-19.686zm-1.885-1.627h4.35v38.048h-4.35v-38.048z" fill="#d7e7f8"/><path d="M422.073 161.976h-31.214v121.091h31.214V161.976z" fill="#e0ebf9"/><path d="M406.064 268.757h-3.195v5.561h3.195v-5.561z" fill="#b9c9ea"/><path d="M412.912 268.757h-3.195v5.561h3.195v-5.561zM399.217 259.436h-3.195v5.561h3.195v-5.561zM406.064 259.436h-3.195v5.561h3.195v-5.561zM412.912 259.436h-3.195v5.561h3.195v-5.561z" fill="#f7fbfd"/><path d="M406.064 250.114h-3.195v5.56h3.195v-5.56z" fill="#b9c9ea"/><path d="M412.912 250.114h-3.195v5.56h3.195v-5.56z" fill="#f7fbfd"/><path d="M419.76 250.114h-3.195v5.56h3.195v-5.56z" fill="#b9c9ea"/><path d="M399.217 240.792h-3.195v5.561h3.195v-5.561zM406.064 231.47h-3.195v5.561h3.195v-5.561zM412.912 231.47h-3.195v5.561h3.195v-5.561zM419.76 231.47h-3.195v5.561h3.195v-5.561z" fill="#f7fbfd"/><path d="M430.7734 203.085h-26.885v36.447l26.885-36.447z" fill="#c8dcf3"/><path d="M401.724 206.075h31.215V69.768h-31.215v136.307z" fill="#e0ebf9"/><path d="M376.373 251.141h31.214V69.768h-31.214v181.373z" fill="#e0ebf9"/><path d="M389.824 251.141h4.312V69.768h-4.312v181.373z" fill="#b9c9ea"/><path d="M398.264 256.462h-21.891v-5.321h21.891v5.321z" fill="#e0ebf9"/><path d="M459.355 201.41h3.174v6.357h-3.174v-6.357zM445.755 201.41h3.173v6.357h-3.173v-6.357zM438.954 201.41h3.174v6.357h-3.174v-6.357zM432.154 201.41h3.173v6.357h-3.173v-6.357zM452.555 190.754h3.174v6.356h-3.174v-6.356zM445.755 190.754h3.173v6.356h-3.173v-6.356z" fill="#95bcef"/><path d="M438.954 190.754h3.174v6.356h-3.174v-6.356z" fill="#f7fbfd"/><path d="M432.154 190.754h3.173v6.356h-3.173v-6.356zM425.354 190.754h3.174v6.356h-3.174v-6.356zM452.555 180.096h3.174v6.357h-3.174v-6.357z" fill="#95bcef"/><path d="M445.755 180.096h3.173v6.357h-3.173v-6.357z" fill="#f7fbfd"/><path d="M432.154 180.096h3.173v6.357h-3.173v-6.357zM425.354 180.096h3.174v6.357h-3.174v-6.357z" fill="#95bcef"/><path d="M459.355 169.438h3.174v6.357h-3.174v-6.357z" fill="#f7fbfd"/><path d="M452.555 169.438h3.174v6.357h-3.174v-6.357zM445.755 169.438h3.173v6.357h-3.173v-6.357z" fill="#95bcef"/><path d="M432.154 169.438h3.173v6.357h-3.173v-6.357zM418.553 169.438h3.174v6.357h-3.174v-6.357z" fill="#f7fbfd"/><path d="M452.555 158.781h3.174v6.357h-3.174v-6.357z" fill="#95bcef"/><path d="M445.755 158.781h3.173v6.357h-3.173v-6.357z" fill="#f7fbfd"/><path d="M438.954 158.781h3.174v6.357h-3.174v-6.357zM425.354 158.781h3.174v6.357h-3.174v-6.357zM418.553 158.781h3.174v6.357h-3.174v-6.357z" fill="#95bcef"/><path d="M459.355 148.124h3.174v6.357h-3.174v-6.357z" fill="#f7fbfd"/><path d="M432.154 148.124h3.173v6.357h-3.173v-6.357zM425.354 148.124h3.174v6.357h-3.174v-6.357zM452.555 137.467h3.174v6.357h-3.174v-6.357zM445.755 137.467h3.173v6.357h-3.173v-6.357zM438.954 137.467h3.174v6.357h-3.174v-6.357zM425.354 137.467h3.174v6.357h-3.174v-6.357z" fill="#95bcef"/><path d="M418.553 137.467h3.174v6.357h-3.174v-6.357z" fill="#f7fbfd"/><path d="M341.2935 69.7686v180.405h38.8l20.869-27.572V69.7686h-59.669z" fill="#e0ebf9"/><path d="M400.9629 222.6016l-20.869 27.572h-38.8l59.669-27.572z" fill="#acc8ee"/><path d="M370.783 211.96h3.104V69.769h-3.104V211.96zM377.682 211.96h3.104V69.769h-3.104V211.96zM384.579 211.96h3.104V69.769h-3.104V211.96zM391.478 211.96h3.104V69.769h-3.104V211.96z" fill="#c8dcf3"/><path d="M284.2954 69.7686v111.605h1.851v59.462h2.22v11.492l14.734 4.107v-22.631h4.304v11.904h8.097v10.509h4.304v-10.509h11.569v-68.03h4.674V69.7686h-51.753zM110.73 69.7686v214.793h9.986v-36.604h5.103v14.114h9.6v12.46h5.103v-12.46h24.382v-63.445h14.734v-13.539h13.857v-38.739h4.619v81.268l5.337 17.566 18.895-.576 3.666-5.906V69.7686H110.73z" fill="#e0ebf9"/><path d="M226.0117 69.7686v168.932l6.879-11.084h18.778v44.621h.73v-44.621h3.844v29.999h20.695v-29.999h3.465v-46.243h3.893V69.7686h-58.284z" fill="#b9c9ea"/><path d="M231.253 219.779h23.901V69.768h-23.901v150.011z" fill="#e0ebf9"/><path d="M130.679 172.617h3.104V69.768h-3.104v102.849zM137.577 172.617h3.104V69.768h-3.104v102.849zM144.475 172.617h3.104V69.768h-3.104v102.849zM151.373 172.617h3.104V69.768h-3.104v102.849z" fill="#c8dcf3"/><path d="M303.119 218.5h-4.516v7.868h4.516V218.5z" fill="#f7fbfd"/><path d="M312.794 218.5h-4.515v7.868h4.515V218.5z" fill="#b9c9ea"/><path d="M293.443 205.309h-4.516v7.868h4.516v-7.868z" fill="#f7fbfd"/><path d="M303.119 205.309h-4.516v7.868h4.516v-7.868zM312.794 205.309h-4.515v7.868h4.515v-7.868zM303.119 192.118h-4.516v7.868h4.516v-7.868z" fill="#b9c9ea"/><path d="M312.794 192.118h-4.515v7.868h4.515v-7.868z" fill="#f7fbfd"/><path d="M322.47 192.118h-4.516v7.868h4.516v-7.868zM293.443 178.927h-4.516v7.868h4.516v-7.868z" fill="#b9c9ea"/><path d="M303.119 165.735h-4.516v7.868h4.516v-7.868z" fill="#f7fbfd"/><path d="M312.794 165.735h-4.515v7.868h4.515v-7.868z" fill="#b9c9ea"/><path d="M322.47 165.735h-4.516v7.868h4.516v-7.868zM144.377 242.339h-3.196v5.561h3.196v-5.561zM151.373 242.339h-3.195v5.561h3.195v-5.561zM144.271 233.017h-3.196v5.561h3.196v-5.561zM137.529 223.695h-3.196v5.56h3.196v-5.56zM151.225 223.695h-3.196v5.56h3.196v-5.56zM137.529 195.641h-3.196v5.56h3.196v-5.56zM151.225 195.641h-3.196v5.56h3.196v-5.56zM144.271 214.373h-3.196v5.561h3.196v-5.561zM144.271 187.712h-3.196v5.561h3.196v-5.561zM144.377 205.051h-3.196v5.561h3.196v-5.561z" fill="#f7fbfd"/><path d="M204.575 215.034h14.249v16.436h-14.249v-16.436z" fill="#acc8ee"/><path d="M163.145 178.63h20.798V69.769h-20.798V178.63z" fill="#b7d3f0"/><path d="M281.157 154.011h31.637v4.192h-31.637v-4.192zM281.157 146.354h31.637v4.191h-31.637v-4.191zM281.157 138.697h31.637v4.192h-31.637v-4.192zM281.157 131.041h31.637v4.192h-31.637v-4.192zM281.157 123.385h31.637v4.192h-31.637v-4.192zM281.157 115.729h31.637v4.191h-31.637v-4.191zM281.157 108.071h31.637v4.192h-31.637v-4.192zM281.157 100.415h31.637v4.192h-31.637v-4.192zM281.157 92.759h31.637v4.192h-31.637v-4.192z" fill="#b9c9ea"/><path d="M235.377 126.351h1.963v95.532h-1.963v-95.532zM239.74 126.351h1.963v95.532h-1.963v-95.532zM244.104 126.351h1.963v95.532h-1.963v-95.532zM248.466 126.351h1.963v95.532h-1.963v-95.532z" fill="#acc8ee"/><path d="M348.522 69.769h12.952v65.465h-12.952V69.769zM439.245 96.951h16.337v11.12h-16.337v-11.12zM418.269 96.951h16.337v11.12h-16.337v-11.12z" fill="#b7d3f0"/></g><g clip-path="url(#c)" opacity=".60000598"><path d="M654.625 275.429h9.342v3.017h-9.342v-3.017z" fill="#d7e7f8"/><path d="M653.433 274.773h11.727v1.312h-11.727v-1.312z" fill="#d7e7f8"/><path d="M650.5 252.809h17.591v21.964H650.5v-21.964z" fill="#a5c3ea"/><path d="M658.2021 295.8931h2.187l-.786 15.741h-.616l-.785-15.741z" fill="#d7e7f8"/><path d="M658.302 294.975h.663v-15.873h-.663v15.873zm1.325 0h.662v-15.873h-.662v15.873zm-2.815-17.184h4.969v18.365h-4.969v-18.365z" fill="#d7e7f8"/><path d="M680.668 135.5713h26.884v83.853l-26.884-83.853z" fill="#c8dcf3"/><path d="M476.726 191.281h-.421v10.073h.421v-10.073zm-.841 0h-.421v10.073h.421v-10.073zm14.046-121.512v113.372h-8.255v5.393h-1.861v.832h-.756v1.499h-1.387v11.239h-.892l-.49 9.823h-.391l-.49-9.823h-.891v-11.239h-1.387v-1.499h-.757v-.832h-1.861v-5.393h-5.205l-13.245-17.498V69.769h37.868zM554.413 216.906h-1.032v21.861h1.032v-21.861zm-2.065 0h-1.032v21.861h1.032v-21.861zm28.213-147.137v117.362h-9.193v16.884h-2.714v12.891h-11.917v25.052h-2.189l-1.203 34.181h-.961l-1.203-34.181h-2.189v-25.052h-16.541V69.769h48.11z" fill="#a4c2eb"/><path d="M647.455 138.103h33.022V238.89h-33.022V138.103z" fill="#b7d3f0"/><path d="M673.2129 234.0186l7.265 4.871h-33.023l25.758-4.871z" fill="#e0ebf9"/><path d="M684.639 184.612h12.217v3.19h-12.217v-3.19z" fill="#d7e7f8"/><path d="M683.079 183.918h15.336v1.388h-15.336v-1.388zM679.245 180.312h23.004v3.606h-23.004v-3.606zM689.3174 206.251h2.859l-1.026 16.646h-.807l-1.026-16.646z" fill="#d7e7f8"/><path d="M689.447 205.28h.866v-16.784h-.866v16.784zm1.734 0h.866v-16.784h-.866v16.784zm-3.683-18.172h6.498v19.42h-6.498v-19.42zM587.031 260.183h8.178v3.742h-8.178v-3.742z" fill="#d7e7f8"/><path d="M585.987 259.37h10.267v1.626h-10.267v-1.626zM583.421 255.14h15.399v4.23h-15.399v-4.23zM590.1631 300.8335h1.914l-.687 19.523h-.54l-.687-19.523z" fill="#d7e7f8"/><path d="M590.25 284.424h.58v-19.686h-.58v19.686zm1.16 0h.58v-19.686h-.58v19.686zm-2.465-21.313h4.35v38.047h-4.35v-38.047z" fill="#d7e7f8"/><path d="M571.4 161.448h31.214v121.091H571.4V161.448z" fill="#e0ebf9"/><path d="M587.409 268.23h3.195v5.561h-3.195v-5.561zM580.561 268.23h3.196v5.561h-3.196v-5.561zM594.257 258.908h3.195v5.561h-3.195v-5.561z" fill="#f7fbfd"/><path d="M587.409 258.908h3.195v5.561h-3.195v-5.561zM580.561 258.908h3.196v5.561h-3.196v-5.561z" fill="#b9c9ea"/><path d="M587.409 249.586h3.195v5.561h-3.195v-5.561zM580.561 249.586h3.196v5.561h-3.196v-5.561zM573.713 249.586h3.196v5.561h-3.196v-5.561zM594.257 240.265h3.195v5.561h-3.195v-5.561zM587.409 230.942h3.195v5.561h-3.195v-5.561zM580.561 230.942h3.196v5.561h-3.196v-5.561zM573.713 230.942h3.196v5.561h-3.196v-5.561z" fill="#f7fbfd"/><path d="M562.7002 202.5586h26.884v36.446l-26.884-36.446z" fill="#c8dcf3"/><path d="M560.535 205.548h31.214V69.769h-31.214v135.779z" fill="#e0ebf9"/><path d="M585.886 250.614h31.215V69.769h-31.215v180.845z" fill="#e0ebf9"/><path d="M599.338 250.614h4.312V69.769h-4.312v180.845z" fill="#b9c9ea"/><path d="M580.713 255.935h36.388v-5.321h-36.388v5.321z" fill="#e0ebf9"/><path d="M481.811 295.004h-14.86v3.313h14.86v-3.313z" fill="#d7e7f8"/><path d="M483.708 294.284h-18.655v1.441h18.655v-1.441z" fill="#d7e7f8"/><path d="M488.371 270.16H460.39v24.124h27.981V270.16z" fill="#a5c3ea"/><path d="M476.1191 308.3315h-3.478l1.249 23.307h.981l1.248-23.307z" fill="#d7e7f8"/><path d="M475.961 299.039h-1.054v8.284h1.054v-8.284zm-2.107 0H472.8v8.284h1.054v-8.284zm-3.426-1.441h7.905v11.022h-7.905v-11.022zM724.574 237.41h-13.01v4.109h13.01v-4.109z" fill="#d7e7f8"/><path d="M726.234 236.517h-16.331v1.787h16.331v-1.787zM730.317 231.871H705.82v4.646h24.497v-4.646zM719.453 242.413h-.923v8.58h.923v-8.58zm-1.846 0h-.922v8.58h.922v-8.58zm-2.998-1.786h6.92v28.747h-6.92v-28.747z" fill="#d7e7f8"/><path d="M528.698 171.344h-49.654v132.999h49.654V171.344z" fill="#e0ebf9"/><path d="M503.232 288.626h-5.084v6.107h5.084v-6.107z" fill="#b9c9ea"/><path d="M514.125 288.626h-5.083v6.107h5.083v-6.107zM492.339 278.387h-5.083v6.107h5.083v-6.107z" fill="#f7fbfd"/><path d="M503.232 278.387h-5.084v6.107h5.084v-6.107z" fill="#b9c9ea"/><path d="M514.125 278.387h-5.083v6.107h5.083v-6.107zM503.232 268.149h-5.084v6.107h5.084v-6.107z" fill="#f7fbfd"/><path d="M514.125 268.149h-5.083v6.107h5.083v-6.107z" fill="#b9c9ea"/><path d="M525.019 268.149h-5.083v6.107h5.083v-6.107zM492.339 257.91h-5.083v6.107h5.083v-6.107zM503.232 247.672h-5.084v6.107h5.084v-6.107zM514.125 247.672h-5.083v6.107h5.083v-6.107zM525.019 247.672h-5.083v6.107h5.083v-6.107z" fill="#f7fbfd"/><path d="M542.5371 216.4961h-42.766v40.03l42.766-40.03z" fill="#c8dcf3"/><path d="M496.327 219.779h49.654V69.768h-49.654v150.011z" fill="#e0ebf9"/><path d="M456 269.277h49.654V69.768H456v199.509z" fill="#e0ebf9"/><path d="M474.892 269.277h6.858V69.768h-6.858v199.509z" fill="#b9c9ea"/><path d="M483.708 275.122H456v-5.844h27.708v5.844z" fill="#e0ebf9"/><path d="M530.592 203.077h-3.196v5.56h3.196v-5.56zM537.588 203.077h-3.195v5.56h3.195v-5.56z" fill="#f7fbfd"/><path d="M530.485 193.755h-3.195v5.561h3.195v-5.561zM523.744 184.433h-3.196v5.561h3.196v-5.561z" fill="#b9c9ea"/><path d="M537.439 184.433h-3.196v5.561h3.196v-5.561zM523.744 156.379h-3.196v5.56h3.196v-5.56zM537.439 156.379h-3.196v5.56h3.196v-5.56zM530.485 175.111h-3.195v5.561h3.195v-5.561zM530.485 148.45h-3.195v5.561h3.195v-5.561z" fill="#f7fbfd"/><path d="M530.592 165.789h-3.196v5.561h3.196v-5.561z" fill="#b9c9ea"/><path d="M753.613 209.359h-9.342v3.018h9.342v-3.018z" fill="#d7e7f8"/><path d="M754.806 208.703h-11.727v1.312h11.727v-1.312z" fill="#d7e7f8"/><path d="M757.738 186.739h-17.591v21.964h17.591v-21.964z" fill="#a5c3ea"/><path d="M750.0361 229.8232h-2.187l.786 15.741h.616l.785-15.741z" fill="#d7e7f8"/><path d="M749.937 213.032h-.663v15.873h.663v-15.873zm-1.326 0h-.662v15.873h.662v-15.873zm-2.153-1.311h4.969v18.365h-4.969v-18.365z" fill="#d7e7f8"/><path d="M485.307 170.481h1.964v95.532h-1.964v-95.532zM489.67 170.481h1.964v95.532h-1.964v-95.532zM494.033 170.481h1.963v95.532h-1.963v-95.532zM498.396 170.481h1.963v95.532h-1.963v-95.532z" fill="#acc8ee"/><path d="M617.1006 69.7686v214.793h9.986v-36.604h5.103v14.114h9.599v12.46h5.104v-12.46h24.382v-63.445h14.733v-13.539h13.858v-38.739h4.619v81.268l5.337 17.566 18.894-.576 3.666-5.906V69.7686h-115.281z" fill="#e0ebf9"/><path d="M777.8828 111.7998c-1.561 31.77-2.35 63.57-2.913 95.372-.297 16.813-.534 33.628-.788 50.443h-11.569v-29.999h-3.843v44.622h-.731v-44.622h-18.778l-6.879 11.084V69.7688h48.845c-1.423 13.971-2.653 27.956-3.344 42.031" fill="#b9c9ea"/><path d="M737.623 219.779h23.901V69.768h-23.901v150.011z" fill="#e0ebf9"/><path d="M637.049 172.617h3.104V69.768h-3.104v102.849zM643.947 172.617h3.104V69.768h-3.104v102.849zM650.846 172.617h3.104V69.768h-3.104v102.849zM657.743 172.617h3.104V69.768h-3.104v102.849z" fill="#c8dcf3"/><path d="M650.747 242.339h-3.195v5.561h3.195v-5.561zM657.743 242.339h-3.195v5.561h3.195v-5.561zM650.642 233.017h-3.196v5.561h3.196v-5.561zM643.899 223.695h-3.195v5.56h3.195v-5.56zM657.595 223.695H654.4v5.56h3.195v-5.56zM643.899 195.641h-3.195v5.56h3.195v-5.56zM657.595 195.641H654.4v5.56h3.195v-5.56zM650.642 214.373h-3.196v5.561h3.196v-5.561zM650.642 187.712h-3.196v5.561h3.196v-5.561zM650.747 205.051h-3.195v5.561h3.195v-5.561z" fill="#f7fbfd"/><path d="M710.945 215.034h14.248v16.436h-14.248v-16.436z" fill="#acc8ee"/><path d="M669.516 178.63h20.798V69.769h-20.798V178.63z" fill="#b7d3f0"/><path d="M449.797 193.89h12.599v3.971h-12.599v-3.971zM449.797 186.637h12.599v3.971h-12.599v-3.971zM449.797 179.384h12.599v3.972h-12.599v-3.972zM449.797 172.132h12.599v3.971h-12.599v-3.971zM449.797 164.879h12.599v3.971h-12.599v-3.971zM449.797 157.626h12.599v3.972h-12.599v-3.972zM449.797 150.373h12.599v3.972h-12.599v-3.972zM449.797 143.121h12.599v3.971h-12.599v-3.971zM449.797 135.868h12.599v3.971h-12.599v-3.971z" fill="#b9c9ea"/><path d="M741.748 126.351h1.963v95.532h-1.963v-95.532zM746.11 126.351h1.964v95.532h-1.964v-95.532z" fill="#acc8ee"/></g></g><g clip-path="url(#d)" transform="matrix(.26272 0 0 -.26272 -392.5318 19.3252175)"><path d="M754.571 0H-4.572v83.503h759.143V0z" fill="#7b8589"/><path d="M762 89.487H-12v-7.876h774v7.876z" fill="#dde1e7"/></g><text transform="matrix(1.24005 .15743 -.15743 1.24005 -735.5698 262.11223)" style="-inkscape-font-specification:BreeSerif-Regular" x="326.74371" y="-311.1283" font-weight="400" font-size=".65767133" font-family="Bree Serif" fill="#fff"><tspan x="326.74371 327.23898 327.83878 328.33133 328.59439 329.13766 329.63025 330.19717" y="-311.1283">THE REAL</tspan></text><text transform="rotate(-26.2811448 193.59413352 1706.46322905) scale(1.25)" style="-inkscape-font-specification:Bebas" x="441.18436" y="-77.88266" font-weight="400" font-size="1.05089867" font-family="Bebas" fill="#fff"><tspan x="441.18436" y="-77.88266">T</tspan></text><text transform="rotate(-11.865935 893.32167365 3670.11971742) scale(1.25)" style="-inkscape-font-specification:Bebas" x="408.91055" y="-185.44952" font-weight="400" font-size="1.05087745" font-family="Bebas" fill="#fff"><tspan x="408.91055" y="-185.44952">R</tspan></text><text transform="matrix(1.24969 -.02803 .02803 1.24969 -735.5698 262.11223)" style="-inkscape-font-specification:Bebas" x="368.96655" y="-257.53253" font-weight="400" font-size="1.05088055" font-family="Bebas" fill="#fff"><tspan x="368.96655" y="-257.53253">A</tspan></text><text transform="matrix(1.2413 .14727 -.14727 1.2413 -735.5698 262.11223)" style="-inkscape-font-specification:Bebas" x="330.2355" y="-306.78043" font-weight="400" font-size="1.05089486" font-family="Bebas" fill="#fff"><tspan x="330.2355" y="-306.78043">V</tspan></text><text transform="matrix(1.206 .32873 -.32873 1.206 -735.5698 262.11223)" style="-inkscape-font-specification:Bebas" x="282.51453" y="-352.25412" font-weight="400" font-size="1.0508883" font-family="Bebas" fill="#fff"><tspan x="282.51453" y="-352.25412">E</tspan></text><text transform="matrix(1.14492 .50165 -.50165 1.14492 -735.5698 262.11223)" style="-inkscape-font-specification:Bebas" x="228.91937" y="-389.91052" font-weight="400" font-size="1.05089164" font-family="Bebas" fill="#fff"><tspan x="228.91937" y="-389.91052">L</tspan></text><text transform="matrix(1.04291 .68908 -.68908 1.04291 -735.5698 262.11223)" style="-inkscape-font-specification:Bebas" x="160.22467" y="-423.29321" font-weight="400" font-size="1.05087793" font-family="Bebas" fill="#fff"><tspan x="160.22467" y="-423.29321">E</tspan></text><text transform="matrix(.87032 .89724 -.89724 .87032 -735.5698 262.11223)" style="-inkscape-font-specification:Bebas" x="66.408279" y="-448.01315" font-weight="400" font-size="1.05089736" font-family="Bebas" fill="#fff"><tspan x="66.408279" y="-448.01315">R</tspan></text><g><path d="M-588.71387 19.3178h131.10004v-131.36119h-131.10004V19.3178z" fill="#fff"/><g clip-path="url(#e)" transform="matrix(.26272 0 0 -.26272 -588.71388 19.3178)"><g clip-path="url(#g)" opacity=".60000598"><path d="M327.308 69.769h24.172v138.868h-24.172V69.769z" fill="#b9c9ea"/><path d="M148.254 275.429h9.342v3.017h-9.342v-3.017z" fill="#d7e7f8"/><path d="M147.062 274.773h11.727v1.312h-11.727v-1.312z" fill="#d7e7f8"/><path d="M144.13 252.809h17.59v21.964h-17.59v-21.964z" fill="#a5c3ea"/><path d="M151.832 295.8931h2.187l-.786 15.741h-.616l-.785-15.741z" fill="#d7e7f8"/><path d="M151.932 294.975h.663v-15.873h-.663v15.873zm1.325 0h.662v-15.873h-.662v15.873zm-2.816-17.184h4.969v18.365h-4.969v-18.365z" fill="#d7e7f8"/><path d="M174.2979 135.5713h26.884v83.853l-26.884-83.853z" fill="#c8dcf3"/><path d="M48.043 216.906H47.01v21.861h1.033v-21.861zm-2.065 0h-1.033v21.861h1.033v-21.861zM74.191 69.769v117.362h-9.193v16.884h-2.714v12.891H50.367v25.052h-2.189l-1.204 34.181h-.96l-1.203-34.181h-2.19v-25.052h-16.54V69.769h48.11z" fill="#a4c2eb"/><path d="M461.322 226.472h24.488V69.769h-24.488v156.703z" fill="#b9c9ea"/><path d="M447.87 251.099h21.385V69.768H447.87v181.331z" fill="#e0ebf9"/><path d="M412.9834 183.7402h39.199l.372 119.64-39.571 9.98v-129.62z" fill="#b7d3f0"/><path d="M421.3906 304.0308l31.164-.651-39.571 9.981 8.407-9.33z" fill="#e0ebf9"/><path d="M141.085 138.103h33.022V238.89h-33.022V138.103z" fill="#b7d3f0"/><path d="M166.8428 234.0186l7.265 4.871h-33.023l25.758-4.871z" fill="#e0ebf9"/><path d="M428.112 221.643h10.716v4.902h-10.716v-4.902z" fill="#d7e7f8"/><path d="M426.745 220.576h13.451v2.132h-13.451v-2.132zM423.382 215.034h20.177v5.542h-20.177v-5.542zM432.2168 254.896h2.508l-.901 25.58h-.707l-.9-25.58z" fill="#d7e7f8"/><path d="M432.33 253.404h.761v-25.792h-.761v25.792zm1.521 0h.76v-25.792h-.76v25.792zm-3.23-27.925h5.699v29.843h-5.699v-29.843zM178.268 184.612h12.217v3.19h-12.217v-3.19z" fill="#d7e7f8"/><path d="M176.708 183.918h15.336v1.388h-15.336v-1.388zM172.875 180.312h23.004v3.606h-23.004v-3.606zM182.9473 206.251h2.859l-1.026 16.646h-.807l-1.026-16.646z" fill="#d7e7f8"/><path d="M183.077 205.28h.866v-16.784h-.866v16.784zm1.733 0h.866v-16.784h-.866v16.784zm-3.683-18.172h6.499v19.42h-6.499v-19.42z" fill="#d7e7f8"/><path d="M411.655 216.152h59.669V69.768h-59.669v146.384z" fill="#e0ebf9"/><path d="M80.661 260.183h8.178v3.742h-8.178v-3.742z" fill="#d7e7f8"/><path d="M79.617 259.37h10.267v1.626H79.617v-1.626zM77.05 255.14h15.399v4.23H77.05v-4.23zM83.793 300.8335h1.914l-.687 19.523h-.54l-.687-19.523z" fill="#d7e7f8"/><path d="M83.88 284.424h.58v-19.686h-.58v19.686zm1.16 0h.58v-19.686h-.58v19.686zm-2.465-21.313h4.35v38.047h-4.35v-38.047z" fill="#d7e7f8"/><path d="M65.029 161.448h31.214v121.091H65.029V161.448z" fill="#e0ebf9"/><path d="M81.039 268.23h3.195v5.561h-3.195v-5.561zM74.191 268.23h3.195v5.561h-3.195v-5.561zM87.886 258.908h3.195v5.561h-3.195v-5.561z" fill="#f7fbfd"/><path d="M81.039 258.908h3.195v5.561h-3.195v-5.561zM74.191 258.908h3.195v5.561h-3.195v-5.561z" fill="#b9c9ea"/><path d="M81.039 249.586h3.195v5.561h-3.195v-5.561zM74.191 249.586h3.195v5.561h-3.195v-5.561zM67.343 249.586h3.196v5.561h-3.196v-5.561zM87.886 240.265h3.195v5.561h-3.195v-5.561zM81.039 230.942h3.195v5.561h-3.195v-5.561zM74.191 230.942h3.195v5.561h-3.195v-5.561zM67.343 230.942h3.196v5.561h-3.196v-5.561z" fill="#f7fbfd"/><path d="M56.3301 202.5586h26.884v36.446l-26.884-36.446z" fill="#c8dcf3"/><path d="M54.165 205.548h31.214V69.769H54.165v135.779z" fill="#e0ebf9"/><path d="M79.516 250.614h31.214V69.769H79.516v180.845z" fill="#e0ebf9"/><path d="M92.967 250.614h4.312V69.769h-4.312v180.845z" fill="#b9c9ea"/><path d="M74.342 255.935h36.388v-5.321H74.342v5.321z" fill="#e0ebf9"/><path d="M218.204 237.41h-13.01v4.109h13.01v-4.109z" fill="#d7e7f8"/><path d="M219.864 236.517h-16.331v1.787h16.331v-1.787zM223.947 231.871H199.45v4.646h24.497v-4.646zM213.083 242.413h-.923v8.58h.923v-8.58zm-1.845 0h-.923v8.58h.923v-8.58zm-2.999-1.786h6.92v28.747h-6.92v-28.747z" fill="#d7e7f8"/><path d="M22.328 171.344h-49.654v132.999h49.654V171.344z" fill="#e0ebf9"/><path d="M7.755 288.626H2.672v6.107h5.083v-6.107zM7.755 278.387H2.672v6.107h5.083v-6.107z" fill="#f7fbfd"/><path d="M7.755 268.149H2.672v6.107h5.083v-6.107z" fill="#b9c9ea"/><path d="M18.648 268.149h-5.083v6.107h5.083v-6.107zM7.755 247.672H2.672v6.107h5.083v-6.107zM18.648 247.672h-5.083v6.107h5.083v-6.107z" fill="#f7fbfd"/><path d="M36.167 216.4961H-6.599v40.03l42.766-40.03z" fill="#c8dcf3"/><path d="M-10.043 219.779h49.654V69.768h-49.654v150.011z" fill="#e0ebf9"/><path d="M24.221 203.077h-3.196v5.56h3.196v-5.56zM31.217 203.077h-3.195v5.56h3.195v-5.56z" fill="#f7fbfd"/><path d="M24.115 193.755h-3.196v5.561h3.196v-5.561zM17.374 184.433h-3.196v5.561h3.196v-5.561z" fill="#b9c9ea"/><path d="M31.069 184.433h-3.196v5.561h3.196v-5.561zM17.374 156.379h-3.196v5.56h3.196v-5.56zM31.069 156.379h-3.196v5.56h3.196v-5.56zM24.115 175.111h-3.196v5.561h3.196v-5.561zM24.115 148.45h-3.196v5.561h3.196v-5.561z" fill="#f7fbfd"/><path d="M24.221 165.789h-3.196v5.561h3.196v-5.561z" fill="#b9c9ea"/><path d="M247.243 209.359h-9.342v3.018h9.342v-3.018z" fill="#d7e7f8"/><path d="M248.436 208.703h-11.727v1.312h11.727v-1.312z" fill="#d7e7f8"/><path d="M251.367 186.739h-17.59v21.964h17.59v-21.964z" fill="#a5c3ea"/><path d="M243.6655 229.8232h-2.187l.786 15.741h.616l.785-15.741z" fill="#d7e7f8"/><path d="M243.566 213.032h-.663v15.873h.663v-15.873zm-1.325 0h-.663v15.873h.663v-15.873zm-2.153-1.311h4.969v18.365h-4.969v-18.365zM357.744 231.87h-8.178v3.742h8.178v-3.742z" fill="#d7e7f8"/><path d="M358.789 231.057h-10.267v1.627h10.267v-1.627zM361.355 226.827h-15.399v4.229h15.399v-4.229zM354.6123 272.521h-1.914l.687 19.523h.54l.687-19.523z" fill="#d7e7f8"/><path d="M354.525 236.426h-.58v19.686h.58v-19.686zm-1.16 0h-.58v19.686h.58v-19.686zm-1.885-1.627h4.35v38.048h-4.35v-38.048z" fill="#d7e7f8"/><path d="M422.073 161.976h-31.214v121.091h31.214V161.976z" fill="#e0ebf9"/><path d="M406.064 268.757h-3.195v5.561h3.195v-5.561z" fill="#b9c9ea"/><path d="M412.912 268.757h-3.195v5.561h3.195v-5.561zM399.217 259.436h-3.195v5.561h3.195v-5.561zM406.064 259.436h-3.195v5.561h3.195v-5.561zM412.912 259.436h-3.195v5.561h3.195v-5.561z" fill="#f7fbfd"/><path d="M406.064 250.114h-3.195v5.56h3.195v-5.56z" fill="#b9c9ea"/><path d="M412.912 250.114h-3.195v5.56h3.195v-5.56z" fill="#f7fbfd"/><path d="M419.76 250.114h-3.195v5.56h3.195v-5.56z" fill="#b9c9ea"/><path d="M399.217 240.792h-3.195v5.561h3.195v-5.561zM406.064 231.47h-3.195v5.561h3.195v-5.561zM412.912 231.47h-3.195v5.561h3.195v-5.561zM419.76 231.47h-3.195v5.561h3.195v-5.561z" fill="#f7fbfd"/><path d="M430.7734 203.085h-26.885v36.447l26.885-36.447z" fill="#c8dcf3"/><path d="M401.724 206.075h31.215V69.768h-31.215v136.307z" fill="#e0ebf9"/><path d="M376.373 251.141h31.214V69.768h-31.214v181.373z" fill="#e0ebf9"/><path d="M389.824 251.141h4.312V69.768h-4.312v181.373z" fill="#b9c9ea"/><path d="M398.264 256.462h-21.891v-5.321h21.891v5.321z" fill="#e0ebf9"/><path d="M459.355 201.41h3.174v6.357h-3.174v-6.357zM445.755 201.41h3.173v6.357h-3.173v-6.357zM438.954 201.41h3.174v6.357h-3.174v-6.357zM432.154 201.41h3.173v6.357h-3.173v-6.357zM452.555 190.754h3.174v6.356h-3.174v-6.356zM445.755 190.754h3.173v6.356h-3.173v-6.356z" fill="#95bcef"/><path d="M438.954 190.754h3.174v6.356h-3.174v-6.356z" fill="#f7fbfd"/><path d="M432.154 190.754h3.173v6.356h-3.173v-6.356zM425.354 190.754h3.174v6.356h-3.174v-6.356zM452.555 180.096h3.174v6.357h-3.174v-6.357z" fill="#95bcef"/><path d="M445.755 180.096h3.173v6.357h-3.173v-6.357z" fill="#f7fbfd"/><path d="M432.154 180.096h3.173v6.357h-3.173v-6.357zM425.354 180.096h3.174v6.357h-3.174v-6.357z" fill="#95bcef"/><path d="M459.355 169.438h3.174v6.357h-3.174v-6.357z" fill="#f7fbfd"/><path d="M452.555 169.438h3.174v6.357h-3.174v-6.357zM445.755 169.438h3.173v6.357h-3.173v-6.357z" fill="#95bcef"/><path d="M432.154 169.438h3.173v6.357h-3.173v-6.357zM418.553 169.438h3.174v6.357h-3.174v-6.357z" fill="#f7fbfd"/><path d="M452.555 158.781h3.174v6.357h-3.174v-6.357z" fill="#95bcef"/><path d="M445.755 158.781h3.173v6.357h-3.173v-6.357z" fill="#f7fbfd"/><path d="M438.954 158.781h3.174v6.357h-3.174v-6.357zM425.354 158.781h3.174v6.357h-3.174v-6.357zM418.553 158.781h3.174v6.357h-3.174v-6.357z" fill="#95bcef"/><path d="M459.355 148.124h3.174v6.357h-3.174v-6.357z" fill="#f7fbfd"/><path d="M432.154 148.124h3.173v6.357h-3.173v-6.357zM425.354 148.124h3.174v6.357h-3.174v-6.357zM452.555 137.467h3.174v6.357h-3.174v-6.357zM445.755 137.467h3.173v6.357h-3.173v-6.357zM438.954 137.467h3.174v6.357h-3.174v-6.357zM425.354 137.467h3.174v6.357h-3.174v-6.357z" fill="#95bcef"/><path d="M418.553 137.467h3.174v6.357h-3.174v-6.357z" fill="#f7fbfd"/><path d="M341.2935 69.7686v180.405h38.8l20.869-27.572V69.7686h-59.669z" fill="#e0ebf9"/><path d="M400.9629 222.6016l-20.869 27.572h-38.8l59.669-27.572z" fill="#acc8ee"/><path d="M370.783 211.96h3.104V69.769h-3.104V211.96zM377.682 211.96h3.104V69.769h-3.104V211.96zM384.579 211.96h3.104V69.769h-3.104V211.96zM391.478 211.96h3.104V69.769h-3.104V211.96z" fill="#c8dcf3"/><path d="M284.2954 69.7686v111.605h1.851v59.462h2.22v11.492l14.734 4.107v-22.631h4.304v11.904h8.097v10.509h4.304v-10.509h11.569v-68.03h4.674V69.7686h-51.753zM110.73 69.7686v214.793h9.986v-36.604h5.103v14.114h9.6v12.46h5.103v-12.46h24.382v-63.445h14.734v-13.539h13.857v-38.739h4.619v81.268l5.337 17.566 18.895-.576 3.666-5.906V69.7686H110.73z" fill="#e0ebf9"/><path d="M226.0117 69.7686v168.932l6.879-11.084h18.778v44.621h.73v-44.621h3.844v29.999h20.695v-29.999h3.465v-46.243h3.893V69.7686h-58.284z" fill="#b9c9ea"/><path d="M231.253 219.779h23.901V69.768h-23.901v150.011z" fill="#e0ebf9"/><path d="M130.679 172.617h3.104V69.768h-3.104v102.849zM137.577 172.617h3.104V69.768h-3.104v102.849zM144.475 172.617h3.104V69.768h-3.104v102.849zM151.373 172.617h3.104V69.768h-3.104v102.849z" fill="#c8dcf3"/><path d="M303.119 218.5h-4.516v7.868h4.516V218.5z" fill="#f7fbfd"/><path d="M312.794 218.5h-4.515v7.868h4.515V218.5z" fill="#b9c9ea"/><path d="M293.443 205.309h-4.516v7.868h4.516v-7.868z" fill="#f7fbfd"/><path d="M303.119 205.309h-4.516v7.868h4.516v-7.868zM312.794 205.309h-4.515v7.868h4.515v-7.868zM303.119 192.118h-4.516v7.868h4.516v-7.868z" fill="#b9c9ea"/><path d="M312.794 192.118h-4.515v7.868h4.515v-7.868z" fill="#f7fbfd"/><path d="M322.47 192.118h-4.516v7.868h4.516v-7.868zM293.443 178.927h-4.516v7.868h4.516v-7.868z" fill="#b9c9ea"/><path d="M303.119 165.735h-4.516v7.868h4.516v-7.868z" fill="#f7fbfd"/><path d="M312.794 165.735h-4.515v7.868h4.515v-7.868z" fill="#b9c9ea"/><path d="M322.47 165.735h-4.516v7.868h4.516v-7.868zM144.377 242.339h-3.196v5.561h3.196v-5.561zM151.373 242.339h-3.195v5.561h3.195v-5.561zM144.271 233.017h-3.196v5.561h3.196v-5.561zM137.529 223.695h-3.196v5.56h3.196v-5.56zM151.225 223.695h-3.196v5.56h3.196v-5.56zM137.529 195.641h-3.196v5.56h3.196v-5.56zM151.225 195.641h-3.196v5.56h3.196v-5.56zM144.271 214.373h-3.196v5.561h3.196v-5.561zM144.271 187.712h-3.196v5.561h3.196v-5.561zM144.377 205.051h-3.196v5.561h3.196v-5.561z" fill="#f7fbfd"/><path d="M204.575 215.034h14.249v16.436h-14.249v-16.436z" fill="#acc8ee"/><path d="M163.145 178.63h20.798V69.769h-20.798V178.63z" fill="#b7d3f0"/><path d="M281.157 154.011h31.637v4.192h-31.637v-4.192zM281.157 146.354h31.637v4.191h-31.637v-4.191zM281.157 138.697h31.637v4.192h-31.637v-4.192zM281.157 131.041h31.637v4.192h-31.637v-4.192zM281.157 123.385h31.637v4.192h-31.637v-4.192zM281.157 115.729h31.637v4.191h-31.637v-4.191zM281.157 108.071h31.637v4.192h-31.637v-4.192zM281.157 100.415h31.637v4.192h-31.637v-4.192zM281.157 92.759h31.637v4.192h-31.637v-4.192z" fill="#b9c9ea"/><path d="M235.377 126.351h1.963v95.532h-1.963v-95.532zM239.74 126.351h1.963v95.532h-1.963v-95.532zM244.104 126.351h1.963v95.532h-1.963v-95.532zM248.466 126.351h1.963v95.532h-1.963v-95.532z" fill="#acc8ee"/><path d="M348.522 69.769h12.952v65.465h-12.952V69.769zM439.245 96.951h16.337v11.12h-16.337v-11.12zM418.269 96.951h16.337v11.12h-16.337v-11.12z" fill="#b7d3f0"/></g><g><g clip-path="url(#h)" opacity=".60000598"><path d="M654.625 275.429h9.342v3.017h-9.342v-3.017z" fill="#d7e7f8"/><path d="M653.433 274.773h11.727v1.312h-11.727v-1.312z" fill="#d7e7f8"/><path d="M650.5 252.809h17.591v21.964H650.5v-21.964z" fill="#a5c3ea"/><path d="M658.2021 295.8931h2.187l-.786 15.741h-.616l-.785-15.741z" fill="#d7e7f8"/><path d="M658.302 294.975h.663v-15.873h-.663v15.873zm1.325 0h.662v-15.873h-.662v15.873zm-2.815-17.184h4.969v18.365h-4.969v-18.365z" fill="#d7e7f8"/><path d="M680.668 135.5713h26.884v83.853l-26.884-83.853z" fill="#c8dcf3"/><path d="M476.726 191.281h-.421v10.073h.421v-10.073zm-.841 0h-.421v10.073h.421v-10.073zm14.046-121.512v113.372h-8.255v5.393h-1.861v.832h-.756v1.499h-1.387v11.239h-.892l-.49 9.823h-.391l-.49-9.823h-.891v-11.239h-1.387v-1.499h-.757v-.832h-1.861v-5.393h-5.205l-13.245-17.498V69.769h37.868zM554.413 216.906h-1.032v21.861h1.032v-21.861zm-2.065 0h-1.032v21.861h1.032v-21.861zm28.213-147.137v117.362h-9.193v16.884h-2.714v12.891h-11.917v25.052h-2.189l-1.203 34.181h-.961l-1.203-34.181h-2.189v-25.052h-16.541V69.769h48.11z" fill="#a4c2eb"/><path d="M647.455 138.103h33.022V238.89h-33.022V138.103z" fill="#b7d3f0"/><path d="M673.2129 234.0186l7.265 4.871h-33.023l25.758-4.871z" fill="#e0ebf9"/><path d="M684.639 184.612h12.217v3.19h-12.217v-3.19z" fill="#d7e7f8"/><path d="M683.079 183.918h15.336v1.388h-15.336v-1.388zM679.245 180.312h23.004v3.606h-23.004v-3.606zM689.3174 206.251h2.859l-1.026 16.646h-.807l-1.026-16.646z" fill="#d7e7f8"/><path d="M689.447 205.28h.866v-16.784h-.866v16.784zm1.734 0h.866v-16.784h-.866v16.784zm-3.683-18.172h6.498v19.42h-6.498v-19.42zM587.031 260.183h8.178v3.742h-8.178v-3.742z" fill="#d7e7f8"/><path d="M585.987 259.37h10.267v1.626h-10.267v-1.626zM583.421 255.14h15.399v4.23h-15.399v-4.23zM590.1631 300.8335h1.914l-.687 19.523h-.54l-.687-19.523z" fill="#d7e7f8"/><path d="M590.25 284.424h.58v-19.686h-.58v19.686zm1.16 0h.58v-19.686h-.58v19.686zm-2.465-21.313h4.35v38.047h-4.35v-38.047z" fill="#d7e7f8"/><path d="M571.4 161.448h31.214v121.091H571.4V161.448z" fill="#e0ebf9"/><path d="M587.409 268.23h3.195v5.561h-3.195v-5.561zM580.561 268.23h3.196v5.561h-3.196v-5.561zM594.257 258.908h3.195v5.561h-3.195v-5.561z" fill="#f7fbfd"/><path d="M587.409 258.908h3.195v5.561h-3.195v-5.561zM580.561 258.908h3.196v5.561h-3.196v-5.561z" fill="#b9c9ea"/><path d="M587.409 249.586h3.195v5.561h-3.195v-5.561zM580.561 249.586h3.196v5.561h-3.196v-5.561zM573.713 249.586h3.196v5.561h-3.196v-5.561zM594.257 240.265h3.195v5.561h-3.195v-5.561zM587.409 230.942h3.195v5.561h-3.195v-5.561zM580.561 230.942h3.196v5.561h-3.196v-5.561zM573.713 230.942h3.196v5.561h-3.196v-5.561z" fill="#f7fbfd"/><path d="M562.7002 202.5586h26.884v36.446l-26.884-36.446z" fill="#c8dcf3"/><path d="M560.535 205.548h31.214V69.769h-31.214v135.779z" fill="#e0ebf9"/><path d="M585.886 250.614h31.215V69.769h-31.215v180.845z" fill="#e0ebf9"/><path d="M599.338 250.614h4.312V69.769h-4.312v180.845z" fill="#b9c9ea"/><path d="M580.713 255.935h36.388v-5.321h-36.388v5.321z" fill="#e0ebf9"/><path d="M481.811 295.004h-14.86v3.313h14.86v-3.313z" fill="#d7e7f8"/><path d="M483.708 294.284h-18.655v1.441h18.655v-1.441z" fill="#d7e7f8"/><path d="M488.371 270.16H460.39v24.124h27.981V270.16z" fill="#a5c3ea"/><path d="M476.1191 308.3315h-3.478l1.249 23.307h.981l1.248-23.307z" fill="#d7e7f8"/><path d="M475.961 299.039h-1.054v8.284h1.054v-8.284zm-2.107 0H472.8v8.284h1.054v-8.284zm-3.426-1.441h7.905v11.022h-7.905v-11.022zM724.574 237.41h-13.01v4.109h13.01v-4.109z" fill="#d7e7f8"/><path d="M726.234 236.517h-16.331v1.787h16.331v-1.787zM730.317 231.871H705.82v4.646h24.497v-4.646zM719.453 242.413h-.923v8.58h.923v-8.58zm-1.846 0h-.922v8.58h.922v-8.58zm-2.998-1.786h6.92v28.747h-6.92v-28.747z" fill="#d7e7f8"/><path d="M528.698 171.344h-49.654v132.999h49.654V171.344z" fill="#e0ebf9"/><path d="M503.232 288.626h-5.084v6.107h5.084v-6.107z" fill="#b9c9ea"/><path d="M514.125 288.626h-5.083v6.107h5.083v-6.107zM492.339 278.387h-5.083v6.107h5.083v-6.107z" fill="#f7fbfd"/><path d="M503.232 278.387h-5.084v6.107h5.084v-6.107z" fill="#b9c9ea"/><path d="M514.125 278.387h-5.083v6.107h5.083v-6.107zM503.232 268.149h-5.084v6.107h5.084v-6.107z" fill="#f7fbfd"/><path d="M514.125 268.149h-5.083v6.107h5.083v-6.107z" fill="#b9c9ea"/><path d="M525.019 268.149h-5.083v6.107h5.083v-6.107zM492.339 257.91h-5.083v6.107h5.083v-6.107zM503.232 247.672h-5.084v6.107h5.084v-6.107zM514.125 247.672h-5.083v6.107h5.083v-6.107zM525.019 247.672h-5.083v6.107h5.083v-6.107z" fill="#f7fbfd"/><path d="M542.5371 216.4961h-42.766v40.03l42.766-40.03z" fill="#c8dcf3"/><path d="M496.327 219.779h49.654V69.768h-49.654v150.011z" fill="#e0ebf9"/><path d="M456 269.277h49.654V69.768H456v199.509z" fill="#e0ebf9"/><path d="M474.892 269.277h6.858V69.768h-6.858v199.509z" fill="#b9c9ea"/><path d="M483.708 275.122H456v-5.844h27.708v5.844z" fill="#e0ebf9"/><path d="M530.592 203.077h-3.196v5.56h3.196v-5.56zM537.588 203.077h-3.195v5.56h3.195v-5.56z" fill="#f7fbfd"/><path d="M530.485 193.755h-3.195v5.561h3.195v-5.561zM523.744 184.433h-3.196v5.561h3.196v-5.561z" fill="#b9c9ea"/><path d="M537.439 184.433h-3.196v5.561h3.196v-5.561zM523.744 156.379h-3.196v5.56h3.196v-5.56zM537.439 156.379h-3.196v5.56h3.196v-5.56zM530.485 175.111h-3.195v5.561h3.195v-5.561zM530.485 148.45h-3.195v5.561h3.195v-5.561z" fill="#f7fbfd"/><path d="M530.592 165.789h-3.196v5.561h3.196v-5.561z" fill="#b9c9ea"/><path d="M753.613 209.359h-9.342v3.018h9.342v-3.018z" fill="#d7e7f8"/><path d="M754.806 208.703h-11.727v1.312h11.727v-1.312z" fill="#d7e7f8"/><path d="M757.738 186.739h-17.591v21.964h17.591v-21.964z" fill="#a5c3ea"/><path d="M750.0361 229.8232h-2.187l.786 15.741h.616l.785-15.741z" fill="#d7e7f8"/><path d="M749.937 213.032h-.663v15.873h.663v-15.873zm-1.326 0h-.662v15.873h.662v-15.873zm-2.153-1.311h4.969v18.365h-4.969v-18.365z" fill="#d7e7f8"/><path d="M485.307 170.481h1.964v95.532h-1.964v-95.532zM489.67 170.481h1.964v95.532h-1.964v-95.532zM494.033 170.481h1.963v95.532h-1.963v-95.532zM498.396 170.481h1.963v95.532h-1.963v-95.532z" fill="#acc8ee"/><path d="M617.1006 69.7686v214.793h9.986v-36.604h5.103v14.114h9.599v12.46h5.104v-12.46h24.382v-63.445h14.733v-13.539h13.858v-38.739h4.619v81.268l5.337 17.566 18.894-.576 3.666-5.906V69.7686h-115.281z" fill="#e0ebf9"/><path d="M777.8828 111.7998c-1.561 31.77-2.35 63.57-2.913 95.372-.297 16.813-.534 33.628-.788 50.443h-11.569v-29.999h-3.843v44.622h-.731v-44.622h-18.778l-6.879 11.084V69.7688h48.845c-1.423 13.971-2.653 27.956-3.344 42.031" fill="#b9c9ea"/><path d="M737.623 219.779h23.901V69.768h-23.901v150.011z" fill="#e0ebf9"/><path d="M637.049 172.617h3.104V69.768h-3.104v102.849zM643.947 172.617h3.104V69.768h-3.104v102.849zM650.846 172.617h3.104V69.768h-3.104v102.849zM657.743 172.617h3.104V69.768h-3.104v102.849z" fill="#c8dcf3"/><path d="M650.747 242.339h-3.195v5.561h3.195v-5.561zM657.743 242.339h-3.195v5.561h3.195v-5.561zM650.642 233.017h-3.196v5.561h3.196v-5.561zM643.899 223.695h-3.195v5.56h3.195v-5.56zM657.595 223.695H654.4v5.56h3.195v-5.56zM643.899 195.641h-3.195v5.56h3.195v-5.56zM657.595 195.641H654.4v5.56h3.195v-5.56zM650.642 214.373h-3.196v5.561h3.196v-5.561zM650.642 187.712h-3.196v5.561h3.196v-5.561zM650.747 205.051h-3.195v5.561h3.195v-5.561z" fill="#f7fbfd"/><path d="M710.945 215.034h14.248v16.436h-14.248v-16.436z" fill="#acc8ee"/><path d="M669.516 178.63h20.798V69.769h-20.798V178.63z" fill="#b7d3f0"/><path d="M449.797 193.89h12.599v3.971h-12.599v-3.971zM449.797 186.637h12.599v3.971h-12.599v-3.971zM449.797 179.384h12.599v3.972h-12.599v-3.972zM449.797 172.132h12.599v3.971h-12.599v-3.971zM449.797 164.879h12.599v3.971h-12.599v-3.971zM449.797 157.626h12.599v3.972h-12.599v-3.972zM449.797 150.373h12.599v3.972h-12.599v-3.972zM449.797 143.121h12.599v3.971h-12.599v-3.971zM449.797 135.868h12.599v3.971h-12.599v-3.971z" fill="#b9c9ea"/><path d="M741.748 126.351h1.963v95.532h-1.963v-95.532zM746.11 126.351h1.964v95.532h-1.964v-95.532z" fill="#acc8ee"/></g></g></g><g clip-path="url(#i)" transform="matrix(.26272 0 0 -.26272 -588.71388 19.3178)"><path d="M754.571 0H-4.572v83.503h759.143V0z" fill="#7b8589"/><path d="M762 89.487H-12v-7.876h774v7.876z" fill="#dde1e7"/></g></g><g><path fill="#f9f9f9" fill-opacity=".64130435" stroke="#f9f9f9" stroke-width="3.83201408" stroke-opacity=".70652173" d="M-586.70235-110.49936h388.37305V-4.68054h-388.37305z"/></g><g><path d="M-195.55769-2.10886h-393.29323724v-110.25117738H-195.55769V-2.10886z" opacity=".33999604" fill="#b3d3db"/></g><g><g clip-path="url(#j)" transform="matrix(.19644 0 0 -.19644 -51.22854 89.15911)"><path d="M466.9102 327.9111c.551-1.564 4.442-1.591 7.001 5.249 2.56 6.84 3.56 16.032 3.56 16.032s-4.72 8.488-8.861 7.648c-4.139-.84-7.438-14.537-7.438-14.537l5.738-14.392z" fill="#c1541b"/><path d="M463.4707 335.75c4.137-2.813 13.384-7.369 18.086-8.694 4.702-1.326 8.164-.636 6.664 4.904s-.75 8.843-5.75 15.191c-5 6.349-14.263 11.202-14.263 11.202s-4.903-7.55-5.82-11.202c-.917-3.651 1.083-11.401 1.083-11.401" fill="#f09e87"/><path d="M474.7012 355.7998s-.57-.72-1.381-2.04c-1.76-2.87-4.64-8.54-5.239-15.67-.841-9.97-1.141-10.18-1.17-10.18 0 0-8.851 2.5-13.74 6.27-2.981 2.29-11.75 4.6-11.75 4.6l1.969 29.36.47 7c4.691-1.81 18.601-11.03 23.721-14.53 5.12-3.5 7.12-4.81 7.12-4.81" fill="#ed661c"/><path d="M467.4609 390.5552c-1.24 2.82-1.865 3.917-2.24 8.994-.375 5.076-2.164 6.824-3.628 7.326-1.465.501-4.816 5.071-4.816 5.071s-.564-6.254.815-9.037c1.379-2.784 9.869-12.354 9.869-12.354" fill="#f5bda5"/><path d="M473.3203 353.7598c-1.76-2.87-4.64-8.54-5.239-15.67-.841-9.97-1.141-10.18-1.17-10.18 0 0-8.851 2.5-13.74 6.27-2.981 2.29-11.75 4.6-11.75 4.6l1.969 29.36c6-2.33 12.63-8.67 19.191-11.3 4.069-1.63 7.479-2.61 10.739-3.08" fill="#d15223"/><path d="M485.001 325.9502c-4.061.72-6.761 2.81-10.49 7.8-.18.23-.361.46-.531.7-4.019 5.5-2 13.92-7.5 29.33-4.58 12.82-8.379 21.12-10.669 26.64v.01c-.15.37-.29.73-.43 1.07l.38.4 6.889 7.22.411.43s.23-.49.64-1.32c.36-.74.86-1.77 1.449-2.97 1.491-3.04 3.551-7.23 5.451-11.01.679-1.36 14.94-26.54 20.629-47 3.75-13.5-1.979-12.05-6.229-11.3" fill="#f5bda5"/><path d="M474.5107 333.75c-.18.23-.36.46-.53.7-4.02 5.5-2 13.92-7.5 29.33-4.58 12.82-8.38 21.12-10.67 26.64v.01c-.02.5-.04.99-.05 1.47l6.89 7.22c.32-.25.66-.53 1-.84l.05-.05c1.52-1.38 1.65-1.94 1.45-2.97-.18-.91-.62-2.18-.62-4.7.01-5.41 5.86-17.06 6.86-24.83 1-7.76.66-21.06 2.52-28.73.43-1.79.62-2.8.6-3.25" fill="#f09e87"/><path d="M369.5439 196.1816c-2.892-7.941-14.156-15.062-24.388-26.318-10.231-11.258-15.948-27.083-25.786-38.874-9.837-11.791-20.812-24.833-20.812-24.833l8.083-14.81s27.961 30.61 49.253 52.338 29.157 33.016 32.627 37.16c3.469 4.145 10.945 19.137 10.945 19.137l-11.631 14.042-11.125 1.678s-6.312-17.174-7.166-19.52" fill="#f5bda5"/><path d="M298.3364 105.4111c-.156.344-.646 2.556 1.075 3.438 1.966 1.008 2.365.264 3.834-.6 1.468-.864-4.909-2.838-4.909-2.838" fill="#397799"/><path d="M307.9385 97.1318c-4.41.903-7.649-1.334-8.309-3.607-.661-2.274 6.548-11.331 6.548-11.331l4.287-.556-2.526 15.494z" fill="#9f4403"/><path d="M322.3774 65.6826c-.392-.12 2.13-2.889 2.13-2.889s-1.498-2.575-2.96-3.432c-5.056.073-13.69 6.675-20.944 14.612-10.11 11.062-14.932 22.23-14.932 22.23s2.806 2.948 4.688 4.629c1.883 1.681 4.136.442 4.136.442l27.882-35.592z" fill="#fff"/><path d="M324.5063 62.7969s-6.954 1.871-16.4 11.339c-6.408 6.431-13.032 15.003-17.163 25.21-.204.486-.395.988-.586 1.49 0 0 1.523 2.265 4.584 5.316 3.077 3.052 4.381 2.601 4.381 2.601.23-1.163.436-2.731.803-4.545.378-1.887.95-4.046 1.931-6.318 2.405-5.545 5.86-9.253 5.86-9.253s-2.214 5.904-2.206 8.084c-.001 2.185 1.446 6.222 8.963 2.301 3.56-1.864 3.284-4.25 3.285-9.587-.002-5.719.783-9.183 2.108-13.019 1.31-3.836 7.025-9.45 4.44-13.619" fill="#5eb6ed"/><path d="M324.5063 62.7969s-6.954 1.871-16.4 11.339c-6.408 6.431-13.032 15.003-17.163 25.21 3.785 1.927 5.902 3.711 9.182 4.862.378-1.887.95-4.046 1.931-6.318 2.405-5.545 5.86-9.253 5.86-9.253s-2.214 5.904-2.206 8.084c-.001 2.185 1.446 6.222 8.963 2.301 3.56-1.864 3.284-4.25 3.285-9.587-.002-5.719.783-9.183 2.108-13.019 1.31-3.836 7.025-9.45 4.44-13.619" fill="#38a1e0"/><path d="M429.3105 220.4502c-6.79-12.391-11.149-17.04-19.05-28.45-7.9-11.41-18.21-14.89-18.21-14.89s-11.84 4-18.07 6.659c-6.24 2.651-11.21 11.651-11.21 11.651s.51 1.639 4.49 6.07c3.98 4.43-.19 6.43 6.81 12.43s21.89 21.849 21.89 21.849l22 11.29 17.26 8.861c1.441-10.37-.11-4.44 1.441-10.37 1.549-5.93-2.431-16.15-7.351-25.1" fill="#774e1e"/><path d="M423.9111 240.8301c.479-.5-26.95-10.87-26.95-10.87-6.91-9.96-14.891-21.31-19.901-23.8-5.009-2.49-4.609-2.68-2.969-7.59 1.63-4.9 3.95-6.24 4.62-9.24.679-3-.79 1.189-5.72 4.76-4.94 3.58-4.21 2.76-4.411 0-.19-2.76-2.009-2.56 5.4-10.321-6.239 2.651-11.21 11.651-11.21 11.651s.511 1.639 4.491 6.07c3.98 4.43-.19 6.43 6.81 12.43 6.999 6 21.89 21.849 21.89 21.849l22 11.29c3.26-3.419 5.79-6.059 5.95-6.229" fill="#9d652e"/><path d="M363.1313 198.5723l-4.445-4.479s6.495-7.804 11.68-11.926c5.184-4.123 16.354-7.834 16.354-7.834l4.318 4.834s-7.651 3.072-14.318 7.286c-6.666 4.214-13.589 12.119-13.589 12.119" fill="#774e1e"/><path d="M452.7803 389.6567l10.877 5.016c.754.347 1.084 1.24.736 1.994l-10.823 23.472c-.348.754-1.49 1.609-3.647.615l-7.86-4.265c-.754-.348-1.083-1.241-.735-1.995l9.458-24.101c.348-.754 1.24-1.084 1.994-.736" fill="#8b8f99"/><path d="M452.4922 390.165l9.513 4.386c.754.348 1.083 1.241.735 1.995l-10.823 23.472c-.348.753-1.24 1.083-1.994.735l-9.513-4.386c-.754-.348-1.083-1.241-.735-1.994l10.823-23.473c.348-.754 1.24-1.083 1.994-.735" fill="#4e4b53"/><g clip-path="url(#k)"><path d="M448.7578 417.6914c.229-.496.815-.712 1.312-.484.495.229.711.816.483 1.311-.229.496-.816.712-1.312.484-.495-.228-.712-.816-.483-1.311" fill="#8ca7ba"/></g><g clip-path="url(#l)"><path d="M445.2568 415.1924l2.456 1.133c.402.185.579.662.393 1.065-.186.403-.662.579-1.066.393l-2.456-1.133c-.402-.185-.578-.662-.392-1.065.185-.402.663-.579 1.065-.393" fill="#8ca7ba"/></g><path d="M459.4541 384.7837s-.108 2.966 0 5.341-2.233 2.875-3.757 3.992c-1.523 1.118-1.851 2.133-1.605 4.883.247 2.75-1.371 4.875-2.707 3.455-1.336-1.42-.914-4.33-1.73-7.83-.815-3.5 1.691-4.625 3.043-5.75 1.353-1.125 3.398-1.375 5.277-3.549l1.479-.542z" fill="#f09e87"/><path d="M390.5615 353.4316s.259-2.726.565-7.161c17.655-1.053 35.328-1.877 52.936-3.567 1.326-.126 2.651-.26 3.976-.4.066.188.133.377.201.565l2.7 26.445s-7.061 6.52-9.346 9.392l3.714 18.843-20.796 14.398-8.073-26.619s-12.475-2.191-20.84-5.553c0 0-.524-19.608-5.037-26.343" fill="#f5bda5"/><path d="M450.9395 369.314s-6.23 5.085-9.484 8.651l3.852 19.584-20.796 14.397-1.943-6.409-.933-14.152 7.152-14.948s.741-.599.489-1.351c.141.623-7.707 7.373-12.483 11.412l-.355-1.171s-12.475-2.191-20.84-5.553c0 0-.328-12.218-2.687-20.678l55.742-11.945 2.286 22.163z" fill="#f09e87"/><path d="M424.2168 189.7861s.995-2.203 2.38-5.351c2.461-5.578 6.157-14.129 7.631-18.473 2.315-6.792 6.291-18.955 11.635-34.132 4.743-13.476 15.718-51.585 24.129-60.019 2.121-2.134 4.085-3.728 5.864-4.621.751-.371 1.387-.748 1.894-1.092 1.322-.883 1.89-1.559 1.89-1.559l-.888-.711-5.618-4.529s-14.37.076-14.692-.154c-.068-.031-.623.245-1.377.65-1.8.963-4.702 2.656-4.702 2.656s-1.337 6.481-4.936 15.574c-3.101 6.812.194 1.202-6.006 13.322-15.407 30.142-12.447 22.172-17.957 32.32-7.945 14.634-11.492 30.871-13.344 35.029-2.833 6.333-10.287 22.695-10.287 22.695l24.384 8.395z" fill="#f5bda5"/><path d="M465.8418 67.5293c-2.481-3.69-1.786-7.81-.067-9.533 1.718-1.723 12.356.626 12.356.626l2.132 3.744-14.421 5.163z" fill="#4a95af"/><path d="M502.3008 63.8379c-.05-.419 3.372.483 3.372.483s1.665-2.671 1.84-4.439c-2.06-4.58-10.242-7.749-20.06-10.357-13.681-3.633-29.455-3.105-29.455-3.105s-1.476 4.053-2.207 6.623c-.73 2.57 1.245 4 1.245 4l45.265 6.795z" fill="#fff"/><path d="M505.6709 64.3223s-4.509-4.248-16.531-8.083c-6.4-2.035-16.95-4.026-25.033-3.908-2.725.038-5.503.261-8.319.711 0 0-.411-.138-1.877 4.202-1.469 4.349-1.75 5.822-1.75 5.822 1.33-.397 3.157-.806 4.699-.498 1.832.366 3.813-.098 6.126-.335 5.808-.609 10.411.664 10.411.664s-6.039.972-7.945 2.081c-1.916 1.106-4.883 4.469 1.52 9.349 3.038 2.308 5.02.848 9.697-1.852 5.012-2.896 11.43-4.585 15.305-5.32 3.888-.741 11.063 1.637 13.697-2.833" fill="#9d652e"/><path d="M505.6709 64.3223s-3.788-4.025-15.812-7.86c-6.399-2.036-17.669-4.249-25.752-4.131-3.461 1.787-3.957 4.368-5.534 6.397-1.277 1.642-1.798 2.136-1.713 3.84 2.002.122 3.813-.098 6.126-.335 5.808-.609 10.411.664 10.411.664s-6.039.972-7.945 2.081c-1.916 1.106-4.883 4.469 1.52 9.349 3.038 2.308 5.02.848 9.697-1.852 5.012-2.896 11.43-4.585 15.305-5.32 3.888-.741 11.063 1.637 13.697-2.833" fill="#805224"/><path d="M429.541 178.5596s-2.311-3.779-14.65-7.42c-8.94-2.63-16.67-3.269-20.25-3.43-1.361-.059-2.121-.049-2.121-.049s-1.189 3.58-3.29 8.229c-2.089 4.65-6.49 16.17-9.83 20.841-3.33 4.67-1.62 3.8-2.339 9.43-.1.799-.281 1.71-.52 2.679-.49.561-.89 1.191-1.17 1.891-3.45 8.75-6.34 21.539-5.76 29.939.59 8.4-.35 2.521.93 6.88 0 0 1.83.191 4.76.481 2.15 2.329 4.2 3.659 4.46 4.249.62 1.441 22.75 3.26 22.969 2.341.111-.431 4.321-1.391 8.59-2.861 2.571.29 4.29.51 4.7.611-.169-.17-.339-.991-.509-2.27 2.979-1.4 5.17-3.11 4.71-5.11-.16-.71-.34-1.58-.531-2.54-1.239-6.401-2.809-17.29-2.859-19.38-.061-2.42.319-2.681 1.859-10.37 1.54-7.691 10.851-34.141 10.851-34.141" fill="#9d652e"/><path d="M429.541 178.5596s-2.311-3.779-14.65-7.42c-8.94-2.63-16.67-3.269-20.25-3.43-1.901 11.691 1.726 8.491.747 10.29-1.021 1.89-5.804 11.071-3.554 11.071 2.25 0 3.217-1.071 8.117-3.09.789-.32 1.199-.49 1.3-.53-.5.28-3.959 4.439-8.34 7.549-5.63 3.991-5.62 3.337-4.641 7.667.981 4.34-7.08 12.774-5.24 22.194 1.851 9.42 5.021 8.139 7.531 11.279l29.129 8.311c-1.239-6.401-2.809-17.29-2.859-19.38-.061-2.42.319-2.681 1.859-10.37 1.54-7.691 10.851-34.141 10.851-34.141" fill="#805224"/><path d="M416.0947 252.4155c-.026.006-.052-.02-.078-.046.086.021.118.037.078.046M378.8525 225.915c-.692-6.016 1.017-5.533 9.843-9.6 8.825-4.067 6.098-.312 11.186-6.059s4.372-5.099-.694 3.244c-5.065 8.343-8.582 7.137-11.625 10.275-3.042 3.14.529-2.035 0 4.337-.528 6.373-1.877 2.658-5.818 2.909-3.943.251-2.892-5.106-2.892-5.106" fill="#9d652e"/><path d="M380.0469 243.6826c.846-1.839-1.355-15.488-.021-24.699 1.608-11.08 6.875-18.444 9.403-26.992 4.63-15.656 7.528-23.448 7.528-23.448" fill="none" stroke="#60422e" stroke-miterlimit="10"/><path d="M391.834 168.4375s7.161 1.455 17.828 4.907 19.975 8.112 19.975 8.112l2.337-6.328s-8.612-4.398-17.698-7.51c-9.087-3.113-20.552-5.062-20.552-5.062l-1.89 5.881z" fill="#774e1e"/><path d="M456.4609 346.1201c-.391-11.33-11.86-34.19-11.73-46.69.14-12.49-6.28-59.57-6.28-59.57s2.46-1.52-14.99-6.17c-6.12-1.631-9.42-1.46-15.53-1.26-7.68.24-13.941.65-19.031 1.14 0 .01-.009 0-.009 0-21.28 2.07-22.38 5.69-22.38 5.69.92 7.7 6.54 28.74 8.6 56.41 1.499 20.15 7.06 53.35 6.22 56.18-1.79 6.01 5.71 24.59 5.71 24.59 3.069 2.4 15.63 6.12 21.739 8.34l3.691-.94s.4-1.06 1.25-2.65c.46-.85 1.05-1.85 1.79-2.91 3.08-4.5 8.72-10.19 17.679-10.86 12.821-.97 11.111 6.43 10.681 7.85-.06.15-.091.24-.091.24.191-.08.37-.15.561-.21.05-.01.099-.03.16-.06 3.96-1.55 7.72-5.26 9.01-6.65 3.91-4.2 3.429-8.56 2.95-22.47" fill="#85c8ba"/><path d="M456.4609 346.1201c-.391-11.33-11.86-34.19-11.73-46.69.14-12.49-6.28-59.57-6.28-59.57s2.46-1.52-14.99-6.17c-6.12-1.631-9.42-1.46-15.53-1.26-7.68.24-13.941.65-19.031 1.14 0 .01-.009 0-.009 0-6.651 5.36-9.37 11.26-10.94 14.72-2.09 4.61-4.23 17.04 1.63 38.04 5.87 21 4.47 24.67 4.029 32-.439 7.34-1.659 35.71 1.471 44.19 3.13 8.49 5.64 9.81 15.83 12.04 5.029 1.1 9.699 2.44 14.6 3.72 3.08-4.5 8.72-10.19 17.679-10.86 12.821-.97 11.111 6.43 10.681 7.85-.06.15-.091.24-.091.24.191-.08.37-.15.561-.21.05-.01.099-.03.16-.06 3.96-1.55 7.72-5.26 9.01-6.65 3.91-4.2 3.429-8.56 2.95-22.47" fill="#4a95af"/><path d="M459.3047 417.4419c-.254-1.002-.527-6.802-.709-10.317-.182-3.505-4.776-16.77-5.897-18.25-3.584-4.744-19.049-3.517-24.053 6.25-.477.933-5.732 10.721-7.124 16.273-.303 1.219-.525 2.735-.668 4.436-.106 1.262-.172 2.626-.2 4.045-.119 6.74.655 14.675 1.956 18.634.109.352.228.667.355.954 3.823 8.827 26.574 12.108 34.842 1.269 1.009-1.336 1.809-2.882 2.324-4.665.332-1.155.621-3.046.815-5.056.123-1.346.207-2.747.218-4.007.043-2.073-.102-3.759-.503-4.227-1.002-1.165-1.103-4.336-1.356-5.339" fill="#f5bda5"/><path d="M460.9453 431.0151c-2.691-.637-4.091 1.714-8.479.635-6.115-1.493-20.888-.156-22.454-2.42-2.382-3.424-2.11-7.097-2.11-7.097l.032-3.556.05-4.574-.571-1.033c-.91-1.643-3.391-1.109-3.55.76-.009.047-.007.103-.016.15-.03.364-.097.72-.174 1.068-.138.571-.352 1.117-.612 1.635-.61 1.253-1.502 2.372-2.408 3.295-1.802 1.837-3.692 2.939-3.692 2.939s-1.493 5.712.802 13.655c.071.26.15.51.229.751 1.381.411 2.853.793 4.617 1.29.109.352.229.667.356.954 3.823 8.827 26.574 12.108 34.841 1.269 1.009-1.336 1.809-2.882 2.325-4.665.332-1.155.621-3.046.814-5.056" fill="#864603"/><path d="M454.3672 447.3179c-5.664 2.735-13.539 9.142-27.115 5.411-13.577-3.732-24.723-23.681-24.849-29.934-.255-12.64 5.822-3.599 7.269-9.32 1.447-5.722 3.591-4.378 5.343-7.338 1.752-2.96 2.744-4.748 6.101-4.855 3.358-.107 2.59 1.071 2.63 3.913.04 2.843-.471 15.206.459 22.139.93 6.933 13.08 12.693 19.351 14.569 6.273 1.876 10.811 5.415 10.811 5.415" fill="#303644"/><path d="M421.7832 418.7891c3.364 3.475 4.292 12.458 10.881 16.829 6.588 4.37 17.154 5.712 22.152 3.562 4.998-2.151 6.129-8.165 6.129-8.165s.94 4.307-1.08 8.956c-2.019 4.65-4.9 9.795-9.73 8.553 0 0-14.437 3.06-20.981-3.476-6.545-6.535-12.019-12.741-12.717-19.418-.697-6.677 2.118-12.858 2.118-12.858l3.228 6.017z" fill="#232229"/><path d="M423.8486 413.8833s1.086 7.11-5.877 8.507c-6.962 1.397-6.724-10.154.302-14.632 4.067-2.591 5.47-3.738 5.47-3.738l.105 9.863z" fill="#f5bda5"/><path d="M451.626 421.6587s-2.551-1.156-1.462-5.759c.772-3.261 4.158-8.963 4.158-8.963s-1.633-.483-4.175-1.496c0 0-.829 3.179-1.427 6.566-.599 3.387-.45 8.402 2.906 9.652M438.1475 415.2852s1.22-.443 2.585.21c0 0-.934-2.628-2.585-.21M454.4072 415.2891s1.069-.338 2.161-.149c0 0-1.12-2.048-2.161.149" fill="#ca5f55"/><path d="M421.374 414.2944s-.079 3.85-3.568 4.934c-3.49 1.084-3.616-4.004-.783-6.873 2.832-2.869 3.366-2.55 3.366-2.55s-1.968 2.356-1.833 2.967c.112.511 2.818 1.522 2.818 1.522" fill="#c6706e"/><path d="M445.9775 423.186s1.93 1.047 1.279 2.406c0 0-6.102 2.948-12.468.342 0 0-.643-.504.646-.427 1.29.076 6.879.1 10.543-2.321M453.8994 423.7192s.089-.936.705-1.805c0 0 3.155 1.51 4.928 1.232 0 0-.015.607-.737.822-.707.209-2.537.812-4.896-.249" fill="#874823"/><path d="M440.084 405.3613s1.361-1.509 5.692-2.494c4.331-.984 8.316-.23 8.316-.23s-3.982-4.986-8.621-2.288c-3.071 1.786-5.387 5.012-5.387 5.012" fill="#913234"/><path d="M444.1689 396.8164s1.53-1.001 3.786-.935c2.255.067 2.658.817 2.658.817s-4.73 1.201-6.444.118" fill="#d57b72"/><path d="M443.6719 417.7358c-.186-.794-.98-1.288-1.775-1.102-.794.186-1.288.981-1.102 1.775.187.795.981 1.288 1.775 1.102.794-.186 1.288-.981 1.102-1.775M457.9365 417.2715c-.187-.794-.98-1.288-1.775-1.102-.794.186-1.288.981-1.102 1.775.187.795.981 1.288 1.775 1.102.794-.186 1.288-.981 1.102-1.775" fill="#4b291e"/><path d="M436.6895 418.9858s-8.847-.43-10.812-.282c-1.965.148-4.094.085-4.094.085l-1.183 1.008 15.739 2.636.35-3.447z" fill="#1a2234"/><path d="M442.7041 413.4995c1.51-.03 2.972.261 3.724.741 1.369.874 2.082 4.212 2.35 5.468.126.591.192.886.287 1.123.045.112.1.218.162.318l-12.067.239-.299-.924c.29-1.411 1.089-4.508 2.155-5.88.47-.606 1.987-1.051 3.688-1.085M455.7217 413.1191c-1.296.025-2.538.365-3.166.865-1.143.91-1.632 4.219-1.816 5.464-.086.586-.131.878-.205 1.114-.035.113-.078.22-.127.32l10.357-.205.223-.92c-.301-1.378-1.099-4.395-2.063-5.705-.427-.579-1.743-.962-3.203-.933" fill="#232229"/><path d="M448.8516 420.6064c-.091-.225-.152-.505-.272-1.067-.256-1.195-.933-4.369-2.236-5.201-.716-.456-2.105-.733-3.542-.705-1.618.032-3.059.457-3.508 1.033-1.013 1.304-1.773 4.25-2.049 5.592l.285.879 11.476-.227c-.059-.096-.11-.197-.154-.304m1.879 1.541l-14.311.284-.668-2.064s.793-4.281 2.261-6.169c1.467-1.887 6.698-2.011 8.858-.633 2.159 1.379 2.66 5.981 2.923 6.632.264.651 1.296.437 1.296.437l-.359 1.513zM459.4541 419.209l1.355-.208-.044 1.676-1.077.265-.234-1.733z" fill="#1a2234"/><path d="M458.7217 414.2148c-.416-.565-1.701-.939-3.126-.911-1.266.025-2.478.357-3.091.845-1.115.888-1.593 4.118-1.773 5.334-.084.572-.128.857-.2 1.087-.034.11-.076.214-.124.312l10.11-.2.218-.898c-.294-1.345-1.074-4.291-2.014-5.569m2.871 7.717l-13.024.259-.412-1.42s.949.097 1.155-.563c.206-.66.472-5.279 2.302-6.736 1.83-1.458 6.391-1.528 7.74.304 1.347 1.832 2.197 6.08 2.197 6.08l.042 2.076z" fill="#232229"/><g clip-path="url(#m)" opacity=".44000202"><path d="M444.4453 419.7935c-.954-.562-1.732-1.498-2.534-2.256-.914-.864-1.811-1.743-2.683-2.65-.128-.134.062-.331.2-.207.941.835 1.855 1.696 2.754 2.574.788.77 1.757 1.514 2.355 2.444.037.057-.033.13-.092.095" fill="#fcfeff"/></g><g clip-path="url(#n)" opacity=".44000202"><path d="M446.6592 419.7495c-.955-.562-1.733-1.498-2.535-2.256-.914-.864-1.811-1.743-2.683-2.65-.128-.134.062-.331.2-.207.941.835 1.855 1.696 2.754 2.575.788.77 1.757 1.513 2.355 2.443.037.057-.032.13-.091.095" fill="#fcfeff"/></g><g clip-path="url(#o)" opacity=".44000202"><path d="M457.958 419.5254c-.955-.562-1.733-1.498-2.535-2.255-.914-.865-1.811-1.744-2.682-2.651-.129-.134.061-.33.199-.207.942.835 1.855 1.696 2.754 2.575.789.77 1.757 1.513 2.355 2.443.037.057-.032.13-.091.095" fill="#fcfeff"/></g><g clip-path="url(#p)" opacity=".44000202"><path d="M460.1709 419.4819c-.955-.562-1.732-1.498-2.535-2.256-.914-.864-1.81-1.743-2.682-2.65-.129-.134.061-.331.199-.208.942.835 1.855 1.697 2.755 2.575.788.77 1.756 1.513 2.355 2.444.036.057-.033.129-.092.095" fill="#fcfeff"/></g><path d="M374.2378 349.125c-9.456-15.209-13.767-21.214-19.388-33.144-6.067-12.877-5.266-35.172-2.899-51.064 2.367-15.893 2.919-29.177 2.919-29.177l13.42-.731c-.74-2.013-2.135 20.911-.789 34.741 1.917 19.7 1.47 31.163 2.865 33.75 2.258 4.186 22.38 31.656 26.591 40.788 4.21 9.131 1.169 25.742 1.169 25.742s-22.202-18.194-23.888-20.905" fill="#f5bda5"/><path d="M405.3711 361.3999s0-8.4-6.12-19.51c-3.63-6.57-15.88-26.6-15.88-26.6s-3.681 2.6-9.53 6.13c-2.52 1.51-5.091 4.15-7.2 6.67-2.8 3.34-4.791 6.45-4.791 6.45s2.681 8.05 12.741 22.69c10.059 14.64 10.099 18.3 15.729 19.73 7.45 1.89 11.21-1.96 13.111-6.31 1.919-4.38 1.94-9.25 1.94-9.25" fill="#ed661c"/><path d="M333.7495 44.0029c-.318-4.727 3.145-8.809 7.735-9.116 4.59-.309 8.569 3.272 8.888 7.999.318 4.726-3.145 8.808-7.735 9.117-4.591.309-8.57-3.273-8.888-8" fill="#454e5b"/><path d="M334.8716 43.9277c-.224-3.32 1.635-6.149 4.151-6.318 2.516-.169 4.738 2.385 4.961 5.706.224 3.32-1.634 6.149-4.151 6.318-2.516.169-4.737-2.386-4.961-5.706" fill="#282f39"/><path d="M335.7432 43.8691c-.151-2.234.911-4.126 2.371-4.224 1.46-.098 2.766 1.634 2.916 3.869.151 2.235-.911 4.126-2.371 4.224-1.46.098-2.766-1.635-2.916-3.869" fill="#121821"/><path d="M260.8867 53.9863c-.699 4.285 2.101 26.347 6.687 46.606 4.604 20.337 6.869 35.6 12.841 48.086 5.973 12.487 20.09 17.899 29.596 19.244 9.506 1.344 29.647 1.093 34.911-3.174 5.264-4.268-.041-79.286-2.519-93.653-2.479-14.367-21.207-28.064-33.62-30.446-12.413-2.383-31.958 1.316-36.193 2.068-4.234.754-11.123 7.718-11.703 11.269" fill="#ed6146"/><path d="M286.3613 113.4941l-.128-.137c-.272-.236-.629-.254-.86-.043-.276.251-.283.745-.016 1.095.267.35.713.431.988.18.276-.251.283-.745.016-1.095m-3.645-.889c-.655-.859-.638-2.055.038-2.672l.046-.042c.677-.616 1.757-.419 2.413.44.322.423.48.927.479 1.403l1.569 2.057c.24.314.233.751-.014.976l-.903.823c-.247.225-.642.153-.881-.16l-1.57-2.058c-.429-.084-.854-.344-1.177-.767" fill="#fffffc"/><path d="M286.4668 117.251s5.984 28.528 12.235 37.494c6.247 8.96 16.846 13.651 30.628 13.162" fill="none" stroke="#fffffc" stroke-width=".5" stroke-miterlimit="10"/><path d="M360.7319 161.1865c5.026-4.707 6.94-15.419 4.107-37.181-1.758-13.507-8.1-48.298-11.927-66.925-3.826-18.628-10.271-18.4-15.882-19.299-5.61-.899-36.222 1.477-45.115 3.21-8.475 1.651-7.479 15.561-5.861 27.588 2.455 18.254 9.117 42.607 11.71 56.972 6.818 37.774 12.455 37.409 18.591 41.418 6.135 4.009 38.633-.404 44.377-5.783" fill="#cc4339"/><g clip-path="url(#q)" opacity=".33999604"><path d="M330.8115 52.8779c-9.054.22-23.111 1.394-31.196 2.403-.009 2.229.205 5.78.962 11.41 1.405 10.446 4.418 23.615 7.075 35.234 1.775 7.761 3.451 15.091 4.524 21.031 4.409 24.429 7.708 28.434 8.07 28.811.16.132.865.548 1.379.849.274.161.548.324.823.488.783.09 2.282.2 4.73.141 8.901-.216 19.284-2.269 23.516-3.818.597-2.081 1.608-8.27-.388-23.599-1.658-12.728-7.837-46.807-11.735-65.778-.775-3.773-1.531-5.875-2.013-6.954-.111-.016-1.01-.148-1.35-.201-.288-.021-1.475-.087-4.397-.017" fill="#c99a76"/></g><path d="M286.1709 114.3652c.43-.021.85.363.933.854l.377 2.232c.082.491-.202.91-.632.932-.429.02-.849-.364-.932-.855l-.377-2.231c-.083-.492.201-.911.631-.932" fill="#fffffc"/><path d="M268.5073 44.0029c-.318-4.727 3.145-8.809 7.735-9.116 4.59-.309 8.57 3.272 8.888 7.999.318 4.726-3.145 8.808-7.735 9.117-4.59.309-8.57-3.273-8.888-8" fill="#454e5b"/><path d="M269.6294 43.9277c-.224-3.32 1.635-6.149 4.151-6.318 2.517-.169 4.738 2.385 4.962 5.706.223 3.32-1.635 6.149-4.152 6.318-2.516.169-4.737-2.386-4.961-5.706" fill="#282f39"/><path d="M270.501 43.8691c-.15-2.234.911-4.126 2.371-4.224 1.46-.098 2.766 1.634 2.917 3.869.15 2.235-.912 4.126-2.371 4.224-1.461.098-2.767-1.635-2.917-3.869" fill="#121821"/><path d="M374.0698 225.3271c.168-2.034-.937-6.837-1.771-10.083-.458-1.783-2.223-3.088-3.915-2.902-1.75.191-2.712 1.892-2.1 3.716.974 2.899 2.142 6.796 1.816 7.944-.54 1.895-4.968 3.195-4.968 3.195s4.339-.682 6.871-.778c2.531-.096 4.067-1.092 4.067-1.092" fill="#494646"/><path d="M374.0698 225.3271c-2.711.879-18.442 2.673-21.292 1.763-1.919-.614-3.371-5.245-4.114-8.206-.368-1.465-1.629-2.663-3.075-2.911l-.953-.163c-2.04-.348-3.535 1.303-3.039 3.371.946 3.947 2.486 9.488 3.861 10.417 2.172 1.47 25.903-2.034 27.53-2.29 1.627-.255 1.082-1.981 1.082-1.981" fill="#646663"/><path d="M332.6328 68.1846c1.042-.079 2.101.734 2.364 1.815l35.31 144.744c.263 1.081-.37 2.021-1.412 2.099-1.043.079-2.102-.733-2.365-1.815l-35.31-144.742c-.262-1.082.37-2.022 1.413-2.101" fill="#494646"/><g><path d="M309.272 71.4893c1.043-.079 2.101.734 2.364 1.815l35.36 148.102c.262 1.082-.37 2.022-1.413 2.101-1.043.079-2.101-.735-2.364-1.816l-35.36-148.101c-.262-1.082.37-2.023 1.413-2.101" fill="#494646"/></g><g><path d="M311.688 57.3223l-10.218 1.157c-1.512.172-2.533 1.671-2.19 3.218l4.829 21.734c.295 1.327 1.502 2.221 2.8 2.074l10.218-1.158c1.512-.171 2.533-1.671 2.189-3.217l-4.828-21.735c-.295-1.327-1.502-2.22-2.8-2.073" fill="#494646"/></g><g><path d="M334.3657 55.6514l-10.218 1.158c-1.512.171-2.533 1.671-2.189 3.217l4.828 21.734c.295 1.328 1.502 2.222 2.8 2.075l10.218-1.159c1.512-.171 2.533-1.671 2.189-3.216l-4.828-21.735c-.295-1.327-1.502-2.221-2.8-2.074" fill="#494646"/></g><g><path d="M326.8975 119.6143l-10.218 1.158c-1.512.171-2.533 1.671-2.19 3.217l4.829 21.734c.295 1.328 1.502 2.221 2.8 2.075l10.217-1.159c1.513-.171 2.534-1.671 2.19-3.217l-4.828-21.735c-.295-1.326-1.502-2.22-2.8-2.073" fill="#494646"/></g><g><path d="M349.439 117.9443l-10.218 1.157c-1.512.172-2.533 1.671-2.189 3.218l4.828 21.734c.295 1.328 1.502 2.221 2.8 2.074l10.218-1.158c1.513-.171 2.533-1.671 2.189-3.217l-4.828-21.735c-.295-1.327-1.502-2.22-2.8-2.073" fill="#494646"/></g><g><path d="M359.4448 248.5791c-1.949-2.657-5.23-1.152-4.931-2.987.3-1.835.491-10.53-.293-11.592-.784-1.063-1.666-6.984-2.667-7.833-1.001-.85-1.311-4.316.283-5.733 1.594-1.417 2.253-1.217 2.854-1.217s.335-.664 1.796-1.064c1.462-.398 1.838.4 2.613 0 .775-.398 1.174-.863 2.436-.73s1.395.465 2.857 0c1.461-.465 3.185 1.463 3.472 4.053.288 2.591.314 4.516.646 7.838s-.228 5.181-.944 11.094c-.717 5.912-1.049 7.839-1.049 7.839l-7.073.332z" fill="#f5bda5"/></g><g><path d="M405.3711 361.3999s0-8.4-6.12-19.51c-3.63-6.57-15.88-26.6-15.88-26.6s-3.681 2.6-9.53 6.13c-2.52 1.51-5.091 4.15-7.2 6.67 1.35 3.35 5.23 8.37 11.31 17.79 7.239 11.21 3.77 18.12 14.96 24.15 4.96 2.67 7.909 1.97 10.52.62 1.919-4.38 1.94-9.25 1.94-9.25" fill="#d15223"/></g></g></g></svg>