<svg xmlns="http://www.w3.org/2000/svg" width="454.59778" height="152.15977"><defs><clipPath id="C"><path d="M0 500h500V0H0v500z"/></clipPath><clipPath id="D"><path d="M33.5806 353.904H231.131V219.689H33.5806v134.215z"/></clipPath><clipPath id="E"><path d="M231.131 219.689H33.58v134.215h197.551V219.689z"/></clipPath><clipPath id="a"><path d="M-32768 32767h65535v-65535h-65535v65535z"/></clipPath><linearGradient x2="1" gradientUnits="userSpaceOnUse" gradientTransform="matrix(0 -132.32115 -132.32115 0 132.35596 351.05469)" id="b"><stop offset="0" stop-opacity=".29999237" stop-color="#fff"/><stop offset=".882989" stop-opacity=".29999237" stop-color="#fff"/><stop offset="1" stop-opacity="0" stop-color="#fff"/></linearGradient><mask maskUnits="userSpaceOnUse" x="0" y="0" width="1" height="1" id="F"><g clip-path="url(#a)"><path d="M-32768 32767h65535v-65535h-65535v65535z" fill="url(#b)"/></g></mask><linearGradient x2="1" gradientUnits="userSpaceOnUse" gradientTransform="matrix(0 -132.32115 -132.32115 0 132.35596 351.05469)" id="G"><stop offset="0" stop-color="#3991c9"/><stop offset=".882989" stop-color="#3991c9"/><stop offset="1" stop-color="#2483c5"/></linearGradient><clipPath id="H"><path d="M0 500h500V0H0v500z"/></clipPath><clipPath id="I"><path d="M38.5103 328.553H140.1V254.25H38.5103v74.303z"/></clipPath><clipPath id="J"><path d="M147.259 313.856h60.352v-44.327h-60.352v44.327z"/></clipPath><clipPath id="K"><path d="M317.454 305.625h165.179v-28.063H317.454v28.063z"/></clipPath><clipPath id="L"><path d="M482.633 305.625l-.055-28.063H317.454l.113 28.063h165.066z"/></clipPath><clipPath id="c"><path d="M-32768 32767h65535v-65535h-65535v65535z"/></clipPath><linearGradient x2="1" gradientUnits="userSpaceOnUse" gradientTransform="matrix(-1.07658 -41.2696 -41.2696 1.07658 400.62012 312.55127)" id="d"><stop offset="0" stop-opacity=".29999237" stop-color="#fff"/><stop offset=".697365" stop-opacity="0" stop-color="#fff"/><stop offset="1" stop-opacity="0" stop-color="#fff"/></linearGradient><mask maskUnits="userSpaceOnUse" x="0" y="0" width="1" height="1" id="M"><g clip-path="url(#c)"><path d="M-32768 32767h65535v-65535h-65535v65535z" fill="url(#d)"/></g></mask><linearGradient x2="1" gradientUnits="userSpaceOnUse" gradientTransform="matrix(-1.07658 -41.2696 -41.2696 1.07658 400.62012 312.55127)" id="N"><stop offset="0" stop-color="#3991c9"/><stop offset=".697365" stop-color="#2483c5"/><stop offset="1" stop-color="#2483c5"/></linearGradient><clipPath id="O"><path d="M431.989 305.625h34.342v-5.744h-34.342v5.744z"/></clipPath><clipPath id="P"><path d="M335.729 305.625h34.341v-5.744h-34.341v5.744z"/></clipPath><clipPath id="e"><path d="M143.62 442.227h211.077V218.226H143.62v224.001z"/></clipPath><clipPath id="f"><path d="M143.62 442.227h211.077V218.226H143.62v224.001z"/></clipPath><clipPath id="g"><path d="M429.084 312.923l-358.499-.163 148.173 128.974 61.996.029 148.33-128.84z"/></clipPath><linearGradient x2="1" gradientUnits="userSpaceOnUse" gradientTransform="matrix(0 -125.87641 -125.87641 0 249.83447 444.49121)" id="h"><stop offset="0" stop-color="#fff"/><stop offset=".885278"/><stop offset="1"/></linearGradient><clipPath id="i"><path d="M303.885 433.227h222.077V209.226H303.885v224.001z"/></clipPath><clipPath id="j"><path d="M303.885 433.227h222.077V209.226H303.885v224.001z"/></clipPath><clipPath id="k"><path d="M599.349 303.923l-358.499-.163 148.172 128.974 61.997.029 148.33-128.84z"/></clipPath><linearGradient x2="1" gradientUnits="userSpaceOnUse" gradientTransform="matrix(0 -125.87641 -125.87641 0 420.09961 435.49121)" id="l"><stop offset="0" stop-color="#fff"/><stop offset=".885278"/><stop offset="1"/></linearGradient><clipPath id="m"><path d="M-26.6904 433.227H195.387V209.226H-26.6904v224.001z"/></clipPath><clipPath id="n"><path d="M-26.6904 433.227H195.387V209.226H-26.6904v224.001z"/></clipPath><clipPath id="o"><path d="M268.773 303.923l-358.498-.163L58.447 432.734l61.996.029 148.33-128.84z"/></clipPath><linearGradient x2="1" gradientUnits="userSpaceOnUse" gradientTransform="matrix(0 -125.87641 -125.87641 0 89.523926 435.49121)" id="p"><stop offset="0" stop-color="#fff"/><stop offset=".885278"/><stop offset="1"/></linearGradient><clipPath id="q"><path d="M-32768 32767h65535v-65535h-65535v65535z"/></clipPath><linearGradient x2="1" gradientUnits="userSpaceOnUse" gradientTransform="matrix(12.1709 0 0 -12.1709 293.69043 257.37158)" id="r"><stop offset="0" stop-color="#fff"/><stop offset="1" stop-opacity="0" stop-color="#fff"/></linearGradient><clipPath id="s"><path d="M-32768 32767h65535v-65535h-65535v65535z"/></clipPath><linearGradient x2="1" gradientUnits="userSpaceOnUse" gradientTransform="matrix(12.80664 0 0 -12.80664 281.13477 257.40527)" id="t"><stop offset="0" stop-color="#fff"/><stop offset="1" stop-opacity="0" stop-color="#fff"/></linearGradient><clipPath id="u"><path d="M-32768 32767h65535v-65535h-65535v65535z"/></clipPath><linearGradient x2="1" gradientUnits="userSpaceOnUse" gradientTransform="matrix(6.5916 -32.95811 -32.95811 -6.5916 298.58398 218.83398)" id="v"><stop offset="0" stop-color="#fff"/><stop offset="1" stop-opacity="0" stop-color="#fff"/></linearGradient><clipPath id="w"><path d="M-32768 32767h65535v-65535h-65535v65535z"/></clipPath><linearGradient x2="1" gradientUnits="userSpaceOnUse" gradientTransform="matrix(-6.87595 10.25568 10.25568 6.87595 303.51758 218.81348)" id="x"><stop offset="0" stop-color="#fff"/><stop offset="1" stop-opacity="0" stop-color="#fff"/></linearGradient><clipPath id="y"><path d="M-32768 32767h65535v-65535h-65535v65535z"/></clipPath><linearGradient x2="1" gradientUnits="userSpaceOnUse" gradientTransform="matrix(7.86816 0 0 -7.86816 314.7373 151.29199)" id="z"><stop offset="0" stop-color="#fff"/><stop offset="1" stop-opacity="0" stop-color="#fff"/></linearGradient><clipPath id="A"><path d="M-32768 32767h65535v-65535h-65535v65535z"/></clipPath><linearGradient x2="1" gradientUnits="userSpaceOnUse" gradientTransform="matrix(8.47656 0 0 -8.47656 156.02148 151.29199)" id="B"><stop offset="0" stop-color="#fff"/><stop offset="1" stop-opacity="0" stop-color="#fff"/></linearGradient><clipPath id="Q"><path d="M0 800h800V0H0v800z"/></clipPath></defs><path d="M.0000025 152.15977375H454.489065V-.0731525H.0000025v152.23292625z" fill="#cfeaf7"/><path d="M.0000025 152.15977375h454.597775V123.60892H.0000025v28.55085375z" fill="#6ab8d3"/><g clip-path="url(#C)" transform="matrix(.31762 0 0 -.31762 17.01789 135.24343875)"><g clip-path="url(#D)"><g clip-path="url(#E)"><g mask="url(#F)"><path d="M231.131 219.689H33.58v134.215h197.551V219.689z" fill="url(#G)"/></g></g></g></g><path d="M90.430415 63.0022975h-62.74675V21.94856h62.74675v41.0537375z" fill="#efefef"/><path d="M91.2937275 22.73946h-64.47305v-1.5824h64.47305v1.5824z" fill="#363034"/><g clip-path="url(#H)" transform="matrix(1.17754 0 0 -1.17754 -117.08421 228.89731862)"><g clip-path="url(#I)" opacity=".80000299" transform="matrix(.26973 0 0 .26973 113.88327 79.533507)"><path d="M56.692 257.156H43.366v41.796h13.326v-41.796z" fill="#032766"/><path d="M75.543 257.156H62.218v38.55h13.325v-38.55z" fill="#f4bb06"/><path d="M94.396 257.156H81.072v52.346h13.324v-52.346z" fill="#94c735"/><path d="M113.249 257.156H99.923v56.405h13.326v-56.405z" fill="#ed6225"/><path d="M132.1 257.156h-13.323v60.462H132.1v-60.462z" fill="#0baf9f"/><path d="M140.1 254.25H38.51v.968H140.1v-.968z" fill="#231f20"/><path d="M139.129 254.25h-.969v69.662h.969V254.25z" fill="#231f20"/><path d="M45.5596 306.2764l17.993-4.975 14.23 16.538 19.019-3.19 15.726 9.85 15.161 2.802" fill="none" stroke="#231f20" stroke-width=".38299999" stroke-miterlimit="10"/><path d="M46.812 306.2769c0-.693-.561-1.252-1.251-1.252-.692 0-1.253.559-1.253 1.252 0 .691.561 1.251 1.253 1.251.69 0 1.251-.56 1.251-1.251M113.96 324.7983c0-.691-.561-1.252-1.251-1.252-.693 0-1.253.561-1.253 1.252s.56 1.251 1.253 1.251c.69 0 1.251-.56 1.251-1.251M128.9414 327.3008c0-.691-.56-1.251-1.253-1.251-.69 0-1.251.56-1.251 1.251 0 .692.561 1.252 1.251 1.252.693 0 1.253-.56 1.253-1.252M98.0527 314.6499c0-.692-.558-1.252-1.25-1.252s-1.252.56-1.252 1.252c0 .691.56 1.251 1.252 1.251s1.25-.56 1.25-1.251M78.9648 317.478c0-.691-.56-1.252-1.251-1.252-.692 0-1.252.561-1.252 1.252s.56 1.251 1.252 1.251c.691 0 1.251-.56 1.251-1.251M64.5239 301.3018c0-.691-.561-1.252-1.253-1.252-.691 0-1.251.561-1.251 1.252s.56 1.251 1.251 1.251c.692 0 1.253-.56 1.253-1.251" fill="#231f20"/></g><g clip-path="url(#J)" opacity=".80000299" transform="matrix(.26973 0 0 .26973 113.88327 79.533507)"><path d="M179.687 300.5259L165 291.3619l14.687-9.163c1.642 2.666 2.588 5.804 2.588 9.164 0 3.358-.946 6.496-2.588 9.163" fill="#032766"/><path d="M179.687 300.5259c-1.915 3.112-4.777 5.578-8.185 7L165 291.3619l14.687 9.164z" fill="#ed6225"/><path d="M171.502 307.5259c-2.074.865-4.347 1.345-6.735 1.345-3.159 0-6.119-.84-8.677-2.304l8.911-15.205 6.501 16.164z" fill="#f4bb06"/><path d="M165.0005 291.3623l-17.32-3.813c1.741-7.836 8.727-13.696 17.087-13.696 6.31 0 11.837 3.34 14.92 8.346l-14.687 9.163z" fill="#fff"/><path d="M156.0898 306.5669c-5.274-3.017-8.831-8.692-8.831-15.204 0-1.311.147-2.585.421-3.813l17.321 3.812-8.911 15.205z" fill="#0baf9f"/><path d="M175.312 305.2187l2.587 5.595H191.5" fill="none" stroke="#3c2415" stroke-width=".184" stroke-miterlimit="10"/><path d="M175.3496 291.3623h19.577" fill="none" stroke="#3c2415" stroke-width=".20100001" stroke-miterlimit="10"/><path d="M175.3496 276.6211l3.262-3.95h13.602" fill="none" stroke="#3c2415" stroke-width=".184" stroke-miterlimit="10"/><text transform="matrix(1 0 0 -1 193.3389 309.165)" style="-inkscape-font-specification:Aller" font-weight="400" font-size="5.42250013" font-family="Aller" fill="#231f20"><tspan x="0 3.2535 6.507" y="0">10%</tspan><tspan x="2.0713949 5.3248949 8.5783949" y="19.287832">20%</tspan><tspan x="0 3.2535 6.507" y="38.288273">40%</tspan></text></g><path d="M463.05269 174.96532c0-.27673934.22671563-.50316244.5037475-.50316244h2.8592498c.27673934 0 .50345498.2264231.50345498.50316244v12.27102018c0 .27673934-.22671564.50316243-.50345498.50316243h-2.8592498c-.27703187 0-.5037475-.2264231-.5037475-.50316243V174.96532z" fill="#febb46"/><path d="M463.60035 186.21597v-6.36500482h2.77236652V186.21597l-1.38632953.7655675-1.38603699-.7655675zM464.98647 178.78403c-.45723424 0-.82729266-.3706435-.82729266-.8275852 0-.45635662.37005842-.82670758.82729266-.82670758.45635663 0 .82729266.37035096.82729266.82670759 0 .4569417-.37093603.82758519-.82729266.82758519" fill="#fff"/><path d="M464.98647 178.62419c-.36888827 0-.66756784-.29867956-.66756784-.66756784 0-.36859573.29867957-.66756783.66756784-.66756783.3683032 0 .66698276.2989721.66698276.66756783 0 .36888828-.29867956.66756784-.66698276.66756784"/><path d="M470.06844 174.85006c0-.21325896.1749367-.38790313.38819567-.38790313h2.20426102c.2135515 0 .38819567.17464417.38819567.38790313v9.45974633c0 .21325897-.17464417.38790314-.38819567.38790314h-2.20426102c-.21325896 0-.38819567-.17464417-.38819567-.38790314V174.85006z" fill="#f07b74"/><path d="M470.49066 183.52314v-4.90671136h2.1372702V183.52314l-1.0686351.59033825-1.0686351-.59033825zM471.55938 177.79386c-.35279878 0-.63802167-.28580797-.63802167-.63772913 0-.35192117.2852229-.6374366.63802167-.6374366.35162863 0 .6374366.28551543.6374366.6374366 0 .35192116-.28580797.63772913-.6374366.63772913" fill="#fff"/><path d="M471.55938 177.67058c-.28463782 0-.51515642-.23022607-.51515642-.51457135 0-.28434529.2305186-.51486389.51515642-.51486389.28346767 0 .51427882.2305186.51427882.51486389 0 .28434528-.23081115.51457135-.51427882.51457135"/><path d="M466.91908 174.85006c0-.21325896.1749367-.38790313.38819567-.38790313h2.20426102c.2135515 0 .38790313.17464417.38790313.38790313v9.45974633c0 .21325897-.17435163.38790314-.38790313.38790314h-2.20426102c-.21325896 0-.38819567-.17464417-.38819567-.38790314V174.85006z" fill="#1b526d"/><path d="M467.34104 183.52314v-4.90671136h2.1372702V183.52314l-1.0686351.59033825-1.0686351-.59033825zM468.40976 177.79386c-.35250624 0-.63772913-.28580797-.63772913-.63772913 0-.35192117.28522289-.6374366.63772913-.6374366.35192117 0 .63772913.28551543.63772913.6374366 0 .35192116-.28580796.63772913-.63772913.63772913" fill="#fff"/><path d="M468.40976 177.67058c-.28463782 0-.51486389-.23022607-.51486389-.51457135 0-.28434529.23022607-.51486389.51486389-.51486389.28376021 0 .51427882.2305186.51427882.51486389 0 .28434528-.2305186.51457135-.51427882.51457135"/><g clip-path="url(#K)" transform="matrix(.29254 0 0 .29254 336.26907 82.875382)"><g clip-path="url(#L)"><g mask="url(#M)"><path d="M482.633 305.625l-.055-28.063H317.454l.113 28.063h165.066z" fill="url(#N)"/></g></g></g><path d="M462.64152 168.62919h10.04629v3.65261h-10.04629v-3.65261zM434.48198 168.62919h10.04629v3.65261h-10.04629v-3.65261z" fill="#c07848"/><g clip-path="url(#O)" opacity=".19999701" transform="matrix(.29254 0 0 .29254 336.26907 82.875382)"><path d="M431.989 299.881h34.342v5.744h-34.342v-5.744z" fill="#e1b897"/></g><g clip-path="url(#P)" opacity=".19999701" transform="matrix(.29254 0 0 .29254 336.26907 82.875382)"><path d="M335.729 299.881h34.342v5.744h-34.342v-5.744z" fill="#e1b897"/></g><path d="M429.00248 172.2818h48.45426v2.23292h-48.45426v-2.23292z" fill="#dd9763"/><path d="M459.94678 175.11589c0-.35952711.29429152-.65381863.65411117-.65381863h1.48345157c.35952712 0 .6535261.29429152.6535261.65381863v9.80347649c0 .35981964-.29399898.6544037-.6535261.6544037h-1.48345157c-.35981965 0-.65411117-.29458406-.65411117-.6544037V175.11589z" fill="#0baf9f"/><path d="M455.64275 175.42755c-.09653698-.34636298.10736082-.70852292.45401634-.80564497l.48502518-.13573684c.34665552-.09682952.709108.10736082.80623005.45343126l2.38826635 8.53737938c.09682951.34607044-.10677575.70881546-.45343127.80564497l-.48561025.13573684c-.34636298.09653698-.70881546-.10736082-.80535244-.4537238L455.64275 175.42755z" fill="#f1595b"/><path d="M446.7925 180.06793h-1.28395v5.84664h1.28395v-5.84664z" fill="#634a25"/><path d="M446.15068 180.06793h.64152v5.84664h-.64152v-5.84664z" fill="#4c3713"/><path d="M448.85269 174.61867h-5.2954921l-.93904153 5.67286393h7.10687688L448.85269 174.61867z" fill="#634d26"/><path d="M448.96239 180.29156c.20243512-3.37703905-1.98515133-4.56883193-5.38266792-4.67473007l.12666822-.99813386h5.29607717l.87234325 5.67286393H448.96239z" fill="#563f1a"/><path d="M450.14996 180.70564c-.06728335.26708564-1.14001396-.03598196-1.9889543-.0813251-.84923288-.04475805-1.99012445-.04622073-1.99012445-.04622073s-1.13825875.00146268-1.9880767.04622074c-.8486478.04534313-1.92225602.34841073-1.9889543.08132509l.42417763-1.966429s-.04475805-.33407646.96098175-.42359257c1.00515473-.08980865 2.59187162-.11087126 2.59187162-.11087126s1.58700942.02106261 2.59304176.11087126c1.00544726.0895161.96127428.42359256.96127428.42359256L450.14996 180.70564z" fill="#8e7042"/><path d="M450.07367 180.77064c-1.07653358-1.94595147-3.61721135-2.55179414-5.93263616-2.4950421.94518478-.05616697 2.02990938-.07079379 2.02990938-.07079379s1.58700943.02106262 2.59274923.11087126c1.0057398.0895161.96156682.42359256.96156682.42359256l.4247627 1.96642901c-.00994623.03481182-.03598196.05441175-.07635197.06494306" fill="#7f5f34"/><path d="M447.31315 191.20966c.47654163-.7720033.75562126-1.6996359.75562126-2.69835483 0-2.68343548-2.00767662-4.85902794-4.48428894-4.85902794-.46835062 0-.9194416.07839972-1.34391176.22262012.72256466-1.3699475 2.1589179-2.13610006 3.81555096-2.13610006 2.38241563 0 4.31286267 1.58028109 4.31286267 4.26868969 0 2.19489986-1.28745226 4.44830697-3.05583419 5.20217302" fill="#3f930f"/><path d="M447.31315 191.20966c-.21501418.0918564-.43792684.15972482-.66581262.20448287.04651327-.2539215.07313408-.5157415.07313408-.78487489 0-2.21566994-1.65721814-4.01184282-3.70233942-4.01184282-.38644045 0-.75883916.06465052-1.10929765.1837128-.0307163.05792219-.05411921.1216951-.08191016.18225011-.05382668-.3232526-.08337285-.65001565-.08337285-.9759011 0-.81851656.18107997-1.5328902.49701918-2.13258962.42447017-.1442204.87556114-.22262012 1.34391176-.22262012 2.47661232 0 4.48428894 2.17559246 4.48428894 4.85902794 0 .99871893-.27907963 1.92635153-.75562126 2.69835483" fill="#4daa1b"/><path d="M443.01825 186.61751c2.04482874 0 3.70204688 1.79617288 3.70204688 4.01184282 0 .26884086-.0266208.53066085-.07313408.78458235-.19307396.03832226-.39024342.06055502-.59092332.06055502-2.09338977 0-3.83690612-2.1460463-4.2291973-4.49101728.02749842-.06055501.05119386-.12432793.08191017-.18254265.35016595-.11876974.7228572-.18342026 1.10929765-.18342026" fill="#58b224"/><path d="M435.2326 184.889c-.13193387-.68160958-.42183734-2.57490451.14948605-3.71374833.70559755-1.40651453 2.46081535-1.12684983 2.46081535-1.12684983s.01755218.01755218.04534313.04709835c-1.70987467.6310008-2.41049911 3.41653145-2.65564453 4.79349981" fill="#3f930f"/><path d="M438.40993 182.69498c-.70559756 1.4070996-3.12428768 2.44882137-3.12428768 2.44882137s-.02223276-.09390416-.05294907-.25479912c.24514542-1.37696836.94576985-4.16249901 2.65564453-4.79349981.21618432.23461411 1.14879005 1.35005502.52159222 2.59947756M440.77222 184.12981c-.1579696-1.13036026-.76176453-3.77839885-2.61790735-4.08439182.48209982-.0789848 1.37901612-.09712205 1.95472756.68160958.8179315 1.10754243.6745887 3.4057076.6745887 3.4057076L440.77222 184.12981z" fill="#58b224"/><path d="M440.77222 184.12981c-.11876974-.02925363-2.25048176-.56518013-3.0461805-1.64171372-.81822402-1.10695735.0941967-2.36544852.0941967-2.36544852s.13076372-.04388044.33407645-.07722958c1.85614282.30599297 2.45993775 2.95403156 2.61790735 4.08439182" fill="#4daa1b"/><path d="M438.27706 178.56928h-.97152v4.42491h.97152v-4.42491z" fill="#634a25"/><path d="M437.79145 178.56928h.48561v4.42491h-.48561v-4.42491z" fill="#4c3713"/><path d="M439.83663 174.44495h-4.00745477l-.71115575 4.29355528h5.37886495L439.83663 174.44495z" fill="#634d26"/><g><path d="M439.91948 178.73845c.15328902-2.55588965-1.50246644-3.4580716-4.07386051-3.53793401l.09624444-.75562127h4.00803985l.65996189 4.29355528H439.91948z" fill="#563f1a"/></g><g><path d="M440.81824 179.05185c-.05090132.20185005-.86268955-.02720588-1.5053918-.06172516-.64270225-.03364167-1.50597687-.03481182-1.50597687-.03481182s-.8615194.00117015-1.50480673.03481182c-.64211718.03451928-1.45449048.2635752-1.50509926.06172516l.32120485-1.48813216s-.03422674-.2530439.72724525-.32061978c.76059438-.06786842 1.96145589-.08395792 1.96145589-.08395792s1.20115405.0160895 1.9623335.08395792c.76147199.06757588.72753778.32061978.72753778.32061978L440.81824 179.05185z" fill="#8e7042"/></g><g><path d="M440.76052 179.10097c-.81442106-1.47292027-2.73726216-1.93132465-4.49013967-1.88832182.71583633-.04241776 1.53640065-.05353414 1.53640065-.05353414s1.20115405.0160895 1.9623335.08395792c.76147199.06757588.72783031.32061978.72783031.32061978l.32120486 1.48813216c-.00760594.02632827-.02720587.04124762-.05762965.0491461" fill="#7f5f34"/></g><g><path d="M437.91001 186.11142s1.02738749-4.23680323-.4706909-6.0715909c.26942593-.1465607.4706909-.21179629.4706909-.21179629s1.8672592.59180094 1.8672592 2.32712627c0 1.7350328-1.8672592 3.95626092-1.8672592 3.95626092" fill="#3f930f"/></g><g><path d="M437.91001 186.11142s-1.86696667-2.22122813-1.86696667-3.95626092c0-1.1669273.84308962-1.81518774 1.39627576-2.11532999 1.4980784 1.83478768.47069091 6.07159091.47069091 6.07159091" fill="#4daa1b"/></g></g><g><g clip-path="url(#Q)" transform="matrix(.17588 0 0 -.17588 7.79819292 175.53956107)"><path d="M237.7386 478.2741c1.475 0 2.679 1.327 2.679 2.955 0 1.628-1.204 2.956-2.679 2.956-1.476 0-2.679-1.328-2.679-2.956s1.203-2.955 2.679-2.955" fill="#a6a8ab" fill-rule="evenodd"/><path d="M232.672 518.142h10.13v1.612h-10.13v-1.612zM232.672 515.08h10.13v1.612h-10.13v-1.612zM232.672 512.017h10.13v1.612h-10.13v-1.612z" fill="#58595b" fill-rule="evenodd"/><path d="M237.7386 479.056c1.085 0 1.97.976 1.97 2.173s-.885 2.174-1.97 2.174-1.97-.977-1.97-2.174.885-2.173 1.97-2.173" fill="#404041" fill-rule="evenodd"/><path d="M246.871 474.234h17.143v80.769h-17.143v-80.769z" fill="#647882" fill-rule="evenodd"/><path d="M262.541 555.003h.39v-80.768h-.39v80.768zm-14.587 0h.39v-80.768h-.39v80.768z" fill="#58595b" fill-rule="evenodd"/><path d="M249.208 510.405h12.468v42.019h-12.468v-42.019z" fill="#e6e7e8" fill-rule="evenodd"/><path d="M255.4427 478.2741c1.475 0 2.679 1.327 2.679 2.955 0 1.628-1.204 2.956-2.679 2.956-1.475 0-2.679-1.328-2.679-2.956s1.204-2.955 2.679-2.955" fill="#a6a8ab" fill-rule="evenodd"/><path d="M250.376 518.142h10.13v1.612h-10.13v-1.612zM250.376 515.08h10.13v1.612h-10.13v-1.612zM250.376 512.017h10.13v1.612h-10.13v-1.612z" fill="#58595b" fill-rule="evenodd"/><path d="M255.4427 479.056c1.085 0 1.97.976 1.97 2.173s-.885 2.174-1.97 2.174-1.97-.977-1.97-2.174.885-2.173 1.97-2.173" fill="#404041" fill-rule="evenodd"/><path d="M264.544 474.234h17.143v80.769h-17.143v-80.769z" fill="#647882" fill-rule="evenodd"/><path d="M280.214 555.003h.39v-80.768h-.39v80.768zm-14.586 0h.39v-80.768h-.39v80.768z" fill="#58595b" fill-rule="evenodd"/><path d="M266.881 510.405h12.468v42.019h-12.468v-42.019z" fill="#e6e7e8" fill-rule="evenodd"/><path d="M273.1161 478.2741c1.475 0 2.679 1.327 2.679 2.955 0 1.628-1.204 2.956-2.679 2.956-1.476 0-2.679-1.328-2.679-2.956s1.203-2.955 2.679-2.955" fill="#a6a8ab" fill-rule="evenodd"/><path d="M268.049 518.142h10.13v1.612h-10.13v-1.612zM268.049 515.08h10.13v1.612h-10.13v-1.612zM268.049 512.017h10.13v1.612h-10.13v-1.612z" fill="#58595b" fill-rule="evenodd"/><path d="M273.1161 479.056c1.085 0 1.97.976 1.97 2.173s-.885 2.174-1.97 2.174-1.97-.977-1.97-2.174.885-2.173 1.97-2.173" fill="#404041" fill-rule="evenodd"/><path d="M282.37 474.234h17.143v80.769H282.37v-80.769z" fill="#647882" fill-rule="evenodd"/><path d="M298.04 555.003h.39v-80.769h-.39v80.769zm-14.586 0h.39v-80.769h-.39v80.769z" fill="#58595b" fill-rule="evenodd"/><path d="M284.707 510.405h12.468v42.019h-12.468v-42.019z" fill="#e6e7e8" fill-rule="evenodd"/><path d="M290.9419 478.2747c1.475 0 2.678 1.328 2.678 2.955 0 1.628-1.203 2.955-2.678 2.955-1.475 0-2.679-1.327-2.679-2.955 0-1.627 1.204-2.955 2.679-2.955" fill="#a6a8ab" fill-rule="evenodd"/><path d="M285.875 518.143h10.13v1.612h-10.13v-1.612zM285.875 515.08h10.13v1.612h-10.13v-1.612zM285.875 512.017h10.13v1.612h-10.13v-1.612z" fill="#58595b" fill-rule="evenodd"/><path d="M290.9419 479.0564c1.085 0 1.97.976 1.97 2.173 0 1.198-.885 2.174-1.97 2.174s-1.97-.976-1.97-2.174c0-1.197.885-2.173 1.97-2.173" fill="#404041" fill-rule="evenodd"/><path d="M300.074 474.234h17.143v80.769h-17.143v-80.769z" fill="#647882" fill-rule="evenodd"/><path d="M315.745 555.003h.39v-80.769h-.39v80.769zm-14.587 0h.39v-80.769h-.39v80.769z" fill="#58595b" fill-rule="evenodd"/><path d="M302.411 510.405h12.468v42.019h-12.468v-42.019z" fill="#e6e7e8" fill-rule="evenodd"/><path d="M308.6461 478.2747c1.475 0 2.678 1.328 2.678 2.955 0 1.628-1.203 2.955-2.678 2.955-1.475 0-2.679-1.327-2.679-2.955 0-1.627 1.204-2.955 2.679-2.955" fill="#a6a8ab" fill-rule="evenodd"/><path d="M303.58 518.143h10.13v1.612h-10.13v-1.612zM303.58 515.08h10.13v1.612h-10.13v-1.612zM303.58 512.017h10.13v1.612h-10.13v-1.612z" fill="#58595b" fill-rule="evenodd"/><path d="M308.6464 479.0564c1.085 0 1.97.976 1.97 2.173 0 1.198-.885 2.174-1.97 2.174s-1.97-.976-1.97-2.174c0-1.197.885-2.173 1.97-2.173" fill="#404041" fill-rule="evenodd"/><path d="M317.747 474.234h17.143v80.769h-17.143v-80.769z" fill="#647882" fill-rule="evenodd"/><path d="M333.418 555.003h.39v-80.769h-.39v80.769zm-14.587 0h.39v-80.769h-.39v80.769z" fill="#58595b" fill-rule="evenodd"/><path d="M320.084 510.405h12.468v42.019h-12.468v-42.019z" fill="#e6e7e8" fill-rule="evenodd"/><path d="M326.3194 478.2747c1.475 0 2.678 1.328 2.678 2.955 0 1.628-1.203 2.955-2.678 2.955-1.475 0-2.679-1.327-2.679-2.955 0-1.627 1.204-2.955 2.679-2.955" fill="#a6a8ab" fill-rule="evenodd"/><path d="M321.253 518.143h10.13v1.612h-10.13v-1.612zM321.253 515.08h10.13v1.612h-10.13v-1.612zM321.253 512.017h10.13v1.612h-10.13v-1.612z" fill="#58595b" fill-rule="evenodd"/><path d="M326.3194 479.0564c1.085 0 1.97.976 1.97 2.173 0 1.198-.885 2.174-1.97 2.174s-1.97-.976-1.97-2.174c0-1.197.885-2.173 1.97-2.173" fill="#404041" fill-rule="evenodd"/><path d="M220.643 195.127h127.044v279.108H220.643V195.127z" fill="#919da5" fill-rule="evenodd"/><path d="M229.453 378.324h109.422v82.608H229.453v-82.608zM229.453 292.001h109.422v82.61H229.453v-82.61zM229.453 205.68h109.422v82.61H229.453v-82.61z" fill="#7f888f" fill-rule="evenodd"/><path d="M264.232 423.336h38.482v20.46h-38.482v-20.46z" fill="#4e4f51" fill-rule="evenodd"/><path d="M269.5913 435.6777h27.763c1.083 0 1.97-.978 1.97-2.174v-5.372c0-1.196-.887-2.175-1.97-2.175h-27.763c-1.082 0-1.97.979-1.97 2.175v5.372c0 1.196.888 2.174 1.97 2.174" fill="#231f20" fill-rule="evenodd"/><path d="M264.232 340.47h38.482v20.462h-38.482V340.47z" fill="#4e4f51" fill-rule="evenodd"/><path d="M268.8358 352.8105h27.767c1.078 0 1.966-.978 1.966-2.173v-5.373c0-1.195-.888-2.172-1.966-2.172h-27.767c-1.084 0-1.968.977-1.968 2.172v5.373c0 1.195.884 2.173 1.968 2.173" fill="#231f20" fill-rule="evenodd"/><path d="M264.403 255.043h38.485v20.46h-38.485v-20.46z" fill="#4e4f51" fill-rule="evenodd"/><path d="M269.5913 267.3845h27.763c1.083 0 1.97-.978 1.97-2.175v-5.371c0-1.195-.887-2.175-1.97-2.175h-27.763c-1.082 0-1.97.98-1.97 2.175v5.371c0 1.197.888 2.175 1.97 2.175" fill="#231f20" fill-rule="evenodd"/><path d="M476.9017 475.8253c0-.817-.481-1.477-1.076-1.477h-5.447c-.598 0-1.079.66-1.079 1.477v53.438c0 .815.481 1.476 1.079 1.476h5.447c.595 0 1.076-.661 1.076-1.476v-53.438z" fill="#f58a20" fill-rule="evenodd"/><path d="M484.9655 475.6186c0-.701-.512-1.271-1.14-1.271h-5.782c-.631 0-1.142.57-1.142 1.271v45.977c0 .702.511 1.27 1.142 1.27h5.782c.628 0 1.14-.568 1.14-1.27v-45.977z" fill="#f79e67" fill-rule="evenodd"/><path d="M492.6117 475.5327c0-.654-.485-1.185-1.082-1.185h-5.481c-.598 0-1.083.531-1.083 1.185v42.819c0 .655.485 1.183 1.083 1.183h5.481c.597 0 1.082-.528 1.082-1.183v-42.819z" fill="#ac5868" fill-rule="evenodd"/><path d="M499.1548 475.414c0-.588-.414-1.066-.927-1.066h-4.689c-.511 0-.927.478-.927 1.066v38.515c0 .586.416 1.063.927 1.063h4.689c.513 0 .927-.477.927-1.063v-38.515z" fill="#0083b5" fill-rule="evenodd"/><path d="M509.6711 475.643c0-.715-.667-1.295-1.49-1.295h-7.538c-.821 0-1.488.58-1.488 1.295v46.837c0 .714.667 1.294 1.488 1.294h7.538c.823 0 1.49-.58 1.49-1.294v-46.837z" fill="#7670b2" fill-rule="evenodd"/><path d="M517.1915 475.7599c0-.78-.478-1.412-1.066-1.412h-5.388c-.59 0-1.066.632-1.066 1.412v51.058c0 .78.476 1.412 1.066 1.412h5.388c.588 0 1.066-.632 1.066-1.412v-51.058z" fill="#f27054" fill-rule="evenodd"/><path d="M524.7703 475.5785c0-.679-.481-1.23-1.074-1.23h-5.431c-.594 0-1.074.551-1.074 1.23v44.542c0 .68.48 1.231 1.074 1.231h5.431c.593 0 1.074-.551 1.074-1.231v-44.542z" fill="#756178" fill-rule="evenodd"/><path d="M530.3965 475.7599c0-.78-.356-1.412-.798-1.412h-4.034c-.439 0-.794.632-.794 1.412v51.058c0 .78.355 1.412.794 1.412h4.034c.442 0 .798-.632.798-1.412v-51.058z" fill="#c4a98c" fill-rule="evenodd"/><path d="M537.2818 475.4682c0-.617-.435-1.12-.974-1.12h-4.936c-.539 0-.975.503-.975 1.12v40.524c0 .621.436 1.121.975 1.121h4.936c.539 0 .974-.5.974-1.121v-40.524z" fill="#888c8e" fill-rule="evenodd"/><path d="M545.5795 475.6822c0-.735-.525-1.334-1.174-1.334h-5.948c-.649 0-1.176.599-1.176 1.334v48.274c0 .735.527 1.332 1.176 1.332h5.948c.649 0 1.174-.597 1.174-1.332v-48.274z" fill="#f79e67" fill-rule="evenodd"/><path d="M554.6082 475.5564c0-.667-.57-1.208-1.276-1.208h-6.474c-.705 0-1.279.541-1.279 1.208v43.678c0 .668.574 1.208 1.279 1.208h6.474c.706 0 1.276-.54 1.276-1.208v-43.678z" fill="#ae6063" fill-rule="evenodd"/><path d="M560.2623 475.4206c0-.591-.359-1.073-.801-1.073h-4.051c-.442 0-.802.482-.802 1.073v38.762c0 .593.36 1.074.802 1.074h4.051c.442 0 .801-.481.801-1.074v-38.762z" fill="#414145" fill-rule="evenodd"/><path d="M568.5602 475.6822c0-.735-.527-1.334-1.175-1.334h-5.946c-.651 0-1.177.599-1.177 1.334v48.274c0 .735.526 1.332 1.177 1.332h5.946c.648 0 1.175-.597 1.175-1.332v-48.274z" fill="#c188a3" fill-rule="evenodd"/><path d="M476.902 521.313H469.3v4.943h7.602v-4.943z" fill="#9b5809" fill-rule="evenodd"/><path d="M484.964 517.543h-8.032v1.518h8.032v-1.518zM484.964 515.27h-8.032v1.516h8.032v-1.516z" fill="#fbc29b" fill-rule="evenodd"/><path d="M523.696 521.3519h-5.431c-.594 0-1.074-.551-1.074-1.231v-6.382h7.579v6.382c0 .68-.481 1.231-1.074 1.231" fill="#645c65" fill-rule="evenodd"/><path d="M484.965 503.742h7.7v2.548h-7.7v-2.548zM492.612 515.993h-7.648v2.154h7.648v-2.154z" fill="#78484b" fill-rule="evenodd"/><path d="M530.396 501.583h6.885v9.002h-6.885v-9.002zM537.282 512.857h-6.885v1.981h6.885v-1.981z" fill="#595b5d" fill-rule="evenodd"/><path d="M498.274 512.064h-4.779v1.055h4.779v-1.055zM498.274 510.651h-4.779v1.054h4.779v-1.054zM498.274 509.237h-4.779v1.053h4.779v-1.053z" fill="#7faacf" fill-rule="evenodd"/><path d="M554.608 517.273h-9.029v1.055h9.029v-1.055zM554.608 515.859h-9.029v1.055h9.029v-1.055zM554.608 514.445h-9.029v1.053h9.029v-1.053zM552.544 477.685h-4.778v1.057h4.778v-1.057zM552.544 476.273h-4.778v1.054h4.778v-1.054z" fill="#b2928e" fill-rule="evenodd"/><path d="M515.897 525.644h-4.776v1.053h4.776v-1.053zM515.897 524.23h-4.776v1.054h4.776v-1.054zM515.897 522.816h-4.776v1.054h4.776v-1.054zM517.192 477.507h-7.52v1.056h7.52v-1.056z" fill="#f7a58a" fill-rule="evenodd"/><path d="M508.67 516.639h-8.23v4.928h8.23v-4.928zM508.377 475.905h-1.766v8.432h1.766v-8.432zM505.438 475.905h-1.764v8.432h1.764v-8.432zM502.498 475.905h-1.766v8.432h1.766v-8.432z" fill="#59527b" fill-rule="evenodd"/><path d="M528.343 490.727h-1.521v35.668h1.521v-35.668z" fill="#a49280" fill-rule="evenodd"/><path d="M545.576 482.605h-8.295v2.123h8.295v-2.123zM545.58 479.423h-8.298v2.122h8.298v-2.122z" fill="#ac6536" fill-rule="evenodd"/><path d="M562.789 475.942h-1.151v7.04h1.151v-7.04zM564.988 475.942h-1.152v7.04h1.152v-7.04zM567.183 475.942h-1.149v7.04h1.149v-7.04z" fill="#886273" fill-rule="evenodd"/><path d="M455.382 195.127h127.095v279.221H455.382V195.127z" fill="#919da5" fill-rule="evenodd"/><path d="M464.196 378.399h109.467v82.642H464.196v-82.642zM464.196 292.04h109.467v82.644H464.196V292.04zM464.196 205.684h109.467v82.644H464.196v-82.644z" fill="#7f888f" fill-rule="evenodd"/><path d="M498.99 423.429h38.498v20.469H498.99v-20.469z" fill="#4e4f51" fill-rule="evenodd"/><path d="M504.3508 435.7758h27.774c1.083 0 1.971-.979 1.971-2.175v-5.374c0-1.196-.888-2.176-1.971-2.176h-27.774c-1.082 0-1.971.98-1.971 2.176v5.374c0 1.196.889 2.175 1.971 2.175" fill="#231f20" fill-rule="evenodd"/><path d="M498.99 340.529h38.498v20.47H498.99v-20.47z" fill="#4e4f51" fill-rule="evenodd"/><path d="M503.595 352.8744h27.778c1.078 0 1.967-.978 1.967-2.174v-5.375c0-1.195-.889-2.173-1.967-2.173h-27.778c-1.085 0-1.969.978-1.969 2.173v5.375c0 1.196.884 2.174 1.969 2.174" fill="#231f20" fill-rule="evenodd"/><path d="M499.16 255.068h38.5v20.469h-38.5v-20.469z" fill="#4e4f51" fill-rule="evenodd"/><path d="M504.3508 267.414h27.774c1.083 0 1.971-.978 1.971-2.176v-5.373c0-1.196-.888-2.176-1.971-2.176h-27.774c-1.082 0-1.971.98-1.971 2.176v5.373c0 1.198.889 2.176 1.971 2.176" fill="#231f20" fill-rule="evenodd"/><path d="M599.8491 387.9166c-2.225 1.01-15.125 11.879-16.058 12.442-.932.563-11.857-.455-12.834-1.202-.977-.746-10.666-8.794-9.9-9.324.767-.531 1.15-.796 2.668-.911 1.518-.115 4.102 2.101 4.102 2.101l3.125 2.389 4.734 1.211c-1.491-.354-6.111-3.189-6.799-3.97-1.991-2.26-5.282-4.799-5.239-4.93.071-.22 1.471-.66 3.009-.911 1.538-.251 5.852 3.524 5.96 3.559.107.034 3.728 1.15 4.555 1.36-.013-.309 2.569-3.346 2.671-3.471 5.589-6.831 10.93-5.537 10.654-5.893l9.352 7.55z" fill="#fac7b1" fill-rule="evenodd"/><path d="M583.7914 400.3586c-.732.361-9.746 3.006-12.38 2.284-2.635-.721-13.348-2.956-12.006-4.343 1.341-1.388 4.804-1.155 5.136-1.238.332-.083 6.343 1.164 6.831.924.488-.241 8.654-2.816 8.94-2.472.285.344 3.479 4.845 3.479 4.845" fill="#fac7b1" fill-rule="evenodd"/><path d="M589.3464 375.509c-.401.147-4.947.738-4.947.738s6.417 17.625 6.484 17.477c.067-.147 4.134-2.346 4.134-2.346l-5.671-15.869z" fill="#fff" fill-rule="evenodd"/><path d="M669.2685 419.2576c-.115-.086-28.047-48.377-28.047-48.377-23.458 10.023-49.729 18.871-49.68 18.569l-7.286-19.94c.133-.061 32.391-11.996 60.198-22.57 7.882 2.603 41.334 44.288 42.883 63.892.937 11.866-8.719 14.578-18.068 8.426" fill="#39383a" fill-rule="evenodd"/><path d="M340.496 349.723c0 5.218-1.871 69.229 2.338 83.928 4.208 14.699 17.947 23.564 33.828 27.337 4.589 1.091 10.575 2.474 17.138 3.537 6.563-1.063 12.549-2.446 17.138-3.537 15.881-3.773 29.62-12.638 33.828-27.337 4.209-14.699 2.338-78.71 2.338-83.928l-53.304-1.41-53.304 1.41z" fill="#58595b" fill-rule="evenodd"/><path d="M363.8401 428.6345c-2.903-1.777-11.429-3.07-13.653-7.835-2.223-4.765 5.46-65.951 6.794-82.63 1.333-16.678 4.838-14.065 8.395-19.306 2.408-3.547 14.898-5.316 27.361-5.306 12.463-.01 24.953 1.759 27.361 5.306 3.558 5.241 7.062 2.628 8.395 19.306 1.334 16.679 9.018 77.865 6.794 82.63-2.223 4.765-10.749 6.058-13.653 7.835-.935.573-3.869 3.473-8.918 4.747-5.14 1.297-14.298-3.916-19.979-4.153-5.428.227-12.407 4.425-17.528 4.394-1.347-.008-2.005-2.338-3.136-2.656-4.212-1.185-7.467-1.863-8.233-2.332" fill="#dfe9e8" fill-rule="evenodd"/><path d="M412.716 433.3813c-.03-5.037-13.841-120.358-13.841-120.358s34.801 1.17 34.45 3.75c-.352 2.579 5.977 109.361 5.977 109.361l-26.586 7.247z" fill="#404041" fill-rule="evenodd"/><path d="M432.3669 410.2536c-.908-.047-1.637-43.203-1.637-43.203l4.242-.292-2.605 43.495z" fill="#373737" fill-rule="evenodd"/><path d="M430.848 424.4362c.309 1.133 5.587 2.425 5.587 2.425l7.17-.986c4.52-.621 3.904-8.892 4.041-15.374.284-13.355.834-38.901.969-40.608.167-2.106-15.365-1.379-15.365-1.379l-2.402 55.922z" fill="#404041" fill-rule="evenodd"/><path d="M426.2341 423.781l-7.937-23.889-6.225.732 5.845-5.595-14.68-45.339 6.206 82.66 3.273 1.031 13.518-9.6z" fill="#4b4a4a" fill-rule="evenodd"/><path d="M393.1767 331.4037l-9.966 14.098 6.886 67.229h8.168l4.847-67.428-9.935-13.899z" fill="#404041" fill-rule="evenodd"/><path d="M375.2032 433.9657c.03-5.037 13.841-120.359 13.841-120.359s-34.801 1.171-34.449 3.751c.351 2.579-5.978 109.361-5.978 109.361l26.586 7.247z" fill="#404041" fill-rule="evenodd"/><path d="M360.7269 424.2607l8.895-23.785 6.226.732-5.845-5.595 14.68-45.338-5.284 83.177-4.196.514-14.476-9.705z" fill="#4b4a4a" fill-rule="evenodd"/><path d="M376.8294 439.1533l33.115.507-2.473-12.591h-27.367l-3.275 12.084z" fill="#929497" fill-rule="evenodd"/><path d="M382.08 447.765h21.96v-22.44h-21.96v22.44z" fill="#fac3aa" fill-rule="evenodd"/><path d="M397.3037 425.543l5.573-11.711 9.839 19.549-2.772 6.28-12.64-14.118zM390.2723 425.479l-5.573-11.71-9.839 19.548 1.969 5.836 13.443-13.674z" fill="#d0d2d3" fill-rule="evenodd"/><path d="M389.8506 425.3248l7.381.23 3.73-7.697-2.599-6.482-8.375.282-3.534 5.801 3.397 7.866z" fill="#404041" fill-rule="evenodd"/><path d="M415.3342 476.6091c-2.714 0-5.071-3.986-5.263-8.902-.193-4.917 1.851-8.903 4.566-8.903 2.714 0 5.07 3.986 5.263 8.903.193 4.916-1.852 8.902-4.566 8.902M370.9883 476.6091c2.714 0 5.07-3.986 5.263-8.902.193-4.917-1.852-8.903-4.566-8.903-2.714 0-5.071 3.986-5.263 8.903-.193 4.916 1.851 8.902 4.566 8.902" fill="#fbd2c0" fill-rule="evenodd"/><path d="M393.1658 503.1561c12.917 0 23.388-14.92 23.388-33.325s-10.624-36.629-23.54-36.629c-12.917 0-23.236 18.224-23.236 36.629 0 18.405 10.471 33.325 23.388 33.325" fill="#fbd2c0" fill-rule="evenodd"/><path d="M415.128 464.1607c0-.401-.012-.811-.022-1.235v-.218l.673-.348c1.994 4.578 6.986 18.793-.76 29.593-1.634 3.374-2.39-2.054-3.883-1.171 1.858-6.192 6.238-9.655 3.992-26.621M370.9843 464.1607c0-.401.012-.811.022-1.235v-.218l-.673-.348c-1.994 4.578-4.116 20.014-1.897 24.558 1.634 3.375 5.047 2.981 6.54 3.864-1.858-6.192-6.238-9.655-3.992-26.621" fill="#404041" fill-rule="evenodd"/><path d="M393.1661 449.1811l3.984 1.506h-7.968l3.984-1.506z" fill="#c5a89b" fill-rule="evenodd"/><path d="M387.2221 505.011c5.176-.329 8.99-1.118 13.839-1.382 4.849-.263 3.38-.592 7.357-.263 3.977.328 8.554 3.619 8.118 2.961-.436-.659-2.288-3.488-1.743-3.225.545.264 3.323 1.974 3.323 1.974s-.652-6.054-3.54-11.976c-2.888-5.922-7.356-7.172-7.083-7.172.272 0 2.997.329 2.561.131-.436-.197-5.122-3.092-10.843-3.158-5.721-.066-13.948 4.013-13.948 4.013s2.506-2.697 2.125-2.566c-.382.132-5.069-.329-8.447 1.447-3.378 1.777-3.542 2.435-3.542 2.435s2.615-4.869 2.016-4.606c-13.624 5.984-1.209 22.087 9.807 21.387" fill="#404041" fill-rule="evenodd"/><path d="M374.3943 462.0505c.04-.078.083-.15.123-.223 1.118-1.934 4.158-2.884 6.91-2.878 1.369.001 2.663.236 3.62.701 2.512 1.225 5.084 5.955 4.622 8.945-.084.552-.27 1.044-.581 1.443-.224.29-.52.547-.879.774-1.547.992-4.207 1.428-6.796 1.515-3.101.103-6.102-.288-6.979-.821-1.091-.661-1.449-2.658-1.284-4.788.134-1.668.584-3.414 1.244-4.668m37.581 0c.662 1.254 1.113 3 1.245 4.668.164 2.13-.191 4.127-1.283 4.788-.875.533-3.879.924-6.98.821-2.588-.087-5.249-.523-6.796-1.515-.357-.227-.654-.484-.879-.774-.309-.399-.495-.891-.58-1.443-.461-2.99 2.112-7.72 4.619-8.945.96-.465 2.253-.7 3.622-.701 2.753-.006 5.792.944 6.913 2.878.038.073.081.145.119.223m-40.71 10.547c.953.318 6.216.843 10.15.677.244-.007.483-.02.717-.037 3.554-.239 7.847-1.603 11.045-1.627h.016c3.2.024 7.493 1.388 11.046 1.627.234.017.473.03.717.037 3.933.166 9.198-.359 10.152-.677 1.213-.406 1.245-.503 1.286-1.426.041-.918-.121-1.705-.843-1.932-.918-.292-1.006-1.384-1.578-4.407-.039-.211-.08-.426-.127-.653-.28-1.411-.721-2.691-1.652-3.712-1.181-1.301-3.153-2.182-6.596-2.388-.226-.014-.443-.022-.655-.025-5.519-.053-7.315 3.641-7.925 4.848-1.134 2.236-.787 5.233-3.833 5.277-3.044-.044-2.699-3.041-3.831-5.277-.611-1.207-2.407-4.901-7.924-4.848-.214.003-.432.011-.658.025-3.441.206-5.415 1.087-6.597 2.388-.93 1.021-1.371 2.301-1.651 3.712-.045.227-.086.442-.125.653-.572 3.023-.66 4.115-1.577 4.407-.724.227-.886 1.014-.846 1.932.043.923.073 1.02 1.289 1.426" fill="#4e4f51" fill-rule="evenodd"/><path d="M381.4134 472.5108c-3.185.108-6.27-.297-7.172-.842-1.122-.681-1.485-2.732-1.317-4.921.137-1.714.596-3.508 1.277-4.798l.126-.226c1.149-1.988 4.272-2.963 7.1-2.959 1.407.001 2.739.243 3.722.721 2.577 1.257 5.219 6.12 4.747 9.191-.087.567-.278 1.072-.597 1.482-.23.298-.535.563-.903.796-1.589 1.02-4.324 1.468-6.983 1.556" fill="#c0e3ed" fill-rule="evenodd"/><path d="M378.7658 472.4864c-2.117-.111-3.879-.427-4.524-.817-.572-.348-.946-1.049-1.155-1.946l10.755-10.693c.479.115.918.266 1.308.456 1.167.569 2.349 1.879 3.247 3.426l-9.631 9.574z" fill="#e6e7e8" fill-rule="evenodd"/><path d="M396.5207 468.6603c-.47-3.055 2.157-7.891 4.722-9.14.979-.478 2.301-.717 3.701-.719 2.813-.004 5.921.966 7.064 2.943l.124.226c.675 1.283 1.135 3.066 1.269 4.771.014.164.022.33.031.493-.018.582-.038 1.146-.057 1.693-.152 1.253-.558 2.268-1.285 2.709-.894.542-3.963.944-7.132.838-2.645-.088-5.363-.535-6.945-1.549-.365-.231-.67-.494-.899-.789-.316-.409-.505-.912-.593-1.476" fill="#c0e3ed" fill-rule="evenodd"/><path d="M407.3669 459.0352c2.001.396 3.822 1.296 4.641 2.71l.124.225c.082.161.162.327.239.502l-9.867 9.809c-1.773-.228-3.402-.657-4.491-1.355-.365-.232-.67-.495-.899-.79-.136-.174-.246-.366-.337-.571l10.59-10.53z" fill="#e6e7e8" fill-rule="evenodd"/><path d="M462.8331 396.9339c-.409-1.105-.596-7.273-.596-7.273-3.619-8.488-12.234-26.107-13.331-26.107-1.566 0-9.618-6.785-13.227 0s-1.987 15.055-.81 17.105c1.176 2.051 12.414 23.852 13.636 23.747 1.223-.106 14.328-7.472 14.328-7.472" fill="#404041" fill-rule="evenodd"/><path d="M460.2676 397.623c.033-.185.869-3.872 1.07-5.753.2-1.88-.1-2.396-.836-2.544-.735-.147-6.818 1.475-6.718 2.213.1.737 6.484 6.084 6.484 6.084" fill="#e6e7e8" fill-rule="evenodd"/><path d="M450.053 409.0177l17.958-1.82-.712-6.198-2.887-8.674s-15.78 1.336-15.513 2.321c.268.984 1.154 14.371 1.154 14.371" fill="#e9c0ae" fill-rule="evenodd"/><path d="M458.7155 409.1234c.438.326 8.131 9.995 8.448 9.977.317-.017 1.514-1.602.597-4.295-.918-2.692-5.924-8.593-6.001-8.425-.077.168-3.044 2.743-3.044 2.743" fill="#e9c0ae" fill-rule="evenodd"/><path d="M475.9683 444.5616l-43.496 3.997-15.823-57.443 41.394-3.238 17.925 56.684z" fill="#fff" fill-rule="evenodd"/><path d="M348.6176 426.7189c-3.665.485-25.955-34.125-29.438-40.702 0 0 10.39-15.547 12.395-13.039 2.005 2.507 16.231 18.369 18.953 21.092 1.591 1.592-1.751 32.628-1.91 32.649" fill="#404041" fill-rule="evenodd"/><path d="M362.146 387.4326c-2.273.295-21.207 4.579-32.839 4.284-11.631-.295-12.098-9.667-9.959-16.01 2.139-6.342 9.935-6.538 17.58-6.538 7.644 0 21.996-1.106 22.912 0 .917 1.107 2.306 18.264 2.306 18.264" fill="#404041" fill-rule="evenodd"/><path d="M354.7086 379.5756c-.412.261-1.609.823-2.989-.449-1.381-1.272-1.178-2.555-.78-3.718.512-1.492 7.302-10.626 8.32-5.786.339 1.613-1.272 6.308-2.597 8.105-1.326 1.796-1.954 1.848-1.954 1.848" fill="#fbd2c0" fill-rule="evenodd"/><path d="M170.065 358.952h458.824v10.217H170.065v-10.217z" fill="#58595b" fill-rule="evenodd"/><path d="M469.2761 407.7126l-3.76 5.073-6.764 1.236c-1.117.205-3.023.73-3.418-.441-.279-.828.99-2.812 3.25-3.378l4.184-1.048 2.398-4.745 1.741-.9c.1-.051.827-.526.827-.526 1.38.283 3.619 1.927 1.542 4.729" fill="#fbd2c0" fill-rule="evenodd"/><path d="M467.2215 403.3444l-5.463 4.487-5.49.758c-1.13.156-2.409.528-2.886-.616-.476-1.143.847-3.06 1.957-3.345l4.759-1.221 5.425-4.287c.927-.732 2.26.02 2.737 1.164.477 1.143-.125 2.309-1.039 3.06" fill="#fbd2c0" fill-rule="evenodd"/><path d="M465.8542 400.3261l-6.034 3.486-5.53-.203c-1.138-.042-2.453.104-2.762-1.108-.308-1.211 1.271-2.875 2.409-2.964l4.874-.383 5.967-3.293c1.02-.563 2.229.411 2.537 1.622.309 1.212-.452 2.26-1.461 2.843" fill="#fbd2c0" fill-rule="evenodd"/><path d="M464.0782 396.4623l-5.415 2.602-4.771-.554c-.983-.114-2.129-.078-2.327-1.147-.199-1.069 1.261-2.401 2.249-2.4l4.238.003 5.346-2.44c.914-.417 1.905.508 2.104 1.577.199 1.069-.518 1.923-1.424 2.359" fill="#fbd2c0" fill-rule="evenodd"/><path d="M364.1403 402.5845l.324.15c.156.072.341-.021.411-.207l.614-1.598-.226-.755-.364.555-.759 1.855z" fill="#bbbdbf" fill-rule="evenodd"/><path d="M364.2069 387.1594c.394-.074 8.874-1.474 9.393-1.972.519-.498 7.187-9.169 6.191-9.302-5.858-.783-8.218 3.904-9.378 5.64l-7.373-.692 1.167 6.326z" fill="#e9c0ae" fill-rule="evenodd"/><path d="M374.5128 374.5872c-.051-.208-.517-2.023-.517-2.023l3.206-3.919-.272 5.309-2.417.633z" fill="#fff" fill-rule="evenodd"/><path d="M366.0269 399.5311l-1.131-.529-1.152 2.998c-.091.233-.009.362.151.471l.57.263c.155.073.34-.02.41-.207l1.152-2.996z" fill="#bbbdbf" fill-rule="evenodd"/><path d="M367.5627 398.3127l-2.94-1.37-1.025 2.659c-.045.117-.05.247-.012.361.036.114.112.204.211.251l2.205 1.032c.099.045.208.042.31-.009.1-.05.183-.145.227-.261l1.024-2.663z" fill="#647882" fill-rule="evenodd"/><path d="M364.7723 400.6703l.127.06.616.288.487.227c.098.045.207.043.309-.008.1-.05.184-.145.228-.261l.992-2.583-1.832-.138-.928 2.415h.001z" fill="#43525a" fill-rule="evenodd"/><path d="M373.9963 372.5647l-10.059 26.16 2.939 1.375 10.054-26.145-2.934-1.39z" fill="#647882" fill-rule="evenodd"/><path d="M375.4288 373.2457l-10.154 26.103 1.602.751 10.053-26.145-1.501-.709z" fill="#43525a" fill-rule="evenodd"/><path d="M366.9549 400.0324l-.159.408-3.317-1.548c-.259-.12-.31-.158-.203-.462l2.729-7.103.696-.377-.917 2.503-.281.176-1.749 4.543c-.095.25-.103.31.138.43l3.063 1.43z" fill="#abacae" fill-rule="evenodd"/><path d="M364.1403 402.5845l.324.15c.156.072.341-.021.411-.207l.589-1.534-.38-.178-.231-.107-.713 1.876z" fill="#a7a7a8" fill-rule="evenodd"/><path d="M367.9727 387.4601c.749-.82 10.753-9.369 10.876-12.037.122-2.667-1.208-2.774-2.626-2.888-1.419-.115-10.146 8.906-9.92 8.605l5.55-7.44s1.217-2.619-.4-3.933c-1.616-1.314-3.942-.236-4.898 1.098-.956 1.333-4.92 7.418-4.92 7.418s4.462-8.088 2.897-8.902c-1.565-.813-2.462-.087-4.111.954-.98.618-7.067 9.405-7.202 10.607-.433 3.844 4.29 3.143 4.287 2.985-.043.624-.41 2.222.904 3.233 1.315 1.012 3.736.273 3.736.273s.334 1.444 2.108 1.587c1.773.143 3.719-1.56 3.719-1.56" fill="#fbd2c0" fill-rule="evenodd"/><path d="M123.1737 308.1676l3.218 21.758s72.016-15.649 77.678-22.275c5.116-5.986 7.958-94.022 7.958-94.022l-13.62-7.307s-13.457 81.738-14.459 82.181c-1.003.442-60.775 19.665-60.775 19.665" fill="#f8a98e" fill-rule="evenodd"/><path d="M113.673 267.8898c.635-1.402.292-3.158-.882-4.132l-5.027-4.172c-1.322-1.096-3.215-.8-4.208.657l-.001.001c-.993 1.457-.725 3.546.596 4.642l5.027 4.172c1.165.966 2.774.85 3.819-.188l3.502 2.72.434 5.126 1.109-.111-.458-5.411-.024-.285-.21-.163-3.677-2.856z" fill="#404041" fill-rule="evenodd"/><path d="M132.143 241.623h8.387v37.545h-8.387v-37.545z" fill="#808184" fill-rule="evenodd"/><path d="M136.337 279.169h4.194v-37.545h-4.194v37.545z" fill="#8d8d8d" fill-rule="evenodd"/><path d="M74.3242 381.6643c-.031-6.307-.137-12.51-.24-18.581-.698-40.997-1.291-75.894 21.977-76.84l-.21-6.554c-29.108 1.183-28.464 39.032-27.708 83.496.103 6.088.209 12.305.24 18.505l5.941-.026z" fill="#58595b" fill-rule="evenodd"/><path d="M74.3242 381.6643c-.031-6.307-.137-12.51-.24-18.581-.698-40.997-1.291-75.894 21.977-76.84l-.201-6.284c-26.061 3.625-25.441 40.348-24.712 83.226.104 6.083.21 12.297.24 18.492l2.936-.013z" fill="#49494b" fill-rule="evenodd"/><path d="M136.2071 305.3857c30.887 0 55.926-10.495 55.926-23.442 0-.939-.136-1.865-.392-2.775H80.6731c-.256.91-.392 1.836-.392 2.775 0 12.947 25.039 23.442 55.926 23.442" fill="#58595b" fill-rule="evenodd"/><path d="M192.3645 282.2156c.019-.205.028-.413.028-.623 0-3.477-2.579-6.323-5.732-6.323h-21.425c-2.448-2.245-14.455-3.949-28.898-3.949-14.444 0-26.451 1.704-28.899 3.949h-21.426c-3.152 0-5.731 2.846-5.731 6.323 0 .21.009.418.028.623h112.055z" fill="#404041" fill-rule="evenodd"/><path d="M70.2242 400.3573h5.592c2.614 0 4.752-2.36 4.752-5.244v-17.89c0-2.884-2.138-5.243-4.752-5.243h-5.592c-2.614 0-4.753 2.359-4.753 5.243v17.89c0 2.884 2.139 5.244 4.753 5.244" fill="#6d6e70" fill-rule="evenodd"/><path d="M89.9875 387.7704c4.015-26.296-.071-48.977-9.127-50.66-.657-.122-1.322-.127-1.992-.027l-14.439 94.558c.604.336 1.234.572 1.891.694 9.055 1.683 19.652-18.269 23.667-44.565" fill="#58595b" fill-rule="evenodd"/><path d="M83.3305 338.1626c-.776-.534-1.599-.891-2.469-1.053-.658-.122-1.322-.127-1.993-.026l-14.439 94.557c.603.337 1.234.573 1.891.695.89.165 1.795.119 2.707-.119l14.303-94.054zM129.701 248.4096h13.272v-33.067l30.758-5.797c2.084-.393 3.844-1.908 3.844-4.241v-.001c0-2.332-1.761-4.633-3.844-4.241l-33.55 6.324h-7.688l-33.55-6.324c-2.083-.392-3.844 1.908-3.844 4.241v.001c0 2.333 1.76 3.848 3.844 4.241l30.758 5.797v33.067z" fill="#404041" fill-rule="evenodd"/><path d="M98.5387 195.127c2.84 0 5.156 2.555 5.156 5.688 0 3.132-2.316 5.687-5.156 5.687-2.839 0-5.155-2.555-5.155-5.687 0-3.133 2.316-5.688 5.155-5.688M173.7307 195.127c2.84 0 5.155 2.555 5.155 5.688 0 3.132-2.315 5.687-5.155 5.687-2.839 0-5.155-2.555-5.155-5.687 0-3.133 2.316-5.688 5.155-5.688" fill="#6d6e70" fill-rule="evenodd"/><path d="M131.6713 215.3431h9.332l-1.748-14.972h-5.837l-1.747 14.972z" fill="#404041" fill-rule="evenodd"/><path d="M136.1837 195.127c2.84 0 5.155 2.555 5.155 5.688 0 3.132-2.315 5.687-5.155 5.687-2.839 0-5.155-2.555-5.155-5.687 0-3.133 2.316-5.688 5.155-5.688" fill="#6d6e70" fill-rule="evenodd"/><path d="M216.094 419.0515c.233-1.163-.443-2.311-1.493-2.582l-19.209-4.962c-1.05-.271-2.107.484-2.34 1.647-.233 1.163.441 2.309 1.493 2.581l19.209 4.963c1.052.271 2.107-.484 2.34-1.647" fill="#fdd4b4" fill-rule="evenodd"/><path d="M181.8876 409.8335l7.9-8.201 5.841 6.848 12.098 5.689-11.744 12.191-14.095-16.527z" fill="#fdd4b4" fill-rule="evenodd"/><path d="M212.5721 413.2722c.233-1.163-.443-2.311-1.493-2.582l-19.209-4.962c-1.05-.272-2.107.483-2.34 1.646-.233 1.163.441 2.31 1.492 2.582l19.21 4.962c1.051.272 2.107-.483 2.34-1.646M221.3181 425.5058c.233-1.163-.442-2.311-1.493-2.582l-18.499-4.767c-1.051-.27-2.108.484-2.34 1.647-.233 1.163.441 2.311 1.492 2.582l18.5 4.767c1.051.27 2.107-.484 2.34-1.647" fill="#fdd4b4" fill-rule="evenodd"/><path d="M210.3844 445.4407l9.824-5.299c1.904-1.026 3.029-2.468 2.099-4.568l-13.39-30.881c-.93-2.099-2.94-1.988-4.843-.962l-9.825 5.299c-1.902 1.027-3.006 2.595-2.076 4.694l13.39 30.881c.931 2.099 2.918 1.862 4.821.836" fill="#404041" fill-rule="evenodd"/><path d="M207.0928 443.4328l13.701-7.39c.027-.014.038-.05.025-.079l-13.246-29.892c-.013-.029-.045-.042-.072-.028l-13.701 7.391c-.027.014-.038.05-.025.079l13.246 29.892c.013.029.046.041.072.027" fill="#fff" fill-rule="evenodd"/><path d="M211.2508 443.0424l5.077-2.738c.137-.075.195-.259.128-.411-.068-.152-.235-.215-.373-.141l-5.076 2.738c-.138.074-.196.259-.129.411h.001c.067.152.234.215.372.141M200.3428 409.0448c.467-.252.661-.874.432-1.389-.228-.516-.792-.729-1.259-.477-.467.252-.661.874-.432 1.389.228.515.792.729 1.259.477" fill="#58595b" fill-rule="evenodd"/><path d="M218.1334 419.5546c.233-1.163-.441-2.323-1.493-2.582l-3.045-.75c-1.052-.26-2.107.483-2.34 1.646-.233 1.163.439 2.322 1.493 2.581l3.045.752c1.054.259 2.107-.484 2.34-1.647M188.6937 415.6867l1.01-1.048 1.065 1.492 8.561 11.972c1.78 2.49.692 7.26-.692 5.647l-10.105-14.132c-.849-1.187-.777-2.957.161-3.931" fill="#fdd4b4" fill-rule="evenodd"/><path d="M217.993 439.755c.293-.158.414-.547.271-.87-.143-.323-.496-.457-.789-.299-.293.158-.414.548-.271.87.143.323.496.457.789.299" fill="#58595b" fill-rule="evenodd"/><path d="M203.3299 429.7944l.066-.036.261.589 11.181-6.031.033.074-11.181 6.031 3.296 7.438-.066.036-3.297-7.438-1.138.614-.033-.074 1.139-.614-.261-.589z" fill="#5e5f5f" fill-rule="evenodd"/><path d="M206.0517 434.3944l.656-.354-1.765-3.983-.656.354 1.765 3.983z" fill="#6abbc1" fill-rule="evenodd"/><path d="M206.5017 432.7769l.656-.354-1.273-2.873-.656.354 1.273 2.873z" fill="#f06022" fill-rule="evenodd"/><path d="M208.2667 434.1265l.656-.354-2.096-4.731-.656.354 2.096 4.731z" fill="#efaf42" fill-rule="evenodd"/><path d="M208.2737 431.5089l.656-.354-1.161-2.621-.656.354 1.161 2.621z" fill="#6abbc1" fill-rule="evenodd"/><path d="M209.4945 431.6307l.656-.354-1.44-3.251-.657.354 1.441 3.251z" fill="#f06022" fill-rule="evenodd"/><path d="M211.2317 432.9174l.656-.354-2.236-5.046-.656.354 2.236 5.046z" fill="#efaf42" fill-rule="evenodd"/><path d="M211.4061 430.6777l.656-.354-1.468-3.314-.657.354 1.469 3.314z" fill="#6abbc1" fill-rule="evenodd"/><path d="M212.9198 431.4608l.656-.354-2.04-4.605-.657.354 2.041 4.605z" fill="#f06022" fill-rule="evenodd"/><path d="M213.192 429.4415l.656-.354-1.371-3.094-.656.355 1.371 3.093z" fill="#efaf42" fill-rule="evenodd"/><path d="M215.3336 431.6414l.656-.354-2.571-5.801-.656.354 2.571 5.801z" fill="#6abbc1" fill-rule="evenodd"/><path d="M207.731 414.97l.902-1.706c.295.19.544.475.706.839 0 .001 0 .001.001.002l-1.609.866v-.001z" fill="#f06022" fill-rule="evenodd"/><path d="M207.7313 414.9713l1.609-.866c.432.979.064 2.16-.823 2.638l-.786-1.772z" fill="#efaf42" fill-rule="evenodd"/><path d="M207.7313 414.9713l.786 1.772c-.888.479-1.96.074-2.394-.906-.434-.98-.067-2.162.822-2.641.557-.301 1.188-.253 1.687.068l-.901 1.706v.001zM204.7175 418.793c-.888.479-1.96.073-2.394-.906-.434-.98-.066-2.163.822-2.642.558-.301 1.188-.252 1.688.068.295.19.544.475.706.839 0 .001 0 .002.001.003.432.979.064 2.16-.823 2.638" fill="#6abbc1" fill-rule="evenodd"/><path d="M204.7175 418.793l-.786-1.774-.013-.005.002-.003 1.783-.273c.108.825-.27 1.669-.986 2.055" fill="#efaf42" fill-rule="evenodd"/><path d="M205.7031 416.7377l-1.783.273-.008.001-1.673-.636c.149-.477.463-.891.906-1.13.506-.273 1.071-.259 1.544-.015.358.184.663.5.85.921.084.19.138.388.164.586" fill="#f06022" fill-rule="evenodd"/><path d="M200.9178 420.8423c-.888.479-1.96.073-2.394-.907-.434-.979-.066-2.162.822-2.641.558-.301 1.188-.252 1.688.068.295.19.545.475.706.839 0 .001.001.002.001.003.432.979.064 2.16-.823 2.638" fill="#6abbc1" fill-rule="evenodd"/><path d="M200.3933 417.1149l-.281 1.957-1.754.271c-.104-.824.274-1.663.988-2.048.337-.182.701-.237 1.047-.18" fill="#f06022" fill-rule="evenodd"/><path d="M200.1123 419.0716l.281-1.957c.563.093 1.077.479 1.346 1.087.206.463.232.971.108 1.429l-1.716-.562-.019.003z" fill="#efaf42" fill-rule="evenodd"/><path d="M197.5839 417.2588l2.818-1.52-.102-.232-2.819 1.521.103.231zM197.3905 416.8219l2.818-1.52-.102-.232-2.819 1.52.103.232zM197.1968 416.3851l2.818-1.52-.102-.232-2.818 1.52.102.232zM197.003 415.9483l2.819-1.52-.103-.232-2.818 1.52.102.232zM196.8096 415.5115l1.409-.76-.102-.231-1.409.759.102.232zM201.3832 415.2094l2.819-1.52-.103-.231-2.818 1.52.102.231zM201.1898 414.7726l2.818-1.52-.102-.231-2.818 1.52.102.231zM200.996 414.3358l2.819-1.52-.103-.231-2.818 1.52.102.231zM200.8026 413.899l2.818-1.52-.102-.232-2.818 1.521.102.231zM200.6092 413.4622l1.409-.76-.103-.231-1.409.759.103.232zM205.1829 413.1601l2.818-1.52-.102-.231-2.818 1.52.102.231zM204.9894 412.7233l2.818-1.52-.102-.231-2.818 1.52.102.231zM204.7957 412.2865l2.818-1.52-.102-.231-2.818 1.52.102.231zM204.6023 411.8497l2.818-1.52-.102-.231-2.819 1.52.103.231zM204.4085 411.4129l1.409-.76-.102-.231-1.409.76.102.231z" fill="#a6a8ab" fill-rule="evenodd"/><path d="M210.7588 422.6859l-2.159.856-1.42-1.365-.024-.023-.025.022-1.215 1.034-2.02-.526h-.002l-1.347-.291-.015.084 1.346.291 2.038.53.018.005.014-.013 1.205-1.025 1.414 1.358.017.017.022-.009 2.179-.864-.026-.081z" fill="#f06022" fill-rule="evenodd"/><path d="M210.6302 422.2039l-2.845 1.273-1.578-1.187-.019-.014-.021.011-1.78.984-1.833-.876-.031.079 1.849.884.017.008.016-.009 1.777-.982 1.577 1.186.017.013.02-.009 2.864-1.281-.03-.08z" fill="#efaf42" fill-rule="evenodd"/><path d="M210.8603 423.2432l-2.061-1.956-.03-.028-.026.034-1.682 2.303-2.002-1.329-.024-.016-.021.02-1.336 1.261-1.085-1.159-.054.062 1.11 1.186.026.027.027-.025 1.341-1.267 2.007 1.333.029.019.022-.029 1.678-2.298 2.03 1.927.051-.065z" fill="#6abbc1" fill-rule="evenodd"/><path d="M202.3085 422.0454l.041-.022.16.362 6.874-3.707.02.045-6.874 3.708 2.027 4.572-.041.022-2.026-4.573-.7.378-.02-.045.7-.378-.161-.362z" fill="#5e5f5f" fill-rule="evenodd"/><path d="M210.0324 439.0466l5.908-3.186-.217-.49-5.908 3.186.217.49zM208.4326 439.0526l8.494-4.582-.108-.245-8.495 4.582.109.245z" fill="#a6a8ab" fill-rule="evenodd"/><path d="M215.175 414.1154c.233-1.163-.441-2.322-1.493-2.581l-3.576-.882c-1.051-.259-2.106.484-2.34 1.647-.233 1.163.439 2.321 1.493 2.581l3.576.882c1.054.26 2.107-.483 2.34-1.647M191.0223 409.9559c-.468.738-4.754 5.015-6.097 3.44-1.344-1.575-9.945-9.945-9.61-10.24.334-.295 6.083-10.03 6.417-9.293.334.738 14.164 12.905 14.164 12.905l-4.874 3.188z" fill="#fdd4b4" fill-rule="evenodd"/><path d="M171.7098 403.3982c.535.516 5.147 4.793 5.147 4.793l9.2-12.94-4.387-3.21-9.96 11.357z" fill="#e6e7e8" fill-rule="evenodd"/><path d="M105.1542 415.5356c.032-.03 8.11 13.424 12.963 7.348l27.736-34.736c2.585-2.069 28.877 19.031 28.887 18.864l9.672-13.786c-.108-.035-31.379-28.22-39.686-28.538-19.895 10.741-50.582 36.459-50.668 36.541-8.974 9.061 3.092 20.956 11.096 14.307" fill="#39383a" fill-rule="evenodd"/><path d="M99.8418 426.8013s-15.789-4.401-10.511-42.098c4.869-23.633-3.089-67.313 6.864-63.741l38.208 5.918c-5.585 9.772-2.857 39.558-3.874 46.599 3.271 5.602 8.071 16.17 7.724 21.401-.347 5.231-8.993 15.938-13.947 20.339-4.954 4.401-3.866 3.024-5.232 3.523-4.746 6.3-10.978 9.648-19.232 8.059" fill="#dfe9e8" fill-rule="evenodd"/><path d="M115.0072 433.0578c-1.381-9.162.158-17.24-.001-17.096-.657.587-15.901 7.645-15.365 7.742.537.097 2.516 15.952 1.362 16.544l14.004-7.19z" fill="#fbd2c0" fill-rule="evenodd"/><path d="M118.0165 413.3703c.1.885.1 9.513.1 9.513s-16.244 11.173-17.447 11.394c-1.202.221-4.645-7.835-4.645-7.835l21.992-13.072z" fill="#d0d2d3" fill-rule="evenodd"/><path d="M119.7789 499.6347c16.117 0 30.625-12.369 27.645-31.549-.834-5.363-3.451-7.92-3.864-10.56 2.23-7.211 5.174-8.64 4.697-11.509-.207-1.248-4.863-1.643-7.003-1.764-2.919-10.49-11.078-15.09-21.475-15.09-8.674 0-16.465 4.569-21.809 11.822-4.587 6.225-7.374 14.427-7.374 23.414 0 19.46 13.066 35.236 29.183 35.236" fill="#fbd2c0" fill-rule="evenodd"/><path d="M143.0651 459.3419c.515 3.29-7.342 8.469-11.902 3.028 3.37 1.339 8.781.323 11.902-3.028" fill="#553124" fill-rule="evenodd"/><path d="M108.688 451.6084s1.905 13.164 1.304 17.589c-.602 4.424-2.005 6.489-7.019 6.194-8.543-.502-5.842-17.367.134-21.608 0 0-2.328-8.791-3.977-14.284-17.873 9.675-11.299 61.345 7.152 58.204 10.518 10.978 40.321-.757 41.942-14.101 6.517-1.583 5.603-12.921 1.813-20.446-.61-1.209-24.827 7.532-33.356 9.439-3.963-15.854-4.742-17.991-7.993-20.987" fill="#553124" fill-rule="evenodd"/><path d="M215.5498 381.2767c.04-.039 14.937-8.013 6.116-8.463-3.258-.165-6.166 1.438-6.216 2.268-.05.83.1 6.195.1 6.195" fill="#e9c0ae" fill-rule="evenodd"/><path d="M223.8357 376.3138c.006-.216.043-2.101.043-2.101l4.105-2.711-1.669 4.988-2.479-.176z" fill="#fff" fill-rule="evenodd"/><path d="M209.1013 397.4227l-.941-.871-1.897 2.494c-.149.193-.105.343.019.499l.475.436c.129.119.331.091.448-.065l1.896-2.493z" fill="#bbbdbf" fill-rule="evenodd"/><path d="M210.893 396.754l-2.447-2.26-1.686 2.212c-.075.097-.113.22-.107.341.004.121.053.231.135.308l1.834 1.699c.083.075.188.108.298.091.109-.015.215-.078.287-.175l1.686-2.216z" fill="#647882" fill-rule="evenodd"/><path d="M207.5994 398.1069l.105.098.514.474.404.375c.082.075.187.108.298.092.109-.016.214-.079.287-.176l1.634-2.149-1.714-.723-1.529 2.008.001.001z" fill="#43525a" fill-rule="evenodd"/><path d="M223.8784 374.213l-16.562 21.763 2.446 2.265 16.553-21.752-2.437-2.276z" fill="#647882" fill-rule="evenodd"/><path d="M225.0676 375.3271l-16.638 21.679 1.333 1.235 16.552-21.752-1.247-1.162z" fill="#43525a" fill-rule="evenodd"/><path d="M209.8556 398.2019l-.26.339-2.762-2.552c-.215-.198-.254-.251-.07-.507l4.494-5.911.766-.135-1.542 2.097-.315.078-2.878 3.778c-.158.209-.181.264.018.457l2.549 2.356z" fill="#abacae" fill-rule="evenodd"/><path d="M206.4868 399.7328l.27.249c.13.118.331.089.448-.066l.971-1.276-.317-.293-.192-.178-1.18 1.564z" fill="#a7a7a8" fill-rule="evenodd"/><path d="M209.942 369.169h44.118v3.071h-44.118v-3.071z" fill="#fff" fill-rule="evenodd"/><path d="M192.3899 380.1384c2.353.556 16.803 8.713 17.812 9.084 1.008.37 11.594-2.781 12.434-3.708.84-.927 9.074-10.752 8.234-11.123-.84-.371-1.26-.556-2.773-.371-1.512.185-3.696 2.874-3.696 2.874l-2.689 2.966-2.684.63c3.173-7.096-3.858-13.983-10.304-10.932-.037-.306-10.522 2.103-10.308 1.698l-6.026 8.882zM98.5687 329.1159c-2.949-8.133-8.179-30.926 6.934-33.308 7.019-1.105 78.446-7.306 78.446-7.306l14.459-75.609 30.057 1.623c-7.45 18.003-13.192 92.455-30.057 95.674l-72.17 18.694-27.669.232z" fill="#fbd2c0" fill-rule="evenodd"/><path d="M182.5739 319.4891c-.715-2.806-5.348-33.333-10.16-33.333-4.813 0-73.054 4.035-78.281 11.232-5.227 7.197-5.409 30.655 7.96 34.785 13.369 4.13 80.481-12.684 80.481-12.684" fill="#393939" fill-rule="evenodd"/><path d="M93.5449 426.9705c4.022 2.478 3.408 4.361 7.354 3.518 3.946-.844 18.06-18.342 18.849-17.235.568.798 22.5-120.943-19.311-111.322l-16.517 3.8s10.893 41.896 4.413 70.651c-4.459 19.786 1.19 48.11 5.212 50.588" fill="#404041" fill-rule="evenodd"/><path d="M163.2132 387.4466c1.872-.443 36.76-6.69 36.23-5.457-.529 1.232.238-11.627-.723-10.696-.961.932-31.851 2.205-31.851 2.205l-3.656 13.948z" fill="#fbd2c0" fill-rule="evenodd"/><path d="M168.6941 385.1819l10.204.824-.77-14.868-5.922.336-5.337 2.025.344 13.635 1.481-1.952z" fill="#fff" fill-rule="evenodd"/><path d="M110.5488 422.145c.082-.078 21.398-19.578 32.678-26.793 1.829-.913 32.442-8.687 32.468-8.786l-1.257-15.995c-.109-.035-22.063.671-36.271 5.976-19.894 10.741-40.694 29.811-40.781 29.893-8.974 9.06 5.159 22.354 13.163 15.705" fill="#404041" fill-rule="evenodd"/><path d="M174.7488 374.53l-.311-3.959c-.109-.035-22.063.671-36.27 5.976-19.895 10.741-40.695 29.811-40.782 29.893-.626.632-1.135 1.285-1.546 1.95 7.532-5.075 32.49-21.864 38.345-25.422 9.02-5.48 29.554-6.378 40.564-8.438" fill="#3c3c42" fill-rule="evenodd"/><path d="M106.57 472.2479c-.513.057-3.596.736-5.497-1.7-1.901-2.437-1.592-9.579-.103-11.619 1.49-2.04 4.162-2.947 6.011-1.587 1.85 1.36 2.517 2.947.976 4.08-1.541 1.134-2.774 2.212-2.26 3.118.514.906 1.387.566 2.055 1.36.668.794.257 3.061-.206 4.761-.462 1.7-.976 1.587-.976 1.587" fill="#f8a98e" fill-rule="evenodd"/><path d="M602.7414 215.3959c-.086-.895.858-20.087.858-20.087l-14.791.284.292 2.496c-6.276-4.234-21.779-3.025-23.935-2.543-7.723 1.725-14.64 4.822-14.64 4.822l.43 2.145s-.798 2.377 1.739 2.537c24.272 1.53 29.698 9.16 34.141 11.001.427.177 15.906-.655 15.906-.655" fill="#202021" fill-rule="evenodd"/><path d="M656.717 289.6686l-4.142 28.002s-79.886-4.763-84.484-16.897c-3.703-9.77 5.219-91.943 5.219-91.943l31.294 5.389s-14.031 69.766-12.741 70.335c1.29.57 64.854 5.114 64.854 5.114" fill="#353537" fill-rule="evenodd"/><path d="M596.7907 211.6943c-.086-.895-.691-16.385-.691-16.385l-14.79.284.292 2.496c-6.277-4.234-21.779-3.026-23.936-2.544-7.722 1.726-14.64 4.822-14.64 4.822l.43 2.146s-.798 2.377 1.74 2.537c24.272 1.53 29.697 9.159 34.141 11.001.427.177 17.454-4.357 17.454-4.357" fill="#262629" fill-rule="evenodd"/><path d="M680.2132 267.8898c-.635-1.402-.292-3.158.882-4.132l5.027-4.172c1.322-1.096 3.215-.8 4.208.657l.001.001c.993 1.457.725 3.546-.596 4.642l-5.027 4.172c-1.165.966-2.774.85-3.819-.188l-3.502 2.72-.434 5.126-1.109-.111.458-5.411.024-.285.21-.163 3.677-2.856z" fill="#404041" fill-rule="evenodd"/><path d="M653.355 241.623h8.387v37.545h-8.387v-37.545z" fill="#808184" fill-rule="evenodd"/><path d="M657.549 279.169h-4.194v-37.545h4.194v37.545z" fill="#8d8d8d" fill-rule="evenodd"/><path d="M719.5621 381.6643c.031-6.307.137-12.51.24-18.581.698-40.997 1.291-75.894-21.977-76.84l.21-6.554c29.108 1.183 28.464 39.032 27.708 83.496-.103 6.088-.21 12.305-.24 18.505l-5.941-.026z" fill="#58595b" fill-rule="evenodd"/><path d="M719.5621 381.6643c.031-6.307.137-12.51.24-18.581.698-40.997 1.291-75.894-21.977-76.84l.201-6.284c26.061 3.625 25.441 40.348 24.712 83.226-.104 6.083-.21 12.297-.24 18.492l-2.936-.013z" fill="#49494b" fill-rule="evenodd"/><path d="M657.6792 305.3857c-30.887 0-55.926-10.495-55.926-23.442 0-.939.136-1.865.392-2.775h111.068c.256.91.392 1.836.392 2.775 0 12.947-25.039 23.442-55.926 23.442" fill="#58595b" fill-rule="evenodd"/><path d="M601.5217 282.2156c-.018-.205-.028-.413-.028-.623 0-3.477 2.579-6.323 5.732-6.323h21.425c2.448-2.245 14.455-3.949 28.898-3.949 14.444 0 26.451 1.704 28.899 3.949h21.426c3.152 0 5.731 2.846 5.731 6.323 0 .21-.009.418-.028.623h-112.055z" fill="#404041" fill-rule="evenodd"/><path d="M723.662 400.3573h-5.592c-2.614 0-4.752-2.36-4.752-5.244v-17.89c0-2.884 2.138-5.243 4.752-5.243h5.592c2.614 0 4.753 2.359 4.753 5.243v17.89c0 2.884-2.139 5.244-4.753 5.244" fill="#6d6e70" fill-rule="evenodd"/><path d="M703.8987 387.7704c-4.015-26.296.071-48.977 9.127-50.66.657-.122 1.322-.127 1.992-.027l14.439 94.558c-.604.336-1.234.572-1.891.694-9.055 1.683-19.651-18.269-23.667-44.565" fill="#58595b" fill-rule="evenodd"/><path d="M710.5557 338.1626c.776-.534 1.599-.891 2.469-1.053.658-.122 1.322-.127 1.993-.026l14.439 94.557c-.603.337-1.234.573-1.891.695-.89.165-1.794.119-2.707-.119l-14.303-94.054zM664.1852 248.4096h-13.271v-33.067l-30.759-5.797c-2.084-.393-3.844-1.908-3.844-4.241v-.001c0-2.332 1.761-4.633 3.844-4.241l33.55 6.324h7.688l33.55-6.324c2.083-.392 3.844 1.908 3.844 4.241v.001c0 2.333-1.76 3.848-3.844 4.241l-30.758 5.797v33.067z" fill="#404041" fill-rule="evenodd"/><path d="M695.3478 195.127c2.839 0 5.155 2.555 5.155 5.688 0 3.132-2.316 5.687-5.155 5.687-2.84 0-5.156-2.555-5.156-5.687 0-3.133 2.316-5.688 5.156-5.688M620.1558 195.127c2.839 0 5.155 2.555 5.155 5.688 0 3.132-2.316 5.687-5.155 5.687-2.84 0-5.155-2.555-5.155-5.687 0-3.133 2.315-5.688 5.155-5.688" fill="#6d6e70" fill-rule="evenodd"/><path d="M662.215 215.3431h-9.332l1.748-14.972h5.837l1.747 14.972z" fill="#404041" fill-rule="evenodd"/><path d="M657.7029 195.127c2.839 0 5.155 2.555 5.155 5.688 0 3.132-2.316 5.687-5.155 5.687-2.84 0-5.155-2.555-5.155-5.687 0-3.133 2.315-5.688 5.155-5.688" fill="#6d6e70" fill-rule="evenodd"/><path d="M682.5338 315.4895c1.549-4.271 13.527-7.874 11.208-15.628-2.321-7.753-20.499-12.845-29.532-14.269-9.033-1.423-76.735-6.002-76.735-6.002l9.316-67.896-28.326-1.819-4.606 67.858c-1.321 19.464 7.598 24.973 20.83 26.964l58.079 11.549 39.766-.757z" fill="#393939" fill-rule="evenodd"/><path d="M690.5972 431.7688s25.726 4.453 13.564-50.511c-6.283-28.355-5.907-74.865-18.751-70.579l-30.324 5.334c-4.806.548-4.352 15.985-1.807 40.261 3.79 36.153 3.168 59.13 37.318 75.495" fill="#dfe9e8" fill-rule="evenodd"/><path d="M675.1148 436.6367c1.777-11.791-.203-22.187.002-22.003.845.756 20.464 9.84 19.773 9.964-.69.125-1.47 31.715-1.47 31.715l-18.305-19.676z" fill="#fbd2c0" fill-rule="evenodd"/><path d="M656.9662 506.1502c-21.535-5.159-30.437-17.777-23.641-41.219.925-3.187 5.757-7.85 6.397-9.259-.854-8.157-2.731-10.276-1.634-13.178.478-1.263 3.632-.942 5.911-.529 3.013-5.918 9.248-14.081 15.058-15.318 13.851-2.948 41.275 22.697 35.949 49.756-4.035 20.496-21.066 33.814-38.04 29.747" fill="#fbd2c0" fill-rule="evenodd"/><path d="M667.5098 474.2704c1.225-7.477 6.518-16.286 11.355-17.239.226-.045-6.685 13.315-2.862 18.466 4.813 6.484 15.121.286 10.356-11.826 0 0 4.666-9.644 12.938-8.198-6.05 7.294 5.725 54.425-25.726 53.03-10.305 6.656-26.868-.669-34.665-6.581-1.214-.787-2.374-1.663-3.464-2.625-8.931-7.87-12.135-18.46-11.234-25.607 1.004-7.958 6.685-12.062 6.665-12.027-.333.594-1.905 4.622-2.469 7.186 3.341-3.561 8.067-5.609 8.067-5.609s-.118.128-.311.411c-.005.012-1.228 3.079-2.187 5.524-.132.555-.258 1.155-.373 1.802l-.001.01s.924-2.355 5.804-4.113c4.88-1.76 7.649-1.219 7.649-1.219s-1.398.834-2.965 2.332c2.565-.489 5.165-.663 7.315-.181-1.19.804-3.962 2.988-3.962 2.988s5.012-.933 10.432-.485c3.359.279 7.201 2.393 9.638 3.961" fill="#553124" fill-rule="evenodd"/><path d="M663.1086 412.6507c-17.332-20.85-13.986-97.353-13.986-97.353l6.797 9.913c3.915 25.065-5.161 57.081 11.188 90.212l-3.999-2.772z" fill="#58595b" fill-rule="evenodd"/><path d="M136.3253 460.1789c1.074.243 2.229-.434 2.579-1.512.35-1.078-.238-2.148-1.312-2.39-1.075-.243-2.23.434-2.579 1.511-.35 1.078.238 2.148 1.312 2.391" fill="#404041" fill-rule="evenodd"/><path d="M662.7439 407.91c.018 1.148 1.439 12.141 1.439 12.141s32.027 18.355 33.595 18.396c1.569.041 4.63-10.913 4.63-10.913l-39.664-19.624z" fill="#d0d2d3" fill-rule="evenodd"/><path d="M198.408 195.127h390.374v168.427H198.408V195.127z" fill="#6d6e70" fill-rule="evenodd"/><path d="M503.3885 269.5769l86.678.17c1.274.002 2.256-1.152 2.316-2.556l2.99-70.337c.06-1.403-1.043-2.555-2.316-2.555h-92.888c-1.274 0-2.381 1.152-2.316 2.555l3.22 70.168c.064 1.404 1.042 2.553 2.316 2.555" fill="#404041" fill-rule="evenodd"/><path d="M503.5368 266.8534l-3.205-69.83h92.562l-2.981 69.999-86.376-.169z" fill="#58595b" fill-rule="evenodd"/><path d="M534.7236 275.5457c-.124 0-.225-.112-.225-.248v-6.185c0-.137.101-.248.225-.248h23.777c.124 0 .225.111.225.248v6.185c0 .136-.101.248-.225.248h-23.777zm0 4.652h23.777c1.516 0 2.755-1.368 2.755-3.039v-8.047c0-1.672-1.239-3.039-2.755-3.039h-23.777c-1.515 0-2.755 1.367-2.755 3.039v8.047c0 1.671 1.24 3.039 2.755 3.039" fill="#20121d" fill-rule="evenodd"/><path d="M499.1459 270.4365h94.933c1.302 0 2.367-1.175 2.367-2.612v-32.084c-11.48-8.336-29.53-13.711-49.834-13.711-20.304 0-38.353 5.375-49.833 13.71v32.085c0 1.437 1.065 2.612 2.367 2.612" fill="#393939" fill-rule="evenodd"/><path d="M546.6118 223.3741c-18.985 0-36.639 5.092-48.437 13.972l-.177.132v32.628c.247.153.522.258.813.304v-32.457c11.665-8.698 29.071-13.682 47.801-13.682 18.731 0 36.138 4.984 47.802 13.682v32.457c.291-.046.565-.151.813-.304v-32.627l-.177-.133c-11.797-8.88-29.452-13.972-48.438-13.972" fill="#58595b" fill-rule="evenodd"/><path d="M541.0878 227.868h8.593c.545 0 .991-.492.991-1.093v-10.14c0-.601-.446-1.093-.991-1.093h-8.593c-.545 0-.99.492-.99 1.093v10.14c0 .601.445 1.093.99 1.093" fill="#e4e4e4" fill-rule="evenodd"/><path d="M542.1227 225.7498h6.523c.319 0 .579-.287.579-.639v-6.811c0-.352-.26-.639-.579-.639h-6.523c-.319 0-.579.287-.579.639v6.811c0 .352.26.639.579.639" fill="#828085" fill-rule="evenodd"/><path d="M536.1348 434.5469l5.404-61.844c.1-1.136 1.023-1.976 2.055-1.866 1.03.109 1.791 1.128 1.692 2.266l-5.404 61.843c-.099 1.137-1.024 1.976-2.053 1.866-1.031-.11-1.793-1.128-1.694-2.265" fill="#5e6064" fill-rule="evenodd"/><path d="M536.1348 434.5469l5.404-61.844c.1-1.136 1.023-1.976 2.055-1.866.024.002.048.006.073.009l-5.838 65.966c-1.031-.11-1.793-1.128-1.694-2.265" fill="#4f4e51" fill-rule="evenodd"/><path d="M548.8398 372.7804l5.007.011-.002.926-5.007-.011.002-.926zM554.2326 372.7917l5.008.011-.002.927-5.008-.012.002-.926zM559.6266 372.8032l5.007.011-.002.927-5.007-.011.002-.927zM565.0194 372.8152l5.006.011-.001.926-5.007-.01.002-.927zM570.4122 372.8269l5.007.01-.002.927-5.007-.011.002-.926zM575.8059 372.8386l5.007.011-.002.926-5.007-.011.002-.926z" fill="#595b5d" fill-rule="evenodd"/><path d="M600.0023 373.3346l-56.317-.122c-1.034-.002-1.879-.938-1.877-2.08.002-1.14.85-2.074 1.885-2.071l56.316.121c1.034.002 1.879.94 1.877 2.08-.002 1.142-.85 2.074-1.884 2.072" fill="#424142" fill-rule="evenodd"/><path d="M582.6875 370.2669l4.994.011-.003 1.408-4.994-.01.003-1.409zM589.3861 370.2813l4.995.011-.002 1.408-4.995-.01.002-1.409zM549.4607 372.1232l29.521.064c.259.001.471-.232.471-.516l.002-1.189c.001-.286-.211-.518-.469-.519l-29.52-.064c-.259 0-.471.232-.471.517l-.002 1.189c-.001.285.21.518.468.518" fill="#373737" fill-rule="evenodd"/><path d="M696.0578 431.1705c-5.461.598-25.759-19.522-25.759-19.522-17.414-55.912-13.372-38.179-7.648-95.78 1.369-13.776 4.322-17.732 6.194-17.142 1.872.59 6.684-3.54 17.38-5.605 10.695-2.064 24.332 6.195 24.332 6.195s-4.719 77.198-3.61 92.036c1.109 14.837 2.942 21.829-.401 29.646-3.342 7.817-10.488 10.172-10.488 10.172" fill="#404041" fill-rule="evenodd"/><path d="M610.0702 392.1747c-2.405-.079-18.201 4.045-19.26 4.14-1.059.095-10.66-5.748-11.276-6.869-.616-1.121-6.49-12.827-5.594-12.967.896-.139 1.344-.209 2.772.369 1.429.577 2.97 3.762 2.97 3.762l1.971 3.588 3.874 3.235c-1.23-.995-4.401-5.661-4.741-6.683-.983-2.96-3.05-6.758-2.963-6.859.147-.169 1.588.06 3.085.522 1.497.462 4.042 5.85 4.127 5.929.086.08 2.979 2.727 3.658 3.291.101-.288 3.581-1.9 3.721-1.968 7.627-3.724 12.026-.141 11.906-.59l5.75 11.1z" fill="#fbd2c0" fill-rule="evenodd"/><path d="M590.8101 396.3148c-.802 0-10.01-1.638-12.149-3.482-2.139-1.843-11.096-8.702-9.358-9.365 1.738-.664 4.813 1.106 5.147 1.18.334.073 5.361 3.915 5.896 3.915.535 0 8.943 1.32 9.077 1.763.134.442 1.387 5.989 1.387 5.989" fill="#fbd2c0" fill-rule="evenodd"/><path d="M613.6158 390.77c-.869.516-9.96 3.982-9.96 3.982s-6.551-17.699-6.217-17.625c.334.074 10.763-1.77 10.763-1.77l5.414 15.413z" fill="#fff" fill-rule="evenodd"/><path d="M685.3116 423.9776c-.115-.086-28.047-48.376-28.047-48.376-23.458 10.022-49.729 18.87-49.679 18.568l-7.287-19.94c.134-.061 32.391-11.996 60.198-22.57 7.882 2.603 41.334 44.288 42.883 63.892.937 11.866-8.719 14.578-18.068 8.426" fill="#404041" fill-rule="evenodd"/><path d="M601.3135 377.0085l-1.015-2.779c.134-.061 32.391-11.996 60.198-22.57 7.407 2.446 37.396 39.409 42.266 60.123-.09-.024-2.68-.758-5.044-5.974-2.406-5.31-19.518-31.858-23.128-36.136-3.61-4.277-13.636-14.602-16.979-13.57-2.948.911-45.64 17.432-56.298 20.906" fill="#3c3c42" fill-rule="evenodd"/><path d="M518.983 369.169h15.68v2.389h-15.68v-2.389z" fill="#58595b" fill-rule="evenodd"/><path d="M528.2697 394.1428v-.358l-1.084.003v.357l1.084-.002zm.003.863l-.001-.358-1.085.003.001.357 1.085-.002zm0 .863v-.358l-1.084.003v.357l1.084-.002zm.002.862v-.357l-1.085.003.001.356 1.084-.002zm1.01.861v-.358l-2.093.005v.357l2.093-.004zm-1.007.865v-.358l-1.085.003.001.356 1.084-.001zm.001.862v-.357l-1.084.003v.356l1.084-.002zm.001.863v-.357l-1.084.003v.357l1.084-.003zm.002.863v-.358l-1.084.003v.357l1.084-.002zm1.011.861l-.001-.359-2.093.006.001.357 2.093-.004zm-1.008.864v-.357l-1.085.002.001.357 1.084-.002zm.001.863v-.358l-1.085.003.001.357 1.084-.002zm.002.863l-.001-.358-1.083.003v.357l1.084-.002zm.001.862v-.357l-1.085.002.001.358 1.084-.003zm1.011.861l-.001-.358-2.094.005.002.357 2.093-.004zm-1.008.865v-.358l-1.085.003.001.357 1.084-.002zm.001.863v-.358l-1.085.003.001.357 1.084-.002zm.002.862l-.001-.358-1.084.003.001.358 1.084-.003zm.002.863l-.001-.357-1.085.002.001.358 1.085-.003zm1.01.861l-.001-.358-2.093.005.001.357 2.093-.004zm-1.008.864l-.001-.357-1.083.003.001.356 1.083-.002zm.002.863l-.001-.358-1.084.003.001.358 1.084-.003zm.001.863l-.001-.358-1.084.003.002.357 1.083-.002zm.002.862v-.357l-1.085.003.001.356 1.084-.002zm1.009.861l.001-.357-2.093.005v.357l2.092-.005zm-1.006.865v-.357l-1.086.003.002.357 1.084-.003zm.001.863l-.001-.358-1.084.003.001.358 1.084-.003zm.001.863l.001-.358-1.085.002.001.359 1.083-.003zm.002.863l-.001-.358-1.084.002.001.359 1.084-.003zm1.011.86l-.001-.357-2.094.004.001.358 2.094-.005zm-1.008.865l-.001-.358-1.084.003.001.358 1.084-.003zm0 .862l.001-.357-1.085.002.001.357 1.083-.002zm.003.864l-.001-.358-1.084.002.001.359 1.084-.003zm.001.863l-.001-.358-1.084.002.001.359 1.084-.003zm1.011.86l-.001-.358-2.094.005.002.359 2.093-.006zm-1.009.864v-.357l-1.084.003.002.356 1.082-.002zm.003.863l-.001-.357-1.085.002.002.357 1.084-.002zm.001.864v-.358l-1.085.002.001.359 1.084-.003zm.002.863l-.001-.359-1.085.003.001.358 1.085-.002zm1.011.86l-.002-.358-2.093.005.002.356 2.093-.003zm-.059-34.51v-.358l-2.093.005v.357l2.093-.004zm-2.162 36.02l-.064-37.637 6.748-.013.063 37.636-6.747.014z" fill="#6d6e70" fill-rule="evenodd"/><path d="M531.949 391.651l1.851-.004.063 37.636-1.914.004v-37.636z" fill="#929497" fill-rule="evenodd"/><path d="M525.4562 412.8719l-1.607-.167-.363 4.263c-.012.129.019.256.087.353l.271.171.81.08c.22.023.419-.175.44-.439l.362-4.261z" fill="#bbbdbf" fill-rule="evenodd"/><path d="M526.9415 410.6703l-4.178-.426-.325 3.783c-.015.166.026.331.115.457.086.127.214.207.354.222l3.136.325c.14.013.276-.038.384-.147.108-.106.179-.262.192-.426l.322-3.788z" fill="#58595b" fill-rule="evenodd"/><path d="M524.2952 414.8503l1.748.181c.14.013.276-.038.385-.147.108-.106.178-.262.191-.426l.313-3.673-2.346.631-.292 3.434h.001z" fill="#404041" fill-rule="evenodd"/><path d="M525.7161 375.5766l-3.17 37.202 4.18.433 3.168-37.181-4.178-.454z" fill="#58595b" fill-rule="evenodd"/><path d="M527.757 375.8011l-3.309 37.173 2.278.238 3.168-37.182-2.137-.229z" fill="#404041" fill-rule="evenodd"/><path d="M526.745 412.9876l-.05.569-4.617-.474-.087-.008-.245-.156-.079-.315.848-9.926.448.047.424.156-.195 2.292-.489.584-.542 6.325.08.317.242.151 4.262.438z" fill="#abacae" fill-rule="evenodd"/><path d="M535.9536 409.8124l-2.069.229-3.209-35.14 2.071-.228 3.207 35.139z" fill="#404041" fill-rule="evenodd"/><path d="M534.9185 409.9268l-1.034.114-3.209-35.139 1.036-.115 3.207 35.14z" fill="#343538" fill-rule="evenodd"/><path d="M536.3404 418.5809c.013.275-1.195.448-1.244.14l-1.659-11.264 2.423-.269-.703-7.695.041-.005c.083.063.08.021.308 1.519.23 1.499.945 6.258.95 6.916.022 3.658-.195 6.501-.116 10.658" fill="#404041" fill-rule="evenodd"/><path d="M535.9187 407.8179l-2.597.289-.055-.632 2.594-.287.058.63z" fill="#504d6b" fill-rule="evenodd"/><path d="M516.6716 408.3271l6.752-27.186 2.415.726-6.754 27.189-1.34.164-1.073-.893z" fill="#00394f" fill-rule="evenodd"/><path d="M516.6716 408.3271l6.752-27.186 1.206.362-6.951 27.996-1.007-1.172z" fill="#00465e" fill-rule="evenodd"/><path d="M519.0848 409.0565l-2.818 6.123.403-6.824c.165-.201.391-.582.589-.529.383.103-.028 1.061.5 1.225.513.156.643-.903 1.003-.795.331.099.323.8.323.8" fill="#fbd2c0" fill-rule="evenodd"/><path d="M516.2663 415.1797l.403-6.824c.166-.201.391-.582.59-.529.382.103-.029 1.061.5 1.225l.026.005-1.519 6.123z" fill="#dbb4a5" fill-rule="evenodd"/><path d="M517.1233 413.3191l-.857 1.861.123-2.083.734.222z" fill="#414142" fill-rule="evenodd"/><path d="M518.6216 411.7075l3.518-27.92 2.48.377-3.52 27.923-1.309.353-1.169-.733z" fill="#00394f" fill-rule="evenodd"/><path d="M518.6216 411.7075l3.518-27.92 1.238.188-3.621 28.751-1.135-1.019z" fill="#00465e" fill-rule="evenodd"/><path d="M521.1 412.0876l-2.079 6.473-.398-6.824c.141-.224.319-.633.522-.609.392.048.097 1.057.64 1.143.526.082.531-.986.901-.931.34.051.414.748.414.748" fill="#fbd2c0" fill-rule="evenodd"/><path d="M519.0205 418.5606l-.398-6.824c.141-.224.32-.633.523-.609.391.048.096 1.057.639 1.143l.027.002-.791 6.288z" fill="#dbb4a5" fill-rule="evenodd"/><path d="M519.653 416.5935l-.633 1.967-.121-2.083.754.116z" fill="#414142" fill-rule="evenodd"/><path d="M536.1689 400.5854v-28.087c0-1.217-.695-2.22-1.54-2.22h-15.646c-.848 0-1.542 1.003-1.542 2.22v28.087h18.728z" fill="#6d6e70" fill-rule="evenodd"/><path d="M517.441 397.589h18.727v2.997h-18.727v-2.997z" fill="#404041" fill-rule="evenodd"/><path d="M536.1689 372.4988l-.001 25.09h-9.363v-27.31h7.825c.844 0 1.539 1.002 1.539 2.22" fill="#7f8085" fill-rule="evenodd"/><path d="M526.805 397.589h9.363v2.997h-9.363v-2.997z" fill="#535456" fill-rule="evenodd"/><path d="M191.7861 278.2371h-.001c-1.541 0-2.802-1.391-2.802-3.092v-8.137c0-1.701 1.261-3.092 2.802-3.092h.001c1.541 0 2.802 1.391 2.802 3.092v8.137c0 1.701-1.261 3.092-2.802 3.092" fill="#638f8e" fill-rule="evenodd"/><path d="M191.7861 263.9157h-.001c-1.541 0-2.802-1.391-2.802-3.092v-8.137c0-1.701 1.261-3.092 2.802-3.092h.001c1.541 0 2.802 1.391 2.802 3.092v8.137c0 1.701-1.261 3.092-2.802 3.092" fill="#f48245" fill-rule="evenodd"/><path d="M246.3615 292.5581h-54.576c-1.541 0-2.803-1.391-2.803-3.092v-8.137c0-1.701 1.262-3.092 2.803-3.092v-55.623h54.576v69.944z" fill="#d1aa67" fill-rule="evenodd"/><path d="M198.6969 271.6758c-1.301.305-2.591-.619-2.868-2.055l-1.323-6.867c-.277-1.435.561-2.859 1.862-3.164 1.301-.305 2.591.619 2.868 2.055l1.324 6.867c.276 1.435-.562 2.859-1.863 3.164" fill="#7e576a" fill-rule="evenodd"/><path d="M196.3679 259.5897c-1.301.305-2.591-.619-2.868-2.055l-1.323-6.867c-.277-1.435.561-2.859 1.862-3.164 1.301-.306 2.592.619 2.868 2.054l1.323 6.868c.277 1.435-.561 2.859-1.862 3.164" fill="#806b64" fill-rule="evenodd"/><path d="M247.0846 272.9587l-46.059 10.803c-1.301.305-2.591-.619-2.868-2.055l-1.323-6.867c-.277-1.435.561-2.859 1.862-3.164l-9.046-46.942 46.059-10.803 11.375 59.028z" fill="#43525a" fill-rule="evenodd"/><path d="M251.082 279.0495H230.43l.001-.087c0-25.664-17.684-46.468-39.497-46.468-4.561 0-8.941.912-13.016 2.586v-39.954h73.164v83.923z" fill="#393939" fill-rule="evenodd"/><path d="M177.918 195.127h73.164v14.356h-73.164v-14.356z" fill="#58595b" fill-rule="evenodd"/><path d="M177.918 212.214h73.164v2.802h-73.164v-2.802z" fill="#a6a8ab" fill-rule="evenodd"/><path d="M260.251 369.169h44.791v10.481h-44.791v-10.481z" fill="#806a50" fill-rule="evenodd"/><path d="M258.58 379.649h44.791v5.24H258.58v-5.24z" fill="#fdcf9d" fill-rule="evenodd"/><path d="M265.331 384.89h44.791v6.987h-44.791v-6.987z" fill="#a15641" fill-rule="evenodd"/><path d="M263.66 391.877h44.791v3.494H263.66v-3.494z" fill="#cbe6d2" fill-rule="evenodd"/><path d="M108.243 494.4093c-3.082 10.908-29.766 19.774-27.491-5.565.861-9.598 11.972-12.589 14.952-10.729 2.981 1.86 12.539 16.294 12.539 16.294" fill="#553124" fill-rule="evenodd"/><path d="M675.174 472.1914l-.288-3.497c-5.974-.275-24.741-7.892-28.15-12.764.746-2.84 1.43-5.921 1.497-7.74.144-3.894-3.962-5.006-6.772-1.509-2.809 3.496-5.794 11.84-5.506 12.237.211.291 4.827 2.066 7.288 2.996l.003.001c10.1 3.819 21.512 6.924 31.928 10.276" fill="#404041" fill-rule="evenodd"/><path d="M644.266 461.3013c-1.223-.458-2.444-.926-3.661-1.4-.904-.352-1.809-.709-2.707-1.083-.264-.11-.677-.268-1.021-.43.168-.669.537-1.662.691-2.083.56-1.537 1.202-3.063 1.904-4.527.72-1.504 1.608-3.196 2.632-4.47.658-.82 1.53-1.504 2.519-1.718.669-.145 1.412-.061 1.968.407.608.511.815 1.341.785 2.155-.034.917-.204 1.904-.373 2.802-.228 1.204-.506 2.402-.802 3.588-.416 1.661-.874 3.315-1.367 4.951-.175.581-.355 1.163-.545 1.739-.007.023-.015.046-.023.069" fill="#b8c5ce" fill-rule="evenodd"/><path d="M679.2244 477.9124c-3.678-.881-5.748-6.221-4.625-11.928 1.124-5.707 5.015-9.619 8.693-8.738 3.677.881 5.748 6.222 4.625 11.928-1.124 5.707-5.016 9.619-8.693 8.738" fill="#fbd2c0" fill-rule="evenodd"/><path d="M678.105 473.731c.425.152 2.918 1.351 4.93-.324 2.013-1.676 2.941-7.776 2.021-9.803-.92-2.027-3.028-3.335-4.818-2.559-1.79.775-2.619 1.981-1.504 3.252 1.114 1.271 1.977 2.432 1.392 3.094-.585.662-1.267.197-1.964.733-.697.536-.726 2.536-.618 4.067.108 1.532.561 1.54.561 1.54" fill="#f8a98e" fill-rule="evenodd"/><path d="M476.24 369.169h20.558v1.678H476.24v-1.678z" fill="#e6e7e8" fill-rule="evenodd"/><path d="M497.3979 387.3935v-8.836c0-.239-.011-.474-.032-.705h2.745c.857 0 1.557.773 1.557 1.717v6.106c0 .945-.7 1.718-1.557 1.718h-2.713zm0 1.876v-.388h2.713c1.599 0 2.906-1.442 2.906-3.206v-6.106c0-1.763-1.307-3.206-2.906-3.206h-3.035c-.705-2.314-2.488-3.968-4.564-3.968h-11.985c-2.687 0-4.886 2.772-4.886 6.162v10.712h21.757z" fill="#a15641" fill-rule="evenodd"/><path d="M497.398 389.269h-21.757v.902h21.757v-.902zM497.7938 370.1367l10.91 3.872h-44.369l10.91-3.872h22.549z" fill="#d0d2d3" fill-rule="evenodd"/><path d="M297.791 369.169h20.558v1.678h-20.558v-1.678z" fill="#e6e7e8" fill-rule="evenodd"/><path d="M318.9484 387.3935v-8.836c0-.239-.011-.474-.032-.705h2.745c.857 0 1.557.773 1.557 1.717v6.106c0 .945-.7 1.718-1.557 1.718h-2.713zm0 1.876v-.388h2.713c1.599 0 2.906-1.442 2.906-3.206v-6.106c0-1.763-1.307-3.206-2.906-3.206h-3.035c-.705-2.314-2.488-3.968-4.564-3.968h-11.984c-2.688 0-4.887 2.772-4.887 6.162v10.712h21.757z" fill="#a15641" fill-rule="evenodd"/><path d="M318.948 389.269h-21.757v.902h21.757v-.902zM319.3444 370.1367l10.911 3.872h-44.37l10.91-3.872h22.549z" fill="#d0d2d3" fill-rule="evenodd"/></g></g></svg>