<svg version="1.1"
      xmlns="http://www.w3.org/2000/svg"
      xmlns:xlink="http://www.w3.org/1999/xlink"  id="snapshot-63363" width="250" height="250" viewBox="0 0 250 250"><desc>This image was made on Patterninja.com</desc><defs>
<!-- image 23243 -->
<g id="transformed-23243" data-image="23243" transform="translate(172.79383626697953, -22.206163733020468) rotate(321, 29.206163733020468, 29.206163733020468)"><g><svg version="1.1" width="58.412327466040935px" height="58.412327466040935px" viewBox="0 0 58.412327466040935 58.412327466040935"><g id="original-23243"><svg xmlns="http://www.w3.org/2000/svg" viewBox="0 0 512 512" xmlns:xlink="http://www.w3.org/1999/xlink" version="1.1" preserveAspectRatio="xMidYMid meet">
  <path d="M251.328 196.704c-6.24-6.24-16.384-6.272-22.656-.032L176 249.376l-20.672-20.704c-6.24-6.24-16.384-6.24-22.624 0s-6.24 16.384 0 22.624l32 32c3.104 3.136 7.2 4.704 11.296 4.704s8.192-1.568 11.328-4.672l64-64c6.24-6.24 6.24-16.384 0-22.624z" fill="rgba(255, 255, 255, 1)" stroke="none"/>
  <path d="M251.328 324.704c-6.24-6.24-16.384-6.272-22.656-.032L176 377.376l-20.672-20.672c-6.24-6.24-16.384-6.24-22.624 0s-6.24 16.384 0 22.624l32 32c3.104 3.104 7.2 4.672 11.296 4.672s8.192-1.568 11.328-4.672l64-64c6.24-6.24 6.24-16.384 0-22.624z" fill="rgba(255, 255, 255, 1)" stroke="none"/>
  <path d="M368 224h-64c-8.832 0-16 7.168-16 16s7.168 16 16 16h64c8.832 0 16-7.168 16-16s-7.168-16-16-16z" fill="rgba(255, 255, 255, 1)" stroke="none"/>
  <path d="M368 352h-64c-8.832 0-16 7.168-16 16s7.168 16 16 16h64c8.832 0 16-7.168 16-16s-7.168-16-16-16z" fill="rgba(255, 255, 255, 1)" stroke="none"/>
  <path d="M416 64h-64V48c0-8.832-7.168-16-16-16h-34.72C294.656 13.376 276.864 0 256 0s-38.656 13.376-45.28 32H176c-8.832 0-16 7.168-16 16v16H96c-17.632 0-32 14.368-32 32v384c0 17.632 14.368 32 32 32h320c17.632 0 32-14.368 32-32V96c0-17.632-14.368-32-32-32zm-224 0h32c8.832 0 16-7.168 16-16s7.168-16 16-16 16 7.168 16 16 7.168 16 16 16h32v32H192V64zm224 416H96V96h64v16c0 8.832 7.168 16 16 16h160c8.832 0 16-7.168 16-16V96h64v384z" fill="rgba(255, 255, 255, 1)" stroke="none"/>
</svg>
</g></svg></g></g>
<!-- /image 23243 -->

<!-- image 39602 -->
<g id="transformed-39602" data-image="39602" transform="translate(21.913207238769612, 125.91320723876962) rotate(17, 23.086792761230388, 23.08679276123039)"><g><svg version="1.1" width="46.173585522460776px" height="46.17358552246078px" viewBox="0 0 46.173585522460776 46.17358552246078"><g id="original-39602"><svg xmlns="http://www.w3.org/2000/svg" viewBox="0 0 52.966 52.966" xmlns:xlink="http://www.w3.org/1999/xlink" version="1.1" preserveAspectRatio="xMidYMid meet">
  <path d="M51.704 51.273L36.845 35.82c3.79-3.801 6.138-9.041 6.138-14.82 0-11.58-9.42-21-21-21s-21 9.42-21 21 9.42 21 21 21c5.083 0 9.748-1.817 13.384-4.832l14.895 15.491a.998.998 0 0 0 1.414.028 1 1 0 0 0 .028-1.414zM21.983 40c-10.477 0-19-8.523-19-19s8.523-19 19-19 19 8.523 19 19-8.524 19-19 19z" fill="rgba(255, 255, 255, 1)" stroke="none"/>
</svg>
</g></svg></g></g>
<!-- /image 39602 -->

<!-- image 00473 -->
<g id="transformed-00473" data-image="00473" transform="translate(96.73450809915688, 67.73450809915688) rotate(352, 30.265491900843113, 30.265491900843113)"><g><svg version="1.1" width="60.530983801686226px" height="60.530983801686226px" viewBox="0 0 60.530983801686226 60.530983801686226"><g id="original-00473"><svg xmlns="http://www.w3.org/2000/svg" viewBox="0 0 470 470" xmlns:xlink="http://www.w3.org/1999/xlink" version="1.1" preserveAspectRatio="xMidYMid meet">
  <path d="M441.25 0H28.75a7.5 7.5 0 0 0-7.5 7.5v120a7.5 7.5 0 0 0 7.5 7.5h412.5a7.5 7.5 0 0 0 7.5-7.5V7.5a7.5 7.5 0 0 0-7.5-7.5zm-405 15h277.5v105H36.25V15zm397.5 105h-105V15h105v105z" fill="rgba(255, 255, 255, 1)" stroke="none"/>
  <path d="M148.75 370H280a7.5 7.5 0 0 0 0-15H148.75a7.5 7.5 0 0 0 0 15z" fill="rgba(255, 255, 255, 1)" stroke="none"/>
  <path d="M411.25 315h-262.5a7.5 7.5 0 0 0 0 15h262.5a7.5 7.5 0 0 0 0-15z" fill="rgba(255, 255, 255, 1)" stroke="none"/>
  <path d="M148.75 250H280a7.5 7.5 0 0 0 0-15H148.75a7.5 7.5 0 0 0 0 15z" fill="rgba(255, 255, 255, 1)" stroke="none"/>
  <path d="M148.75 210h262.5a7.5 7.5 0 0 0 0-15h-262.5a7.5 7.5 0 0 0 0 15z" fill="rgba(255, 255, 255, 1)" stroke="none"/>
  <path d="M441.25 155H28.75a7.5 7.5 0 0 0-7.5 7.5v120a7.5 7.5 0 0 0 7.5 7.5h412.5a7.5 7.5 0 0 0 7.5-7.5v-120a7.5 7.5 0 0 0-7.5-7.5zm-7.5 120H36.25V170h397.5v105z" fill="rgba(255, 255, 255, 1)" stroke="none"/>
  <path d="M352.723 82.3c5.787 5.787 13.48 8.974 21.664 8.974 5.621 0 11.01-1.504 15.71-4.321l15.85 15.85c1.464 1.464 3.384 2.197 5.303 2.197s3.839-.732 5.303-2.197a7.5 7.5 0 0 0 0-10.606l-15.85-15.85c2.817-4.699 4.321-10.089 4.321-15.71 0-8.184-3.187-15.877-8.974-21.664C390.264 33.187 382.57 30 374.387 30c-8.184 0-15.877 3.187-21.664 8.973-11.945 11.945-11.945 31.382 0 43.327zm10.607-32.72c2.954-2.953 6.88-4.58 11.057-4.58s8.104 1.626 11.057 4.58c2.954 2.954 4.58 6.88 4.58 11.057s-1.626 8.103-4.58 11.057-6.88 4.58-11.057 4.58-8.104-1.626-11.057-4.58c-6.097-6.097-6.097-16.017 0-22.114z" fill="rgba(255, 255, 255, 1)" stroke="none"/>
  <path d="M118.75 305h-60a7.5 7.5 0 0 0-7.5 7.5v60a7.5 7.5 0 0 0 7.5 7.5h60a7.5 7.5 0 0 0 7.5-7.5v-60a7.5 7.5 0 0 0-7.5-7.5zm-7.5 60h-45v-45h45v45z" fill="rgba(255, 255, 255, 1)" stroke="none"/>
  <path d="M280 445H148.75a7.5 7.5 0 0 0 0 15H280a7.5 7.5 0 0 0 0-15z" fill="rgba(255, 255, 255, 1)" stroke="none"/>
  <path d="M411.25 405h-262.5a7.5 7.5 0 0 0 0 15h262.5a7.5 7.5 0 0 0 0-15z" fill="rgba(255, 255, 255, 1)" stroke="none"/>
  <path d="M118.75 395h-60a7.5 7.5 0 0 0-7.5 7.5v60a7.5 7.5 0 0 0 7.5 7.5h60a7.5 7.5 0 0 0 7.5-7.5v-60a7.5 7.5 0 0 0-7.5-7.5zm-7.5 60h-45v-45h45v45z" fill="rgba(255, 255, 255, 1)" stroke="none"/>
  <path d="M58.75 260h60a7.5 7.5 0 0 0 7.5-7.5v-60a7.5 7.5 0 0 0-7.5-7.5h-60a7.5 7.5 0 0 0-7.5 7.5v60a7.5 7.5 0 0 0 7.5 7.5zm7.5-60h45v45h-45v-45z" fill="rgba(255, 255, 255, 1)" stroke="none"/>
</svg>
</g></svg></g></g>
<!-- /image 00473 -->
</defs><rect x="0" y="0" width="250" height="250" fill="rgba(230, 249, 249, 1)"></rect><use xlink:href="#transformed-23243" transform="translate(-250, -250)"></use><use xlink:href="#transformed-23243" transform="translate(0, -250)"></use><use xlink:href="#transformed-23243" transform="translate(250, -250)"></use><use xlink:href="#transformed-23243" transform="translate(-250, 0)"></use><use xlink:href="#transformed-23243" transform="translate(0, 0)"></use><use xlink:href="#transformed-23243" transform="translate(250, 0)"></use><use xlink:href="#transformed-23243" transform="translate(-250, 250)"></use><use xlink:href="#transformed-23243" transform="translate(0, 250)"></use><use xlink:href="#transformed-23243" transform="translate(250, 250)"></use><use xlink:href="#transformed-39602" transform="translate(-250, -250)"></use><use xlink:href="#transformed-39602" transform="translate(0, -250)"></use><use xlink:href="#transformed-39602" transform="translate(250, -250)"></use><use xlink:href="#transformed-39602" transform="translate(-250, 0)"></use><use xlink:href="#transformed-39602" transform="translate(0, 0)"></use><use xlink:href="#transformed-39602" transform="translate(250, 0)"></use><use xlink:href="#transformed-39602" transform="translate(-250, 250)"></use><use xlink:href="#transformed-39602" transform="translate(0, 250)"></use><use xlink:href="#transformed-39602" transform="translate(250, 250)"></use><use xlink:href="#transformed-00473" transform="translate(-250, -250)"></use><use xlink:href="#transformed-00473" transform="translate(0, -250)"></use><use xlink:href="#transformed-00473" transform="translate(250, -250)"></use><use xlink:href="#transformed-00473" transform="translate(-250, 0)"></use><use xlink:href="#transformed-00473" transform="translate(0, 0)"></use><use xlink:href="#transformed-00473" transform="translate(250, 0)"></use><use xlink:href="#transformed-00473" transform="translate(-250, 250)"></use><use xlink:href="#transformed-00473" transform="translate(0, 250)"></use><use xlink:href="#transformed-00473" transform="translate(250, 250)"></use></svg>