<svg xmlns="http://www.w3.org/2000/svg" width="154.791" height="205.82683"><path d="M.536225 205.82682h154.25468325V-7.4e-7H.536225V205.82682z" fill="#f1fafb"/><path d="M-.00001937 205.82682h154.79100122v-47.90378843H-.00001937V205.82682z" fill="#c87137" fill-opacity=".13186813"/><path d="M154.7913 115.3187v14.8068H.0001V114.055h.2046v8.2136h.493v-8.1416h.7579l1.0108-1.7373h.6992l.017-.8174h1.5246v.8119h.5503l1.026 1.7698.794.017v8.5527h.3791v-.8532h.3791V105.759h1.0618v-.7258l1.5167-1.2642v-1.0742h1.1218v-1.4233h.6939v-2.3286h.5003v2.3295h.689l-.017 1.4161h1.1054v1.0426l1.82 1.5161v.5372h.8721v4.6124h2.5025v2.7801h.9862v3.7904h2.1615v-8.3078h.6965v-3.3806h1.0391V94.0311l.8823.017v-.3442h1.3058l.017-2.0035.3968.017v1.9952h4.6975v.418l.9034.017v9.8581l.7206.6006h1.9041v-5.8762l2.6544-2.2116h4.3988v1.7062h1.0618v6.4122h1.2896v-2.716h2.9574v3.348h.7584V93.675h.495v-.4666h1.8523V92.072h1.8098v1.1364h1.8523v.4666h.5504v13.3947h1.4029V84.5138h.6915v-3.8025l.8313-.017.02 3.8185h4.8827l.017-7.8471.8334.017.017 7.8312h.7242v29.1278h1.1374V95.2599h.5423v-.667h.7436v.667h.7436v-.1954h.5786v.1954h.6609v-.1954h.8264v.1954h.9088v-.4907h.6194v.4907h.2896v-.1954h.5783v.1954h.7749l.033 16.9783v1.3902h.1735l.9849-.017V93.5171h2.615v-1.1216h1.191v1.126h.8822v-.1772h.8824v.1772h.8823v-.1772h.4412v.1772h.5399v18.9217h.878l1.6315 2.2346.2209.3028V97.6853h.4742v-.7229h.4631v.3524h.3085v.3705h2.624v-.2301h.7721v.2301h.6173v-1.664h.3089v1.667h2.3151v-.3354h.3604v.3354h.2504v17.8563h3.4919V89.4159l3.9649-.7574.1206-3.0335c-.3969-.1595-.6682-.4591-.6682-.8073 0-.3735.311-.6944.7566-.842l.3267-6.0704.3439-6.18.1612 6.181.2816 6.0787c.4317.1523.7321.4665.7321.8327 0 .3448-.2661.6426-.6566.8028l.1647 3.0622 3.6304.67v25.5837h2.6933V99.6828h2.4447l.017-1.6462h.8261l.017-1.2082h1.4877v1.2177h.5889v1.6387h4.7914v.9918h1.3558v4.1204h.4442l2.4458 1.8208v5.8875h1.8086v-.4774h2.2095l.017.4774h2.4743v-1.5883h1.0994v-1.2234h1.4034v1.2234h.455v4.7701h1.2513v2.0938h1.2135l.017-4.1871h1.3274v-1.1374h2.6157v1.801h.7861l-.017 3.6642 2.2803.017v-.6315h.2658v-.6218h1.0964v-.7562h2.026v.7545h1.1765v.6215h1.6926v.7267h1.9097v-1.6114h1.4782v1.1692h1.2146v-2.243h2.5281" fill="#e4f4f5"/><path d="M153.89 123.4912v-.8844h-1.2999v1.2163h-1.1765v-.5529h-1.9817v-1.0615h-2.3835v1.0615h-.2164v.4863h-2.26v-.2653h-.8981v-.3979h-.8979v-1.349h-2.2908v.8404h-1.1459v1.3492h-1.0835v-1.8576h-1.0826v-3.5172H133.497l-1.1596-1.3049h-2.1535l-.8261 1.4894-.7609.4735v5.7766h-.6807v-12.6929h-.9284v-.5518l-1.3011-.9452v-.8026h-3.5906v.7785l-1.5786 1.1345v.409h-.7744v3.4497h-2.1979v2.0785h-.8358v2.8305h-1.8886v-6.2139h-.6193v-2.5211h-.8979v-8.4235h-.5931l-.9232-1.1616h-4.2638l-.8505 1.2156h-.5509v8.6141l-.6181.4465h-1.6732v-5.6323l-2.3107-1.6652h-3.85v1.2829h-.9597v8.8671h-.9233l.017-6.1324h-.9162v-.2266h-1.5478v.2625h-.3095v3.759h-.6504v-9.9288h-1.424v-.1985h-1.2306l.017-1.1447h-1.9037v1.15h-1.0217v.1984h-1.4551v14.2852h-.8952l-.033-21.1395h-1.0835v-.5085h-3.2507v.516h-3.0338v-.477h-3.4364v.4642h-1.0836v24.1203h-.8624l-.028-19.7685h-1.8018v-.3092h-2.1672v.2869H66.015v-.2648h-1.7029v.2648h-.7429v15.8774h-.8373l-1.5464 1.1031V106.228h-1.641v-.6633h-4.1173v.6633h-1.6718v11.8745h-3.0648v-18.0627l-2.8691.017-.017-8.9479h-2.1982l-.017 8.874-2.8996.017v16.0978h-4.1792v-1.8574h-1.6408v-2.698h-.7739v-.2875h-.5264v.2875h-1.9812v-.2433h-2.5076v.2433h-1.201l-2.1427 1.535v4.2367h-5.6652v-1.172h-.9598v-.9289h-1.2383v.9289h-.4025v3.5602h-1.0834v1.5697h-1.0525v-1.0611h-1.1765v-.8405h-2.291v1.3492h-.8976v.3977h-.8979v.2654h-2.229v-.4866h-.2478v-1.0391H7.2117v1.0391H5.2305v.5531H4.0538v-1.2164h-1.269v.8845H1.7012v-1.6773H.0001l.017 7.4535h-.017v43.4137h154.791v-46.8189h-.898" fill="#c5dbd5"/><path d="M1.4713 132.3562h1.3312v-1.3312H1.4713v1.3312zM15.5958 130.6536h.5574v-.5574h-.5574v.5574zM17.3607 130.6536h.5571v-.5574h-.5571v.5574zM14.7137 131.51h.5571v-.5573h-.5571v.5573zM16.4782 131.51h.5573v-.5573h-.5573v.5573zM17.3607 131.51h.5571v-.5573h-.5571v.5573zM14.7137 132.3663h.5571v-.5572h-.5571v.5572zM15.5958 132.3663h.5574v-.5572h-.5574v.5572zM14.7137 133.2229h.5571v-.5571h-.5571v.5571zM17.3607 133.2229h.5571v-.5571h-.5571v.5571zM16.4782 134.0796h.5573v-.5572h-.5573v.5572zM17.3607 134.0796h.5571v-.5572h-.5571v.5572zM14.7137 134.936h.5571v-.5573h-.5571v.5573zM15.5958 134.936h.5574v-.5573h-.5574v.5573zM16.4782 134.936h.5573v-.5573h-.5573v.5573zM15.5958 135.7926h.5574v-.5574h-.5574v.5574zM17.3607 135.7926h.5571v-.5574h-.5571v.5574zM14.7137 136.6493h.5571v-.5574h-.5571v.5574zM15.5958 136.6493h.5574v-.5574h-.5574v.5574zM16.4782 136.6493h.5573v-.5574h-.5573v.5574zM14.7137 137.5054h.5571v-.5572h-.5571v.5572zM15.5958 138.3621h.5574v-.5573h-.5574v.5573zM16.4782 138.3621h.5573v-.5573h-.5573v.5573zM141.3718 135.6634h.5571v-.5572h-.5571v.5572zM143.1359 135.6634h.5573v-.5572h-.5573v.5572zM140.4896 136.5199h.5572v-.5571h-.5572v.5571zM142.2539 136.5199h.5571v-.5571h-.5571v.5571zM143.1359 136.5199h.5573v-.5571h-.5573v.5571zM140.4896 137.3768h.5572v-.5574h-.5572v.5574zM141.3718 137.3768h.5571v-.5574h-.5571v.5574zM140.4896 138.233h.5572v-.5573h-.5572v.5573zM143.1359 138.233h.5573v-.5573h-.5573v.5573zM142.2539 139.0896h.5571v-.5571h-.5571v.5571zM143.1359 139.0896h.5573v-.5571h-.5573v.5571zM140.4896 139.9463h.5572v-.5572h-.5572v.5572zM141.3718 139.9463h.5571v-.5572h-.5571v.5572zM142.2539 139.9463h.5571v-.5572h-.5571v.5572zM141.3718 140.8025h.5571v-.5571h-.5571v.5571zM143.1359 140.8025h.5573v-.5571h-.5573v.5571zM140.4896 141.6592h.5572v-.5574h-.5572v.5574zM141.3718 141.6592h.5571v-.5574h-.5571v.5574zM142.2539 141.6592h.5571v-.5574h-.5571v.5574zM140.3188 134.962h.5572v-.5572h-.5572v.5572zM141.3718 134.0071h.5571v-.5572h-.5571v.5572zM142.2539 134.0071h.5571v-.5572h-.5571v.5572zM58.2605 113.5141h1.0147v-1.0148h-1.0147v1.0148zM55.0465 113.5141h1.0149v-1.0148h-1.0149v1.0148zM59.867 115.074h1.0152v-1.0148H59.867v1.0148zM56.6533 115.074h1.0147v-1.0148h-1.0147v1.0148zM55.0465 115.074h1.0149v-1.0148h-1.0149v1.0148zM59.867 116.6341h1.0152v-1.0152H59.867v1.0152zM58.2605 116.6341h1.0147v-1.0152h-1.0147v1.0152zM59.867 118.1938h1.0152v-1.0149H59.867v1.0149zM55.0465 118.1938h1.0149v-1.0149h-1.0149v1.0149zM56.6533 119.7538h1.0147v-1.0147h-1.0147v1.0147zM55.0465 119.7538h1.0149v-1.0147h-1.0149v1.0147zM59.867 121.3137h1.0152v-1.0149H59.867v1.0149zM58.2605 121.3137h1.0147v-1.0149h-1.0147v1.0149zM56.6533 121.3137h1.0147v-1.0149h-1.0147v1.0149zM58.2605 122.8737h1.0147v-1.0149h-1.0147v1.0149zM55.0465 122.8737h1.0149v-1.0149h-1.0149v1.0149zM59.867 124.4335h1.0152v-1.0151H59.867v1.0151zM58.2605 124.4335h1.0147v-1.0151h-1.0147v1.0151zM56.6533 124.4335h1.0147v-1.0151h-1.0147v1.0151zM59.867 125.9937h1.0152v-1.0152H59.867v1.0152zM58.2605 127.5533h1.0147v-1.0148h-1.0147v1.0148zM56.6533 127.5533h1.0147v-1.0148h-1.0147v1.0148zM135.3691 130.226h1.0151v-1.0152h-1.0151v1.0152zM133.7619 130.226h1.0149v-1.0152h-1.0149v1.0152zM132.1549 130.226h1.015v-1.0152h-1.015v1.0152zM135.3691 131.7856h1.0151v-1.0148h-1.0151v1.0148zM151.7641 136.6499h1.0147v-1.0151h-1.0147v1.0151zM153.371 136.6499h1.0151v-1.0151h-1.0151v1.0151zM150.157 138.2094h1.0148v-1.0147h-1.0148v1.0147zM133.7619 133.3454h1.0149v-1.0146h-1.0149v1.0146zM132.1549 133.3454h1.015v-1.0146h-1.015v1.0146zM3.8085 132.3562h1.3314v-1.3312H3.8085v1.3312zM6.146 132.3562h1.3312v-1.3312H6.146v1.3312zM8.4835 132.3562h1.3311v-1.3312H8.4835v1.3312zM29.1558 121.1493h1.3313v-1.3313h-1.3313v1.3313zM31.4932 121.1493h1.3312v-1.3313h-1.3312v1.3313zM33.8305 121.1493h1.3312v-1.3313h-1.3312v1.3313zM29.1558 124.6992h1.3313v-1.3312h-1.3313v1.3312zM31.4932 124.6992h1.3312v-1.3312h-1.3312v1.3312zM33.8305 124.6992h1.3312v-1.3312h-1.3312v1.3312zM29.1558 128.249h1.3313v-1.3313h-1.3313v1.3313zM31.4932 128.249h1.3312v-1.3313h-1.3312v1.3313zM33.8305 128.249h1.3312v-1.3313h-1.3312v1.3313zM29.1558 131.7989h1.3313v-1.3313h-1.3313v1.3313zM31.4932 131.7989h1.3312v-1.3313h-1.3312v1.3313zM33.8305 131.7989h1.3312v-1.3313h-1.3312v1.3313zM29.1558 135.3489h1.3313v-1.3311h-1.3313v1.3311zM31.4932 135.3489h1.3312v-1.3311h-1.3312v1.3311zM33.8305 135.3489h1.3312v-1.3311h-1.3312v1.3311zM29.1558 138.8986h1.3313v-1.3312h-1.3313v1.3312zM31.4932 138.8986h1.3312v-1.3312h-1.3312v1.3312zM33.8305 138.8986h1.3312v-1.3312h-1.3312v1.3312zM107.0887 109.7498h1.3312v-1.3312h-1.3312v1.3312zM109.4259 109.7498h1.3312v-1.3312h-1.3312v1.3312zM111.763 109.7498h1.3312v-1.3312h-1.3312v1.3312zM109.4259 113.2994h1.3312v-1.3311h-1.3312v1.3311zM111.763 113.2994h1.3312v-1.3311h-1.3312v1.3311zM107.0887 116.8496h1.3312v-1.3313h-1.3312v1.3313zM109.4259 116.8496h1.3312v-1.3313h-1.3312v1.3313zM107.8938 120.3994h1.3312v-1.3311h-1.3312v1.3311zM111.763 120.3994h1.3312v-1.3311h-1.3312v1.3311zM107.5529 123.9492h1.3312v-1.3314h-1.3312v1.3314zM110.0917 123.9492h1.3311v-1.3314h-1.3311v1.3314zM94.1094 118.2821h1.3313v-1.3314h-1.3313v1.3314zM94.1094 122.4341h1.3313v-1.3314h-1.3313v1.3314zM94.1094 126.5862h1.3313v-1.3312h-1.3313v1.3312zM94.1094 130.7383h1.3313v-1.3313h-1.3313v1.3313zM94.1094 134.8901h1.3313v-1.3312h-1.3313v1.3312zM108.4203 127.4992h1.3313v-1.3313h-1.3313v1.3313zM111.763 127.4992h1.3312v-1.3313h-1.3312v1.3313zM74.8347 100.0837h1.3312v-1.3311h-1.3312v1.3311zM77.1721 100.0837h1.3313v-1.3311h-1.3313v1.3311zM79.5093 100.0837h1.3313v-1.3311h-1.3313v1.3311zM74.8347 103.6333h1.3312v-1.3312h-1.3312v1.3312zM79.5093 103.6333h1.3313v-1.3312h-1.3313v1.3312zM74.8347 107.1833h1.3312v-1.331h-1.3312v1.331zM77.1721 107.1833h1.3313v-1.331h-1.3313v1.331zM79.5093 107.1833h1.3313v-1.331h-1.3313v1.331zM74.8347 110.7335h1.3312v-1.3313h-1.3312v1.3313zM77.1721 110.7335h1.3313v-1.3313h-1.3313v1.3313zM79.5093 110.7335h1.3313v-1.3313h-1.3313v1.3313zM74.8347 114.2833h1.3312v-1.3311h-1.3312v1.3311zM77.1721 114.2833h1.3313v-1.3311h-1.3313v1.3311zM74.8347 117.8329h1.3312v-1.3312h-1.3312v1.3312zM79.5093 117.8329h1.3313v-1.3312h-1.3313v1.3312zM81.8468 103.6333h1.3312v-1.3312h-1.3312v1.3312zM81.8468 107.1833h1.3312v-1.331h-1.3312v1.331zM81.8468 110.7335h1.3312v-1.3313h-1.3312v1.3313zM81.8468 114.2833h1.3312v-1.3311h-1.3312v1.3311zM81.8468 117.8329h1.3312v-1.3312h-1.3312v1.3312zM44.0129 105.5791h2.1464v-2.1465h-2.1464v2.1465zM48.0377 109.2731h2.1462v-2.1464h-2.1462v2.1464zM86.5046 110.7335h1.0423v-1.0424h-1.0423v1.0424zM87.8462 110.7335h1.0424v-1.0424h-1.0424v1.0424zM89.1877 110.7335h1.0422v-1.0424h-1.0422v1.0424zM90.5294 110.7335h1.042v-1.0424h-1.042v1.0424zM86.5046 112.0544h1.0423v-1.0423h-1.0423v1.0423zM87.8462 112.0544h1.0424v-1.0423h-1.0424v1.0423zM89.1877 112.0544h1.0422v-1.0423h-1.0422v1.0423zM90.5294 112.0544h1.042v-1.0423h-1.042v1.0423zM86.5046 113.3751h1.0423v-1.0421h-1.0423v1.0421zM87.8462 113.3751h1.0424v-1.0421h-1.0424v1.0421zM89.1877 113.3751h1.0422v-1.0421h-1.0422v1.0421zM90.5294 113.3751h1.042v-1.0421h-1.042v1.0421zM86.5046 114.696h1.0423v-1.0423h-1.0423v1.0423zM87.8462 114.696h1.0424v-1.0423h-1.0424v1.0423zM89.1877 114.696h1.0422v-1.0423h-1.0422v1.0423zM90.5294 114.696h1.042v-1.0423h-1.042v1.0423zM86.5046 116.017h1.0423v-1.0424h-1.0423v1.0424zM87.8462 116.017h1.0424v-1.0424h-1.0424v1.0424zM89.1877 116.017h1.0422v-1.0424h-1.0422v1.0424zM90.5294 116.017h1.042v-1.0424h-1.042v1.0424zM86.5046 117.3378h1.0423v-1.042h-1.0423v1.042zM87.8462 117.3378h1.0424v-1.042h-1.0424v1.042zM89.1877 117.3378h1.0422v-1.042h-1.0422v1.042zM90.5294 117.3378h1.042v-1.042h-1.042v1.042zM86.5046 118.6585h1.0423v-1.0421h-1.0423v1.0421zM87.8462 118.6585h1.0424v-1.0421h-1.0424v1.0421zM89.1877 118.6585h1.0422v-1.0421h-1.0422v1.0421zM90.5294 118.6585h1.042v-1.0421h-1.042v1.0421zM86.5046 119.9798h1.0423v-1.0424h-1.0423v1.0424zM87.8462 119.9798h1.0424v-1.0424h-1.0424v1.0424zM89.1877 119.9798h1.0422v-1.0424h-1.0422v1.0424zM90.5294 119.9798h1.042v-1.0424h-1.042v1.0424zM86.5046 121.3004h1.0423v-1.0421h-1.0423v1.0421zM87.8462 121.3004h1.0424v-1.0421h-1.0424v1.0421zM89.1877 121.3004h1.0422v-1.0421h-1.0422v1.0421zM90.5294 121.3004h1.042v-1.0421h-1.042v1.0421zM86.5046 122.6214h1.0423v-1.0424h-1.0423v1.0424zM87.8462 122.6214h1.0424v-1.0424h-1.0424v1.0424zM89.1877 122.6214h1.0422v-1.0424h-1.0422v1.0424zM90.5294 122.6214h1.042v-1.0424h-1.042v1.0424zM64.9398 105.3311h6.2445v-.6053h-6.2445v.6053zM64.9398 109.7582h6.2445v-.6051h-6.2445v.6051zM64.9398 114.1852h6.2445v-.6051h-6.2445v.6051zM64.9398 118.6121h6.2445v-.605h-6.2445v.605zM64.9398 123.0393h6.2445v-.6052h-6.2445v.6052zM64.9398 106.8272h2.7253v-.6051h-2.7253v.6051zM64.9398 108.2928h2.7253v-.605h-2.7253v.605zM121.0706 120.8983h1.7001v-.4989h-1.7001v.4989zM121.0948 124.5476h6.1673v-.499h-6.1673v.499zM118.8906 125.8645h8.3715v-.4986h-8.3715v.4986zM118.8906 127.1818h8.3715v-.4991h-8.3715v.4991zM118.8906 128.4989h8.3715v-.499h-8.3715v.499zM118.8906 129.8158h2.7417v-.4988h-2.7417v.4988zM121.0706 122.1317h3.7228v-.4989h-3.7228v.4989zM121.0706 123.3396h1.1235v-.4989h-1.1235v.4989zM48.0377 113.4011h2.1462v-2.1467h-2.1462v2.1467zM44.0129 118.8806h2.1464v-2.1465h-2.1464v2.1465zM44.0129 125.2582h2.1464v-2.1469h-2.1464v2.1469zM101.6533 114.2926h1.9594v-1.9596h-1.9594v1.9596zM97.9786 117.666h1.9596v-1.9601h-1.9596v1.9601zM97.9786 121.4348h1.9596v-1.9601h-1.9596v1.9601zM101.6533 126.4379h1.9594v-1.9601h-1.9594v1.9601zM74.8347 120.5203h1.1588v-1.1589h-1.1588v1.1589zM81.8468 123.3798h1.3312v-1.331h-1.3312v1.331zM79.5093 123.3798h1.3313v-1.331h-1.3313v1.331zM77.1721 123.3798h1.3313v-1.331h-1.3313v1.331zM81.8468 126.93h1.3312v-1.3314h-1.3312v1.3314zM77.1721 126.93h1.3313v-1.3314h-1.3313v1.3314zM81.8468 130.4795h1.3312v-1.3313h-1.3312v1.3313zM79.5093 130.4795h1.3313v-1.3313h-1.3313v1.3313zM81.8468 134.0295h1.3312v-1.3313h-1.3312v1.3313zM77.1721 134.0295h1.3313v-1.3313h-1.3313v1.3313zM74.8347 126.93h1.3312v-1.3314h-1.3312v1.3314zM74.8347 130.4795h1.3312v-1.3313h-1.3312v1.3313zM3.8085 135.421h1.3314v-1.3312H3.8085v1.3312zM6.146 135.421h1.3312v-1.3312H6.146v1.3312zM8.4835 135.421h1.3311v-1.3312H8.4835v1.3312zM1.4713 138.4859h1.3312v-1.3313H1.4713v1.3313zM3.8085 138.4859h1.3314v-1.3313H3.8085v1.3313zM8.4835 138.4859h1.3311v-1.3313H8.4835v1.3313zM1.4713 141.551h1.3312v-1.3313H1.4713v1.3313zM6.146 141.551h1.3312v-1.3313H6.146v1.3313zM8.4835 141.551h1.3311v-1.3313H8.4835v1.3313z" fill="#fff"/></svg>