<svg xmlns="http://www.w3.org/2000/svg" width="351.7049" height="117.80495"><defs><clipPath id="a"><path d="M-32768 32767h65535v-65535h-65535v65535z"/></clipPath><linearGradient x2="1" gradientUnits="userSpaceOnUse" gradientTransform="matrix(0 -132.32115 -132.32115 0 132.35596 351.05469)" id="b"><stop offset="0" stop-opacity=".29999237" stop-color="#fff"/><stop offset=".882989" stop-opacity=".29999237" stop-color="#fff"/><stop offset="1" stop-opacity="0" stop-color="#fff"/></linearGradient><clipPath id="c"><path d="M-32768 32767h65535v-65535h-65535v65535z"/></clipPath><linearGradient x2="1" gradientUnits="userSpaceOnUse" gradientTransform="matrix(-1.07658 -41.2696 -41.2696 1.07658 400.62012 312.55127)" id="d"><stop offset="0" stop-opacity=".29999237" stop-color="#fff"/><stop offset=".697365" stop-opacity="0" stop-color="#fff"/><stop offset="1" stop-opacity="0" stop-color="#fff"/></linearGradient><clipPath id="e"><path d="M143.62 442.227h211.077V218.226H143.62v224.001z"/></clipPath><clipPath id="f"><path d="M143.62 442.227h211.077V218.226H143.62v224.001z"/></clipPath><clipPath id="g"><path d="M429.084 312.923l-358.499-.163 148.173 128.974 61.996.029 148.33-128.84z"/></clipPath><linearGradient x2="1" gradientUnits="userSpaceOnUse" gradientTransform="matrix(0 -125.87641 -125.87641 0 249.83447 444.49121)" id="h"><stop offset="0" stop-color="#fff"/><stop offset=".885278"/><stop offset="1"/></linearGradient><clipPath id="i"><path d="M303.885 433.227h222.077V209.226H303.885v224.001z"/></clipPath><clipPath id="j"><path d="M303.885 433.227h222.077V209.226H303.885v224.001z"/></clipPath><clipPath id="k"><path d="M599.349 303.923l-358.499-.163 148.172 128.974 61.997.029 148.33-128.84z"/></clipPath><linearGradient x2="1" gradientUnits="userSpaceOnUse" gradientTransform="matrix(0 -125.87641 -125.87641 0 420.09961 435.49121)" id="l"><stop offset="0" stop-color="#fff"/><stop offset=".885278"/><stop offset="1"/></linearGradient><clipPath id="m"><path d="M-26.6904 433.227H195.387V209.226H-26.6904v224.001z"/></clipPath><clipPath id="n"><path d="M-26.6904 433.227H195.387V209.226H-26.6904v224.001z"/></clipPath><clipPath id="o"><path d="M268.773 303.923l-358.498-.163L58.447 432.734l61.996.029 148.33-128.84z"/></clipPath><linearGradient x2="1" gradientUnits="userSpaceOnUse" gradientTransform="matrix(0 -125.87641 -125.87641 0 89.523926 435.49121)" id="p"><stop offset="0" stop-color="#fff"/><stop offset=".885278"/><stop offset="1"/></linearGradient><clipPath id="q"><path d="M-32768 32767h65535v-65535h-65535v65535z"/></clipPath><linearGradient x2="1" gradientUnits="userSpaceOnUse" gradientTransform="matrix(12.1709 0 0 -12.1709 293.69043 257.37158)" id="r"><stop offset="0" stop-color="#fff"/><stop offset="1" stop-opacity="0" stop-color="#fff"/></linearGradient><clipPath id="s"><path d="M-32768 32767h65535v-65535h-65535v65535z"/></clipPath><linearGradient x2="1" gradientUnits="userSpaceOnUse" gradientTransform="matrix(12.80664 0 0 -12.80664 281.13477 257.40527)" id="t"><stop offset="0" stop-color="#fff"/><stop offset="1" stop-opacity="0" stop-color="#fff"/></linearGradient><clipPath id="u"><path d="M-32768 32767h65535v-65535h-65535v65535z"/></clipPath><linearGradient x2="1" gradientUnits="userSpaceOnUse" gradientTransform="matrix(6.5916 -32.95811 -32.95811 -6.5916 298.58398 218.83398)" id="v"><stop offset="0" stop-color="#fff"/><stop offset="1" stop-opacity="0" stop-color="#fff"/></linearGradient><clipPath id="w"><path d="M-32768 32767h65535v-65535h-65535v65535z"/></clipPath><linearGradient x2="1" gradientUnits="userSpaceOnUse" gradientTransform="matrix(-6.87595 10.25568 10.25568 6.87595 303.51758 218.81348)" id="x"><stop offset="0" stop-color="#fff"/><stop offset="1" stop-opacity="0" stop-color="#fff"/></linearGradient><clipPath id="y"><path d="M-32768 32767h65535v-65535h-65535v65535z"/></clipPath><linearGradient x2="1" gradientUnits="userSpaceOnUse" gradientTransform="matrix(7.86816 0 0 -7.86816 314.7373 151.29199)" id="z"><stop offset="0" stop-color="#fff"/><stop offset="1" stop-opacity="0" stop-color="#fff"/></linearGradient><clipPath id="A"><path d="M-32768 32767h65535v-65535h-65535v65535z"/></clipPath><linearGradient x2="1" gradientUnits="userSpaceOnUse" gradientTransform="matrix(8.47656 0 0 -8.47656 156.02148 151.29199)" id="B"><stop offset="0" stop-color="#fff"/><stop offset="1" stop-opacity="0" stop-color="#fff"/></linearGradient><clipPath id="C"><path d="M-32768 32767h65535v-65535h-65535v65535z"/></clipPath><clipPath id="D"><path d="M-32768 32767h65535v-65535h-65535v65535z"/></clipPath></defs><path d="M0 117.80495125h351.7048875V-.000005H0v117.80495625z" fill="#cfeaf7"/><path d="M0 117.80495125h351.70485V95.71097H0v22.09398125z" fill="#6ab8d3"/></svg>