<svg xmlns="http://www.w3.org/2000/svg" width="305.87924" height="203.86514"><defs><clipPath id="a"><path d="M0 0h750v500H0V0z"/></clipPath><clipPath id="b"><path d="M-56.5737 331.639H485.811V69.7686H-56.5737V331.639z"/></clipPath><clipPath id="c"><path d="M449.797 331.639h331.43V69.7686h-331.43V331.639z"/></clipPath><clipPath id="d"><path d="M0 0h750v500H0V0z"/></clipPath></defs><path d="M-220.9708725 289.5381675H-17.45679V85.618665h-203.5140825v203.9195025z" fill="#fff"/><g clip-path="url(#a)" transform="matrix(.4123 0 0 -.40784 -1.4044775 203.91949)"><g clip-path="url(#b)" opacity=".60000598"><path d="M327.308 69.769h24.172v138.868h-24.172V69.769z" fill="#b9c9ea"/><path d="M148.254 275.429h9.342v3.017h-9.342v-3.017z" fill="#d7e7f8"/><path d="M147.062 274.773h11.727v1.312h-11.727v-1.312z" fill="#d7e7f8"/><path d="M144.13 252.809h17.59v21.964h-17.59v-21.964z" fill="#a5c3ea"/><path d="M151.832 295.8931h2.187l-.786 15.741h-.616l-.785-15.741z" fill="#d7e7f8"/><path d="M151.932 294.975h.663v-15.873h-.663v15.873zm1.325 0h.662v-15.873h-.662v15.873zm-2.816-17.184h4.969v18.365h-4.969v-18.365z" fill="#d7e7f8"/><path d="M174.2979 135.5713h26.884v83.853l-26.884-83.853z" fill="#c8dcf3"/><path d="M48.043 216.906H47.01v21.861h1.033v-21.861zm-2.065 0h-1.033v21.861h1.033v-21.861zM74.191 69.769v117.362h-9.193v16.884h-2.714v12.891H50.367v25.052h-2.189l-1.204 34.181h-.96l-1.203-34.181h-2.19v-25.052h-16.54V69.769h48.11z" fill="#a4c2eb"/><path d="M461.322 226.472h24.488V69.769h-24.488v156.703z" fill="#b9c9ea"/><path d="M447.87 251.099h21.385V69.768H447.87v181.331z" fill="#e0ebf9"/><path d="M412.9834 183.7402h39.199l.372 119.64-39.571 9.98v-129.62z" fill="#b7d3f0"/><path d="M421.3906 304.0308l31.164-.651-39.571 9.981 8.407-9.33z" fill="#e0ebf9"/><path d="M141.085 138.103h33.022V238.89h-33.022V138.103z" fill="#b7d3f0"/><path d="M166.8428 234.0186l7.265 4.871h-33.023l25.758-4.871z" fill="#e0ebf9"/><path d="M428.112 221.643h10.716v4.902h-10.716v-4.902z" fill="#d7e7f8"/><path d="M426.745 220.576h13.451v2.132h-13.451v-2.132zM423.382 215.034h20.177v5.542h-20.177v-5.542zM432.2168 254.896h2.508l-.901 25.58h-.707l-.9-25.58z" fill="#d7e7f8"/><path d="M432.33 253.404h.761v-25.792h-.761v25.792zm1.521 0h.76v-25.792h-.76v25.792zm-3.23-27.925h5.699v29.843h-5.699v-29.843zM178.268 184.612h12.217v3.19h-12.217v-3.19z" fill="#d7e7f8"/><path d="M176.708 183.918h15.336v1.388h-15.336v-1.388zM172.875 180.312h23.004v3.606h-23.004v-3.606zM182.9473 206.251h2.859l-1.026 16.646h-.807l-1.026-16.646z" fill="#d7e7f8"/><path d="M183.077 205.28h.866v-16.784h-.866v16.784zm1.733 0h.866v-16.784h-.866v16.784zm-3.683-18.172h6.499v19.42h-6.499v-19.42z" fill="#d7e7f8"/><path d="M411.655 216.152h59.669V69.768h-59.669v146.384z" fill="#e0ebf9"/><path d="M80.661 260.183h8.178v3.742h-8.178v-3.742z" fill="#d7e7f8"/><path d="M79.617 259.37h10.267v1.626H79.617v-1.626zM77.05 255.14h15.399v4.23H77.05v-4.23zM83.793 300.8335h1.914l-.687 19.523h-.54l-.687-19.523z" fill="#d7e7f8"/><path d="M83.88 284.424h.58v-19.686h-.58v19.686zm1.16 0h.58v-19.686h-.58v19.686zm-2.465-21.313h4.35v38.047h-4.35v-38.047z" fill="#d7e7f8"/><path d="M65.029 161.448h31.214v121.091H65.029V161.448z" fill="#e0ebf9"/><path d="M81.039 268.23h3.195v5.561h-3.195v-5.561zM74.191 268.23h3.195v5.561h-3.195v-5.561zM87.886 258.908h3.195v5.561h-3.195v-5.561z" fill="#f7fbfd"/><path d="M81.039 258.908h3.195v5.561h-3.195v-5.561zM74.191 258.908h3.195v5.561h-3.195v-5.561z" fill="#b9c9ea"/><path d="M81.039 249.586h3.195v5.561h-3.195v-5.561zM74.191 249.586h3.195v5.561h-3.195v-5.561zM67.343 249.586h3.196v5.561h-3.196v-5.561zM87.886 240.265h3.195v5.561h-3.195v-5.561zM81.039 230.942h3.195v5.561h-3.195v-5.561zM74.191 230.942h3.195v5.561h-3.195v-5.561zM67.343 230.942h3.196v5.561h-3.196v-5.561z" fill="#f7fbfd"/><path d="M56.3301 202.5586h26.884v36.446l-26.884-36.446z" fill="#c8dcf3"/><path d="M54.165 205.548h31.214V69.769H54.165v135.779z" fill="#e0ebf9"/><path d="M79.516 250.614h31.214V69.769H79.516v180.845z" fill="#e0ebf9"/><path d="M92.967 250.614h4.312V69.769h-4.312v180.845z" fill="#b9c9ea"/><path d="M74.342 255.935h36.388v-5.321H74.342v5.321z" fill="#e0ebf9"/><path d="M218.204 237.41h-13.01v4.109h13.01v-4.109z" fill="#d7e7f8"/><path d="M219.864 236.517h-16.331v1.787h16.331v-1.787zM223.947 231.871H199.45v4.646h24.497v-4.646zM213.083 242.413h-.923v8.58h.923v-8.58zm-1.845 0h-.923v8.58h.923v-8.58zm-2.999-1.786h6.92v28.747h-6.92v-28.747z" fill="#d7e7f8"/><path d="M22.328 171.344h-49.654v132.999h49.654V171.344z" fill="#e0ebf9"/><path d="M7.755 288.626H2.672v6.107h5.083v-6.107zM7.755 278.387H2.672v6.107h5.083v-6.107z" fill="#f7fbfd"/><path d="M7.755 268.149H2.672v6.107h5.083v-6.107z" fill="#b9c9ea"/><path d="M18.648 268.149h-5.083v6.107h5.083v-6.107zM7.755 247.672H2.672v6.107h5.083v-6.107zM18.648 247.672h-5.083v6.107h5.083v-6.107z" fill="#f7fbfd"/><path d="M36.167 216.4961H-6.599v40.03l42.766-40.03z" fill="#c8dcf3"/><path d="M-10.043 219.779h49.654V69.768h-49.654v150.011z" fill="#e0ebf9"/><path d="M24.221 203.077h-3.196v5.56h3.196v-5.56zM31.217 203.077h-3.195v5.56h3.195v-5.56z" fill="#f7fbfd"/><path d="M24.115 193.755h-3.196v5.561h3.196v-5.561zM17.374 184.433h-3.196v5.561h3.196v-5.561z" fill="#b9c9ea"/><path d="M31.069 184.433h-3.196v5.561h3.196v-5.561zM17.374 156.379h-3.196v5.56h3.196v-5.56zM31.069 156.379h-3.196v5.56h3.196v-5.56zM24.115 175.111h-3.196v5.561h3.196v-5.561zM24.115 148.45h-3.196v5.561h3.196v-5.561z" fill="#f7fbfd"/><path d="M24.221 165.789h-3.196v5.561h3.196v-5.561z" fill="#b9c9ea"/><path d="M247.243 209.359h-9.342v3.018h9.342v-3.018z" fill="#d7e7f8"/><path d="M248.436 208.703h-11.727v1.312h11.727v-1.312z" fill="#d7e7f8"/><path d="M251.367 186.739h-17.59v21.964h17.59v-21.964z" fill="#a5c3ea"/><path d="M243.6655 229.8232h-2.187l.786 15.741h.616l.785-15.741z" fill="#d7e7f8"/><path d="M243.566 213.032h-.663v15.873h.663v-15.873zm-1.325 0h-.663v15.873h.663v-15.873zm-2.153-1.311h4.969v18.365h-4.969v-18.365zM357.744 231.87h-8.178v3.742h8.178v-3.742z" fill="#d7e7f8"/><path d="M358.789 231.057h-10.267v1.627h10.267v-1.627zM361.355 226.827h-15.399v4.229h15.399v-4.229zM354.6123 272.521h-1.914l.687 19.523h.54l.687-19.523z" fill="#d7e7f8"/><path d="M354.525 236.426h-.58v19.686h.58v-19.686zm-1.16 0h-.58v19.686h.58v-19.686zm-1.885-1.627h4.35v38.048h-4.35v-38.048z" fill="#d7e7f8"/><path d="M422.073 161.976h-31.214v121.091h31.214V161.976z" fill="#e0ebf9"/><path d="M406.064 268.757h-3.195v5.561h3.195v-5.561z" fill="#b9c9ea"/><path d="M412.912 268.757h-3.195v5.561h3.195v-5.561zM399.217 259.436h-3.195v5.561h3.195v-5.561zM406.064 259.436h-3.195v5.561h3.195v-5.561zM412.912 259.436h-3.195v5.561h3.195v-5.561z" fill="#f7fbfd"/><path d="M406.064 250.114h-3.195v5.56h3.195v-5.56z" fill="#b9c9ea"/><path d="M412.912 250.114h-3.195v5.56h3.195v-5.56z" fill="#f7fbfd"/><path d="M419.76 250.114h-3.195v5.56h3.195v-5.56z" fill="#b9c9ea"/><path d="M399.217 240.792h-3.195v5.561h3.195v-5.561zM406.064 231.47h-3.195v5.561h3.195v-5.561zM412.912 231.47h-3.195v5.561h3.195v-5.561zM419.76 231.47h-3.195v5.561h3.195v-5.561z" fill="#f7fbfd"/><path d="M430.7734 203.085h-26.885v36.447l26.885-36.447z" fill="#c8dcf3"/><path d="M401.724 206.075h31.215V69.768h-31.215v136.307z" fill="#e0ebf9"/><path d="M376.373 251.141h31.214V69.768h-31.214v181.373z" fill="#e0ebf9"/><path d="M389.824 251.141h4.312V69.768h-4.312v181.373z" fill="#b9c9ea"/><path d="M398.264 256.462h-21.891v-5.321h21.891v5.321z" fill="#e0ebf9"/><path d="M459.355 201.41h3.174v6.357h-3.174v-6.357zM445.755 201.41h3.173v6.357h-3.173v-6.357zM438.954 201.41h3.174v6.357h-3.174v-6.357zM432.154 201.41h3.173v6.357h-3.173v-6.357zM452.555 190.754h3.174v6.356h-3.174v-6.356zM445.755 190.754h3.173v6.356h-3.173v-6.356z" fill="#95bcef"/><path d="M438.954 190.754h3.174v6.356h-3.174v-6.356z" fill="#f7fbfd"/><path d="M432.154 190.754h3.173v6.356h-3.173v-6.356zM425.354 190.754h3.174v6.356h-3.174v-6.356zM452.555 180.096h3.174v6.357h-3.174v-6.357z" fill="#95bcef"/><path d="M445.755 180.096h3.173v6.357h-3.173v-6.357z" fill="#f7fbfd"/><path d="M432.154 180.096h3.173v6.357h-3.173v-6.357zM425.354 180.096h3.174v6.357h-3.174v-6.357z" fill="#95bcef"/><path d="M459.355 169.438h3.174v6.357h-3.174v-6.357z" fill="#f7fbfd"/><path d="M452.555 169.438h3.174v6.357h-3.174v-6.357zM445.755 169.438h3.173v6.357h-3.173v-6.357z" fill="#95bcef"/><path d="M432.154 169.438h3.173v6.357h-3.173v-6.357zM418.553 169.438h3.174v6.357h-3.174v-6.357z" fill="#f7fbfd"/><path d="M452.555 158.781h3.174v6.357h-3.174v-6.357z" fill="#95bcef"/><path d="M445.755 158.781h3.173v6.357h-3.173v-6.357z" fill="#f7fbfd"/><path d="M438.954 158.781h3.174v6.357h-3.174v-6.357zM425.354 158.781h3.174v6.357h-3.174v-6.357zM418.553 158.781h3.174v6.357h-3.174v-6.357z" fill="#95bcef"/><path d="M459.355 148.124h3.174v6.357h-3.174v-6.357z" fill="#f7fbfd"/><path d="M432.154 148.124h3.173v6.357h-3.173v-6.357zM425.354 148.124h3.174v6.357h-3.174v-6.357zM452.555 137.467h3.174v6.357h-3.174v-6.357zM445.755 137.467h3.173v6.357h-3.173v-6.357zM438.954 137.467h3.174v6.357h-3.174v-6.357zM425.354 137.467h3.174v6.357h-3.174v-6.357z" fill="#95bcef"/><path d="M418.553 137.467h3.174v6.357h-3.174v-6.357z" fill="#f7fbfd"/><path d="M341.2935 69.7686v180.405h38.8l20.869-27.572V69.7686h-59.669z" fill="#e0ebf9"/><path d="M400.9629 222.6016l-20.869 27.572h-38.8l59.669-27.572z" fill="#acc8ee"/><path d="M370.783 211.96h3.104V69.769h-3.104V211.96zM377.682 211.96h3.104V69.769h-3.104V211.96zM384.579 211.96h3.104V69.769h-3.104V211.96zM391.478 211.96h3.104V69.769h-3.104V211.96z" fill="#c8dcf3"/><path d="M284.2954 69.7686v111.605h1.851v59.462h2.22v11.492l14.734 4.107v-22.631h4.304v11.904h8.097v10.509h4.304v-10.509h11.569v-68.03h4.674V69.7686h-51.753zM110.73 69.7686v214.793h9.986v-36.604h5.103v14.114h9.6v12.46h5.103v-12.46h24.382v-63.445h14.734v-13.539h13.857v-38.739h4.619v81.268l5.337 17.566 18.895-.576 3.666-5.906V69.7686H110.73z" fill="#e0ebf9"/><path d="M226.0117 69.7686v168.932l6.879-11.084h18.778v44.621h.73v-44.621h3.844v29.999h20.695v-29.999h3.465v-46.243h3.893V69.7686h-58.284z" fill="#b9c9ea"/><path d="M231.253 219.779h23.901V69.768h-23.901v150.011z" fill="#e0ebf9"/><path d="M130.679 172.617h3.104V69.768h-3.104v102.849zM137.577 172.617h3.104V69.768h-3.104v102.849zM144.475 172.617h3.104V69.768h-3.104v102.849zM151.373 172.617h3.104V69.768h-3.104v102.849z" fill="#c8dcf3"/><path d="M303.119 218.5h-4.516v7.868h4.516V218.5z" fill="#f7fbfd"/><path d="M312.794 218.5h-4.515v7.868h4.515V218.5z" fill="#b9c9ea"/><path d="M293.443 205.309h-4.516v7.868h4.516v-7.868z" fill="#f7fbfd"/><path d="M303.119 205.309h-4.516v7.868h4.516v-7.868zM312.794 205.309h-4.515v7.868h4.515v-7.868zM303.119 192.118h-4.516v7.868h4.516v-7.868z" fill="#b9c9ea"/><path d="M312.794 192.118h-4.515v7.868h4.515v-7.868z" fill="#f7fbfd"/><path d="M322.47 192.118h-4.516v7.868h4.516v-7.868zM293.443 178.927h-4.516v7.868h4.516v-7.868z" fill="#b9c9ea"/><path d="M303.119 165.735h-4.516v7.868h4.516v-7.868z" fill="#f7fbfd"/><path d="M312.794 165.735h-4.515v7.868h4.515v-7.868z" fill="#b9c9ea"/><path d="M322.47 165.735h-4.516v7.868h4.516v-7.868zM144.377 242.339h-3.196v5.561h3.196v-5.561zM151.373 242.339h-3.195v5.561h3.195v-5.561zM144.271 233.017h-3.196v5.561h3.196v-5.561zM137.529 223.695h-3.196v5.56h3.196v-5.56zM151.225 223.695h-3.196v5.56h3.196v-5.56zM137.529 195.641h-3.196v5.56h3.196v-5.56zM151.225 195.641h-3.196v5.56h3.196v-5.56zM144.271 214.373h-3.196v5.561h3.196v-5.561zM144.271 187.712h-3.196v5.561h3.196v-5.561zM144.377 205.051h-3.196v5.561h3.196v-5.561z" fill="#f7fbfd"/><path d="M204.575 215.034h14.249v16.436h-14.249v-16.436z" fill="#acc8ee"/><path d="M163.145 178.63h20.798V69.769h-20.798V178.63z" fill="#b7d3f0"/><path d="M281.157 154.011h31.637v4.192h-31.637v-4.192zM281.157 146.354h31.637v4.191h-31.637v-4.191zM281.157 138.697h31.637v4.192h-31.637v-4.192zM281.157 131.041h31.637v4.192h-31.637v-4.192zM281.157 123.385h31.637v4.192h-31.637v-4.192zM281.157 115.729h31.637v4.191h-31.637v-4.191zM281.157 108.071h31.637v4.192h-31.637v-4.192zM281.157 100.415h31.637v4.192h-31.637v-4.192zM281.157 92.759h31.637v4.192h-31.637v-4.192z" fill="#b9c9ea"/><path d="M235.377 126.351h1.963v95.532h-1.963v-95.532zM239.74 126.351h1.963v95.532h-1.963v-95.532zM244.104 126.351h1.963v95.532h-1.963v-95.532zM248.466 126.351h1.963v95.532h-1.963v-95.532z" fill="#acc8ee"/><path d="M348.522 69.769h12.952v65.465h-12.952V69.769zM439.245 96.951h16.337v11.12h-16.337v-11.12zM418.269 96.951h16.337v11.12h-16.337v-11.12z" fill="#b7d3f0"/></g><g><g clip-path="url(#c)" opacity=".60000598"><path d="M654.625 275.429h9.342v3.017h-9.342v-3.017z" fill="#d7e7f8"/><path d="M653.433 274.773h11.727v1.312h-11.727v-1.312z" fill="#d7e7f8"/><path d="M650.5 252.809h17.591v21.964H650.5v-21.964z" fill="#a5c3ea"/><path d="M658.2021 295.8931h2.187l-.786 15.741h-.616l-.785-15.741z" fill="#d7e7f8"/><path d="M658.302 294.975h.663v-15.873h-.663v15.873zm1.325 0h.662v-15.873h-.662v15.873zm-2.815-17.184h4.969v18.365h-4.969v-18.365z" fill="#d7e7f8"/><path d="M680.668 135.5713h26.884v83.853l-26.884-83.853z" fill="#c8dcf3"/><path d="M476.726 191.281h-.421v10.073h.421v-10.073zm-.841 0h-.421v10.073h.421v-10.073zm14.046-121.512v113.372h-8.255v5.393h-1.861v.832h-.756v1.499h-1.387v11.239h-.892l-.49 9.823h-.391l-.49-9.823h-.891v-11.239h-1.387v-1.499h-.757v-.832h-1.861v-5.393h-5.205l-13.245-17.498V69.769h37.868zM554.413 216.906h-1.032v21.861h1.032v-21.861zm-2.065 0h-1.032v21.861h1.032v-21.861zm28.213-147.137v117.362h-9.193v16.884h-2.714v12.891h-11.917v25.052h-2.189l-1.203 34.181h-.961l-1.203-34.181h-2.189v-25.052h-16.541V69.769h48.11z" fill="#a4c2eb"/><path d="M647.455 138.103h33.022V238.89h-33.022V138.103z" fill="#b7d3f0"/><path d="M673.2129 234.0186l7.265 4.871h-33.023l25.758-4.871z" fill="#e0ebf9"/><path d="M684.639 184.612h12.217v3.19h-12.217v-3.19z" fill="#d7e7f8"/><path d="M683.079 183.918h15.336v1.388h-15.336v-1.388zM679.245 180.312h23.004v3.606h-23.004v-3.606zM689.3174 206.251h2.859l-1.026 16.646h-.807l-1.026-16.646z" fill="#d7e7f8"/><path d="M689.447 205.28h.866v-16.784h-.866v16.784zm1.734 0h.866v-16.784h-.866v16.784zm-3.683-18.172h6.498v19.42h-6.498v-19.42zM587.031 260.183h8.178v3.742h-8.178v-3.742z" fill="#d7e7f8"/><path d="M585.987 259.37h10.267v1.626h-10.267v-1.626zM583.421 255.14h15.399v4.23h-15.399v-4.23zM590.1631 300.8335h1.914l-.687 19.523h-.54l-.687-19.523z" fill="#d7e7f8"/><path d="M590.25 284.424h.58v-19.686h-.58v19.686zm1.16 0h.58v-19.686h-.58v19.686zm-2.465-21.313h4.35v38.047h-4.35v-38.047z" fill="#d7e7f8"/><path d="M571.4 161.448h31.214v121.091H571.4V161.448z" fill="#e0ebf9"/><path d="M587.409 268.23h3.195v5.561h-3.195v-5.561zM580.561 268.23h3.196v5.561h-3.196v-5.561zM594.257 258.908h3.195v5.561h-3.195v-5.561z" fill="#f7fbfd"/><path d="M587.409 258.908h3.195v5.561h-3.195v-5.561zM580.561 258.908h3.196v5.561h-3.196v-5.561z" fill="#b9c9ea"/><path d="M587.409 249.586h3.195v5.561h-3.195v-5.561zM580.561 249.586h3.196v5.561h-3.196v-5.561zM573.713 249.586h3.196v5.561h-3.196v-5.561zM594.257 240.265h3.195v5.561h-3.195v-5.561zM587.409 230.942h3.195v5.561h-3.195v-5.561zM580.561 230.942h3.196v5.561h-3.196v-5.561zM573.713 230.942h3.196v5.561h-3.196v-5.561z" fill="#f7fbfd"/><path d="M562.7002 202.5586h26.884v36.446l-26.884-36.446z" fill="#c8dcf3"/><path d="M560.535 205.548h31.214V69.769h-31.214v135.779z" fill="#e0ebf9"/><path d="M585.886 250.614h31.215V69.769h-31.215v180.845z" fill="#e0ebf9"/><path d="M599.338 250.614h4.312V69.769h-4.312v180.845z" fill="#b9c9ea"/><path d="M580.713 255.935h36.388v-5.321h-36.388v5.321z" fill="#e0ebf9"/><path d="M481.811 295.004h-14.86v3.313h14.86v-3.313z" fill="#d7e7f8"/><path d="M483.708 294.284h-18.655v1.441h18.655v-1.441z" fill="#d7e7f8"/><path d="M488.371 270.16H460.39v24.124h27.981V270.16z" fill="#a5c3ea"/><path d="M476.1191 308.3315h-3.478l1.249 23.307h.981l1.248-23.307z" fill="#d7e7f8"/><path d="M475.961 299.039h-1.054v8.284h1.054v-8.284zm-2.107 0H472.8v8.284h1.054v-8.284zm-3.426-1.441h7.905v11.022h-7.905v-11.022zM724.574 237.41h-13.01v4.109h13.01v-4.109z" fill="#d7e7f8"/><path d="M726.234 236.517h-16.331v1.787h16.331v-1.787zM730.317 231.871H705.82v4.646h24.497v-4.646zM719.453 242.413h-.923v8.58h.923v-8.58zm-1.846 0h-.922v8.58h.922v-8.58zm-2.998-1.786h6.92v28.747h-6.92v-28.747z" fill="#d7e7f8"/><path d="M528.698 171.344h-49.654v132.999h49.654V171.344z" fill="#e0ebf9"/><path d="M503.232 288.626h-5.084v6.107h5.084v-6.107z" fill="#b9c9ea"/><path d="M514.125 288.626h-5.083v6.107h5.083v-6.107zM492.339 278.387h-5.083v6.107h5.083v-6.107z" fill="#f7fbfd"/><path d="M503.232 278.387h-5.084v6.107h5.084v-6.107z" fill="#b9c9ea"/><path d="M514.125 278.387h-5.083v6.107h5.083v-6.107zM503.232 268.149h-5.084v6.107h5.084v-6.107z" fill="#f7fbfd"/><path d="M514.125 268.149h-5.083v6.107h5.083v-6.107z" fill="#b9c9ea"/><path d="M525.019 268.149h-5.083v6.107h5.083v-6.107zM492.339 257.91h-5.083v6.107h5.083v-6.107zM503.232 247.672h-5.084v6.107h5.084v-6.107zM514.125 247.672h-5.083v6.107h5.083v-6.107zM525.019 247.672h-5.083v6.107h5.083v-6.107z" fill="#f7fbfd"/><path d="M542.5371 216.4961h-42.766v40.03l42.766-40.03z" fill="#c8dcf3"/><path d="M496.327 219.779h49.654V69.768h-49.654v150.011z" fill="#e0ebf9"/><path d="M456 269.277h49.654V69.768H456v199.509z" fill="#e0ebf9"/><path d="M474.892 269.277h6.858V69.768h-6.858v199.509z" fill="#b9c9ea"/><path d="M483.708 275.122H456v-5.844h27.708v5.844z" fill="#e0ebf9"/><path d="M530.592 203.077h-3.196v5.56h3.196v-5.56zM537.588 203.077h-3.195v5.56h3.195v-5.56z" fill="#f7fbfd"/><path d="M530.485 193.755h-3.195v5.561h3.195v-5.561zM523.744 184.433h-3.196v5.561h3.196v-5.561z" fill="#b9c9ea"/><path d="M537.439 184.433h-3.196v5.561h3.196v-5.561zM523.744 156.379h-3.196v5.56h3.196v-5.56zM537.439 156.379h-3.196v5.56h3.196v-5.56zM530.485 175.111h-3.195v5.561h3.195v-5.561zM530.485 148.45h-3.195v5.561h3.195v-5.561z" fill="#f7fbfd"/><path d="M530.592 165.789h-3.196v5.561h3.196v-5.561z" fill="#b9c9ea"/><path d="M753.613 209.359h-9.342v3.018h9.342v-3.018z" fill="#d7e7f8"/><path d="M754.806 208.703h-11.727v1.312h11.727v-1.312z" fill="#d7e7f8"/><path d="M757.738 186.739h-17.591v21.964h17.591v-21.964z" fill="#a5c3ea"/><path d="M750.0361 229.8232h-2.187l.786 15.741h.616l.785-15.741z" fill="#d7e7f8"/><path d="M749.937 213.032h-.663v15.873h.663v-15.873zm-1.326 0h-.662v15.873h.662v-15.873zm-2.153-1.311h4.969v18.365h-4.969v-18.365z" fill="#d7e7f8"/><path d="M485.307 170.481h1.964v95.532h-1.964v-95.532zM489.67 170.481h1.964v95.532h-1.964v-95.532zM494.033 170.481h1.963v95.532h-1.963v-95.532zM498.396 170.481h1.963v95.532h-1.963v-95.532z" fill="#acc8ee"/><path d="M617.1006 69.7686v214.793h9.986v-36.604h5.103v14.114h9.599v12.46h5.104v-12.46h24.382v-63.445h14.733v-13.539h13.858v-38.739h4.619v81.268l5.337 17.566 18.894-.576 3.666-5.906V69.7686h-115.281z" fill="#e0ebf9"/><path d="M777.8828 111.7998c-1.561 31.77-2.35 63.57-2.913 95.372-.297 16.813-.534 33.628-.788 50.443h-11.569v-29.999h-3.843v44.622h-.731v-44.622h-18.778l-6.879 11.084V69.7688h48.845c-1.423 13.971-2.653 27.956-3.344 42.031" fill="#b9c9ea"/><path d="M737.623 219.779h23.901V69.768h-23.901v150.011z" fill="#e0ebf9"/><path d="M637.049 172.617h3.104V69.768h-3.104v102.849zM643.947 172.617h3.104V69.768h-3.104v102.849zM650.846 172.617h3.104V69.768h-3.104v102.849zM657.743 172.617h3.104V69.768h-3.104v102.849z" fill="#c8dcf3"/><path d="M650.747 242.339h-3.195v5.561h3.195v-5.561zM657.743 242.339h-3.195v5.561h3.195v-5.561zM650.642 233.017h-3.196v5.561h3.196v-5.561zM643.899 223.695h-3.195v5.56h3.195v-5.56zM657.595 223.695H654.4v5.56h3.195v-5.56zM643.899 195.641h-3.195v5.56h3.195v-5.56zM657.595 195.641H654.4v5.56h3.195v-5.56zM650.642 214.373h-3.196v5.561h3.196v-5.561zM650.642 187.712h-3.196v5.561h3.196v-5.561zM650.747 205.051h-3.195v5.561h3.195v-5.561z" fill="#f7fbfd"/><path d="M710.945 215.034h14.248v16.436h-14.248v-16.436z" fill="#acc8ee"/><path d="M669.516 178.63h20.798V69.769h-20.798V178.63z" fill="#b7d3f0"/><path d="M449.797 193.89h12.599v3.971h-12.599v-3.971zM449.797 186.637h12.599v3.971h-12.599v-3.971zM449.797 179.384h12.599v3.972h-12.599v-3.972zM449.797 172.132h12.599v3.971h-12.599v-3.971zM449.797 164.879h12.599v3.971h-12.599v-3.971zM449.797 157.626h12.599v3.972h-12.599v-3.972zM449.797 150.373h12.599v3.972h-12.599v-3.972zM449.797 143.121h12.599v3.971h-12.599v-3.971zM449.797 135.868h12.599v3.971h-12.599v-3.971z" fill="#b9c9ea"/><path d="M741.748 126.351h1.963v95.532h-1.963v-95.532zM746.11 126.351h1.964v95.532h-1.964v-95.532z" fill="#acc8ee"/></g></g></g><g clip-path="url(#d)" transform="matrix(.40917 0 0 -.40784 -.0000025 203.86514)"><path d="M754.571 0H-4.572v83.503h759.143V0z" fill="#7b8589"/><path d="M762 89.487H-12v-7.876h774v7.876z" fill="#dde1e7"/></g></svg>