<svg xmlns="http://www.w3.org/2000/svg" viewBox="0 0 78.578 78.574">
  <defs>
    <style>
      .cls-1 {
        fill: #aaa;
      }
    </style>
  </defs>
  <g id="email" transform="translate(0 -0.01)">
    <g id="Group_3" data-name="Group 3" transform="translate(0 0.01)">
      <g id="Group_2" data-name="Group 2" transform="translate(0 0)">
        <path id="Path_15" data-name="Path 15" class="cls-1" d="M76.607,26.211,52.373,1.977a6.735,6.735,0,0,0-9.514,0L5.04,39.8a6.735,6.735,0,0,0,0,9.514l6.08,6.08L4.444,62.067a1.535,1.535,0,0,0,2.17,2.17l6.676-6.676,2.781,2.781L.45,75.964a1.535,1.535,0,0,0,2.171,2.17L18.242,62.513,29.274,73.544a6.735,6.735,0,0,0,9.514,0l37.819-37.82a6.727,6.727,0,0,0,0-9.514ZM32.916,72.268a3.631,3.631,0,0,1-1.472-.894L7.21,47.14A3.658,3.658,0,0,1,6.268,43.6H32.916ZM27.368,40.535l4.551-4.551a1.535,1.535,0,0,0-2.17-2.17l-6.721,6.721H18.556L32.43,26.661A1.535,1.535,0,1,0,30.26,24.49L14.215,40.535H8.642L43.6,5.579v31.3a3.662,3.662,0,0,1-3.658,3.658Zm47.069-6.981L36.617,71.374a3.651,3.651,0,0,1-.632.5V43.6H39.94a6.735,6.735,0,0,0,6.727-6.727V32.922H64.259L55.378,41.8a1.535,1.535,0,1,0,2.171,2.17L68.6,32.923h6.344A3.68,3.68,0,0,1,74.437,33.555Zm-27.769-3.7V3.206a3.657,3.657,0,0,1,3.535.942L74.437,28.381a3.638,3.638,0,0,1,.9,1.471Z" transform="translate(0 -0.01)"/>
      </g>
    </g>
    <g id="Group_5" data-name="Group 5" transform="translate(33.567 20.285)">
      <g id="Group_4" data-name="Group 4">
        <path id="Path_16" data-name="Path 16" class="cls-1" d="M221.34,132.57a1.534,1.534,0,1,0,.45,1.085A1.54,1.54,0,0,0,221.34,132.57Z" transform="translate(-218.72 -132.12)"/>
      </g>
    </g>
    <g id="Group_7" data-name="Group 7" transform="translate(0.006 65.605)">
      <g id="Group_6" data-name="Group 6">
        <path id="Path_17" data-name="Path 17" class="cls-1" d="M2.66,427.87a1.534,1.534,0,0,0-2.17,0,1.534,1.534,0,1,0,2.17,2.17,1.534,1.534,0,0,0,0-2.17Z" transform="translate(-0.04 -427.42)"/>
      </g>
    </g>
    <g id="Group_9" data-name="Group 9" transform="translate(9.904 68.544)">
      <g id="Group_8" data-name="Group 8">
        <path id="Path_18" data-name="Path 18" class="cls-1" d="M74.12,447.018a1.535,1.535,0,0,0-2.171,0l-6.97,6.97a1.535,1.535,0,0,0,2.171,2.171l6.97-6.97A1.535,1.535,0,0,0,74.12,447.018Z" transform="translate(-64.53 -446.568)"/>
      </g>
    </g>
  </g>
</svg>
