<svg xmlns="http://www.w3.org/2000/svg" viewBox="0 0 181.192 182.779">
  <defs>
    <style>
      .cls-1 {
        fill: #d2d2d2;
      }

      .cls-2 {
        fill: none;
        stroke: #d2d2d2;
        stroke-miterlimit: 10;
        stroke-width: 14.805px;
      }
    </style>
  </defs>
  <g id="Group_1" data-name="Group 1" transform="translate(-831 -75)">
    <path id="Path_1" data-name="Path 1" class="cls-1" d="M158.163,53.589c-10.938-9.054-22.665-12.4-36.884-12.4-14.1,0-26.676,3.464-37.552,12.335L76.8,48.06a70.145,70.145,0,0,1,89.141.243Z" transform="translate(800.867 62.366)"/>
    <path id="Path_2" data-name="Path 2" class="cls-2" d="M234,218.3" transform="translate(739.189 -10.651)"/>
    <path id="Path_3" data-name="Path 3" class="cls-2" d="M233.6,81" transform="translate(739.346 43.219)"/>
    <path id="Path_4" data-name="Path 4" class="cls-1" d="M142.4.911l-6.745,19.2a1.372,1.372,0,0,0,1.276,1.823h13.49a1.372,1.372,0,0,0,1.276-1.823L144.949.911A1.349,1.349,0,0,0,142.4.911Z" transform="translate(777.805 75)"/>
    <path id="Path_5" data-name="Path 5" class="cls-1" d="M53.589,83.378c-9.054,10.938-12.4,22.665-12.4,36.884,0,14.1,3.464,26.676,12.335,37.552l-5.469,6.927A70.145,70.145,0,0,1,48.3,75.6Z" transform="translate(818.366 45.338)"/>
    <path id="Path_6" data-name="Path 6" class="cls-1" d="M.911,145.749l19.2,6.745a1.372,1.372,0,0,0,1.823-1.276v-13.49a1.372,1.372,0,0,0-1.823-1.276L.911,143.2A1.349,1.349,0,0,0,.911,145.749Z" transform="translate(831 21.491)"/>
    <path id="Path_7" data-name="Path 7" class="cls-1" d="M230.8,84.978c9.054,10.938,12.4,22.665,12.4,36.884,0,14.1-3.464,26.676-12.335,37.552l5.469,6.927a70.145,70.145,0,0,0-.243-89.141Z" transform="translate(740.444 44.71)"/>
    <path id="Path_8" data-name="Path 8" class="cls-1" d="M283.085,145.949l-19.262,6.745A1.372,1.372,0,0,1,262,151.418v-13.49a1.372,1.372,0,0,1,1.823-1.276l19.2,6.745A1.339,1.339,0,0,1,283.085,145.949Z" transform="translate(728.203 21.413)"/>
    <path id="Path_9" data-name="Path 9" class="cls-1" d="M158.163,233.4c-10.938,9.054-22.665,12.4-36.884,12.4-14.1,0-26.676-3.464-37.552-12.335L76.8,238.93a70.145,70.145,0,0,0,89.141-.243Z" transform="translate(800.867 -16.576)"/>
    <path id="Path_10" data-name="Path 10" class="cls-1" d="M142,285.724l-6.745-19.2a1.372,1.372,0,0,1,1.276-1.823h13.49a1.372,1.372,0,0,1,1.276,1.823l-6.745,19.2A1.349,1.349,0,0,1,142,285.724Z" transform="translate(777.962 -28.857)"/>
    <path id="Path_11" data-name="Path 11" class="cls-1" d="M70.821,63.6l-6.5,6.319L53.381,56.738a2.8,2.8,0,0,1,.365-3.95h0a2.752,2.752,0,0,1,3.524,0Z" transform="translate(810.31 54.539)"/>
    <path id="Path_12" data-name="Path 12" class="cls-1" d="M215.9,64.6l6.441,6.319,10.938-13.186a2.8,2.8,0,0,0-.365-3.95h0a2.752,2.752,0,0,0-3.524,0Z" transform="translate(746.29 54.146)"/>
    <path id="Path_13" data-name="Path 13" class="cls-1" d="M215.9,225.119l6.441-6.319,10.938,13.186a2.8,2.8,0,0,1-.365,3.95h0a2.753,2.753,0,0,1-3.524,0Z" transform="translate(746.29 -10.848)"/>
    <path id="Path_14" data-name="Path 14" class="cls-1" d="M69.86,225.119,63.419,218.8,52.481,231.986a2.8,2.8,0,0,0,.365,3.95h0a2.752,2.752,0,0,0,3.524,0Z" transform="translate(810.663 -10.848)"/>
  </g>
</svg>
