<svg width="148" height="148" viewBox="0 0 148 148" version="1.1" xmlns="http://www.w3.org/2000/svg" xmlns:xlink="http://www.w3.org/1999/xlink">
    <title>
        Slice
    </title>
    <defs>
        <path id="a" d="M25.387 14.567l2.108 2.084 5.577-7.91-5.577-2.7z"/>
    </defs>
    <g stroke="none" stroke-width="1" fill="none" fill-rule="evenodd">
        <g transform="translate(20 20)">
            <ellipse stroke="#FFB199" stroke-width="13.778" cx="24.832" cy="24.664" rx="17.943" ry="17.539"/>
            <ellipse fill="#FFCF59" cx="102.381" cy="30.055" rx="20.5" ry="20.155"/>
            <path stroke="#5C6AE6" stroke-width="18.855" d="M49.387 57.447l24.165 6.94-6.94 24.165-24.165-6.94z"/>
            <path d="M58.84 72.64C62.195 84.314 74.595 91 86.537 87.57c11.94-3.43 18.903-15.675 15.55-27.35" fill="#FF5A6E"/>
            <path fill="#71D1DC" d="M12.278 105.838l37.444-49.676-43.56 6.116"/>
        </g>
        <path fill="#E0E0E0" d="M25.49 100.684h34.78v47.694H25.49z"/>
        <path fill="#F6F6F6" d="M60.27 100.684h62.24v47.694H60.27z"/>
        <path d="M60.078 100.702l5.83-5.91c.913-.925 2.16-1.446 3.46-1.446h54.23c1.343 0 2.43 1.088 2.43 2.43 0 .59-.213 1.157-.6 1.6l-2.91 3.326H60.08z" fill="#CCC"/>
        <path d="M60.535 100.688l-4.217-4.225c-1.823-1.827-4.298-2.854-6.88-2.854H24.633c-1.342 0-2.43 1.087-2.43 2.43 0 .59.216 1.162.608 1.605l2.682 3.043h35.043z" fill="#CCC"/>
        <g>
            <g id="people">
                <path id="shape" fill="#081452" d="M141.454 147.86l-3.74-24.9V63.197l-2.494 2.49v9.527l-1.247 7.904h-6.234l-11.223-6.225-3.74-12.45h-2.494l3.74 13.695 11.222 8.715v17.43l-2.494 18.677v24.9h2.495l2.494-24.9 3.74-12.45 1.246 12.45 6.234 24.9z"/>
                <path d="M134.168 81.098h-3.058l1.034-8.263 4.55.91-2.526 7.353z" id="shape" stroke="#081452" stroke-width="1.549"/>
            </g>
        </g>
        <g>
            <g id="shape" transform="matrix(-1 0 0 1 40.36 67.065)">
                <use fill="#FFF" fill-rule="evenodd" xlink:href="#a"/>
                <path stroke="#081452" stroke-width="1.549" d="M26.244 14.326l1.145 1.13 4.523-6.417-3.895-1.886-1.774 7.172z"/>
            </g>
            <path fill="#081452" d="M20.682 148.31l6.758-22.81-6.758-18.832V85.722l10.43-5.38 8.572-12.773H37l-7.9 9.838-18.763 10.337-2.843 17.795 2.843 2.722 3.42 40.048h1.995l1.893-34.665 4.116 13.88-3.34 20.785"/>
        </g>
    </g>
</svg>
