<svg version="1.1"
      xmlns="http://www.w3.org/2000/svg"
      xmlns:xlink="http://www.w3.org/1999/xlink"  id="snapshot-39845" width="100" height="100" viewBox="0 0 100 100"><desc>This image was made on Patterninja.com</desc><defs>
<!-- image 94255 -->
<g id="transformed-94255" data-image="94255" transform="translate(64.99, 65.47) rotate(21, 10, 10)"><g><svg version="1.1" width="20px" height="20px" viewBox="0 0 20 20"><g id="original-94255"><svg xmlns="http://www.w3.org/2000/svg" viewBox="0 0 58 58" xmlns:xlink="http://www.w3.org/1999/xlink" version="1.1" preserveAspectRatio="xMidYMid meet">
  <path d="M42.899 4.5A5.009 5.009 0 0 0 38 .5a1 1 0 1 0 0 2c1.654 0 3 1.346 3 3s-1.346 3-3 3a1 1 0 1 0 0 2 5.01 5.01 0 0 0 4.899-4H56v7H2v-7h17a1 1 0 1 0 0-2h-1.816A2.995 2.995 0 0 1 20 2.5c1.654 0 3 1.346 3 3s-1.346 3-3 3a1 1 0 1 0 0 2c2.757 0 5-2.243 5-5s-2.243-5-5-5a5.01 5.01 0 0 0-4.899 4H0v53h58v-53H42.899zM30 15.5h12v12H30v-12zm12 26H30v-12h12v12zm-26-12h12v12H16v-12zm0-14h12v12H16v-12zm-14 1v-1h12v12H2v-11zm0 13h12v12H2v-12zm0 26v-12h12v12H2zm14 0v-12h12v12H16zm14 0v-12h12v12H30zm26 0H44v-12h12v12zm0-14H44v-12h12v12zm-12-14v-12h12v12H44z" fill="rgba(255, 255, 255, 1)" stroke="none"/>
  <path d="M26 2.5c1.654 0 3 1.346 3 3s-1.346 3-3 3a1 1 0 1 0 0 2c2.757 0 5-2.243 5-5s-2.243-5-5-5a1 1 0 1 0 0 2z" fill="rgba(255, 255, 255, 1)" stroke="none"/>
  <path d="M32 2.5c1.654 0 3 1.346 3 3s-1.346 3-3 3a1 1 0 1 0 0 2c2.757 0 5-2.243 5-5s-2.243-5-5-5a1 1 0 1 0 0 2z" fill="rgba(255, 255, 255, 1)" stroke="none"/>
  <path d="M31.293 40.207a.997.997 0 0 0 1.414 0L36 36.914l3.293 3.293a.997.997 0 0 0 1.414 0 .999.999 0 0 0 0-1.414L37.414 35.5l3.293-3.293a.999.999 0 1 0-1.414-1.414L36 34.086l-3.293-3.293a.999.999 0 1 0-1.414 1.414l3.293 3.293-3.293 3.293a.999.999 0 0 0 0 1.414z" fill="rgba(255, 255, 255, 1)" stroke="none"/>
</svg>
</g></svg></g></g>
<!-- /image 94255 -->

<!-- image 18652 -->
<g id="transformed-18652" data-image="18652" transform="translate(11.149999999999999, 10.660000000000004) rotate(26, 10, 9.999999999999996)"><g><svg version="1.1" width="20px" height="19.999999999999993px" viewBox="0 0 20 19.999999999999993"><g id="original-18652"><svg xmlns="http://www.w3.org/2000/svg" viewBox="0 0 59.997 59.997" xmlns:xlink="http://www.w3.org/1999/xlink" version="1.1" preserveAspectRatio="xMidYMid meet">
  <path d="M19.519 21.05c-.39.4-.38 1.03.01 1.42.19.19.45.29.7.29.26 0 .52-.1.71-.3a.996.996 0 0 0 0-1.41c-.4-.39-1.031-.39-1.42 0z" fill="rgba(255, 255, 255, 1)" stroke="none"/>
  <path d="M16.668 46.56c-.39.391-.39 1.03 0 1.42a1.001 1.001 0 0 0 1.41 0c.39-.39.39-1.029 0-1.42a.996.996 0 0 0-1.41 0z" fill="rgba(255, 255, 255, 1)" stroke="none"/>
  <path d="M16.708 23.89c-.39.391-.39 1.03 0 1.42.2.19.45.29.7.29.26 0 .52-.1.72-.3.38-.39.38-1.03-.01-1.41a.996.996 0 0 0-1.41 0z" fill="rgba(255, 255, 255, 1)" stroke="none"/>
  <path d="M19.499 49.39c-.39.391-.39 1.03 0 1.42a1.001 1.001 0 0 0 1.41 0c.39-.39.39-1.029 0-1.42a.996.996 0 0 0-1.41 0z" fill="rgba(255, 255, 255, 1)" stroke="none"/>
  <path d="M25.118 52.28a1.004 1.004 0 0 0 .72 1.699c.26 0 .52-.1.72-.31a.996.996 0 0 0-.02-1.41 1.009 1.009 0 0 0-1.42.021z" fill="rgba(255, 255, 255, 1)" stroke="none"/>
  <path d="M22.338 18.21a.999.999 0 0 0 .01 1.42.988.988 0 0 0 1.41-.01.987.987 0 0 0-.01-1.41.994.994 0 0 0-1.41 0z" fill="rgba(255, 255, 255, 1)" stroke="none"/>
  <path d="M22.328 52.22c-.39.39-.39 1.021 0 1.42a1.001 1.001 0 0 0 1.41 0c.39-.399.39-1.03 0-1.42s-1.03-.39-1.41 0z" fill="rgba(255, 255, 255, 1)" stroke="none"/>
  <path d="M13.888 26.729a.999.999 0 0 0 .01 1.42.992.992 0 0 0 1.41-.01.987.987 0 0 0-.01-1.41.998.998 0 0 0-1.41 0z" fill="rgba(255, 255, 255, 1)" stroke="none"/>
  <path d="M8.178 38.08a.996.996 0 0 0 0 1.41c.2.199.45.3.71.3.26 0 .51-.101.71-.3a.996.996 0 0 0 0-1.41 1.006 1.006 0 0 0-1.42 0z" fill="rgba(255, 255, 255, 1)" stroke="none"/>
  <path d="M8.258 32.41a1.008 1.008 0 0 0 0 1.42c.2.189.45.29.71.29.25 0 .51-.101.7-.301a.996.996 0 1 0-1.41-1.409z" fill="rgba(255, 255, 255, 1)" stroke="none"/>
  <path d="M5.438 35.25c-.39.399-.39 1.03 0 1.42.2.189.45.29.71.29.25 0 .51-.101.71-.3a.996.996 0 0 0-.01-1.41.994.994 0 0 0-1.41 0z" fill="rgba(255, 255, 255, 1)" stroke="none"/>
  <path d="M25.158 15.37a1.008 1.008 0 0 0 0 1.42c.2.189.45.29.7.29.26 0 .52-.101.72-.3.38-.391.38-1.021-.01-1.41a.994.994 0 0 0-1.41 0z" fill="rgba(255, 255, 255, 1)" stroke="none"/>
  <path d="M11.008 40.91a.995.995 0 0 0 .71 1.699.995.995 0 0 0 .71-1.699c-.4-.39-1.03-.39-1.42 0z" fill="rgba(255, 255, 255, 1)" stroke="none"/>
  <path d="M13.838 43.74a.995.995 0 0 0 .71 1.699c.25 0 .51-.09.7-.29a.996.996 0 1 0-1.41-1.409z" fill="rgba(255, 255, 255, 1)" stroke="none"/>
  <path d="M11.068 29.569a1.005 1.005 0 1 0 .71 1.711c.26 0 .52-.101.71-.301a.987.987 0 0 0-.01-1.41.998.998 0 0 0-1.41 0z" fill="rgba(255, 255, 255, 1)" stroke="none"/>
  <path d="M30.708 46.55a.987.987 0 0 0 .02 1.41c.19.189.44.28.69.28a.995.995 0 0 0 .7-1.71.986.986 0 0 0-1.41.02z" fill="rgba(255, 255, 255, 1)" stroke="none"/>
  <path d="M44.658 32.22a.987.987 0 0 0 .02 1.41.988.988 0 0 0 1.41-.01c.39-.4.38-1.04-.02-1.42a.986.986 0 0 0-1.41.02z" fill="rgba(255, 255, 255, 1)" stroke="none"/>
  <path d="M39.078 37.95a.986.986 0 0 0 .02 1.409c.19.19.44.29.69.29a.999.999 0 0 0 .7-1.72.988.988 0 0 0-1.41.021z" fill="rgba(255, 255, 255, 1)" stroke="none"/>
  <path d="M41.868 35.09a.987.987 0 0 0 .02 1.41c.19.189.44.28.69.28.27 0 .53-.101.72-.301a.987.987 0 0 0-.02-1.41.987.987 0 0 0-1.41.021z" fill="rgba(255, 255, 255, 1)" stroke="none"/>
  <path d="M47.448 29.35c-.39.4-.38 1.03.02 1.42.19.19.44.28.7.28.26 0 .52-.1.71-.3.39-.4.38-1.03-.02-1.42-.39-.38-1.03-.37-1.41.02z" fill="rgba(255, 255, 255, 1)" stroke="none"/>
  <circle cx="50.499" cy="19" r="1" fill="rgba(255, 255, 255, 1)" stroke="none"/>
  <path d="M27.918 49.41a1 1 0 1 0 1.43 1.399.996.996 0 0 0-.02-1.41.997.997 0 0 0-1.41.011z" fill="rgba(255, 255, 255, 1)" stroke="none"/>
  <circle cx="50.499" cy="27" r="1" fill="rgba(255, 255, 255, 1)" stroke="none"/>
  <circle cx="50.499" cy="23" r="1" fill="rgba(255, 255, 255, 1)" stroke="none"/>
  <path d="M33.499 43.68c-.39.4-.38 1.03.02 1.42.19.19.44.28.69.28a.999.999 0 0 0 .7-1.72 1.005 1.005 0 0 0-1.41.02z" fill="rgba(255, 255, 255, 1)" stroke="none"/>
  <path d="M39.918 9c0-.55-.45-1-1-1-.56 0-1 .45-1 1s.44 1 1 1c.55 0 1-.45 1-1z" fill="rgba(255, 255, 255, 1)" stroke="none"/>
  <path d="M27.968 12.53a1.005 1.005 0 1 0 .71 1.71c.26 0 .52-.101.71-.301a.995.995 0 0 0 0-1.409c-.4-.39-1.03-.39-1.42 0z" fill="rgba(255, 255, 255, 1)" stroke="none"/>
  <path d="M30.789 9.689c-.39.4-.39 1.03.01 1.42a.992.992 0 0 0 1.41-.01.987.987 0 0 0-.01-1.41.998.998 0 0 0-1.41 0z" fill="rgba(255, 255, 255, 1)" stroke="none"/>
  <path d="M34.918 8c-.56 0-1 .45-1 1s.44 1 1 1c.55 0 1-.45 1-1s-.45-1-1-1z" fill="rgba(255, 255, 255, 1)" stroke="none"/>
  <path d="M36.289 40.819a.987.987 0 0 0 .02 1.41c.19.19.44.28.69.28a.996.996 0 0 0 .7-1.71.989.989 0 0 0-1.41.02z" fill="rgba(255, 255, 255, 1)" stroke="none"/>
  <path d="M59.206.293a.999.999 0 0 0-1.414 0L54.084 4H30.802L1.532 33.511c-.667.666-1.034 1.553-1.034 2.495s.367 1.829 1.034 2.495l20.466 20.466a3.536 3.536 0 0 0 4.999-.01l28.501-29.271V5.414l3.707-3.707a1 1 0 0 0 .001-1.414zm-5.707 28.581L25.574 57.553a1.53 1.53 0 0 1-2.162 0L2.946 37.087c-.289-.289-.448-.673-.448-1.081s.159-.792.451-1.084L31.635 6h20.45l-4.833 4.833A4.969 4.969 0 0 0 44.499 10c-2.757 0-5 2.243-5 5s2.243 5 5 5 5-2.243 5-5a4.969 4.969 0 0 0-.833-2.753l4.833-4.833v21.46zm-6-13.874c0 1.654-1.346 3-3 3s-3-1.346-3-3 1.346-3 3-3c.462 0 .894.114 1.285.301l-1.992 1.992a.999.999 0 1 0 1.414 1.414l1.992-1.992c.187.391.301.823.301 1.285z" fill="rgba(255, 255, 255, 1)" stroke="none"/>
</svg>
</g></svg></g></g>
<!-- /image 18652 -->

<!-- image 42889 -->
<g id="transformed-42889" data-image="42889" transform="translate(64.03, 11.149999999999999) rotate(333, 10, 10)"><g><svg version="1.1" width="20px" height="20px" viewBox="0 0 20 20"><g id="original-42889"><svg xmlns="http://www.w3.org/2000/svg" viewBox="0 0 58 58" xmlns:xlink="http://www.w3.org/1999/xlink" version="1.1" preserveAspectRatio="xMidYMid meet">
  <path d="M26 2.5c1.654 0 3 1.346 3 3s-1.346 3-3 3a1 1 0 1 0 0 2c2.757 0 5-2.243 5-5s-2.243-5-5-5a1 1 0 1 0 0 2z" fill="rgba(255, 255, 255, 1)" stroke="none"/>
  <path d="M32 2.5c1.654 0 3 1.346 3 3s-1.346 3-3 3a1 1 0 1 0 0 2c2.757 0 5-2.243 5-5s-2.243-5-5-5a1 1 0 1 0 0 2z" fill="rgba(255, 255, 255, 1)" stroke="none"/>
  <path d="M42.899 4.5A5.009 5.009 0 0 0 38 .5a1 1 0 1 0 0 2c1.654 0 3 1.346 3 3s-1.346 3-3 3a1 1 0 1 0 0 2 5.01 5.01 0 0 0 4.899-4H56v1a1 1 0 0 0 0 2v4a1 1 0 0 0 0 2v1H2v-1a1 1 0 0 0 0-2v-4a1 1 0 0 0 0-2v-1h17a1 1 0 1 0 0-2h-1.816A2.995 2.995 0 0 1 20 2.5c1.654 0 3 1.346 3 3s-1.346 3-3 3a1 1 0 1 0 0 2c2.757 0 5-2.243 5-5s-2.243-5-5-5a5.01 5.01 0 0 0-4.899 4H0v53h58v-53H42.899zM56 55.5H2v-37h54v37z" fill="rgba(255, 255, 255, 1)" stroke="none"/>
  <path d="M12.293 31.207a.997.997 0 0 0 1.414 0L18 26.914V49.5h-3a1 1 0 1 0 0 2h8a1 1 0 1 0 0-2h-3v-25a.996.996 0 0 0-1.382-.923 1.006 1.006 0 0 0-.326.217l-5.999 5.999a.999.999 0 0 0 0 1.414z" fill="rgba(255, 255, 255, 1)" stroke="none"/>
  <path d="M30 43.5c0 4.411 3.589 8 8 8s8-3.589 8-8c0-3.07-1.74-5.738-4.284-7.079A6.994 6.994 0 0 0 45 30.5c0-3.859-3.141-7-7-7s-7 3.141-7 7a6.994 6.994 0 0 0 3.284 5.921C31.74 37.762 30 40.43 30 43.5zm3-13c0-2.757 2.243-5 5-5s5 2.243 5 5-2.243 5-5 5-5-2.243-5-5zm5 7c3.309 0 6 2.691 6 6s-2.691 6-6 6-6-2.691-6-6 2.691-6 6-6z" fill="rgba(255, 255, 255, 1)" stroke="none"/>
  <circle cx="8" cy="8.5" r="1" fill="rgba(255, 255, 255, 1)" stroke="none"/>
  <circle cx="8" cy="14.5" r="1" fill="rgba(255, 255, 255, 1)" stroke="none"/>
  <circle cx="5" cy="11.5" r="1" fill="rgba(255, 255, 255, 1)" stroke="none"/>
  <circle cx="11" cy="11.5" r="1" fill="rgba(255, 255, 255, 1)" stroke="none"/>
  <circle cx="14" cy="8.5" r="1" fill="rgba(255, 255, 255, 1)" stroke="none"/>
  <circle cx="14" cy="14.5" r="1" fill="rgba(255, 255, 255, 1)" stroke="none"/>
  <circle cx="20" cy="14.5" r="1" fill="rgba(255, 255, 255, 1)" stroke="none"/>
  <circle cx="17" cy="11.5" r="1" fill="rgba(255, 255, 255, 1)" stroke="none"/>
  <circle cx="23" cy="11.5" r="1" fill="rgba(255, 255, 255, 1)" stroke="none"/>
  <circle cx="26" cy="14.5" r="1" fill="rgba(255, 255, 255, 1)" stroke="none"/>
  <circle cx="32" cy="14.5" r="1" fill="rgba(255, 255, 255, 1)" stroke="none"/>
  <circle cx="29" cy="11.5" r="1" fill="rgba(255, 255, 255, 1)" stroke="none"/>
  <circle cx="35" cy="11.5" r="1" fill="rgba(255, 255, 255, 1)" stroke="none"/>
  <circle cx="44" cy="8.5" r="1" fill="rgba(255, 255, 255, 1)" stroke="none"/>
  <circle cx="38" cy="14.5" r="1" fill="rgba(255, 255, 255, 1)" stroke="none"/>
  <circle cx="44" cy="14.5" r="1" fill="rgba(255, 255, 255, 1)" stroke="none"/>
  <circle cx="41" cy="11.5" r="1" fill="rgba(255, 255, 255, 1)" stroke="none"/>
  <circle cx="47" cy="11.5" r="1" fill="rgba(255, 255, 255, 1)" stroke="none"/>
  <circle cx="50" cy="8.5" r="1" fill="rgba(255, 255, 255, 1)" stroke="none"/>
  <circle cx="50" cy="14.5" r="1" fill="rgba(255, 255, 255, 1)" stroke="none"/>
  <circle cx="53" cy="11.5" r="1" fill="rgba(255, 255, 255, 1)" stroke="none"/>
</svg>
</g></svg></g></g>
<!-- /image 42889 -->
</defs><rect x="0" y="0" width="100" height="100" fill="rgba(0, 0, 0, 0)"></rect><use xlink:href="#transformed-94255" transform="translate(-100, -100)"></use><use xlink:href="#transformed-94255" transform="translate(0, -100)"></use><use xlink:href="#transformed-94255" transform="translate(100, -100)"></use><use xlink:href="#transformed-94255" transform="translate(-100, 0)"></use><use xlink:href="#transformed-94255" transform="translate(0, 0)"></use><use xlink:href="#transformed-94255" transform="translate(100, 0)"></use><use xlink:href="#transformed-94255" transform="translate(-100, 100)"></use><use xlink:href="#transformed-94255" transform="translate(0, 100)"></use><use xlink:href="#transformed-94255" transform="translate(100, 100)"></use><use xlink:href="#transformed-18652" transform="translate(-100, -100)"></use><use xlink:href="#transformed-18652" transform="translate(0, -100)"></use><use xlink:href="#transformed-18652" transform="translate(100, -100)"></use><use xlink:href="#transformed-18652" transform="translate(-100, 0)"></use><use xlink:href="#transformed-18652" transform="translate(0, 0)"></use><use xlink:href="#transformed-18652" transform="translate(100, 0)"></use><use xlink:href="#transformed-18652" transform="translate(-100, 100)"></use><use xlink:href="#transformed-18652" transform="translate(0, 100)"></use><use xlink:href="#transformed-18652" transform="translate(100, 100)"></use><use xlink:href="#transformed-42889" transform="translate(-100, -100)"></use><use xlink:href="#transformed-42889" transform="translate(0, -100)"></use><use xlink:href="#transformed-42889" transform="translate(100, -100)"></use><use xlink:href="#transformed-42889" transform="translate(-100, 0)"></use><use xlink:href="#transformed-42889" transform="translate(0, 0)"></use><use xlink:href="#transformed-42889" transform="translate(100, 0)"></use><use xlink:href="#transformed-42889" transform="translate(-100, 100)"></use><use xlink:href="#transformed-42889" transform="translate(0, 100)"></use><use xlink:href="#transformed-42889" transform="translate(100, 100)"></use></svg>