<svg version="1.1"
      xmlns="http://www.w3.org/2000/svg"
      xmlns:xlink="http://www.w3.org/1999/xlink"  id="snapshot-43097" width="100" height="100" viewBox="0 0 100 100"><desc>This image was made on Patterninja.com</desc><defs>
<!-- image 37919 -->
<g id="transformed-37919" data-image="37919" transform="translate(-0.6799999999999997, 62.989999999999995) rotate(335, 10, 10)"><g><svg version="1.1" width="20px" height="20px" viewBox="0 0 20 20"><g id="original-37919"><svg xmlns="http://www.w3.org/2000/svg" viewBox="0 0 58 58" xmlns:xlink="http://www.w3.org/1999/xlink" version="1.1" preserveAspectRatio="xMidYMid meet">
  <path d="M36.537 28.156l-11-7a1.005 1.005 0 0 0-1.019-.033A1.002 1.002 0 0 0 24 22v14a1.001 1.001 0 0 0 1.537.844l11-7a1.002 1.002 0 0 0 0-1.688zM26 34.179V23.821L34.137 29 26 34.179z" fill="rgba(255, 255, 255, 1)" stroke="none"/>
  <path d="M57 6H1a1 1 0 0 0-1 1v44a1 1 0 0 0 1 1h56a1 1 0 0 0 1-1V7a1 1 0 0 0-1-1zM10 28H2v-9h8v9zm-8 2h8v9H2v-9zm10 10V8h34v42H12V40zm44-12h-8v-9h8v9zm-8 2h8v9h-8v-9zm8-22v9h-8V8h8zM2 8h8v9H2V8zm0 42v-9h8v9H2zm54 0h-8v-9h8v9z" fill="rgba(255, 255, 255, 1)" stroke="none"/>
</svg>
</g></svg></g></g>
<!-- /image 37919 -->

<!-- image 72602 -->
<g id="transformed-72602" data-image="72602" transform="translate(10.649999999999999, 9.980000000000006) rotate(343, 10, 9.999999999999995)"><g><svg version="1.1" width="20px" height="19.99999999999999px" viewBox="0 0 20 19.99999999999999"><g id="original-72602"><svg xmlns="http://www.w3.org/2000/svg" viewBox="0 0 58 58" xmlns:xlink="http://www.w3.org/1999/xlink" version="1.1" preserveAspectRatio="xMidYMid meet">
  <path d="M57 6H1a1 1 0 0 0-1 1v44a1 1 0 0 0 1 1h56a1 1 0 0 0 1-1V7a1 1 0 0 0-1-1zm-1 44H2V8h54v42z" fill="rgba(255, 255, 255, 1)" stroke="none"/>
  <path d="M16 28.138a5.575 5.575 0 0 0 5.569-5.568c0-3.072-2.498-5.57-5.569-5.57s-5.569 2.498-5.569 5.569A5.575 5.575 0 0 0 16 28.138zM16 19c1.968 0 3.569 1.602 3.569 3.569S17.968 26.138 16 26.138s-3.569-1.601-3.569-3.568S14.032 19 16 19z" fill="rgba(255, 255, 255, 1)" stroke="none"/>
  <path d="M7 46c.234 0 .47-.082.66-.249l16.313-14.362L34.275 41.69a.999.999 0 1 0 1.414-1.414l-4.807-4.807 9.181-10.054 11.261 10.323a1 1 0 0 0 1.351-1.475l-12-11a1.031 1.031 0 0 0-.72-.262 1.002 1.002 0 0 0-.694.325l-9.794 10.727-4.743-4.743a1 1 0 0 0-1.368-.044L6.339 44.249A1 1 0 0 0 7 46z" fill="rgba(255, 255, 255, 1)" stroke="none"/>
</svg>
</g></svg></g></g>
<!-- /image 72602 -->

<!-- image 78495 -->
<g id="transformed-78495" data-image="78495" transform="translate(42, 35.66) rotate(336, 10, 10)"><g><svg version="1.1" width="20px" height="20px" viewBox="0 0 20 20"><g id="original-78495"><svg xmlns="http://www.w3.org/2000/svg" viewBox="0 0 55 55" xmlns:xlink="http://www.w3.org/1999/xlink" version="1.1" preserveAspectRatio="xMidYMid meet">
  <path d="M49 0c-3.309 0-6 2.691-6 6 0 1.035.263 2.009.726 2.86l-9.829 9.829a7.943 7.943 0 0 0-9.795-.001l-7.669-7.669A3.947 3.947 0 0 0 17 9c0-2.206-1.794-4-4-4S9 6.794 9 9s1.794 4 4 4c.74 0 1.424-.215 2.019-.567l7.669 7.669a7.953 7.953 0 0 0 0 9.795L10.024 42.562A5.971 5.971 0 0 0 6 41c-3.309 0-6 2.691-6 6s2.691 6 6 6 6-2.691 6-6a5.966 5.966 0 0 0-.726-2.86l12.829-12.829a7.953 7.953 0 0 0 3.898 1.619v10.16c-2.833.478-5 2.942-5 5.91 0 3.309 2.691 6 6 6s6-2.691 6-6c0-2.967-2.167-5.431-5-5.91V32.93a7.953 7.953 0 0 0 3.898-1.619l7.669 7.669A3.945 3.945 0 0 0 41 41c0 2.206 1.794 4 4 4s4-1.794 4-4-1.794-4-4-4c-.74 0-1.424.215-2.019.567l-7.669-7.669a7.953 7.953 0 0 0 0-9.795l9.665-9.665A5.967 5.967 0 0 0 49 12c3.309 0 6-2.691 6-6s-2.691-6-6-6zM11 9c0-1.103.897-2 2-2s2 .897 2 2-.897 2-2 2-2-.897-2-2zM6 51c-2.206 0-4-1.794-4-4s1.794-4 4-4 4 1.794 4 4-1.794 4-4 4zm27-2c0 2.206-1.794 4-4 4s-4-1.794-4-4 1.794-4 4-4 4 1.794 4 4zm-4-18c-3.309 0-6-2.691-6-6s2.691-6 6-6 6 2.691 6 6-2.691 6-6 6zm18 10c0 1.103-.897 2-2 2s-2-.897-2-2 .897-2 2-2 2 .897 2 2zm2-31c-2.206 0-4-1.794-4-4s1.794-4 4-4 4 1.794 4 4-1.794 4-4 4z" fill="rgba(255, 255, 255, 1)" stroke="none"/>
</svg>
</g></svg></g></g>
<!-- /image 78495 -->
</defs><rect x="0" y="0" width="100" height="100" fill="rgba(230, 249, 249, 1)"></rect><use xlink:href="#transformed-37919" transform="translate(-100, -100)"></use><use xlink:href="#transformed-37919" transform="translate(0, -100)"></use><use xlink:href="#transformed-37919" transform="translate(100, -100)"></use><use xlink:href="#transformed-37919" transform="translate(-100, 0)"></use><use xlink:href="#transformed-37919" transform="translate(0, 0)"></use><use xlink:href="#transformed-37919" transform="translate(100, 0)"></use><use xlink:href="#transformed-37919" transform="translate(-100, 100)"></use><use xlink:href="#transformed-37919" transform="translate(0, 100)"></use><use xlink:href="#transformed-37919" transform="translate(100, 100)"></use><use xlink:href="#transformed-72602" transform="translate(-100, -100)"></use><use xlink:href="#transformed-72602" transform="translate(0, -100)"></use><use xlink:href="#transformed-72602" transform="translate(100, -100)"></use><use xlink:href="#transformed-72602" transform="translate(-100, 0)"></use><use xlink:href="#transformed-72602" transform="translate(0, 0)"></use><use xlink:href="#transformed-72602" transform="translate(100, 0)"></use><use xlink:href="#transformed-72602" transform="translate(-100, 100)"></use><use xlink:href="#transformed-72602" transform="translate(0, 100)"></use><use xlink:href="#transformed-72602" transform="translate(100, 100)"></use><use xlink:href="#transformed-78495" transform="translate(-100, -100)"></use><use xlink:href="#transformed-78495" transform="translate(0, -100)"></use><use xlink:href="#transformed-78495" transform="translate(100, -100)"></use><use xlink:href="#transformed-78495" transform="translate(-100, 0)"></use><use xlink:href="#transformed-78495" transform="translate(0, 0)"></use><use xlink:href="#transformed-78495" transform="translate(100, 0)"></use><use xlink:href="#transformed-78495" transform="translate(-100, 100)"></use><use xlink:href="#transformed-78495" transform="translate(0, 100)"></use><use xlink:href="#transformed-78495" transform="translate(100, 100)"></use></svg>