<svg version="1.1"
      xmlns="http://www.w3.org/2000/svg"
      xmlns:xlink="http://www.w3.org/1999/xlink"  id="snapshot-85390" width="100" height="100" viewBox="0 0 100 100"><desc>This image was made on Patterninja.com</desc><defs>
<!-- image 62913 -->
<g id="transformed-62913" data-image="62913" transform="translate(76.33, 89.33) rotate(14, 10, 10)"><g><svg version="1.1" width="20px" height="20px" viewBox="0 0 20 20"><g id="original-62913"><svg xmlns="http://www.w3.org/2000/svg" viewBox="0 0 34 34" xmlns:xlink="http://www.w3.org/1999/xlink" version="1.1" preserveAspectRatio="xMidYMid meet">
  <path d="M27.91 2H27V1a1 1 0 1 0-2 0v1h-7V1a1 1 0 1 0-2 0v1H9V1a1 1 0 1 0-2 0v1h-.91A5.095 5.095 0 0 0 1 7.09v21.82A5.095 5.095 0 0 0 6.09 34h21.82A5.095 5.095 0 0 0 33 28.91V7.09A5.095 5.095 0 0 0 27.91 2zM31 28.91A3.094 3.094 0 0 1 27.91 32H6.09A3.093 3.093 0 0 1 3 28.91V12h28v16.91zM31 10H3V7.09A3.093 3.093 0 0 1 6.09 4H7v3a1 1 0 1 0 2 0V4h7v3a1 1 0 1 0 2 0V4h7v3a1 1 0 1 0 2 0V4h.91A3.094 3.094 0 0 1 31 7.09V10z" fill="rgba(255, 255, 255, 1)" stroke="none"/>
  <path d="M29.18 24.037h-3.571v-1.238h3.181v-1.308h-3.181v-1.136h3.481V19h-5.173v6.491h5.263z" fill="rgba(255, 255, 255, 1)" stroke="none"/>
  <path d="M18.754 21.443h.019l2.254 4.048h1.737V19h-1.591v4h-.019L18.9 19h-1.736v6.491h1.59z" fill="rgba(255, 255, 255, 1)" stroke="none"/>
  <path d="M13.229 25.627c.981 0 1.698-.234 2.149-.704s.677-1.175.677-2.112V19h-1.69v3.909c0 .419-.085.731-.255.944-.169.213-.463.318-.88.318-.419 0-.712-.105-.882-.318s-.254-.525-.254-.944V19h-1.691v3.811c0 .938.226 1.644.677 2.112.451.47 1.167.704 2.149.704z" fill="rgba(255, 255, 255, 1)" stroke="none"/>
  <path d="M5.221 24.949c.175.215.408.381.7.5.291.117.651.178 1.082.178 1.515 0 2.272-.729 2.272-2.191V19H7.584v4.328c0 .312-.052.533-.158.656-.106.125-.257.188-.45.188-.212 0-.375-.059-.486-.175-.112-.112-.169-.277-.169-.489v-.6h-1.59v.282c0 .36.037.693.113.988.074.301.2.556.377.771z" fill="rgba(255, 255, 255, 1)" stroke="none"/>
</svg>
</g></svg></g></g>
<!-- /image 62913 -->

<!-- image 38309 -->
<g id="transformed-38309" data-image="38309" transform="translate(28.979999999999997, 7.989999999999998) rotate(323, 9.999999999999998, 10)"><g><svg version="1.1" width="19.999999999999996px" height="20px" viewBox="0 0 19.999999999999996 20"><g id="original-38309"><svg xmlns="http://www.w3.org/2000/svg" viewBox="0 0 66 66" xmlns:xlink="http://www.w3.org/1999/xlink" version="1.1" preserveAspectRatio="xMidYMid meet">
  <path d="M65 59.068A6.933 6.933 0 0 1 58.068 66H7.932A6.933 6.933 0 0 1 1 59.068V14.932A6.933 6.933 0 0 1 7.932 8h50.136A6.933 6.933 0 0 1 65 14.932v44.136zm-4-44.136A2.932 2.932 0 0 0 58.068 12H7.932A2.932 2.932 0 0 0 5 14.932v44.136A2.932 2.932 0 0 0 7.932 62h50.136A2.931 2.931 0 0 0 61 59.068V14.932z" fill="rgba(255, 255, 255, 1)" stroke="none"/>
  <path d="M54.104 59h-6.31a1 1 0 1 1 0-2h6.31c.99 0 1.69-.17 1.69-2.359 0-.553.55-1 1.103-1 .554 0 1.104.447 1.104 1V55c0 .059-.107.115-.117.172-.15 2.541-1.486 3.828-3.78 3.828z" fill="rgba(255, 255, 255, 1)" stroke="none"/>
  <path d="M56.875 51.411a1.03 1.03 0 0 1-.71-.291 1.02 1.02 0 0 1-.29-.709c0-.263.109-.521.29-.711.37-.369 1.04-.369 1.42 0 .181.188.29.448.29.711 0 .26-.109.521-.29.709-.19.179-.45.291-.71.291z" fill="rgba(255, 255, 255, 1)" stroke="none"/>
  <path d="M15.795 36h-1a1 1 0 1 1 0-2h1a1 1 0 1 1 0 2z" fill="rgba(255, 255, 255, 1)" stroke="none"/>
  <path d="M22.795 36h-1a1 1 0 1 1 0-2h1a1 1 0 1 1 0 2z" fill="rgba(255, 255, 255, 1)" stroke="none"/>
  <path d="M29.795 36h-1a1 1 0 1 1 0-2h1a1 1 0 1 1 0 2z" fill="rgba(255, 255, 255, 1)" stroke="none"/>
  <path d="M35.795 36h-1a1 1 0 1 1 0-2h1a1 1 0 1 1 0 2z" fill="rgba(255, 255, 255, 1)" stroke="none"/>
  <path d="M42.795 36h-1a1 1 0 1 1 0-2h1a1 1 0 1 1 0 2z" fill="rgba(255, 255, 255, 1)" stroke="none"/>
  <path d="M49.795 36h-1a1 1 0 1 1 0-2h1a1 1 0 1 1 0 2z" fill="rgba(255, 255, 255, 1)" stroke="none"/>
  <g>
    <path d="M15.795 42h-1a1 1 0 1 1 0-2h1a1 1 0 1 1 0 2z" fill="rgba(255, 255, 255, 1)" stroke="none"/>
    <path d="M22.795 42h-1a1 1 0 1 1 0-2h1a1 1 0 1 1 0 2z" fill="rgba(255, 255, 255, 1)" stroke="none"/>
    <path d="M29.795 42h-1a1 1 0 1 1 0-2h1a1 1 0 1 1 0 2z" fill="rgba(255, 255, 255, 1)" stroke="none"/>
    <path d="M35.795 42h-1a1 1 0 1 1 0-2h1a1 1 0 1 1 0 2z" fill="rgba(255, 255, 255, 1)" stroke="none"/>
    <path d="M42.795 42h-1a1 1 0 1 1 0-2h1a1 1 0 1 1 0 2z" fill="rgba(255, 255, 255, 1)" stroke="none"/>
    <path d="M49.795 42h-1a1 1 0 1 1 0-2h1a1 1 0 1 1 0 2z" fill="rgba(255, 255, 255, 1)" stroke="none"/>
  </g>
  <g>
    <path d="M15.795 54h-1a1 1 0 1 1 0-2h1a1 1 0 1 1 0 2z" fill="rgba(255, 255, 255, 1)" stroke="none"/>
    <path d="M22.795 54h-1a1 1 0 1 1 0-2h1a1 1 0 1 1 0 2z" fill="rgba(255, 255, 255, 1)" stroke="none"/>
    <path d="M29.795 54h-1a1 1 0 1 1 0-2h1a1 1 0 1 1 0 2z" fill="rgba(255, 255, 255, 1)" stroke="none"/>
    <path d="M35.795 54h-1a1 1 0 1 1 0-2h1a1 1 0 1 1 0 2z" fill="rgba(255, 255, 255, 1)" stroke="none"/>
  </g>
  <g>
    <path d="M15.795 48h-1a1 1 0 1 1 0-2h1a1 1 0 1 1 0 2z" fill="rgba(255, 255, 255, 1)" stroke="none"/>
    <path d="M22.795 48h-1a1 1 0 1 1 0-2h1a1 1 0 1 1 0 2z" fill="rgba(255, 255, 255, 1)" stroke="none"/>
    <path d="M29.795 48h-1a1 1 0 1 1 0-2h1a1 1 0 1 1 0 2z" fill="rgba(255, 255, 255, 1)" stroke="none"/>
    <path d="M35.795 48h-1a1 1 0 1 1 0-2h1a1 1 0 1 1 0 2z" fill="rgba(255, 255, 255, 1)" stroke="none"/>
    <path d="M42.795 48h-1a1 1 0 1 1 0-2h1a1 1 0 1 1 0 2z" fill="rgba(255, 255, 255, 1)" stroke="none"/>
    <path d="M49.795 48h-1a1 1 0 1 1 0-2h1a1 1 0 1 1 0 2z" fill="rgba(255, 255, 255, 1)" stroke="none"/>
  </g>
  <g>
    <path d="M15 19a2 2 0 0 1-2-2V2a2 2 0 0 1 4 0v15a2 2 0 0 1-2 2z" fill="rgba(255, 255, 255, 1)" stroke="none"/>
    <path d="M50 19a2 2 0 0 1-2-2V2a2 2 0 0 1 4 0v15a2 2 0 0 1-2 2z" fill="rgba(255, 255, 255, 1)" stroke="none"/>
  </g>
  <g>
    <path d="M62.795 27h-60a1 1 0 1 1 0-2h60a1 1 0 1 1 0 2z" fill="rgba(255, 255, 255, 1)" stroke="none"/>
  </g>
</svg>
</g></svg></g></g>
<!-- /image 38309 -->

<!-- image 25988 -->
<g id="transformed-25988" data-image="25988" transform="translate(89.33, 39.66) rotate(0, 9.999999999999996, 10)"><g><svg version="1.1" width="19.999999999999993px" height="20px" viewBox="0 0 19.999999999999993 20"><g id="original-25988"><svg xmlns="http://www.w3.org/2000/svg" viewBox="0 0 212.755 212.755" xmlns:xlink="http://www.w3.org/1999/xlink" version="1.1" preserveAspectRatio="xMidYMid meet">
  <path d="M106.377 0C47.721 0 0 47.721 0 106.377s47.721 106.377 106.377 106.377 106.377-47.721 106.377-106.377S165.034 0 106.377 0zm0 198.755C55.44 198.755 14 157.314 14 106.377S55.44 14 106.377 14s92.377 41.44 92.377 92.377-41.44 92.378-92.377 92.378z" fill="rgba(255, 255, 255, 1)" stroke="none"/>
  <path d="M113.377 100.096V60.352a20.136 20.136 0 0 1 9.82 7.82 7 7 0 0 0 11.692-7.699 34.073 34.073 0 0 0-21.512-14.647v-11.12a7 7 0 1 0-14 0v11.099c-15.493 3.23-27.168 16.989-27.168 33.426s11.676 30.198 27.168 33.428v39.744a20.136 20.136 0 0 1-9.82-7.82 7 7 0 1 0-11.692 7.699 34.073 34.073 0 0 0 21.512 14.647v11.119a7 7 0 1 0 14 0V166.95c15.493-3.23 27.168-16.989 27.168-33.426s-11.675-30.198-27.168-33.428zM86.209 79.231c0-8.653 5.494-16.027 13.168-18.874v37.748c-7.674-2.847-13.168-10.221-13.168-18.874zm27.168 73.166v-37.748c7.674 2.847 13.168 10.221 13.168 18.874s-5.493 16.027-13.168 18.874z" fill="rgba(255, 255, 255, 1)" stroke="none"/>
</svg>
</g></svg></g></g>
<!-- /image 25988 -->

<!-- image 55729 -->
<g id="transformed-55729" data-image="55729" transform="translate(23.32, 63.980000000000004) rotate(312, 10, 10)"><g><svg version="1.1" width="20px" height="20px" viewBox="0 0 20 20"><g id="original-55729"><svg xmlns="http://www.w3.org/2000/svg" viewBox="0 0 55 55" xmlns:xlink="http://www.w3.org/1999/xlink" version="1.1" preserveAspectRatio="xMidYMid meet">
  <path d="M49 0c-3.309 0-6 2.691-6 6 0 1.035.263 2.009.726 2.86l-9.829 9.829a7.943 7.943 0 0 0-9.795-.001l-7.669-7.669A3.947 3.947 0 0 0 17 9c0-2.206-1.794-4-4-4S9 6.794 9 9s1.794 4 4 4c.74 0 1.424-.215 2.019-.567l7.669 7.669a7.953 7.953 0 0 0 0 9.795L10.024 42.562A5.971 5.971 0 0 0 6 41c-3.309 0-6 2.691-6 6s2.691 6 6 6 6-2.691 6-6a5.966 5.966 0 0 0-.726-2.86l12.829-12.829a7.953 7.953 0 0 0 3.898 1.619v10.16c-2.833.478-5 2.942-5 5.91 0 3.309 2.691 6 6 6s6-2.691 6-6c0-2.967-2.167-5.431-5-5.91V32.93a7.953 7.953 0 0 0 3.898-1.619l7.669 7.669A3.945 3.945 0 0 0 41 41c0 2.206 1.794 4 4 4s4-1.794 4-4-1.794-4-4-4c-.74 0-1.424.215-2.019.567l-7.669-7.669a7.953 7.953 0 0 0 0-9.795l9.665-9.665A5.967 5.967 0 0 0 49 12c3.309 0 6-2.691 6-6s-2.691-6-6-6zM11 9c0-1.103.897-2 2-2s2 .897 2 2-.897 2-2 2-2-.897-2-2zM6 51c-2.206 0-4-1.794-4-4s1.794-4 4-4 4 1.794 4 4-1.794 4-4 4zm27-2c0 2.206-1.794 4-4 4s-4-1.794-4-4 1.794-4 4-4 4 1.794 4 4zm-4-18c-3.309 0-6-2.691-6-6s2.691-6 6-6 6 2.691 6 6-2.691 6-6 6zm18 10c0 1.103-.897 2-2 2s-2-.897-2-2 .897-2 2-2 2 .897 2 2zm2-31c-2.206 0-4-1.794-4-4s1.794-4 4-4 4 1.794 4 4-1.794 4-4 4z" fill="rgba(255, 255, 255, 1)" stroke="none"/>
</svg>
</g></svg></g></g>
<!-- /image 55729 -->
</defs><rect x="0" y="0" width="100" height="100" fill="rgba(230, 249, 249, 1)"></rect><use xlink:href="#transformed-62913" transform="translate(-100, -100)"></use><use xlink:href="#transformed-62913" transform="translate(0, -100)"></use><use xlink:href="#transformed-62913" transform="translate(100, -100)"></use><use xlink:href="#transformed-62913" transform="translate(-100, 0)"></use><use xlink:href="#transformed-62913" transform="translate(0, 0)"></use><use xlink:href="#transformed-62913" transform="translate(100, 0)"></use><use xlink:href="#transformed-62913" transform="translate(-100, 100)"></use><use xlink:href="#transformed-62913" transform="translate(0, 100)"></use><use xlink:href="#transformed-62913" transform="translate(100, 100)"></use><use xlink:href="#transformed-38309" transform="translate(-100, -100)"></use><use xlink:href="#transformed-38309" transform="translate(0, -100)"></use><use xlink:href="#transformed-38309" transform="translate(100, -100)"></use><use xlink:href="#transformed-38309" transform="translate(-100, 0)"></use><use xlink:href="#transformed-38309" transform="translate(0, 0)"></use><use xlink:href="#transformed-38309" transform="translate(100, 0)"></use><use xlink:href="#transformed-38309" transform="translate(-100, 100)"></use><use xlink:href="#transformed-38309" transform="translate(0, 100)"></use><use xlink:href="#transformed-38309" transform="translate(100, 100)"></use><use xlink:href="#transformed-25988" transform="translate(-100, -100)"></use><use xlink:href="#transformed-25988" transform="translate(0, -100)"></use><use xlink:href="#transformed-25988" transform="translate(100, -100)"></use><use xlink:href="#transformed-25988" transform="translate(-100, 0)"></use><use xlink:href="#transformed-25988" transform="translate(0, 0)"></use><use xlink:href="#transformed-25988" transform="translate(100, 0)"></use><use xlink:href="#transformed-25988" transform="translate(-100, 100)"></use><use xlink:href="#transformed-25988" transform="translate(0, 100)"></use><use xlink:href="#transformed-25988" transform="translate(100, 100)"></use><use xlink:href="#transformed-55729" transform="translate(-100, -100)"></use><use xlink:href="#transformed-55729" transform="translate(0, -100)"></use><use xlink:href="#transformed-55729" transform="translate(100, -100)"></use><use xlink:href="#transformed-55729" transform="translate(-100, 0)"></use><use xlink:href="#transformed-55729" transform="translate(0, 0)"></use><use xlink:href="#transformed-55729" transform="translate(100, 0)"></use><use xlink:href="#transformed-55729" transform="translate(-100, 100)"></use><use xlink:href="#transformed-55729" transform="translate(0, 100)"></use><use xlink:href="#transformed-55729" transform="translate(100, 100)"></use></svg>