<svg version="1.1"
      xmlns="http://www.w3.org/2000/svg"
      xmlns:xlink="http://www.w3.org/1999/xlink"  id="snapshot-79207" width="100" height="100" viewBox="0 0 100 100"><desc>This image was made on Patterninja.com</desc><defs>
<!-- image 82810 -->
<g id="transformed-82810" data-image="82810" transform="translate(79.33, 85.00000000000001) rotate(355, 10, 9.999999999999991)"><g><svg version="1.1" width="20px" height="19.999999999999982px" viewBox="0 0 20 19.999999999999982"><g id="original-82810"><svg xmlns="http://www.w3.org/2000/svg" viewBox="0 0 511.999 511.999" xmlns:xlink="http://www.w3.org/1999/xlink" version="1.1" preserveAspectRatio="xMidYMid meet">
  <path d="M372.29 50.758H28.831C12.933 50.758 0 63.691 0 79.588v206.056c0 15.897 12.933 28.831 28.831 28.831h22.271v76.71a12.08 12.08 0 0 0 20.619 8.541l85.251-85.25h17.104c6.671 0 12.078-5.407 12.078-12.078 0-6.672-5.409-12.079-12.078-12.079 0 0-22.69.016-22.927.04a12.03 12.03 0 0 0-7.722 3.498l-68.169 68.169s-.021-60.392-.06-60.705c-.545-6.166-5.717-11.002-12.024-11.002H28.831a4.679 4.679 0 0 1-4.674-4.674V79.588a4.679 4.679 0 0 1 4.674-4.674H372.29a4.679 4.679 0 0 1 4.674 4.674v79.055c0 6.671 5.409 12.078 12.078 12.078s12.078-5.407 12.078-12.078V79.588c0-15.897-12.933-28.83-28.83-28.83z" fill="rgba(255, 255, 255, 1)" stroke="none"/>
  <path d="M483.169 198.492H242.754c-15.897 0-28.831 12.933-28.831 28.831v140.57c0 15.897 12.933 28.831 28.831 28.831h150.514l60.98 60.98a12.075 12.075 0 0 0 13.163 2.618 12.08 12.08 0 0 0 7.456-11.159v-52.44h8.301c15.897 0 28.831-12.933 28.831-28.831v-140.57c.001-15.897-12.932-28.83-28.83-28.83zm4.675 169.401a4.68 4.68 0 0 1-4.674 4.674h-20.376c-6.356 0-11.554 4.912-12.031 11.147-.031.264-.051 36.29-.051 36.29l-43.854-43.855c-.046-.046-.094-.089-.14-.135a9.54 9.54 0 0 0-.489-.445 12.02 12.02 0 0 0-7.951-3.003H242.754a4.679 4.679 0 0 1-4.674-4.674v-140.57a4.679 4.679 0 0 1 4.674-4.674H483.17a4.68 4.68 0 0 1 4.674 4.674v140.571z" fill="rgba(255, 255, 255, 1)" stroke="none"/>
  <path d="M362.964 285.53c-6.667 0-12.078 5.411-12.078 12.078s5.411 12.078 12.078 12.078c6.668 0 12.078-5.411 12.078-12.078s-5.411-12.078-12.078-12.078z" fill="rgba(255, 255, 255, 1)" stroke="none"/>
  <path d="M310.472 130.611H90.65c-6.67 0-12.078 5.407-12.078 12.078s5.409 12.078 12.078 12.078h219.822c6.67 0 12.078-5.407 12.078-12.078s-5.408-12.078-12.078-12.078z" fill="rgba(255, 255, 255, 1)" stroke="none"/>
  <path d="M174.075 210.465H90.65c-6.67 0-12.078 5.407-12.078 12.078 0 6.671 5.409 12.078 12.078 12.078h83.425c6.671 0 12.078-5.407 12.078-12.078s-5.408-12.078-12.078-12.078z" fill="rgba(255, 255, 255, 1)" stroke="none"/>
  <path d="M306.837 285.53c-6.666 0-12.078 5.411-12.078 12.078s5.412 12.078 12.078 12.078c6.668 0 12.078-5.411 12.078-12.078s-5.41-12.078-12.078-12.078z" fill="rgba(255, 255, 255, 1)" stroke="none"/>
  <path d="M419.079 285.53c-6.667 0-12.078 5.411-12.078 12.078s5.411 12.078 12.078 12.078c6.668 0 12.078-5.411 12.078-12.078s-5.411-12.078-12.078-12.078z" fill="rgba(255, 255, 255, 1)" stroke="none"/>
</svg>
</g></svg></g></g>
<!-- /image 82810 -->

<!-- image 56794 -->
<g id="transformed-56794" data-image="56794" transform="translate(18, 29.000000000000004) rotate(0, 10, 9.999999999999996)"><g><svg version="1.1" width="20px" height="19.999999999999993px" viewBox="0 0 20 19.999999999999993"><g id="original-56794"><svg xmlns="http://www.w3.org/2000/svg" viewBox="0 0 512 512" xmlns:xlink="http://www.w3.org/1999/xlink" version="1.1" preserveAspectRatio="xMidYMid meet">
  <path d="M199.2 384.424a7.998 7.998 0 0 0-4-3.76l-53.12-22.984-4.276-13.253C151.643 333.241 160 314.685 160 292v-64a8 8 0 0 0-2.344-5.656A77.859 77.859 0 0 0 104 204a77.856 77.856 0 0 0-53.656 18.344A8 8 0 0 0 48 228v64c0 22.671 8.346 41.219 22.17 52.407l-4.282 13.273-53.048 22.984a7.998 7.998 0 0 0-4 3.76l-8 16A7.997 7.997 0 0 0 0 404v96h16v-94.112l5.848-11.704 48.163-20.861L96 399.312V428h16v-28.688l25.987-25.987 48.165 20.859L192 405.888V500h16v-96a7.99 7.99 0 0 0-.8-3.576l-8-16zM104 220a66.465 66.465 0 0 1 40 11.72v35.125c-4-1.052-8-3.053-8-6.845a8 8 0 0 0-8-8H80a8 8 0 0 0-8 8c0 3.792-4 5.792-8 6.845v-35.117A66.475 66.475 0 0 1 104 220zm-40 72v-8.744A28.424 28.424 0 0 0 86.544 268h34.912A28.424 28.424 0 0 0 144 283.256V292c0 22.144-10.48 48-40 48s-40-25.856-40-48zm40 64c7.043 0 13.627-1.21 19.635-3.467l3.054 9.466L104 384.688 81.302 361.99l3.043-9.464C90.359 354.788 96.95 356 104 356z" fill="rgba(255, 255, 255, 1)" stroke="none"/>
  <path d="M40 460h16v40H40z" fill="rgba(255, 255, 255, 1)" stroke="none"/>
  <path d="M152 460h16v40h-16z" fill="rgba(255, 255, 255, 1)" stroke="none"/>
  <path d="M503.2 384.424a7.998 7.998 0 0 0-4-3.76l-53.12-22.984-4.276-13.253C455.643 333.241 464 314.685 464 292v-64a8 8 0 0 0-2.344-5.656A77.859 77.859 0 0 0 408 204a77.856 77.856 0 0 0-53.656 18.344A8 8 0 0 0 352 228v64c0 22.661 8.339 41.202 22.151 52.391l-4.287 13.289-53.064 22.984a7.998 7.998 0 0 0-4 3.76l-8 16A7.99 7.99 0 0 0 304 404v96h16v-94.112l5.84-11.704 48.171-20.861L400 399.312V428h16v-28.688l25.987-25.987 48.165 20.859L496 405.888V500h16v-96a7.99 7.99 0 0 0-.8-3.576l-8-16zM408 220a66.465 66.465 0 0 1 40 11.72v35.125c-4-1.052-8-3.053-8-6.845a8 8 0 0 0-8-8h-48a8 8 0 0 0-8 8c0 3.792-4 5.792-8 6.845v-35.117A66.475 66.475 0 0 1 408 220zm-40 72v-8.744A28.424 28.424 0 0 0 390.544 268h34.912A28.424 28.424 0 0 0 448 283.256V292c0 22.144-10.48 48-40 48s-40-25.856-40-48zm40 64c7.043 0 13.627-1.21 19.635-3.467l3.054 9.466L408 384.688l-22.701-22.701 3.034-9.465C394.35 354.786 400.945 356 408 356z" fill="rgba(255, 255, 255, 1)" stroke="none"/>
  <path d="M344 460h16v40h-16z" fill="rgba(255, 255, 255, 1)" stroke="none"/>
  <path d="M456 460h16v40h-16z" fill="rgba(255, 255, 255, 1)" stroke="none"/>
  <path d="M289.995 373.318l16.077 6.979 6.368-14.68-18.32-7.936-4.284-13.278C303.656 333.214 312 314.668 312 292v-64a8 8 0 0 0-2.344-5.656A77.859 77.859 0 0 0 256 204a77.856 77.856 0 0 0-53.656 18.344A8 8 0 0 0 200 228v64c0 22.657 8.336 41.197 22.144 52.386l-4.296 13.318-20.376 8.8 6.4 14.68 18.14-7.86L248 399.312V428h16v-28.688l25.995-25.994zM256 220a66.465 66.465 0 0 1 40 11.72v35.125c-4-1.052-8-3.053-8-6.845a8 8 0 0 0-8-8h-48a8 8 0 0 0-8 8c0 3.792-4 5.792-8 6.845v-35.117A66.475 66.475 0 0 1 256 220zm-40 72v-8.744A28.424 28.424 0 0 0 238.544 268h34.912A28.424 28.424 0 0 0 296 283.256V292c0 22.144-10.48 48-40 48s-40-25.856-40-48zm40 64c7.057 0 13.653-1.215 19.671-3.479l3.048 9.449L256 384.688l-22.702-22.702 3.031-9.466c6.018 2.266 12.614 3.48 19.671 3.48z" fill="rgba(255, 255, 255, 1)" stroke="none"/>
  <path d="M16 108h21.6l29.216 29.192a8 8 0 0 0 11.312 0L107.312 108H128V92h-24a8 8 0 0 0-5.656 2.344l-25.872 25.88-25.888-25.88A8 8 0 0 0 40.928 92H16V28h208v16h16V28c0-8.837-7.163-16-16-16H16C7.163 12 0 19.164 0 28v64c0 8.837 7.163 16 16 16z" fill="rgba(255, 255, 255, 1)" stroke="none"/>
  <path d="M256 60h-96c-8.837 0-16 7.163-16 16v64c0 8.837 7.163 16 16 16h60.688l29.656 29.656a8 8 0 0 0 11.312 0l29.328-29.328L368 156c8.837 0 16-7.163 16-16l-96.4.344a7.998 7.998 0 0 0-5.6 2.344l-26 26-26.344-26.344A8 8 0 0 0 224 140h-64V76h96V60z" fill="rgba(255, 255, 255, 1)" stroke="none"/>
  <path d="M496 28H288c-8.837 0-16 7.163-16 16v64c0 8.837 7.163 16 16 16h116.688l29.656 29.656a8 8 0 0 0 11.312 0L475.312 124H496c8.837 0 16-7.163 16-16V44c0-8.836-7.163-16-16-16zm0 80h-24a8 8 0 0 0-5.656 2.344L440 136.688l-26.344-26.344A8 8 0 0 0 408 108H288V44h208v64z" fill="rgba(255, 255, 255, 1)" stroke="none"/>
  <path d="M312 68h128v16H312z" fill="rgba(255, 255, 255, 1)" stroke="none"/>
  <path d="M216 100h32v16h-32z" fill="rgba(255, 255, 255, 1)" stroke="none"/>
  <path d="M456 68h16v16h-16z" fill="rgba(255, 255, 255, 1)" stroke="none"/>
  <path d="M184 100h16v16h-16z" fill="rgba(255, 255, 255, 1)" stroke="none"/>
  <path d="M104 52h16v16h-16z" fill="rgba(255, 255, 255, 1)" stroke="none"/>
  <path d="M40 52h48v16H40z" fill="rgba(255, 255, 255, 1)" stroke="none"/>
</svg>
</g></svg></g></g>
<!-- /image 56794 -->

<!-- image 23820 -->
<g id="transformed-23820" data-image="23820" transform="translate(36, 71.66) rotate(344, 10, 10)"><g><svg version="1.1" width="20px" height="20px" viewBox="0 0 20 20"><g id="original-23820"><svg xmlns="http://www.w3.org/2000/svg" viewBox="0 0 475.851 475.851" xmlns:xlink="http://www.w3.org/1999/xlink" version="1.1" preserveAspectRatio="xMidYMid meet">
  <path d="M151.549 145.274c0 23.39 9.145 50.385 24.462 72.214 17.389 24.78 39.376 38.427 61.911 38.427 22.534 0 44.521-13.647 61.91-38.428 15.317-21.828 24.462-48.824 24.462-72.213 0-47.626-38.746-86.372-86.372-86.372s-86.373 38.746-86.373 86.372zm86.373-71.372c39.354 0 71.372 32.018 71.372 71.372 0 20.118-8.33 44.487-21.74 63.598-14.29 20.364-32.38 32.043-49.632 32.043-17.252 0-35.342-11.679-49.632-32.043-13.41-19.11-21.741-43.479-21.741-63.598 0-39.355 32.018-71.372 71.373-71.372z" fill="rgba(255, 255, 255, 1)" stroke="none"/>
  <path d="M302.372 239.167a7.502 7.502 0 0 0-8.52 1.461c-16.775 16.728-36.117 25.569-55.935 25.569-19.821 0-39.158-8.841-55.923-25.567a7.5 7.5 0 0 0-8.521-1.463c-25.254 12.022-46.628 30.829-61.811 54.388-15.596 24.2-23.84 52.277-23.84 81.195v.121c0 2.116.894 4.134 2.461 5.556 40.492 36.722 92.922 56.945 147.633 56.945s107.141-20.224 147.632-56.945a7.499 7.499 0 0 0 2.462-5.556v-.121c0-28.918-8.242-56.995-23.834-81.194-15.179-23.561-36.551-42.368-61.804-54.389zm-64.454 183.205c-49.861 0-97.685-18.023-135.057-50.827.583-24.896 7.956-48.986 21.411-69.865 12.741-19.77 30.322-35.823 51.058-46.676 18.746 17.157 40.285 26.193 62.588 26.193 22.3 0 43.842-9.035 62.598-26.193 20.734 10.853 38.313 26.906 51.053 46.676 13.452 20.877 20.823 44.968 21.406 69.865-37.373 32.804-85.197 50.827-135.057 50.827z" fill="rgba(255, 255, 255, 1)" stroke="none"/>
  <path d="M455.077 243.89c-13.23-20.532-31.856-36.923-53.864-47.399a7.501 7.501 0 0 0-8.52 1.461c-14.312 14.271-30.79 21.815-47.654 21.815-9.142 0-18.184-2.205-26.873-6.553a7.5 7.5 0 0 0-6.712 13.414c10.793 5.401 22.093 8.139 33.586 8.139 19.335 0 38.004-7.737 54.288-22.437a116.088 116.088 0 0 1 43.141 39.685c11.445 17.763 17.756 38.243 18.338 59.416-18.524 16.158-40.553 28.449-63.91 35.634a7.5 7.5 0 0 0 4.41 14.338c26.509-8.154 51.435-22.362 72.082-41.088a7.499 7.499 0 0 0 2.462-5.556v-.105c-.001-25.204-7.185-49.674-20.774-70.764z" fill="rgba(255, 255, 255, 1)" stroke="none"/>
  <path d="M130.493 210.473c7.93 0 15.841-1.934 23.516-5.748a7.5 7.5 0 0 0-6.675-13.433c-5.582 2.774-11.248 4.18-16.841 4.18-14.541 0-29.836-9.914-41.964-27.2-11.449-16.318-18.562-37.112-18.562-54.266 0-33.375 27.152-60.527 60.526-60.527 15.752 0 30.67 6.022 42.006 16.958a7.499 7.499 0 0 0 10.604-.19 7.499 7.499 0 0 0-.19-10.604c-14.146-13.647-32.763-21.163-52.42-21.163-41.646 0-75.526 33.881-75.526 75.527 0 20.38 7.957 43.887 21.283 62.881 15.195 21.657 34.459 33.585 54.243 33.585z" fill="rgba(255, 255, 255, 1)" stroke="none"/>
  <path d="M61.034 340.143a175.333 175.333 0 0 1-45.989-29.004c.582-21.112 6.875-41.53 18.291-59.243a115.795 115.795 0 0 1 43.01-39.566c16.239 14.662 34.856 22.376 54.139 22.376 11.587 0 22.969-2.785 33.829-8.277a7.501 7.501 0 0 0-6.77-13.386c-8.742 4.421-17.846 6.663-27.059 6.663-16.811 0-33.238-7.522-47.504-21.754a7.501 7.501 0 0 0-8.521-1.462c-21.954 10.451-40.534 26.8-53.733 47.28C7.167 264.811 0 289.221 0 314.362v.103c0 2.116.894 4.134 2.461 5.556 15.629 14.174 33.338 25.579 52.634 33.897a7.481 7.481 0 0 0 2.966.615 7.503 7.503 0 0 0 2.973-14.39z" fill="rgba(255, 255, 255, 1)" stroke="none"/>
  <path d="M69.854 351.003c-2.671 6.443 4.532 12.832 10.617 9.387 3.238-1.834 4.683-5.937 3.227-9.385-2.407-6.145-11.378-5.952-13.844-.002z" fill="rgba(255, 255, 255, 1)" stroke="none"/>
  <path d="M83.698 351.005c.19.45-.18-.46 0 0z" fill="rgba(255, 255, 255, 1)" stroke="none"/>
  <path d="M303.345 70.438c11.336-10.936 26.254-16.958 42.006-16.958 33.374 0 60.526 27.152 60.526 60.527 0 17.154-7.112 37.947-18.563 54.266-12.128 17.286-27.424 27.2-41.964 27.2-5.593 0-11.259-1.406-16.841-4.18a7.5 7.5 0 0 0-6.676 13.433c7.675 3.814 15.587 5.748 23.517 5.748 19.783 0 39.048-11.927 54.243-33.585 13.327-18.994 21.283-42.501 21.283-62.881 0-41.646-33.881-75.527-75.526-75.527-19.657 0-38.273 7.516-52.42 21.163a7.5 7.5 0 0 0 10.415 10.794z" fill="rgba(255, 255, 255, 1)" stroke="none"/>
</svg>
</g></svg></g></g>
<!-- /image 23820 -->
</defs><rect x="0" y="0" width="100" height="100" fill="rgba(249, 238, 230, 1)"></rect><use xlink:href="#transformed-82810" transform="translate(-100, -100)"></use><use xlink:href="#transformed-82810" transform="translate(0, -100)"></use><use xlink:href="#transformed-82810" transform="translate(100, -100)"></use><use xlink:href="#transformed-82810" transform="translate(-100, 0)"></use><use xlink:href="#transformed-82810" transform="translate(0, 0)"></use><use xlink:href="#transformed-82810" transform="translate(100, 0)"></use><use xlink:href="#transformed-82810" transform="translate(-100, 100)"></use><use xlink:href="#transformed-82810" transform="translate(0, 100)"></use><use xlink:href="#transformed-82810" transform="translate(100, 100)"></use><use xlink:href="#transformed-56794" transform="translate(-100, -100)"></use><use xlink:href="#transformed-56794" transform="translate(0, -100)"></use><use xlink:href="#transformed-56794" transform="translate(100, -100)"></use><use xlink:href="#transformed-56794" transform="translate(-100, 0)"></use><use xlink:href="#transformed-56794" transform="translate(0, 0)"></use><use xlink:href="#transformed-56794" transform="translate(100, 0)"></use><use xlink:href="#transformed-56794" transform="translate(-100, 100)"></use><use xlink:href="#transformed-56794" transform="translate(0, 100)"></use><use xlink:href="#transformed-56794" transform="translate(100, 100)"></use><use xlink:href="#transformed-23820" transform="translate(-100, -100)"></use><use xlink:href="#transformed-23820" transform="translate(0, -100)"></use><use xlink:href="#transformed-23820" transform="translate(100, -100)"></use><use xlink:href="#transformed-23820" transform="translate(-100, 0)"></use><use xlink:href="#transformed-23820" transform="translate(0, 0)"></use><use xlink:href="#transformed-23820" transform="translate(100, 0)"></use><use xlink:href="#transformed-23820" transform="translate(-100, 100)"></use><use xlink:href="#transformed-23820" transform="translate(0, 100)"></use><use xlink:href="#transformed-23820" transform="translate(100, 100)"></use></svg>