<svg version="1.1"
      xmlns="http://www.w3.org/2000/svg"
      xmlns:xlink="http://www.w3.org/1999/xlink"  id="snapshot-28029" width="100" height="100" viewBox="0 0 100 100"><desc>This image was made on Patterninja.com</desc><defs>
<!-- image 93167 -->
<g id="transformed-93167" data-image="93167" transform="translate(1, -7) rotate(334, 10, 10)"><g><svg version="1.1" width="20px" height="20px" viewBox="0 0 20 20"><g id="original-93167"><svg xmlns="http://www.w3.org/2000/svg" viewBox="0 0 60 60" xmlns:xlink="http://www.w3.org/1999/xlink" version="1.1" preserveAspectRatio="xMidYMid meet">
  <path d="M45 25H20a1 1 0 1 0 0 2h25a1 1 0 1 0 0-2z" fill="rgba(255, 255, 255, 1)" stroke="none"/>
  <path d="M20 19h10a1 1 0 1 0 0-2H20a1 1 0 1 0 0 2z" fill="rgba(255, 255, 255, 1)" stroke="none"/>
  <path d="M45 33H20a1 1 0 1 0 0 2h25a1 1 0 1 0 0-2z" fill="rgba(255, 255, 255, 1)" stroke="none"/>
  <path d="M45 41H20a1 1 0 1 0 0 2h25a1 1 0 1 0 0-2z" fill="rgba(255, 255, 255, 1)" stroke="none"/>
  <path d="M45 49H20a1 1 0 1 0 0 2h25a1 1 0 1 0 0-2z" fill="rgba(255, 255, 255, 1)" stroke="none"/>
  <path d="M49 14.586V0H6v55h5v5h43V19.586l-5-5zm-9-6.172l9 9L50.586 19H40V8.414zM8 53V2h39v10.586L39.414 5H11v48H8zm5 5V7h25v14h14v37H13z" fill="rgba(255, 255, 255, 1)" stroke="none"/>
</svg>
</g></svg></g></g>
<!-- /image 93167 -->

<!-- image 60263 -->
<g id="transformed-60263" data-image="60263" transform="translate(73, 33.5) rotate(0, 10, 9.5)"><g><svg version="1.1" width="20px" height="19px" viewBox="0 0 20 19"><g id="original-60263"><svg xmlns="http://www.w3.org/2000/svg" viewBox="0 0 33 33" xmlns:xlink="http://www.w3.org/1999/xlink" version="1.1" preserveAspectRatio="xMidYMid meet">
  <path d="M22.467 33a.501.501 0 0 1-.471-.331c-.023-.065-2.173-6.351 5.234-10.075C24.925 20.291 16 10.711 16 .5a.5.5 0 0 1 1 0c0 11.037 11.321 21.766 11.436 21.872a.498.498 0 0 1-.138.821c-7.357 3.298-5.446 8.901-5.361 9.138a.501.501 0 0 1-.47.669z" fill="rgba(255, 255, 255, 1)" stroke="none"/>
  <path d="M10.534 33a.503.503 0 0 1-.472-.668c.084-.237 1.966-5.854-5.36-9.139a.5.5 0 0 1-.138-.821C4.679 22.266 16 11.537 16 .5a.5.5 0 0 1 1 0c0 10.211-8.925 19.791-11.23 22.094 7.407 3.725 5.257 10.01 5.234 10.075a.5.5 0 0 1-.47.331z" fill="rgba(255, 255, 255, 1)" stroke="none"/>
  <path d="M16.5 19.44a.5.5 0 0 1-.5-.5V.5a.5.5 0 0 1 1 0v18.44a.5.5 0 0 1-.5.5z" fill="rgba(255, 255, 255, 1)" stroke="none"/>
  <path d="M16.5 22.966c-1.248 0-2.263-1.015-2.263-2.263s1.015-2.263 2.263-2.263 2.263 1.015 2.263 2.263-1.015 2.263-2.263 2.263zm0-3.526a1.264 1.264 0 1 0 .001 2.525 1.264 1.264 0 0 0-.001-2.525z" fill="rgba(255, 255, 255, 1)" stroke="none"/>
  <path d="M26.975 33H6.025a.5.5 0 0 1 0-1h20.949a.5.5 0 0 1 .001 1z" fill="rgba(255, 255, 255, 1)" stroke="none"/>
</svg>
</g></svg></g></g>
<!-- /image 60263 -->

<!-- image 65868 -->
<g id="transformed-65868" data-image="65868" transform="translate(53.5, 75) rotate(0, 9.5, 10)"><g><svg version="1.1" width="19px" height="20px" viewBox="0 0 19 20"><g id="original-65868"><svg xmlns="http://www.w3.org/2000/svg" viewBox="0 0 334.643 334.644" xmlns:xlink="http://www.w3.org/1999/xlink" version="1.1" preserveAspectRatio="xMidYMid meet">
  <path d="M330.596 218.062l-25.038-6.434 6.159-3.617a5.389 5.389 0 0 0 2.61-5.41c-.095-.707-.375-1.351-.723-1.941.602-1.022.896-2.225.723-3.459a5.383 5.383 0 0 0-3.997-4.472l-1.45-.375 7.852-4.604a5.405 5.405 0 0 0 2.616-5.41c-.101-.718-.38-1.351-.729-1.946.602-1.028.896-2.226.729-3.454a5.41 5.41 0 0 0-4.003-4.482l-3.766-.96 10.426-6.122a5.395 5.395 0 0 0 2.616-5.411c-.096-.712-.38-1.35-.723-1.943.601-1.026.896-2.226.723-3.457a5.389 5.389 0 0 0-4.003-4.478l-5.047-1.3 6.275-3.684a5.389 5.389 0 0 0 2.61-5.41c-.095-.712-.374-1.35-.723-1.943.602-1.028.896-2.226.723-3.457a5.39 5.39 0 0 0-3.997-4.477l-11.201-2.877 11.924-6.995a5.387 5.387 0 0 0 2.61-5.411c-.095-.712-.375-1.35-.723-1.943.602-1.026.896-2.226.723-3.457a5.383 5.383 0 0 0-3.997-4.475l-7.373-1.896 4.693-2.756a5.389 5.389 0 0 0 2.61-5.41c-.095-.712-.374-1.35-.722-1.943.601-1.025.896-2.226.722-3.457a5.385 5.385 0 0 0-3.997-4.477l-18.003-4.628 19.005-11.15a5.404 5.404 0 0 0 2.616-5.411c-.101-.712-.38-1.35-.729-1.943.602-1.026.896-2.225.729-3.457a5.405 5.405 0 0 0-4.003-4.478L114.082 1.934a5.438 5.438 0 0 0-3.683.369L28.666 41.598a5.405 5.405 0 0 0-3.046 5.292c.063.81.361 1.551.752 2.226a5.34 5.34 0 0 0-.746 3.169 5.4 5.4 0 0 0 3.833 4.752l19.765 5.93-20.177 9.698a5.406 5.406 0 0 0-3.045 5.287c.065.814.355 1.551.746 2.23a5.345 5.345 0 0 0-.746 3.17c.153 1.938 1.366 3.57 3.085 4.395L8.463 97.665a5.41 5.41 0 0 0-3.045 5.292c.066.817.356 1.55.746 2.23a5.35 5.35 0 0 0-.746 3.169 5.407 5.407 0 0 0 3.834 4.754l22.304 6.689a5.37 5.37 0 0 0-.817 3.256c.066.814.358 1.55.746 2.23a5.372 5.372 0 0 0-.746 3.169 5.395 5.395 0 0 0 3.834 4.751l5.795 1.74-6.426 3.088a5.406 5.406 0 0 0-3.045 5.292c.063.815.356 1.55.744 2.231a5.354 5.354 0 0 0-.744 3.169 5.396 5.396 0 0 0 3.834 4.754l5.146 1.543-11.211 5.373a5.405 5.405 0 0 0-3.046 5.29c.063.816.356 1.55.744 2.235a5.363 5.363 0 0 0-.744 3.164 5.404 5.404 0 0 0 3.834 4.757l2.608.78-8.414 4.04a5.407 5.407 0 0 0-3.046 5.283c.066.817.356 1.551.746 2.236a5.348 5.348 0 0 0-.746 3.164 5.405 5.405 0 0 0 3.834 4.757l6.001 1.793-27.374 13.17a5.41 5.41 0 0 0-3.046 5.29c.066.822.356 1.55.747 2.235a5.36 5.36 0 0 0-.747 3.164 5.407 5.407 0 0 0 3.834 4.757l31.311 9.387-1.379.665a5.414 5.414 0 0 0-3.045 5.289c.066.817.358 1.55.746 2.23a5.37 5.37 0 0 0-.746 3.169 5.4 5.4 0 0 0 3.834 4.752l5.795 1.74-6.426 3.09a5.398 5.398 0 0 0-3.045 5.289c.063.817.356 1.551.744 2.231a5.354 5.354 0 0 0-.744 3.169 5.4 5.4 0 0 0 3.834 4.751l201.261 60.371a5.415 5.415 0 0 0 1.55.231c.949 0 1.894-.253 2.732-.749l81.732-47.945a5.394 5.394 0 0 0 2.616-5.411c-.096-.712-.38-1.35-.723-1.94.601-1.028.896-2.226.723-3.459a5.395 5.395 0 0 0-4.003-4.478l-5.047-1.303 6.275-3.686a5.392 5.392 0 0 0 2.61-5.411c-.095-.712-.374-1.35-.723-1.945.602-1.023.896-2.226.723-3.454a5.384 5.384 0 0 0-3.997-4.478l-10.094-2.595 21.611-12.677a5.391 5.391 0 0 0 2.61-5.411c-.096-.712-.375-1.35-.723-1.94.601-1.028.896-2.226.723-3.459a5.36 5.36 0 0 0-3.99-4.471zm-14.412 57.872l-3.307 1.936-75.331 44.196-194.35-58.292-3.839-1.15-3.077-.928 11.76-5.653 3.607-1.729 3.312-1.593 3.077.929 3.834 1.139 173.957 52.186a5.586 5.586 0 0 0 1.551.222c.954 0 1.898-.253 2.731-.738l56.052-32.88 3.301-1.936 3.101-1.813 2.689.686 3.713.96 10.314 2.646-3.095 1.812zm-.158-20.272l-3.307 1.941-10.969 6.434-3.302 1.935-3.095 1.819-.211.122-3.102 1.813-3.301 1.936-51.358 30.133-168.292-50.483-3.839-1.149-3.077-.923-.757-.227-3.077-.923-3.833-1.149-11.47-3.438-3.834-1.155-3.08-.923 6.713-3.227 3.612-1.74 3.304-1.588 3.079.923 3.839 1.149 11.464 3.438 3.834 1.149 3.077.929.757.222 3.077.928 3.839 1.149 122.396 36.714a5.59 5.59 0 0 0 1.55.227c.949 0 1.894-.253 2.732-.743l11.417-6.697 3.18-1.867 2.911-1.703 2.558.765 3.533 1.065 12.967 3.892a5.463 5.463 0 0 0 4.287-.516l16.733-9.819 3.306-1.94 3.096-1.814.206-.126 3.096-1.814 3.306-1.94 10.964-6.429 3.307-1.936 3.096-1.813 2.689.686 3.707.96 15.361 3.944-3.089 1.809zM5.402 215.933l32.708-15.726 3.607-1.735 3.304-1.587 3.08.928 3.839 1.15 4.076 1.223-3.304 1.588-3.607 1.734-5.191 2.489a5.417 5.417 0 0 0-3.045 5.295c.066.817.358 1.55.746 2.23a5.258 5.258 0 0 0 2.144 2.072c.309.163.599.349.939.443l19.554 5.864 3.834 1.149 3.08.928.754.222 3.08.928 3.839 1.15 11.464 3.438 3.834 1.15 3.077.928.756.222 3.077.928 3.839 1.149 114.937 34.468-2.91 1.708-3.181 1.867-7.082 4.155-116.71-35.004-3.842-1.149-3.077-.918-.756-.231-3.077-.924-3.833-1.149-11.465-3.443-3.839-1.149-3.077-.918-.757-.231-3.08-.918-3.833-1.149-36.978-11.098-3.839-1.149-3.085-.928zm20.584-30.397l13.748-6.612 3.607-1.73 3.307-1.592 3.077.928 3.833 1.149 11.67 3.502 3.833 1.149 3.077.918.756.231 3.077.918 3.842 1.149 4.076 1.234 3.834 1.149 3.077.917.757.232 3.077.918 3.839 1.149 18.929 5.679 55.943 16.775 57.354 17.207a5.366 5.366 0 0 0 4.281-.521l1.002-.586 3.307-1.936 7.853-4.608 3.301-1.94 3.096-1.814.211-.127 3.096-1.813 3.307-1.936 5.441-3.19 3.302-1.94 3.096-1.814.211-.126 3.101-1.814 3.307-1.94 10.842-6.36 3.301-1.94 3.096-1.813 2.689.69 3.713.954 6.708 1.725-3.091 1.814-3.307 1.936-10.842 6.364-3.307 1.936-3.101 1.825-.206.121-3.09 1.813-3.307 1.94-5.442 3.191-3.306 1.94-3.096 1.813-.211.121-3.091 1.82-3.306 1.935-7.853 4.604-3.307 1.94-3.09 1.813-.211.127-3.096 1.814-3.307 1.94-10.963 6.428-1.203.702-23.546-7.066-92.973-27.887-3.839-1.149-3.077-.917-.756-.232-3.077-.918-3.839-1.154-18.312-5.49-3.839-1.149-3.08-.928-.754-.222-3.08-.928-3.839-1.15-4.076-1.223-3.839-1.15-3.08-.928-.754-.222-3.08-.928-3.833-1.149-11.67-3.497-3.833-1.149-3.065-.922zm5.018-20.27l16.545-7.955 3.612-1.74 3.304-1.588 3.08.923 3.839 1.15 8.277 2.484 3.839 1.152 3.08.923.757.227 3.077.923 3.839 1.149 30.338 9.103 3.833 1.149 3.077.923.757.227 3.077.923 24.231 7.272 86.424 25.924a5.584 5.584 0 0 0 1.55.222c.949 0 1.894-.253 2.732-.744l2.488-1.46 3.307-1.936 3.096-1.814.206-.121 3.095-1.824 3.307-1.941 10.848-6.359 3.307-1.936 3.096-1.819.211-.116 3.095-1.824 3.307-1.94 12.546-7.356 3.307-1.941 3.095-1.813 2.689.69 3.713.96 9.028 2.32-3.101 1.814-3.307 1.94-12.54 7.356-3.307 1.936-3.101 1.824-.211.127-3.091 1.813-3.307 1.936-10.847 6.365-3.307 1.936-3.101 1.819-.206.126-3.09 1.814-3.307 1.94-5.442 3.186-3.307 1.94-3.096 1.814-.211.126-3.085 1.819-3.306 1.936-7.473 4.388-126.555-37.964-3.839-1.149-3.08-.923-.754-.227-3.08-.923-3.833-1.149-4.077-1.224-3.839-1.155-3.08-.923-.754-.227-3.079-.923-3.834-1.149-11.667-3.502-3.836-1.149-3.077-.923-.757-.227-3.077-.923-3.839-1.15-8.279-2.483-3.839-1.149-3.091-.93zm5.276-22.376l11.76-5.653 3.607-1.732 3.312-1.588 3.077.923 3.834 1.15 10.815 3.246 3.834 1.149 3.08.923.754.227 3.08.925 3.839 1.15 8.276 2.484 3.836 1.149 3.077.923.756.227 3.077.923 45.441 13.632 84.085 25.226a5.618 5.618 0 0 0 1.551.222c.954 0 1.898-.253 2.731-.738l2.367-1.387 3.307-1.936 3.091-1.814.211-.126 3.101-1.825 3.307-1.936 12.545-7.355 3.302-1.941 3.095-1.813.211-.127 3.096-1.813 3.302-1.938 15.118-8.867 3.302-1.938 3.101-1.814 2.689.69 3.713.955 10.314 2.652-3.096 1.814-3.307 1.938-15.113 8.87-3.307 1.935-3.096 1.814-.211.121-3.09 1.819-3.307 1.936-12.545 7.362-3.307 1.94-3.096 1.819-.211.121-3.096 1.814-3.307 1.94-10.847 6.359-3.307 1.94-3.096 1.819-.206.122-3.095 1.813-1.103.654-21.669-6.508-60.771-18.225-4.084-1.229-25.378-7.609-3.834-1.154-30.338-9.1-3.839-1.149-3.077-.923-.757-.227-3.077-.923-3.842-1.15-8.276-2.484-3.839-1.152-3.08-.923-.754-.227-3.08-.923-3.833-1.149-10.811-3.251-3.839-1.15-3.073-.929zm-.158-20.266l1.87-.901 3.612-1.732 3.304-1.587 3.08.923 3.839 1.15 11.464 3.44 3.834 1.149 3.077.923.757.227 3.077.923 3.839 1.152 10.815 3.243 3.837 1.152 3.077.923.756.227 3.077.923 3.839 1.15 83.913 25.17 23.319 6.992a5.528 5.528 0 0 0 1.551.227c.627 0 1.233-.142 1.824-.363.306-.111.622-.211.907-.375l5.933-3.485 3.18-1.861 2.7-1.582.211-.124 2.562.768 1.582.475 1.946.583 2.252.675a5.436 5.436 0 0 0 1.55.227c.011 0 .016-.005.026-.005a5.371 5.371 0 0 0 2.705-.738l1.608-.941 3.091-1.814.211-.124 3.096-1.814 3.306-1.938 15.114-8.867 3.307-1.94 3.095-1.814.206-.124 3.096-1.814 3.307-1.938 10.963-6.431 3.307-1.938 3.096-1.816 2.689.693 3.707.955 16.469 4.235-3.096 1.813-3.306 1.938-10.969 6.431-3.302 1.94-3.096 1.814-.211.124-3.101 1.819-3.301 1.938-15.119 8.867-3.301 1.938-3.096 1.816-.211.121-3.096 1.819-3.301 1.936-12.546 7.356-3.307 1.936-3.101 1.819-.211.127-3.09 1.813-.986.58-19.338-5.801-60.769-18.228-4.082-1.226-46.559-13.964-3.868-1.16-8.276-2.483-3.839-1.149-3.08-.926-.754-.227-3.08-.923-3.834-1.149-10.815-3.246-3.839-1.149-3.077-.923-.757-.227-3.08-.925-3.833-1.149-11.446-3.449-3.834-1.152-3.076-.928zm-25.321-20.092l25.79-12.405 3.607-1.732 3.307-1.588 1.02.309-3.304 1.593-3.609 1.732-4.498 2.165c-1.237.596-2.115 1.643-2.608 2.863-.306.762-.501 1.571-.433 2.423.024.245.114.467.164.704a5.4 5.4 0 0 0 .583 1.526 5.296 5.296 0 0 0 2.144 2.075c.309.161.599.346.938.443l19.29 5.787 3.834 1.15 3.077.925.757.227 3.077.923 3.841 1.15 11.462 3.438 3.836 1.152 3.077.923.757.227 3.077.923 3.839 1.15 10.815 3.246 3.839 1.15 3.641 1.091.192.061 53.769 16.129 53.67 16.097-.574.335-2.337 1.371-3.18 1.864-1.603.938-101.564-30.462-3.839-1.149-3.077-.923-.757-.227-3.077-.923-3.839-1.15-10.818-3.246-3.839-1.152-3.077-.923-.757-.227-3.077-.923-3.833-1.15-11.464-3.44-3.839-1.15-3.08-.923-.754-.227-3.08-.923-3.833-1.152-26.734-8.017-3.842-1.15-3.077-.928zm20.585-24.998l25.505-12.263 3.607-1.732 3.304-1.587 3.08.923 3.834 1.15 4.751 1.426 3.833 1.15 3.077.923.757.227 1.02.309 2.057.617 1.777.533 2.064.617 1.021.308.754.227 3.08.923 3.839 1.149 18.663 5.601 55.943 16.777 57.354 17.204a5.387 5.387 0 0 0 4.282-.519l1.002-.588 3.307-1.938 3.095-1.814 3.302-1.94 3.096-1.814.211-.124 3.095-1.814 3.302-1.938.512-.298 3.301-1.938 3.096-1.814.211-.124 3.101-1.819 3.307-1.94 9.387-5.508 3.307-1.938 3.095-1.813 2.689.69 3.708.957 23.271 5.978-3.096 1.814-3.307 1.938-9.381 5.503-3.302 1.938-3.101 1.819-.211.126-3.096 1.814-3.301 1.938-.512.298-3.301 1.938-3.096 1.814-.211.124-3.096 1.814-3.307 1.938-3.09 1.817-3.307 1.938-3.096 1.814-.205.124-3.091 1.814-3.307 1.938L245 130.652l-3.301 1.941-3.096 1.814-.205.124-3.102 1.814-2.652 1.556-52.038-15.612-60.808-18.241-1.345-.406-4.184-1.252-3.834-1.149L98.97 97.8l-3.839-1.149-3.08-.923-.751-.233-3.079-.923-3.834-1.149-18.041-5.411-3.839-1.152-3.079-.923-.754-.227-1.021-.309-2.059-.614-1.777-.535-2.057-.614-1.021-.309-.757-.227-3.077-.923-3.834-1.149-4.751-1.427-3.833-1.149-3.101-.92zm283.97 34.166l-3.307 1.938-12.925 7.583-3.687 2.159-3.301 1.938-3.102 1.814-.211.124-3.095 1.814-3.302 1.94-10.969 6.431-3.301 1.949-3.096 1.814-.206.127-3.095 1.813-3.307 1.938-15.114 8.867-3.306 1.938-3.096 1.814-.211.124-.011.005-.222-.063-.754-.227-2.558-.767-.775-.232-.2-.061-2.558-.768-3.533-1.057-54.493-16.345-59.044-17.713-11.525-3.457-3.839-1.149-3.077-.923-.757-.227-3.077-.923-3.834-1.15-11.464-3.44-3.839-1.15-3.08-.923-.754-.227-3.08-.925-3.834-1.15-18.046-5.413-3.839-1.15-3.08-.923 9.835-4.725 3.607-1.735 3.304-1.587 3.077.923 3.842 1.149 18.041 5.413 3.833 1.15 3.077.923.757.227 3.077.923 3.842 1.152 11.464 3.438 3.833 1.15 3.083.923.757.227 3.077.925 3.839 1.15 113.29 33.981c.512.15 1.033.227 1.55.227.949 0 1.898-.253 2.732-.741l4.034-2.365 3.306-1.938 3.102-1.814.205-.124 3.091-1.814 3.306-1.938 10.969-6.434 3.307-1.938 3.091-1.813.211-.124 3.095-1.814 3.307-1.938 3.091-1.817 3.306-1.938 3.096-1.814.211-.124 3.096-1.814 3.301-1.938.512-.298 3.302-1.938 3.095-1.814 2.689.691 3.708.955 12.64 3.246-3.084 1.797zm10.8 113.398l-3.307 1.94-26.304 15.431-3.301 1.94-3.102 1.813-.211.121-3.095 1.814-3.307 1.936-10.964 6.434-3.307 1.94-3.095 1.814-.211.126-3.096 1.814-3.307 1.936-12.05 7.071-8.163-2.457-3.533-1.055-2.558-.771-.971-.284-2.562-.771-3.528-1.06-114.08-34.22-3.842-1.149-3.077-.923-.757-.227-3.077-.928-3.834-1.15-11.464-3.438-3.839-1.15-3.077-.923-.757-.227-3.08-.923-3.834-1.149-18.309-5.489-3.839-1.15-3.08-.928 10.526-5.062 3.607-1.729 3.304-1.588 3.08.923 3.839 1.15 18.31 5.494 3.841 1.15 3.077.922.757.228 3.077.923 3.839 1.149 11.464 3.443 22.415 6.719 60.781 18.235 4.082 1.224 23.445 7.029a5.413 5.413 0 0 0 1.551.227c.627 0 1.244-.147 1.835-.369.09-.031.174-.068.264-.105.211-.095.438-.152.633-.274l2.584-1.513 3.307-1.936 10.963-6.434 3.307-1.94 3.096-1.814.211-.127 3.09-1.813 3.307-1.936 7.853-4.604 3.307-1.94 3.09-1.814.206-.127 3.095-1.813 3.307-1.94 5.442-3.186 3.307-1.94 3.09-1.814 2.689.686 3.713.96 30.301 7.783-3.074 1.815zM314 58.89l-3.101 1.813-3.307 1.938-23.699 13.906-3.306 1.938-3.096 1.819-.211.124-3.096 1.814-3.307 1.94-9.376 5.5-3.307 1.94-3.101 1.819-.206.124-3.095 1.814-3.302 1.938-.512.298-3.301 1.938-3.096 1.814-.211.124-3.096 1.817-3.301 1.938-2.716 1.593-53.367-16.003-64.877-19.462-8.037-2.41-3.839-1.15-3.077-.923-.757-.227-3.077-.923-3.836-1.151-1.021-.306-.754-.227-3.08-.926-3.834-1.149-4.751-1.424-3.833-1.152-3.077-.923-.757-.227-3.08-.923-3.839-1.15-25.434-7.63-3.85-1.168-3.077-.923 81.732-39.301L314 58.89z" fill="rgba(255, 255, 255, 1)" stroke="none"/>
</svg>
</g></svg></g></g>
<!-- /image 65868 -->
</defs><rect x="0" y="0" width="100" height="100" fill="rgba(249, 238, 230, 0)"></rect><use xlink:href="#transformed-93167" transform="translate(-100, -100)"></use><use xlink:href="#transformed-93167" transform="translate(0, -100)"></use><use xlink:href="#transformed-93167" transform="translate(100, -100)"></use><use xlink:href="#transformed-93167" transform="translate(-100, 0)"></use><use xlink:href="#transformed-93167" transform="translate(0, 0)"></use><use xlink:href="#transformed-93167" transform="translate(100, 0)"></use><use xlink:href="#transformed-93167" transform="translate(-100, 100)"></use><use xlink:href="#transformed-93167" transform="translate(0, 100)"></use><use xlink:href="#transformed-93167" transform="translate(100, 100)"></use><use xlink:href="#transformed-60263" transform="translate(-100, -100)"></use><use xlink:href="#transformed-60263" transform="translate(0, -100)"></use><use xlink:href="#transformed-60263" transform="translate(100, -100)"></use><use xlink:href="#transformed-60263" transform="translate(-100, 0)"></use><use xlink:href="#transformed-60263" transform="translate(0, 0)"></use><use xlink:href="#transformed-60263" transform="translate(100, 0)"></use><use xlink:href="#transformed-60263" transform="translate(-100, 100)"></use><use xlink:href="#transformed-60263" transform="translate(0, 100)"></use><use xlink:href="#transformed-60263" transform="translate(100, 100)"></use><use xlink:href="#transformed-65868" transform="translate(-100, -100)"></use><use xlink:href="#transformed-65868" transform="translate(0, -100)"></use><use xlink:href="#transformed-65868" transform="translate(100, -100)"></use><use xlink:href="#transformed-65868" transform="translate(-100, 0)"></use><use xlink:href="#transformed-65868" transform="translate(0, 0)"></use><use xlink:href="#transformed-65868" transform="translate(100, 0)"></use><use xlink:href="#transformed-65868" transform="translate(-100, 100)"></use><use xlink:href="#transformed-65868" transform="translate(0, 100)"></use><use xlink:href="#transformed-65868" transform="translate(100, 100)"></use></svg>