<svg version="1.1"
      xmlns="http://www.w3.org/2000/svg"
      xmlns:xlink="http://www.w3.org/1999/xlink"  id="snapshot-10957" width="100" height="100" viewBox="0 0 100 100"><desc>This image was made on Patterninja.com</desc><defs>
<!-- image 16501 -->
<g id="transformed-16501" data-image="16501" transform="translate(-3.5, 85) rotate(3, 9.5, 10)"><g><svg version="1.1" width="19px" height="20px" viewBox="0 0 19 20"><g id="original-16501"><svg xmlns="http://www.w3.org/2000/svg" viewBox="0 0 64 64" xmlns:xlink="http://www.w3.org/1999/xlink" version="1.1" preserveAspectRatio="xMidYMid meet">
  <path d="M10 18c0 3.309 2.691 6 6 6s6-2.691 6-6-2.691-6-6-6-6 2.691-6 6zm10 0c0 2.206-1.794 4-4 4s-4-1.794-4-4 1.794-4 4-4 4 1.794 4 4z" fill="rgba(255, 255, 255, 1)" stroke="none"/>
  <path d="M30.707 28.707l7-7a.999.999 0 0 0 0-1.414l-3-3a1 1 0 0 0-1.358-.052l-6.884 5.9L19.795 26H8a.995.995 0 0 0-.752.342l-7 8a.998.998 0 0 0-.196.975l3 9a1.002 1.002 0 0 0 1.396.578l4-2A.987.987 0 0 0 9 42.019V59c0 2.757 2.243 5 5 5h8a1 1 0 0 0 1-1V32.618l7.447-3.724a.962.962 0 0 0 .26-.187zM9 41.98a.953.953 0 0 0-.071-.352L7.145 37.17 9 34.851v7.129zm12.553-10.875c-.339.17-.553.516-.553.895v30h-4V46a1 1 0 1 0-2 0v16h-1c-1.654 0-3-1.346-3-3V32a1 1 0 1 0-1.781-.625l-4 5a1.002 1.002 0 0 0-.148.996l1.659 4.146-2.146 1.073-2.454-7.362L8.454 28H20c.135 0 .27-.027.394-.081l7-3c.093-.04.18-.094.257-.16l6.297-5.396L35.586 21l-6.178 6.178-7.855 3.927z" fill="rgba(255, 255, 255, 1)" stroke="none"/>
  <path d="M14 32h1v8h2v-8h1v-2h-4z" fill="rgba(255, 255, 255, 1)" stroke="none"/>
  <path d="M64 50c0-3.309-2.691-6-6-6a5.998 5.998 0 0 0-5 2.69C51.924 45.07 50.086 44 48 44s-3.924 1.071-5 2.69A5.996 5.996 0 0 0 38 44c-3.309 0-6 2.691-6 6a5.998 5.998 0 0 0 2.69 5A5.996 5.996 0 0 0 32 60v4h2v-4c0-2.206 1.794-4 4-4s4 1.794 4 4v4h2v-4c0-2.206 1.794-4 4-4s4 1.794 4 4v4h2v-4c0-2.206 1.794-4 4-4s4 1.794 4 4v4h2v-4a5.998 5.998 0 0 0-2.69-5A5.998 5.998 0 0 0 64 50zm-16-4c2.206 0 4 1.794 4 4s-1.794 4-4 4-4-1.794-4-4 1.795-4 4-4zm-14 4c0-2.206 1.794-4 4-4s4 1.794 4 4-1.794 4-4 4-4-1.794-4-4zm9 6.69A6.044 6.044 0 0 0 41.31 55 6.044 6.044 0 0 0 43 53.31 6.044 6.044 0 0 0 44.69 55 6.044 6.044 0 0 0 43 56.69zm10 0A6.044 6.044 0 0 0 51.31 55 6.044 6.044 0 0 0 53 53.31 6.044 6.044 0 0 0 54.69 55 6.044 6.044 0 0 0 53 56.69zM58 54c-2.206 0-4-1.794-4-4s1.794-4 4-4 4 1.794 4 4-1.794 4-4 4z" fill="rgba(255, 255, 255, 1)" stroke="none"/>
  <path d="M63 0H26a1 1 0 0 0-1 1v19h2V2h35v27c0 1.654-1.346 3-3 3H28v2h31c2.757 0 5-2.243 5-5V1a1 1 0 0 0-1-1z" fill="rgba(255, 255, 255, 1)" stroke="none"/>
  <path d="M42 5H32a1 1 0 0 0-1 1v4a1 1 0 0 0 1 1h10a1 1 0 0 0 1-1V9h3v1a1 1 0 0 0 1 1h4v3h-4a1 1 0 0 0-1 1v4a1 1 0 0 0 1 1h4v3h-4a1 1 0 0 0-1 1v4a1 1 0 0 0 1 1h10a1 1 0 0 0 1-1v-4a1 1 0 0 0-1-1h-4v-3h4a1 1 0 0 0 1-1v-4a1 1 0 0 0-1-1h-4v-3h4a1 1 0 0 0 1-1V6a1 1 0 0 0-1-1H47a1 1 0 0 0-1 1v1h-3V6a1 1 0 0 0-1-1zm-1 4h-8V7h8v2zm15 18h-8v-2h8v2zm0-9h-8v-2h8v2zM48 7h8v2h-8V7z" fill="rgba(255, 255, 255, 1)" stroke="none"/>
  <path d="M32 13h11v2H32z" fill="rgba(255, 255, 255, 1)" stroke="none"/>
  <path d="M39 17h4v2h-4z" fill="rgba(255, 255, 255, 1)" stroke="none"/>
  <path d="M40 21h3v2h-3z" fill="rgba(255, 255, 255, 1)" stroke="none"/>
  <path d="M37 25h6v2h-6z" fill="rgba(255, 255, 255, 1)" stroke="none"/>
  <path d="M4 10h.5l2.7 3.6a1.002 1.002 0 0 0 1.116.348A.998.998 0 0 0 9 13v-3h6c1.654 0 3-1.346 3-3V3c0-1.654-1.346-3-3-3H4C2.346 0 1 1.346 1 3v4c0 1.654 1.346 3 3 3zM3 3c0-.552.449-1 1-1h11c.551 0 1 .448 1 1v4c0 .552-.449 1-1 1H8a1 1 0 0 0-1 1v1L5.8 8.4A1 1 0 0 0 5 8H4c-.551 0-1-.448-1-1V3z" fill="rgba(255, 255, 255, 1)" stroke="none"/>
  <path d="M5 4h9v2H5z" fill="rgba(255, 255, 255, 1)" stroke="none"/>
</svg>
</g></svg></g></g>
<!-- /image 16501 -->

<!-- image 52704 -->
<g id="transformed-52704" data-image="52704" transform="translate(10, 28) rotate(26, 10, 10)"><g><svg version="1.1" width="20px" height="20px" viewBox="0 0 20 20"><g id="original-52704"><svg xmlns="http://www.w3.org/2000/svg" viewBox="0 0 496.941 496.941" xmlns:xlink="http://www.w3.org/1999/xlink" version="1.1" preserveAspectRatio="xMidYMid meet">
  <path d="M111.435 144.565c24.847 0 44.424-20.329 44.424-44.424 0-24.847-20.329-44.424-44.424-44.424-24.847 0-44.424 20.329-44.424 44.424s20.33 44.424 44.424 44.424zm0-74.541c16.565 0 29.365 13.553 29.365 29.365s-13.553 29.365-29.365 29.365S82.071 115.2 82.071 99.388s13.553-29.364 29.364-29.364z" fill="rgba(255, 255, 255, 1)" stroke="none"/>
  <path d="M272.565 237.929h-1.506c1.506-1.506 2.259-3.012 2.259-5.271 0-4.518-3.012-7.529-7.529-7.529h-18.071c6.023-13.553 6.023-30.118-.753-43.671-3.012-6.776-8.282-12.8-14.306-17.318v-3.012c0-12.047-9.788-21.835-21.835-21.835s-21.835 9.788-21.835 21.835 9.788 21.835 21.835 21.835c5.271 0 9.788-2.259 13.553-5.271 3.765 3.012 6.023 6.776 8.282 10.541 5.271 11.294 4.518 24.094-1.506 34.635l-1.506 1.506h-27.106c-4.518 0-7.529 3.012-7.529 7.529 0 2.259.753 4.518 2.259 5.271h-14.306v-45.929c0-24.847-18.071-45.177-40.659-45.177H79.059c-22.588 0-40.659 20.329-40.659 45.177v45.929H8.282c-4.518 0-7.529 3.012-7.529 7.529v34.635c0 4.518 3.012 7.529 7.529 7.529h11.294v176.941c0 4.518 3.012 7.529 7.529 7.529h220.612c4.518 0 7.529-3.012 7.529-7.529V287.624h15.812c4.518 0 7.529-3.012 7.529-7.529V245.46c1.507-4.519-2.258-7.531-6.022-7.531zm-61.741-70.776c-3.765 0-6.776-3.012-6.776-6.776s3.012-6.776 6.776-6.776 6.776 3.012 6.776 6.776-3.012 6.776-6.776 6.776zM54.965 192c0-16.565 11.294-30.118 25.6-30.118h62.494c14.306 0 25.6 13.553 25.6 30.118v45.929H54.965V192zm186.729 265.035H36.141V287.624h205.553v169.411zm23.341-184.47H17.317v-19.576h247.718v19.576z" fill="rgba(255, 255, 255, 1)" stroke="none"/>
  <path d="M270.306 481.882H7.529c-4.518 0-7.529 3.012-7.529 7.529s3.012 7.529 7.529 7.529h262.776c4.518 0 7.529-3.012 7.529-7.529s-3.01-7.529-7.528-7.529z" fill="rgba(255, 255, 255, 1)" stroke="none"/>
  <path d="M489.412 25.6h-60.235V7.529c0-4.518-3.012-7.529-7.529-7.529H249.224c-4.518 0-7.529 3.012-7.529 7.529v88.847c0 4.518 3.012 7.529 7.529 7.529h16.565L250.73 138.54c-1.506 3.012-.753 6.776 2.259 9.035 2.259 2.259 6.023 2.259 9.035.753l70.776-43.671h23.341v21.082c0 4.518 3.012 7.529 7.529 7.529h125.741c4.518 0 7.529-3.012 7.529-7.529v-92.61c.001-4.517-3.011-7.529-7.528-7.529zM330.541 88.847c-1.506 0-3.012.753-3.765 1.506l-51.953 32.376 9.788-23.341c.753-2.259.753-5.271-.753-6.776s-3.765-3.765-6.023-3.765h-20.329V15.059h156.612v73.788h-83.577zm151.341 28.612H370.447v-13.553h51.2c4.518 0 7.529-3.012 7.529-7.529V40.659h52.706v76.8z" fill="rgba(255, 255, 255, 1)" stroke="none"/>
</svg>
</g></svg></g></g>
<!-- /image 52704 -->

<!-- image 97302 -->
<g id="transformed-97302" data-image="97302" transform="translate(53, 57) rotate(346, 10, 10)"><g><svg version="1.1" width="20px" height="20px" viewBox="0 0 20 20"><g id="original-97302"><svg xmlns="http://www.w3.org/2000/svg" viewBox="0 0 511.031 511.031" xmlns:xlink="http://www.w3.org/1999/xlink" version="1.1" preserveAspectRatio="xMidYMid meet">
  <path d="M479.804 389.848c-10.718-15.699-25.664-26.598-43.22-31.516a7.474 7.474 0 0 0-.646-.151L361.652 344.3l-24.997-33.11a145.792 145.792 0 0 0 3.899-4.63c22.02-27.328 34.649-63.492 34.649-99.218v-32.144c23.486-74.5 14.799-137.362 7.176-154.688-.011-.025-.025-.048-.037-.073a7.354 7.354 0 0 0-.218-.435c-.043-.081-.084-.164-.13-.243a7.536 7.536 0 0 0-.229-.36c-.061-.093-.121-.188-.186-.277-.067-.092-.14-.179-.211-.268-.085-.106-.169-.214-.259-.315-.059-.066-.123-.128-.185-.193-.108-.112-.215-.225-.329-.33-.057-.053-.119-.101-.178-.152a7.902 7.902 0 0 0-.375-.31c-.068-.052-.141-.098-.211-.148-.124-.087-.247-.175-.375-.254-.094-.058-.192-.109-.289-.163-.109-.061-.217-.125-.329-.18-.122-.061-.249-.113-.375-.167-.092-.039-.182-.082-.276-.118-.141-.054-.285-.098-.429-.144-.085-.027-.168-.057-.254-.081-.141-.039-.285-.068-.428-.099-.096-.021-.19-.044-.287-.061-.127-.022-.255-.035-.383-.051-.119-.014-.238-.031-.358-.039-.105-.007-.212-.008-.318-.011-.147-.004-.293-.008-.441-.004-.088.003-.176.011-.264.017-.165.011-.33.024-.495.046-.026.003-.052.003-.079.007-20.146 2.878-44.476-2.007-70.233-7.179-43.089-8.653-87.614-17.569-122.302 7.311a7.487 7.487 0 0 0-1.725-.207c-35.433 0-60.18 29.402-60.18 71.5 0 32.791 13.838 94.085 15.747 102.381v17.366c0 35.717 12.671 71.895 34.765 99.256a145.741 145.741 0 0 0 3.886 4.605l-25.035 33.16-74.286 13.882a7.561 7.561 0 0 0-.646.151c-17.557 4.918-32.502 15.817-43.22 31.516-9.809 14.368-15.211 31.708-15.211 48.825v43.841c0 15.724 14.131 28.516 31.5 28.516h416c17.369 0 31.5-12.792 31.5-28.516v-43.841c.004-17.115-5.398-34.454-15.207-48.823zm-330.142-30.341l44.342 65.453c-16.945-13.92-36.301-34.077-56.239-63.23l11.897-2.223zm105.853 20.812l-31.058-34.508c10.074 3.437 20.522 5.22 31.137 5.22 10.54 0 20.912-1.758 30.914-5.148l-30.993 34.436zm0 20.842l18.917 15.239c-9.585 5.034-16.402 6.912-18.912 7.486-2.546-.581-9.358-2.463-18.922-7.486l18.917-15.239zm-36.183 29.15l4.663-3.757c17.899 10.501 29.918 12.323 30.46 12.401a7.539 7.539 0 0 0 2.122 0c.543-.078 12.561-1.9 30.46-12.401l4.663 3.757a15.44 15.44 0 0 0 12.095 4.145c.322-.031.635-.094.952-.144-24.573 17.246-42.039 20.769-45.259 21.295l-3.972.649-3.972-.649c-3.22-.526-20.686-4.049-45.259-21.295.317.05.63.113.952.144a15.442 15.442 0 0 0 12.095-4.145zm142.037-70.804l11.897 2.223c-19.939 29.153-39.295 49.311-56.241 63.231l44.344-65.454zm-58.631 59.799c-.04.059-.132.195-.366.217-.24.021-.351-.095-.401-.144a7.248 7.248 0 0 0-.598-.537l-34.983-28.183 60.619-67.354 21.486 28.461-45.757 67.54zm.777-251.275c-14.809 0-27.733 8.196-34.495 20.286a23.361 23.361 0 0 0-13.505-4.286c-5.024 0-9.681 1.59-13.505 4.286-6.761-12.09-19.686-20.286-34.495-20.286-16.281 0-30.29 9.903-36.328 24h-20.194c2-27.934 16.563-62.395 21.582-73.561 55.501-6.559 99.713-.047 127.269 6.69 24.343 5.951 40.242 13.087 45.82 15.809l14.54 34.595v16.468h-20.361c-6.038-14.099-20.047-24.001-36.328-24.001zm24.5 39.5c0 13.509-10.991 24.5-24.5 24.5s-24.5-10.991-24.5-24.5 10.991-24.5 24.5-24.5 24.5 10.99 24.5 24.5zm-120.5-24.5c13.509 0 24.5 10.991 24.5 24.5s-10.991 24.5-24.5 24.5-24.5-10.991-24.5-24.5 10.991-24.5 24.5-24.5zm-72.5-95.5c0-39.03 22.691-56.5 45.18-56.5.777 0 1.526-.118 2.231-.337a7.481 7.481 0 0 0 6.737-1.19c29.551-22.447 71.52-14.021 112.105-5.87 21.21 4.259 41.496 8.333 60.207 8.333a115 115 0 0 0 8.921-.349c5.019 17.726 9.903 63.49-4.07 119.798l-7.897-18.79a7.496 7.496 0 0 0-3.288-3.659c-2.946-1.627-73.475-39.683-188.583-24.874l-.045.008c-.164.022-.326.055-.488.088-.085.017-.173.03-.257.05-.124.03-.246.07-.369.106-.117.034-.235.064-.349.103-.039.014-.077.032-.116.046a7.427 7.427 0 0 0-1.538.778 7.45 7.45 0 0 0-2.06 2.023c-.061.089-.126.175-.183.267-.05.08-.093.166-.14.248-.079.138-.158.275-.228.417l-.022.04c-.636 1.316-10.175 21.226-17.281 45.173-4.105-21.514-8.467-48.48-8.467-65.909zm15.747 119.747v-.247h17.266c-.002.167-.013.332-.013.5 0 21.78 17.72 39.5 39.5 39.5s39.5-17.72 39.5-39.5c0-4.687 3.813-8.5 8.5-8.5 4.687 0 8.5 3.813 8.5 8.5 0 21.78 17.72 39.5 39.5 39.5s39.5-17.72 39.5-39.5c0-.168-.011-.333-.013-.5h17.202v.311c0 32.364-11.419 65.097-31.33 89.807-20.204 25.074-46.229 38.882-73.28 38.882-27.064 0-53.13-13.822-73.396-38.92-19.978-24.742-31.436-57.485-31.436-89.833zm33.261 116.028l60.619 67.354-34.983 28.183a7.248 7.248 0 0 0-.598.537c-.05.049-.165.165-.401.144-.234-.022-.327-.159-.367-.217l-45.756-67.539 21.486-28.462zm-105.84 49.558l43.836-8.191c.209.659.508 1.301.912 1.905 25.296 37.812 53.02 66.429 82.402 85.057 22.912 14.525 39.311 18.043 43.791 18.776l5.182.847a7.544 7.544 0 0 0 2.418 0l5.182-.847c4.48-.732 20.878-4.25 43.791-18.776 29.382-18.628 57.106-47.245 82.402-85.057a7.485 7.485 0 0 0 .912-1.905l43.836 8.191a60.234 60.234 0 0 1 20.401 10.328l-24.291 24.291c-13.504 13.504-20.942 31.459-20.942 50.558v37.99h-305v-37.99c0-19.099-7.438-37.054-20.942-50.558l-24.291-24.291a60.235 60.235 0 0 1 20.401-10.328zM31.015 482.515v-43.841c0-15.106 5.458-31.838 16.073-44.963l24.378 24.378c10.671 10.671 16.548 24.86 16.548 39.952v37.99h-40.5c-9.097 0-16.499-6.064-16.499-13.516zm449 0c0 7.452-7.402 13.516-16.5 13.516h-40.5v-37.99c0-15.092 5.877-29.28 16.548-39.952l24.378-24.378c10.615 13.125 16.073 29.857 16.073 44.963v43.841z" fill="rgba(255, 255, 255, 1)" stroke="none"/>
  <path d="M207.515 223.031c8.547 0 15.5-6.953 15.5-15.5a7.5 7.5 0 0 0-15 0 .5.5 0 0 1-.5.5 7.5 7.5 0 0 0 0 15z" fill="rgba(255, 255, 255, 1)" stroke="none"/>
  <path d="M296.015 215.531a7.5 7.5 0 0 0 7.5 7.5c8.547 0 15.5-6.953 15.5-15.5a7.5 7.5 0 0 0-15 0 .5.5 0 0 1-.5.5 7.5 7.5 0 0 0-7.5 7.5z" fill="rgba(255, 255, 255, 1)" stroke="none"/>
</svg>
</g></svg></g></g>
<!-- /image 97302 -->
</defs><rect x="0" y="0" width="100" height="100" fill="rgba(249, 238, 230, 0)"></rect><use xlink:href="#transformed-16501" transform="translate(-100, -100)"></use><use xlink:href="#transformed-16501" transform="translate(0, -100)"></use><use xlink:href="#transformed-16501" transform="translate(100, -100)"></use><use xlink:href="#transformed-16501" transform="translate(-100, 0)"></use><use xlink:href="#transformed-16501" transform="translate(0, 0)"></use><use xlink:href="#transformed-16501" transform="translate(100, 0)"></use><use xlink:href="#transformed-16501" transform="translate(-100, 100)"></use><use xlink:href="#transformed-16501" transform="translate(0, 100)"></use><use xlink:href="#transformed-16501" transform="translate(100, 100)"></use><use xlink:href="#transformed-52704" transform="translate(-100, -100)"></use><use xlink:href="#transformed-52704" transform="translate(0, -100)"></use><use xlink:href="#transformed-52704" transform="translate(100, -100)"></use><use xlink:href="#transformed-52704" transform="translate(-100, 0)"></use><use xlink:href="#transformed-52704" transform="translate(0, 0)"></use><use xlink:href="#transformed-52704" transform="translate(100, 0)"></use><use xlink:href="#transformed-52704" transform="translate(-100, 100)"></use><use xlink:href="#transformed-52704" transform="translate(0, 100)"></use><use xlink:href="#transformed-52704" transform="translate(100, 100)"></use><use xlink:href="#transformed-97302" transform="translate(-100, -100)"></use><use xlink:href="#transformed-97302" transform="translate(0, -100)"></use><use xlink:href="#transformed-97302" transform="translate(100, -100)"></use><use xlink:href="#transformed-97302" transform="translate(-100, 0)"></use><use xlink:href="#transformed-97302" transform="translate(0, 0)"></use><use xlink:href="#transformed-97302" transform="translate(100, 0)"></use><use xlink:href="#transformed-97302" transform="translate(-100, 100)"></use><use xlink:href="#transformed-97302" transform="translate(0, 100)"></use><use xlink:href="#transformed-97302" transform="translate(100, 100)"></use></svg>