<svg version="1.1"
      xmlns="http://www.w3.org/2000/svg"
      xmlns:xlink="http://www.w3.org/1999/xlink"  id="snapshot-84343" width="100" height="100" viewBox="0 0 100 100"><desc>This image was made on Patterninja.com</desc><defs>
<!-- image 05220 -->
<g id="transformed-05220" data-image="05220" transform="translate(4.5, 58) rotate(353, 9.5, 10)"><g><svg version="1.1" width="19px" height="20px" viewBox="0 0 19 20"><g id="original-05220"><svg xmlns="http://www.w3.org/2000/svg" viewBox="0 0 512 512" xmlns:xlink="http://www.w3.org/1999/xlink" version="1.1" preserveAspectRatio="xMidYMid meet">
  <path d="M285.866 0C177.647 0 89.6 88.047 89.6 196.267v31.445l-58.189 83.132a8.53 8.53 0 0 0 6.989 13.423h51.2V384c0 32.93 26.795 59.733 59.733 59.733h34.133v59.733a8.53 8.53 0 0 0 8.533 8.533h221.867a8.525 8.525 0 0 0 8.533-8.533v-10.624c.375-64.06 12.715-126.652 36.651-185.984 14.498-35.2 22.263-72.346 23.083-110.413v-.179C482.133 88.047 394.095 0 285.866 0zm157.372 300.425c-24.755 61.397-37.513 126.097-37.905 192.375v2.133h-204.8V435.2a8.53 8.53 0 0 0-8.533-8.533h-42.667c-23.526 0-42.667-19.14-42.667-42.667v-68.267a8.53 8.53 0 0 0-8.533-8.533H54.784l50.338-71.91a8.504 8.504 0 0 0 1.545-4.89v-34.133c0-98.816 80.384-179.2 179.2-179.2 98.782 0 179.149 80.341 179.2 179.106-.786 35.917-8.125 70.98-21.829 104.252z" fill="rgba(255, 255, 255, 1)" stroke="none"/>
  <path d="M286.097 93.645h-.23c-56.354 0-102.263 45.79-102.4 102.17-.068 30.771 13.5 59.648 37.077 79.095 9.31 8.064 14.464 19.746 14.123 32.29v42.667c0 14.114 11.486 25.6 25.6 25.6h51.2c14.114 0 25.6-11.486 25.6-25.6v-44.749c.205-11.998 5.649-23.236 15.07-30.916 22.989-19.422 36.164-47.829 36.13-77.926.119-56.457-45.714-102.495-102.17-102.631zm55.125 167.432c-13.21 10.778-20.949 26.726-21.231 43.913v44.885a8.536 8.536 0 0 1-8.533 8.533h-51.2c-4.702 0-8.533-3.823-8.533-8.533v-42.436c.469-17.442-6.818-34.005-20.164-45.56-19.772-16.307-31.087-40.371-31.027-66.014.111-46.993 38.374-85.146 85.333-85.146h.188c47.053.111 85.248 38.477 85.137 85.53v.026c.033 25.071-10.941 48.725-29.97 64.802z" fill="rgba(255, 255, 255, 1)" stroke="none"/>
  <path d="M243.2 307.2h85.333v17.067H243.2z" fill="rgba(255, 255, 255, 1)" stroke="none"/>
  <path d="M327.526 192.239a8.538 8.538 0 0 0-7.526-4.506h-68.267a8.537 8.537 0 0 0-7.099 13.269l15.633 23.45v91.281h17.067v-93.867a8.573 8.573 0 0 0-1.434-4.736l-8.226-12.331h36.386l-8.226 12.331a8.581 8.581 0 0 0-1.434 4.736v93.867h17.067v-91.281l15.633-23.458a8.537 8.537 0 0 0 .426-8.755z" fill="rgba(255, 255, 255, 1)" stroke="none"/>
  <path d="M277.333 42.667H294.4V76.8h-17.067z" fill="rgba(255, 255, 255, 1)" stroke="none"/>
  <path d="M132.266 187.733h34.133V204.8h-34.133z" fill="rgba(255, 255, 255, 1)" stroke="none"/>
  <path d="M405.333 179.2h34.133v17.067h-34.133z" fill="rgba(255, 255, 255, 1)" stroke="none"/>
  <path d="M168.898 91.375l12.068-12.068 25.602 25.602-12.068 12.068z" fill="rgba(255, 255, 255, 1)" stroke="none"/>
  <path d="M365.174 104.917l25.602-25.602 12.067 12.068-25.602 25.602z" fill="rgba(255, 255, 255, 1)" stroke="none"/>
  <path d="M160.364 292.627l25.602-25.602 12.068 12.068-25.602 25.602z" fill="rgba(255, 255, 255, 1)" stroke="none"/>
  <path d="M373.692 279.115l12.068-12.068 25.602 25.602-12.068 12.068z" fill="rgba(255, 255, 255, 1)" stroke="none"/>
</svg>
</g></svg></g></g>
<!-- /image 05220 -->

<!-- image 15880 -->
<g id="transformed-15880" data-image="15880" transform="translate(59, 36.5) rotate(343, 10, 9.5)"><g><svg version="1.1" width="20px" height="19px" viewBox="0 0 20 19"><g id="original-15880"><svg xmlns="http://www.w3.org/2000/svg" viewBox="0 0 512 512" xmlns:xlink="http://www.w3.org/1999/xlink" version="1.1" preserveAspectRatio="xMidYMid meet">
  <path d="M375.451 315.733a8.536 8.536 0 0 0-8.533-8.533h-51.2c-4.71 0-8.533 3.823-8.533 8.533s3.823 8.533 8.533 8.533h51.2c4.71.001 8.533-3.822 8.533-8.533z" fill="rgba(255, 255, 255, 1)" stroke="none"/>
  <path d="M341.317 93.867V51.2c0-4.71-3.823-8.533-8.533-8.533s-8.533 3.823-8.533 8.533v42.667c0 23.526 19.14 42.667 42.667 42.667h76.8v162.133c0 4.71 3.823 8.533 8.533 8.533s8.533-3.823 8.533-8.533V128a8.536 8.536 0 0 0-8.533-8.533h-85.333c-14.115 0-25.601-11.486-25.601-25.6z" fill="rgba(255, 255, 255, 1)" stroke="none"/>
  <path d="M366.917 204.8H298.65a8.536 8.536 0 0 0-8.533 8.533 8.536 8.536 0 0 0 8.533 8.533h68.267a8.536 8.536 0 0 0 8.533-8.533c.001-4.71-3.822-8.533-8.533-8.533z" fill="rgba(255, 255, 255, 1)" stroke="none"/>
  <path d="M273.051 213.333a8.536 8.536 0 0 0-8.533-8.533h-51.2a8.536 8.536 0 0 0-8.533 8.533 8.536 8.536 0 0 0 8.533 8.533h51.2c4.71.001 8.533-3.822 8.533-8.533z" fill="rgba(255, 255, 255, 1)" stroke="none"/>
  <path d="M213.317 256a8.536 8.536 0 0 0-8.533 8.533 8.536 8.536 0 0 0 8.533 8.533h17.067a8.536 8.536 0 0 0 8.533-8.533 8.536 8.536 0 0 0-8.533-8.533h-17.067z" fill="rgba(255, 255, 255, 1)" stroke="none"/>
  <path d="M213.317 170.667h85.333a8.536 8.536 0 0 0 8.533-8.533 8.536 8.536 0 0 0-8.533-8.533h-85.333a8.536 8.536 0 0 0-8.533 8.533 8.536 8.536 0 0 0 8.533 8.533z" fill="rgba(255, 255, 255, 1)" stroke="none"/>
  <path d="M264.517 273.067h85.333a8.536 8.536 0 0 0 8.533-8.533 8.536 8.536 0 0 0-8.533-8.533h-85.333a8.536 8.536 0 0 0-8.533 8.533 8.536 8.536 0 0 0 8.533 8.533z" fill="rgba(255, 255, 255, 1)" stroke="none"/>
  <path d="M315.717 358.4c-4.71 0-8.533 3.823-8.533 8.533s3.823 8.533 8.533 8.533h17.067c4.71 0 8.533-3.823 8.533-8.533s-3.823-8.533-8.533-8.533h-17.067z" fill="rgba(255, 255, 255, 1)" stroke="none"/>
  <path d="M281.584 307.2h-68.267c-4.71 0-8.533 3.823-8.533 8.533s3.823 8.533 8.533 8.533h68.267c4.71 0 8.533-3.823 8.533-8.533s-3.823-8.533-8.533-8.533z" fill="rgba(255, 255, 255, 1)" stroke="none"/>
  <path d="M281.584 358.4h-68.267c-4.71 0-8.533 3.823-8.533 8.533s3.823 8.533 8.533 8.533h68.267c4.71 0 8.533-3.823 8.533-8.533s-3.823-8.533-8.533-8.533z" fill="rgba(255, 255, 255, 1)" stroke="none"/>
  <path d="M484.754 351.497l-17.067-17.067c-13.116-13.116-33.101-13.09-46.199 0L309.684 446.234a8.546 8.546 0 0 0-2.5 6.033v51.2a8.536 8.536 0 0 0 8.533 8.533h51.2a8.546 8.546 0 0 0 6.033-2.5l111.804-111.804c13.594-13.594 13.594-32.597 0-46.199zm-74.3 18.099l13.534 13.534-74.138 74.138-13.534-13.534 74.138-74.138zm-86.203 125.337v-39.134l39.134 39.134h-39.134zm51.2-12.066l-13.534-13.534 74.138-74.138 13.534 13.534-74.138 74.138zm97.237-97.237l-11.034 11.034-39.134-39.134 11.034-11.034c6.741-6.733 15.292-6.767 22.067 0l17.067 17.067c6.903 6.912 6.903 15.163 0 22.067z" fill="rgba(255, 255, 255, 1)" stroke="none"/>
  <path d="M281.584 494.933H59.717c-14.114 0-25.6-11.486-25.6-25.6V42.667c0-14.114 11.486-25.6 25.6-25.6h269.534L412.084 99.9a8.523 8.523 0 0 0 12.066 0 8.523 8.523 0 0 0 0-12.066L338.817 2.5a8.513 8.513 0 0 0-6.033-2.5H59.717C36.191 0 17.051 19.14 17.051 42.667v426.667c0 23.526 19.14 42.667 42.667 42.667h221.867c4.71 0 8.533-3.823 8.533-8.533s-3.824-8.535-8.534-8.535z" fill="rgba(255, 255, 255, 1)" stroke="none"/>
  <path d="M281.584 409.6h-68.267c-4.71 0-8.533 3.823-8.533 8.533s3.823 8.533 8.533 8.533h68.267c4.71 0 8.533-3.823 8.533-8.533s-3.823-8.533-8.533-8.533z" fill="rgba(255, 255, 255, 1)" stroke="none"/>
  <path d="M170.651 162.133a8.536 8.536 0 0 0-8.533-8.533h-51.2a8.536 8.536 0 0 0-8.533 8.533v51.2a8.536 8.536 0 0 0 8.533 8.533h51.2a8.536 8.536 0 0 0 8.533-8.533v-51.2zM153.584 204.8h-34.133v-34.133h34.133V204.8z" fill="rgba(255, 255, 255, 1)" stroke="none"/>
  <path d="M110.917 426.667h51.2a8.536 8.536 0 0 0 8.533-8.533v-51.2a8.536 8.536 0 0 0-8.533-8.533h-51.2a8.536 8.536 0 0 0-8.533 8.533v51.2a8.536 8.536 0 0 0 8.533 8.533zm8.534-51.2h34.133V409.6h-34.133v-34.133z" fill="rgba(255, 255, 255, 1)" stroke="none"/>
  <path d="M121.951 321.766a8.54 8.54 0 0 0 6.878 2.457 8.513 8.513 0 0 0 6.255-3.755l34.133-51.2c2.611-3.925 1.553-9.225-2.364-11.836a8.533 8.533 0 0 0-11.836 2.364l-28.356 42.539-9.711-9.702c-3.336-3.337-8.73-3.337-12.066 0s-3.337 8.73 0 12.066l17.067 17.067z" fill="rgba(255, 255, 255, 1)" stroke="none"/>
</svg>
</g></svg></g></g>
<!-- /image 15880 -->

<!-- image 72633 -->
<g id="transformed-72633" data-image="72633" transform="translate(40, -8) rotate(319, 10, 10)"><g><svg version="1.1" width="20px" height="20px" viewBox="0 0 20 20"><g id="original-72633"><svg xmlns="http://www.w3.org/2000/svg" viewBox="0 0 490 490" xmlns:xlink="http://www.w3.org/1999/xlink" version="1.1" preserveAspectRatio="xMidYMid meet">
  <path d="M424.976 95c-.001-2.601-.992-5.159-2.904-7.071l-85-85c-1.912-1.912-4.47-2.904-7.071-2.905V0H75c-5.523 0-10 4.477-10 10v470c0 5.523 4.477 10 10 10h340c5.522 0 10-4.477 10-10V95h-.024zM340 34.142L390.857 85H340V34.142zM405 470H85V20h235v75c0 5.523 4.478 10 10 10h75v365z" fill="rgba(255, 255, 255, 1)" stroke="none"/>
  <path d="M259.097 295l22.445 51.624 18.342-7.975-70.713-162.637c-1.613-3.71-5.257-6.054-9.345-6.011a10 10 0 0 0-9.13 6.333l-65 165 18.608 7.33L185.445 295h73.652zm-38.641-88.873L250.4 275h-57.077l27.133-68.873z" fill="rgba(255, 255, 255, 1)" stroke="none"/>
  <path d="M315 165h-20v20h-20v20h20v20h20v-20h20v-20h-20z" fill="rgba(255, 255, 255, 1)" stroke="none"/>
  <path d="M110 410h40v20h-40z" fill="rgba(255, 255, 255, 1)" stroke="none"/>
  <path d="M170 410h40v20h-40z" fill="rgba(255, 255, 255, 1)" stroke="none"/>
  <path d="M230 410h150v20H230z" fill="rgba(255, 255, 255, 1)" stroke="none"/>
  <path d="M110 40h40v20h-40z" fill="rgba(255, 255, 255, 1)" stroke="none"/>
  <path d="M110 80h80v20h-80z" fill="rgba(255, 255, 255, 1)" stroke="none"/>
</svg>
</g></svg></g></g>
<!-- /image 72633 -->
</defs><rect x="0" y="0" width="100" height="100" fill="rgba(249, 238, 230, 0)"></rect><use xlink:href="#transformed-05220" transform="translate(-100, -100)"></use><use xlink:href="#transformed-05220" transform="translate(0, -100)"></use><use xlink:href="#transformed-05220" transform="translate(100, -100)"></use><use xlink:href="#transformed-05220" transform="translate(-100, 0)"></use><use xlink:href="#transformed-05220" transform="translate(0, 0)"></use><use xlink:href="#transformed-05220" transform="translate(100, 0)"></use><use xlink:href="#transformed-05220" transform="translate(-100, 100)"></use><use xlink:href="#transformed-05220" transform="translate(0, 100)"></use><use xlink:href="#transformed-05220" transform="translate(100, 100)"></use><use xlink:href="#transformed-15880" transform="translate(-100, -100)"></use><use xlink:href="#transformed-15880" transform="translate(0, -100)"></use><use xlink:href="#transformed-15880" transform="translate(100, -100)"></use><use xlink:href="#transformed-15880" transform="translate(-100, 0)"></use><use xlink:href="#transformed-15880" transform="translate(0, 0)"></use><use xlink:href="#transformed-15880" transform="translate(100, 0)"></use><use xlink:href="#transformed-15880" transform="translate(-100, 100)"></use><use xlink:href="#transformed-15880" transform="translate(0, 100)"></use><use xlink:href="#transformed-15880" transform="translate(100, 100)"></use><use xlink:href="#transformed-72633" transform="translate(-100, -100)"></use><use xlink:href="#transformed-72633" transform="translate(0, -100)"></use><use xlink:href="#transformed-72633" transform="translate(100, -100)"></use><use xlink:href="#transformed-72633" transform="translate(-100, 0)"></use><use xlink:href="#transformed-72633" transform="translate(0, 0)"></use><use xlink:href="#transformed-72633" transform="translate(100, 0)"></use><use xlink:href="#transformed-72633" transform="translate(-100, 100)"></use><use xlink:href="#transformed-72633" transform="translate(0, 100)"></use><use xlink:href="#transformed-72633" transform="translate(100, 100)"></use></svg>