<svg version="1.1"
      xmlns="http://www.w3.org/2000/svg"
      xmlns:xlink="http://www.w3.org/1999/xlink"  id="snapshot-65201" width="100" height="100" viewBox="0 0 100 100"><desc>This image was made on Patterninja.com</desc><defs>
<!-- image 23349 -->
<g id="transformed-23349" data-image="23349" transform="translate(39.31, 26.32) rotate(24, 10, 10)"><g><svg version="1.1" width="20px" height="20px" viewBox="0 0 20 20"><g id="original-23349"><svg xmlns="http://www.w3.org/2000/svg" viewBox="0 0 512 512" xmlns:xlink="http://www.w3.org/1999/xlink" version="1.1" preserveAspectRatio="xMidYMid meet">
  <path d="M422.503 270.613a7.451 7.451 0 0 0-7.451 7.451c0 5.217-4.244 9.461-9.461 9.461-5.216 0-9.461-4.244-9.461-9.461a7.451 7.451 0 0 0-14.902 0c0 13.434 10.93 24.363 24.363 24.363s24.363-10.93 24.363-24.363a7.45 7.45 0 0 0-7.451-7.451z" fill="rgba(255, 255, 255, 1)" stroke="none"/>
  <path d="M492.444 271.83l-20.972-6.718c-2.686-.861-4.803-3.005-5.662-5.736-4.42-14.053-11.09-27.246-19.825-39.214-3.981-5.455-8.408-10.664-13.244-15.623 3.094-13.573 4.776-28.934 4.558-42.205-.312-18.985-4.106-30.12-11.598-34.044-4.035-2.116-16.315-8.544-82.782 21.882a24.184 24.184 0 0 0-4.405 2.623 289.039 289.039 0 0 0-13.669-3.318c-.555-.121-1.127-.228-1.686-.346a101.505 101.505 0 0 0 9.122-37.737 7.45 7.45 0 0 0-7.111-7.777c-4.101-.204-7.594 2.998-7.777 7.11-.971 21.691-9.969 42.1-25.335 57.467a86.266 86.266 0 0 1-31.388 20.05 216.081 216.081 0 0 0-59.976 0 86.257 86.257 0 0 1-31.388-20.05c-16.394-16.394-25.423-38.191-25.423-61.376 0-23.186 9.029-44.982 25.423-61.376 16.394-16.395 38.192-25.424 61.376-25.424 23.184 0 44.982 9.029 61.376 25.424a86.76 86.76 0 0 1 16.181 22.343 7.45 7.45 0 0 0 10.007 3.304 7.45 7.45 0 0 0 3.304-10.006c-4.863-9.659-11.24-18.466-18.953-26.18-19.209-19.209-44.749-29.788-71.914-29.788s-52.705 10.579-71.914 29.788c-19.209 19.21-29.788 44.749-29.788 71.914s10.579 52.705 29.788 71.914a101.645 101.645 0 0 0 17.945 14.298l.006-.001a210.24 210.24 0 0 0-13.778 4.076 7.452 7.452 0 1 0 4.725 14.135c40.636-13.585 85.396-13.585 126.032 0a7.442 7.442 0 0 0 9.429-4.705 7.452 7.452 0 0 0-4.704-9.43 209.627 209.627 0 0 0-13.778-4.076l.006.001a101.609 101.609 0 0 0 17.945-14.298 102.041 102.041 0 0 0 12.986-15.944c2.054.399 4.093.817 6.102 1.253 2.676.581 5.34 1.205 7.98 1.86-.083.324-.168.647-.237.976-3.634 17.245-3.398 32.497.701 45.33 3.684 11.535 10.333 20.88 19.76 27.777 11.111 8.128 24.525 11.639 36.676 11.639 9.145 0 17.576-1.99 23.768-5.497 7.004-3.967 12.872-12.326 17.517-24.876a126.082 126.082 0 0 1 6.1 7.701c7.777 10.654 13.714 22.396 17.646 34.898 2.309 7.343 8.041 13.121 15.332 15.458l20.972 6.718a13.195 13.195 0 0 1 9.2 12.606v34.775a13.195 13.195 0 0 1-9.2 12.606l-33.789 10.823c-5.406 1.733-9.981 5.448-12.882 10.462-13.275 22.942-34.146 41.927-62.037 56.428a11.675 11.675 0 0 0-6.126 8.23l-10.822 57.303a3.35 3.35 0 0 1-3.289 2.724h-35.187a3.35 3.35 0 0 1-3.289-2.724l-5.994-31.669a11.708 11.708 0 0 0-13.314-9.417c-15.157 2.292-30.775 3.453-46.418 3.453-11.638 0-23.127-.649-34.15-1.93-6.095-.701-11.773 3.454-12.912 9.472l-5.696 30.091a3.35 3.35 0 0 1-3.289 2.724h-35.187a3.356 3.356 0 0 1-3.293-2.748l-10.42-54.122a11.697 11.697 0 0 0-6.012-8.135C96.25 401.595 71.12 359.191 71.12 304.351c0-27.708 6.062-52.209 18.017-72.825 11.156-19.239 27.45-35.146 48.429-47.281a7.453 7.453 0 0 0 2.719-10.182 7.454 7.454 0 0 0-10.181-2.719C89.425 194.876 64.89 231.18 58.135 277.29v-.001c-.717-.065-1.435-.127-2.15-.201.13-4.975-.77-9.995-2.73-14.867-4.323-10.746-13.203-18.502-22.624-19.759-7.424-.994-14.489 2.158-19.392 8.636-7.109 9.394-5.95 16.828-3.727 21.41 3.753 7.733 13.4 13.203 29.409 16.642a29.24 29.24 0 0 1-1.454 1.986c-9.459 11.863-20.603 14.486-27.839 14.733-4.236.143-7.628 3.544-7.628 7.783v.036c0 4.181 3.299 7.591 7.476 7.782.535.025 1.094.038 1.676.038 9.156 0 23.851-3.377 37.969-21.08 2.229-2.794 4.045-5.742 5.441-8.788 1.406.159 2.757.295 4.051.415l.001-.008a195.776 195.776 0 0 0-.395 12.304c0 31.028 7.397 58.693 21.984 82.23 13.45 21.7 32.707 39.468 57.255 52.83l10.13 52.616c1.629 8.608 9.17 14.856 17.931 14.856h35.187c8.761 0 16.302-6.248 17.931-14.856l5.15-27.208c10.696 1.133 21.77 1.707 32.965 1.707 15.36 0 30.702-1.07 45.654-3.182l5.429 28.685c1.63 8.608 9.171 14.855 17.931 14.855h35.187c8.761 0 16.302-6.248 17.932-14.859l10.537-55.791c29.768-15.741 52.206-36.419 66.704-61.475 1.045-1.806 2.654-3.131 4.53-3.732l33.788-10.823A28.055 28.055 0 0 0 512 333.403v-34.775a28.05 28.05 0 0 0-19.556-26.798zm-71.166-88.557c-2.868 24.526-10.561 45.506-18.291 49.884-8.786 4.977-29.071 5.938-44.301-5.203-15.248-11.154-20.323-31.212-14.678-58.006v-.001c.567-2.691 2.479-5.019 5.114-6.225 37.304-17.076 58.811-22.661 66.801-22.661 1.206 0 2.104.127 2.702.361 2.4 2.558 5.548 17.099 2.653 41.851zM20.921 266.001c-.771-1.59 1.049-4.385 2.203-5.911 1.829-2.416 3.514-2.91 4.787-2.91.269 0 .52.022.75.053 3.426.457 8.226 4.227 10.769 10.548a22.624 22.624 0 0 1 1.559 7.027c-10.315-2.137-18.329-5.218-20.068-8.807z" fill="rgba(255, 255, 255, 1)" stroke="none"/>
  <path d="M237.918 98.277V71.613c9.195.657 12.611 4.86 15.763 4.86 3.941 0 5.78-4.991 5.78-7.487 0-6.437-12.611-9.195-21.543-9.458V55.98c0-1.576-1.971-3.021-3.941-3.021-2.234 0-3.81 1.445-3.81 3.021v3.809c-12.479 1.314-24.958 7.882-24.958 24.433 0 16.814 13.136 21.543 24.958 25.746v30.869c-13.399-1.051-16.945-10.246-21.28-10.246-3.284 0-6.042 4.335-6.042 7.488 0 6.436 11.034 15.237 27.322 15.5v4.072c0 1.576 1.577 3.021 3.81 3.021 1.971 0 3.941-1.445 3.941-3.021v-4.466c14.187-1.971 23.907-10.903 23.907-27.06 0-17.864-12.479-23.645-23.907-27.848zm-6.963-2.495c-6.962-2.627-12.61-5.385-12.61-12.872 0-6.831 5.254-10.115 12.61-11.034v23.906zm6.174 44.792v-27.716c6.436 2.758 11.559 6.436 11.559 14.711 0 7.489-4.466 11.692-11.559 13.005z" fill="rgba(255, 255, 255, 1)" stroke="none"/>
</svg>
</g></svg></g></g>
<!-- /image 23349 -->

<!-- image 91101 -->
<g id="transformed-91101" data-image="91101" transform="translate(87.99, 49.66) rotate(180, 10, 9.999999999999996)"><g><svg version="1.1" width="20px" height="19.999999999999993px" viewBox="0 0 20 19.999999999999993"><g id="original-91101"><svg xmlns="http://www.w3.org/2000/svg" viewBox="0 0 512.001 512.001" xmlns:xlink="http://www.w3.org/1999/xlink" version="1.1" preserveAspectRatio="xMidYMid meet">
  <path d="M341.954 328.358c-12.131 0-22-8.542-22-19.041 0-10.5 9.869-19.042 22-19.042s22 8.542 22 19.042c0 5.522 4.478 10 10 10s10-4.478 10-10c0-18.325-13.654-33.733-32-37.915v-5.201c0-5.522-4.478-10-10-10s-10 4.478-10 10v5.201c-18.346 4.182-32 19.59-32 37.915 0 21.527 18.841 39.041 42 39.041 12.131 0 22 8.542 22 19.042s-9.869 19.042-22 19.042-22-8.542-22-19.042c0-5.522-4.478-10-10-10s-10 4.478-10 10c0 18.325 13.654 33.733 32 37.915v4.32c0 5.522 4.478 10 10 10s10-4.478 10-10v-4.32c18.346-4.182 32-19.59 32-37.915 0-21.528-18.841-39.042-42-39.042z" fill="rgba(255, 255, 255, 1)" stroke="none"/>
  <path d="M451.482 268.876a130.294 130.294 0 0 0-53.222-47.101c-4.979-2.394-10.954-.298-13.346 4.68-2.393 4.978-.298 10.952 4.68 13.345C427.505 258.024 452 296.963 452 339.001c0 17.988-4.434 35.827-12.821 51.591-2.594 4.875-.745 10.931 4.131 13.525a10 10 0 0 0 13.525-4.131C466.756 381.342 472 360.253 472 339.001c0-24.96-7.095-49.209-20.518-70.125z" fill="rgba(255, 255, 255, 1)" stroke="none"/>
  <path d="M357.673 209.002l-.673-.001c-5.522 0-10 4.477-10 10s4.478 10 10 10l.579.001h.048c5.501 0 9.973-4.446 9.999-9.953.025-5.523-4.431-10.021-9.953-10.047z" fill="rgba(255, 255, 255, 1)" stroke="none"/>
  <path d="M294.407 438.202c-37.91-18.225-62.405-57.164-62.405-99.201 0-17.988 4.434-35.827 12.821-51.591 2.594-4.875.745-10.931-4.131-13.525-4.874-2.594-10.932-.745-13.525 4.131-9.921 18.645-15.165 39.733-15.165 60.985 0 24.96 7.095 49.208 20.518 70.125a130.304 130.304 0 0 0 53.222 47.102 10.002 10.002 0 0 0 8.665-18.026z" fill="rgba(255, 255, 255, 1)" stroke="none"/>
  <path d="M327.002 449.001l-.579-.002c-5.548-.01-10.02 4.429-10.045 9.953-.026 5.523 4.432 10.021 9.954 10.047l.67.002c5.522 0 10-4.478 10-10s-4.478-10-10-10z" fill="rgba(255, 255, 255, 1)" stroke="none"/>
  <path d="M387.409 175.168a45.9 45.9 0 0 0-4.443-8.168H409c25.364 0 46-20.636 46-46s-20.636-46-46-46h-80.08A45.733 45.733 0 0 0 337 49c0-25.364-20.636-46-46-46H46C20.636 3 0 23.636 0 49s20.636 46 46 46h80.08c-5.091 7.402-8.08 16.357-8.08 26s2.988 18.598 8.08 26H100c-25.364 0-46 20.636-46 46 0 14.567 6.814 27.566 17.415 36C60.814 237.434 54 250.433 54 265s6.814 27.566 17.415 36C60.814 309.434 54 322.433 54 337s6.814 27.566 17.415 36C60.814 381.434 54 394.433 54 409c0 25.364 20.636 46 46 46h117.85c31.046 33.207 75.212 54.001 124.151 54.001 93.738 0 170-76.262 170-170 0-78.017-52.83-143.918-124.592-163.833zM409 95c14.337 0 26 11.664 26 26s-11.663 26-26 26H164c-14.337 0-26-11.664-26-26s11.663-26 26-26h245zM46 75c-14.337 0-26-11.664-26-26s11.663-26 26-26h245c14.337 0 26 11.664 26 26s-11.663 26-26 26H46zm54 92h245c4.028 0 7.885.936 11.345 2.612-4.73-.397-9.512-.611-14.344-.611-46.945 0-89.505 19.129-120.299 49.999H100c-14.336 0-26-11.664-26-26s11.664-26 26-26zm0 72h104.615c-11.352 15.553-20.129 33.095-25.703 52H100c-14.337 0-26-11.663-26-26 0-14.336 11.663-26 26-26zm0 72h74.32a170.4 170.4 0 0 0-2.319 28.001c0 8.146.589 16.156 1.702 23.999H100c-14.337 0-26-11.663-26-26s11.663-26 26-26zm0 124c-14.337 0-26-11.663-26-26s11.663-26 26-26h77.786a169.33 169.33 0 0 0 23.993 52H100zm242.001 54.001c-82.71 0-150-67.29-150-150s67.29-150 150-150 150 67.29 150 150-67.29 150-150 150z" fill="rgba(255, 255, 255, 1)" stroke="none"/>
</svg>
</g></svg></g></g>
<!-- /image 91101 -->

<!-- image 46781 -->
<g id="transformed-46781" data-image="46781" transform="translate(38.99, 79.66000000000001) rotate(41, 10, 9.999999999999991)"><g><svg version="1.1" width="20px" height="19.999999999999982px" viewBox="0 0 20 19.999999999999982"><g id="original-46781"><svg xmlns="http://www.w3.org/2000/svg" viewBox="0 0 58 58" xmlns:xlink="http://www.w3.org/1999/xlink" version="1.1" preserveAspectRatio="xMidYMid meet">
  <path d="M36 4.5H0v49h58v-49H36zm-2 2v30H24v-30h10zm2.784 5.896c.256.218.498.447.733.683.118.119.236.236.349.359.212.232.409.475.601.721.113.145.228.287.334.437.169.238.32.487.471.736.103.171.211.34.306.516.131.244.242.498.356.75.086.192.18.381.256.577.1.259.178.527.26.794.061.199.133.394.184.597.076.302.125.611.177.92.03.175.073.347.095.524.06.49.094.987.094 1.49s-.034 1-.094 1.49c-.022.177-.065.348-.095.524-.052.309-.101.619-.177.921-.051.202-.122.397-.184.596-.082.267-.16.535-.26.794-.076.197-.17.385-.256.577-.114.253-.225.506-.356.75-.094.176-.203.344-.306.516-.15.249-.302.498-.471.736-.106.15-.221.292-.334.437-.192.247-.389.49-.601.722-.112.123-.23.24-.348.358-.235.236-.478.466-.733.684-.12.102-.244.201-.368.298-.134.105-.277.2-.416.3V11.797c.139.1.283.195.416.3.124.098.247.196.367.299zm2.003-.896h6.231a6.511 6.511 0 0 0 5.981 5.981v8.038a6.51 6.51 0 0 0-5.981 5.981h-6.231l.012-.012c.315-.308.613-.629.896-.963l.061-.071c.279-.334.542-.679.788-1.037.033-.047.062-.096.094-.144.201-.301.39-.61.567-.925.046-.082.094-.163.138-.246.19-.355.367-.716.525-1.086.033-.077.061-.156.092-.234a13.8 13.8 0 0 0 .341-.931c.037-.113.074-.225.108-.338.115-.383.217-.771.299-1.166.012-.058.019-.117.031-.176a14.102 14.102 0 0 0 .197-1.41c.038-.417.064-.837.064-1.261a14.21 14.21 0 0 0-.098-1.599c-.041-.36-.094-.718-.162-1.071-.011-.058-.019-.118-.031-.176a13.926 13.926 0 0 0-.299-1.166c-.034-.114-.071-.226-.108-.338a13.8 13.8 0 0 0-.341-.931c-.032-.078-.059-.157-.092-.234-.159-.37-.336-.732-.525-1.086-.044-.083-.092-.164-.138-.246a13.87 13.87 0 0 0-.567-.925c-.032-.048-.062-.097-.094-.144a14.077 14.077 0 0 0-.788-1.037l-.061-.071a13.799 13.799 0 0 0-.909-.976zM21.216 30.604a11.598 11.598 0 0 1-.733-.684c-.117-.118-.236-.235-.348-.358a11.786 11.786 0 0 1-.601-.722c-.113-.145-.228-.287-.334-.437-.169-.238-.32-.487-.471-.736-.103-.171-.211-.34-.306-.516-.131-.244-.242-.498-.356-.75-.086-.192-.18-.381-.256-.577-.1-.259-.178-.528-.26-.794-.061-.199-.133-.394-.184-.596-.076-.302-.125-.612-.177-.921-.03-.175-.073-.346-.095-.524C17.034 22.5 17 22.003 17 21.5s.034-1 .094-1.49c.022-.177.065-.349.095-.524.052-.309.101-.619.177-.92.051-.203.122-.398.184-.597.082-.266.16-.535.26-.794.076-.197.17-.385.256-.577.114-.253.225-.506.356-.75.094-.176.203-.344.306-.516.15-.249.302-.498.471-.736.106-.15.221-.292.334-.437.192-.246.389-.489.601-.721.112-.123.231-.24.349-.359.235-.236.477-.465.733-.683.12-.102.244-.201.368-.298.134-.105.277-.2.416-.3v19.405c-.139-.1-.283-.195-.416-.3a10.656 10.656 0 0 1-.368-.299zm-2.003.896h-6.231a6.511 6.511 0 0 0-5.981-5.981v-8.038a6.51 6.51 0 0 0 5.981-5.981h6.231l-.012.012c-.315.308-.613.629-.896.963l-.061.071c-.279.334-.542.679-.788 1.037-.033.047-.062.096-.094.144-.201.301-.39.61-.567.925-.046.082-.094.163-.138.246-.19.355-.367.716-.525 1.086-.033.077-.061.156-.092.234a13.8 13.8 0 0 0-.341.931c-.037.113-.074.225-.108.338-.115.383-.217.771-.299 1.166-.012.058-.019.117-.031.176a14.102 14.102 0 0 0-.197 1.41c-.038.417-.064.837-.064 1.261a14.21 14.21 0 0 0 .098 1.599c.041.36.094.718.162 1.071.011.058.019.118.031.176a13.926 13.926 0 0 0 .407 1.504c.103.315.216.625.341.931.032.078.059.157.092.234.159.37.336.732.525 1.086.044.083.092.164.138.246.177.316.366.624.567.925.032.048.062.097.094.144.246.357.509.703.788 1.037l.061.071c.283.334.581.656.896.963l.013.013zM2 6.5h20v2.891c-.064.037-.129.071-.192.109h-9.834a.999.999 0 0 0-.996 1.089c.012.135.022.272.022.411 0 2.481-2.019 4.5-4.5 4.5-.138 0-.273-.009-.408-.021A.997.997 0 0 0 5 16.475v10.051a1 1 0 0 0 1.092.996c.135-.013.27-.022.408-.022 2.481 0 4.5 2.019 4.5 4.5 0 .139-.01.276-.021.412a1.003 1.003 0 0 0 .996 1.089h9.834c.063.038.128.072.192.109v2.89H2v-30zm0 32h20v1H2v-1zm0 3h20v1H2v-1zm0 3h20v1H2v-1zm0 3h20v1H2v-1zm20 4H2v-1h20v1zm12 0H24v-13h10v13zm22 0H36v-1h20v1zm0-3H36v-1h20v1zm0-3H36v-1h20v1zm0-3H36v-1h20v1zm0-3H36v-1h20v1zm-20-3v-2.891c.064-.037.129-.071.192-.109h9.834a.999.999 0 0 0 .996-1.089A4.632 4.632 0 0 1 47 32c0-2.481 2.019-4.5 4.5-4.5.138 0 .273.009.408.021A.997.997 0 0 0 53 26.525v-10.05a1 1 0 0 0-1.092-.996c-.135.012-.27.021-.408.021A4.505 4.505 0 0 1 47 11c0-.139.01-.276.021-.412a1.003 1.003 0 0 0-.996-1.088h-9.834c-.062-.038-.127-.072-.191-.109V6.5h20v30H36z" fill="rgba(255, 255, 255, 1)" stroke="none"/>
  <path d="M6.5 14.5c1.93 0 3.5-1.57 3.5-3.5S8.43 7.5 6.5 7.5 3 9.07 3 11s1.57 3.5 3.5 3.5zm0-5c.827 0 1.5.673 1.5 1.5s-.673 1.5-1.5 1.5S5 11.827 5 11s.673-1.5 1.5-1.5z" fill="rgba(255, 255, 255, 1)" stroke="none"/>
  <path d="M51.5 7.5C49.57 7.5 48 9.07 48 11s1.57 3.5 3.5 3.5S55 12.93 55 11s-1.57-3.5-3.5-3.5zm0 5c-.827 0-1.5-.673-1.5-1.5s.673-1.5 1.5-1.5 1.5.673 1.5 1.5-.673 1.5-1.5 1.5z" fill="rgba(255, 255, 255, 1)" stroke="none"/>
  <path d="M6.5 28.5C4.57 28.5 3 30.07 3 32s1.57 3.5 3.5 3.5S10 33.93 10 32s-1.57-3.5-3.5-3.5zm0 5c-.827 0-1.5-.673-1.5-1.5s.673-1.5 1.5-1.5S8 31.173 8 32s-.673 1.5-1.5 1.5z" fill="rgba(255, 255, 255, 1)" stroke="none"/>
  <path d="M51.5 28.5c-1.93 0-3.5 1.57-3.5 3.5s1.57 3.5 3.5 3.5S55 33.93 55 32s-1.57-3.5-3.5-3.5zm0 5c-.827 0-1.5-.673-1.5-1.5s.673-1.5 1.5-1.5 1.5.673 1.5 1.5-.673 1.5-1.5 1.5z" fill="rgba(255, 255, 255, 1)" stroke="none"/>
</svg>
</g></svg></g></g>
<!-- /image 46781 -->
</defs><rect x="0" y="0" width="100" height="100" fill="rgba(230, 232, 249, 1)"></rect><use xlink:href="#transformed-23349" transform="translate(-100, -100)"></use><use xlink:href="#transformed-23349" transform="translate(0, -100)"></use><use xlink:href="#transformed-23349" transform="translate(100, -100)"></use><use xlink:href="#transformed-23349" transform="translate(-100, 0)"></use><use xlink:href="#transformed-23349" transform="translate(0, 0)"></use><use xlink:href="#transformed-23349" transform="translate(100, 0)"></use><use xlink:href="#transformed-23349" transform="translate(-100, 100)"></use><use xlink:href="#transformed-23349" transform="translate(0, 100)"></use><use xlink:href="#transformed-23349" transform="translate(100, 100)"></use><use xlink:href="#transformed-91101" transform="translate(-100, -100)"></use><use xlink:href="#transformed-91101" transform="translate(0, -100)"></use><use xlink:href="#transformed-91101" transform="translate(100, -100)"></use><use xlink:href="#transformed-91101" transform="translate(-100, 0)"></use><use xlink:href="#transformed-91101" transform="translate(0, 0)"></use><use xlink:href="#transformed-91101" transform="translate(100, 0)"></use><use xlink:href="#transformed-91101" transform="translate(-100, 100)"></use><use xlink:href="#transformed-91101" transform="translate(0, 100)"></use><use xlink:href="#transformed-91101" transform="translate(100, 100)"></use><use xlink:href="#transformed-46781" transform="translate(-100, -100)"></use><use xlink:href="#transformed-46781" transform="translate(0, -100)"></use><use xlink:href="#transformed-46781" transform="translate(100, -100)"></use><use xlink:href="#transformed-46781" transform="translate(-100, 0)"></use><use xlink:href="#transformed-46781" transform="translate(0, 0)"></use><use xlink:href="#transformed-46781" transform="translate(100, 0)"></use><use xlink:href="#transformed-46781" transform="translate(-100, 100)"></use><use xlink:href="#transformed-46781" transform="translate(0, 100)"></use><use xlink:href="#transformed-46781" transform="translate(100, 100)"></use></svg>