<svg version="1.1"
      xmlns="http://www.w3.org/2000/svg"
      xmlns:xlink="http://www.w3.org/1999/xlink"  id="snapshot-53478" width="100" height="100" viewBox="0 0 100 100"><desc>This image was made on Patterninja.com</desc><defs>
<!-- image 32698 -->
<g id="transformed-32698" data-image="32698" transform="translate(31.32, 66.32) rotate(355, 10, 10)"><g><svg version="1.1" width="20px" height="20px" viewBox="0 0 20 20"><g id="original-32698"><svg xmlns="http://www.w3.org/2000/svg" viewBox="0 0 34 34" xmlns:xlink="http://www.w3.org/1999/xlink" version="1.1" preserveAspectRatio="xMidYMid meet">
  <path d="M27.91 2H27V1a1 1 0 1 0-2 0v1h-7V1a1 1 0 1 0-2 0v1H9V1a1 1 0 1 0-2 0v1h-.91A5.095 5.095 0 0 0 1 7.09v21.82A5.095 5.095 0 0 0 6.09 34h21.82A5.095 5.095 0 0 0 33 28.91V7.09A5.095 5.095 0 0 0 27.91 2zM31 28.91A3.094 3.094 0 0 1 27.91 32H6.09A3.093 3.093 0 0 1 3 28.91V12h28v16.91zM31 10H3V7.09A3.093 3.093 0 0 1 6.09 4H7v3a1 1 0 1 0 2 0V4h7v3a1 1 0 1 0 2 0V4h7v3a1 1 0 1 0 2 0V4h.91A3.094 3.094 0 0 1 31 7.09V10z" fill="rgba(255, 255, 255, 1)" stroke="none"/>
  <path d="M29.18 24.037h-3.571v-1.238h3.181v-1.308h-3.181v-1.136h3.481V19h-5.173v6.491h5.263z" fill="rgba(255, 255, 255, 1)" stroke="none"/>
  <path d="M18.754 21.443h.019l2.254 4.048h1.737V19h-1.591v4h-.019L18.9 19h-1.736v6.491h1.59z" fill="rgba(255, 255, 255, 1)" stroke="none"/>
  <path d="M13.229 25.627c.981 0 1.698-.234 2.149-.704s.677-1.175.677-2.112V19h-1.69v3.909c0 .419-.085.731-.255.944-.169.213-.463.318-.88.318-.419 0-.712-.105-.882-.318s-.254-.525-.254-.944V19h-1.691v3.811c0 .938.226 1.644.677 2.112.451.47 1.167.704 2.149.704z" fill="rgba(255, 255, 255, 1)" stroke="none"/>
  <path d="M5.221 24.949c.175.215.408.381.7.5.291.117.651.178 1.082.178 1.515 0 2.272-.729 2.272-2.191V19H7.584v4.328c0 .312-.052.533-.158.656-.106.125-.257.188-.45.188-.212 0-.375-.059-.486-.175-.112-.112-.169-.277-.169-.489v-.6h-1.59v.282c0 .36.037.693.113.988.074.301.2.556.377.771z" fill="rgba(255, 255, 255, 1)" stroke="none"/>
</svg>
</g></svg></g></g>
<!-- /image 32698 -->

<!-- image 27299 -->
<g id="transformed-27299" data-image="27299" transform="translate(73.33, -6.34) rotate(344, 9.999999999999996, 10)"><g><svg version="1.1" width="19.999999999999993px" height="20px" viewBox="0 0 19.999999999999993 20"><g id="original-27299"><svg xmlns="http://www.w3.org/2000/svg" viewBox="0 0 512 512" xmlns:xlink="http://www.w3.org/1999/xlink" version="1.1" preserveAspectRatio="xMidYMid meet">
  <path d="M472 0H40C17.92.026.026 17.92 0 40v432c.026 22.08 17.92 39.974 40 40h432c22.08-.026 39.974-17.92 40-40V40c-.026-22.08-17.92-39.974-40-40zm24 472c0 13.255-10.745 24-24 24H40c-13.255 0-24-10.745-24-24V40c0-13.255 10.745-24 24-24h432c13.255 0 24 10.745 24 24v432z" fill="rgba(255, 255, 255, 1)" stroke="none"/>
  <path d="M56 40a14.654 14.654 0 0 0-.663 0c-8.653.183-15.52 7.347-15.337 16v32h16V56h40V40H56z" fill="rgba(255, 255, 255, 1)" stroke="none"/>
  <path d="M424 80H88a8 8 0 0 0-8 8v96a8 8 0 0 0 8 8h336a8 8 0 0 0 8-8V88a8 8 0 0 0-8-8zm-8 96H96V96h320v80z" fill="rgba(255, 255, 255, 1)" stroke="none"/>
  <path d="M216 216H88a8 8 0 0 0-8 8v128a8 8 0 0 0 8 8h128a8 8 0 0 0 8-8V224a8 8 0 0 0-8-8zM96 344V243.312L196.688 344H96zm112-11.315L107.315 232H208v100.685z" fill="rgba(255, 255, 255, 1)" stroke="none"/>
  <path d="M424 216H248a8 8 0 0 0-8 8v48a8 8 0 0 0 8 8h176a8 8 0 0 0 8-8v-48a8 8 0 0 0-8-8zm-8 48H256v-32h160v32z" fill="rgba(255, 255, 255, 1)" stroke="none"/>
  <path d="M240 304h192v16H240z" fill="rgba(255, 255, 255, 1)" stroke="none"/>
  <path d="M240 344h192v16H240z" fill="rgba(255, 255, 255, 1)" stroke="none"/>
  <path d="M144 384h288v16H144z" fill="rgba(255, 255, 255, 1)" stroke="none"/>
  <path d="M80 424h288v16H80z" fill="rgba(255, 255, 255, 1)" stroke="none"/>
  <path d="M80 384h16v16H80z" fill="rgba(255, 255, 255, 1)" stroke="none"/>
  <path d="M112 384h16v16h-16z" fill="rgba(255, 255, 255, 1)" stroke="none"/>
</svg>
</g></svg></g></g>
<!-- /image 27299 -->

<!-- image 01442 -->
<g id="transformed-01442" data-image="01442" transform="translate(39.98, 25.33) rotate(355, 9.999999999999998, 10)"><g><svg version="1.1" width="19.999999999999996px" height="20px" viewBox="0 0 19.999999999999996 20"><g id="original-01442"><svg xmlns="http://www.w3.org/2000/svg" viewBox="0 0 512 512" xmlns:xlink="http://www.w3.org/1999/xlink" version="1.1" preserveAspectRatio="xMidYMid meet">
  <path d="M239.51 344.449a7.503 7.503 0 0 0-7.503 7.503v144.981H15.126V156.024a7.503 7.503 0 0 0-15.006 0v348.412a7.503 7.503 0 0 0 7.503 7.503H239.51a7.503 7.503 0 0 0 7.503-7.503V351.952a7.503 7.503 0 0 0-7.503-7.503z" fill="rgba(255, 255, 255, 1)" stroke="none"/>
  <path d="M239.51 0H7.623A7.502 7.502 0 0 0 .121 7.503v118.511a7.503 7.503 0 1 0 15.006 0V15.005h216.882v306.937a7.503 7.503 0 1 0 15.006 0V7.503A7.506 7.506 0 0 0 239.51 0z" fill="rgba(255, 255, 255, 1)" stroke="none"/>
  <path d="M504.377 145.534a7.503 7.503 0 0 0 7.503-7.502V7.503A7.503 7.503 0 0 0 504.377 0H272.49a7.503 7.503 0 0 0-7.503 7.503v277.759a7.503 7.503 0 0 0 7.503 7.503h231.887a7.503 7.503 0 0 0 7.503-7.503v-117.22a7.503 7.503 0 1 0-15.005 0v109.717H279.992V15.005h216.882v123.027a7.504 7.504 0 0 0 7.503 7.502z" fill="rgba(255, 255, 255, 1)" stroke="none"/>
  <path d="M503.774 310.46H271.886a7.503 7.503 0 0 0-7.503 7.503v186.535a7.503 7.503 0 0 0 7.503 7.503h231.888a7.502 7.502 0 0 0 7.502-7.503V317.963a7.502 7.502 0 0 0-7.502-7.503zm-7.503 186.535H279.388v-171.53h216.883v171.53z" fill="rgba(255, 255, 255, 1)" stroke="none"/>
  <path d="M387.829 333.979c-42.596 0-77.251 34.654-77.251 77.251.001 42.596 34.655 77.251 77.251 77.251s77.251-34.654 77.251-77.251-34.655-77.251-77.251-77.251zm0 139.497c-34.322 0-62.246-27.923-62.246-62.246.001-34.322 27.924-62.246 62.246-62.246s62.246 27.923 62.246 62.246c0 34.322-27.923 62.246-62.246 62.246z" fill="rgba(255, 255, 255, 1)" stroke="none"/>
  <path d="M475.616 145.143V51.849a7.503 7.503 0 0 0-7.502-7.503H308.753a7.503 7.503 0 0 0-7.503 7.503v110.256a7.503 7.503 0 0 0 7.503 7.503h159.362a7.503 7.503 0 0 0 7.502-7.503l-.001-16.962zM316.257 59.352h144.355v69.043l-42.083-37.549a7.502 7.502 0 0 0-9.989 0l-27.486 24.525-19.509-17.408a7.502 7.502 0 0 0-9.989 0l-35.298 31.495V59.352zm-.002 95.25v-5.037l40.292-35.951 19.504 17.403.005.005 26.428 23.58h-86.229zm144.357 0h-35.59l-32.701-29.179 21.212-18.927 47.079 42.006v6.1z" fill="rgba(255, 255, 255, 1)" stroke="none"/>
  <path d="M381.474 62.075c-11.088 0-20.108 9.02-20.108 20.107s9.02 20.107 20.108 20.107c11.087 0 20.107-9.02 20.107-20.107s-9.02-20.107-20.107-20.107zm0 25.208c-2.814 0-5.103-2.289-5.103-5.102s2.289-5.102 5.103-5.102c2.813 0 5.102 2.289 5.102 5.102s-2.289 5.102-5.102 5.102z" fill="rgba(255, 255, 255, 1)" stroke="none"/>
  <path d="M410.916 403.727h-15.584v-15.585a7.503 7.503 0 1 0-15.006 0v15.585h-15.584a7.503 7.503 0 1 0 0 15.005h15.584v15.584a7.503 7.503 0 1 0 15.006 0v-15.584h15.584a7.503 7.503 0 1 0 0-15.005z" fill="rgba(255, 255, 255, 1)" stroke="none"/>
  <path d="M468.114 189.297H308.753a7.503 7.503 0 1 0 0 15.005h159.362a7.502 7.502 0 1 0-.001-15.005z" fill="rgba(255, 255, 255, 1)" stroke="none"/>
  <path d="M468.114 227.411H308.753c-4.144 0-7.503 3.359-7.503 7.503s3.358 7.503 7.503 7.503h159.362a7.503 7.503 0 0 0-.001-15.006z" fill="rgba(255, 255, 255, 1)" stroke="none"/>
  <path d="M203.247 206.985H43.886c-4.143 0-7.502 3.359-7.502 7.503s3.358 7.503 7.502 7.503h159.361c4.144 0 7.502-3.359 7.502-7.503s-3.358-7.503-7.502-7.503z" fill="rgba(255, 255, 255, 1)" stroke="none"/>
  <path d="M203.247 245.098H43.886c-4.144 0-7.502 3.359-7.502 7.503s3.359 7.503 7.502 7.503h159.361c4.144 0 7.502-3.359 7.502-7.503s-3.358-7.503-7.502-7.503z" fill="rgba(255, 255, 255, 1)" stroke="none"/>
  <path d="M203.247 283.212H43.886c-4.144 0-7.502 3.359-7.502 7.503s3.359 7.503 7.502 7.503h159.361c4.144 0 7.502-3.359 7.502-7.503s-3.358-7.503-7.502-7.503z" fill="rgba(255, 255, 255, 1)" stroke="none"/>
  <path d="M203.247 321.326H43.886c-4.144 0-7.502 3.359-7.502 7.503s3.359 7.503 7.502 7.503h159.361c4.144 0 7.502-3.359 7.502-7.503s-3.358-7.503-7.502-7.503z" fill="rgba(255, 255, 255, 1)" stroke="none"/>
  <path d="M203.247 359.439H43.886c-4.144 0-7.502 3.359-7.502 7.503s3.359 7.503 7.502 7.503h159.361c4.144 0 7.502-3.359 7.502-7.503s-3.358-7.503-7.502-7.503z" fill="rgba(255, 255, 255, 1)" stroke="none"/>
  <path d="M203.247 397.553H43.886c-4.144 0-7.502 3.359-7.502 7.503s3.359 7.503 7.502 7.503h159.361c4.144 0 7.502-3.359 7.502-7.503s-3.358-7.503-7.502-7.503z" fill="rgba(255, 255, 255, 1)" stroke="none"/>
  <path d="M203.247 435.667H43.886a7.503 7.503 0 0 0 0 15.005h159.361c4.144 0 7.502-3.359 7.502-7.503s-3.358-7.502-7.502-7.502z" fill="rgba(255, 255, 255, 1)" stroke="none"/>
  <path d="M179.302 62.034H67.831a7.502 7.502 0 0 0-7.502 7.502v17.728a7.503 7.503 0 1 0 15.005 0V77.039h40.731v88.925h-14.83a7.503 7.503 0 1 0 0 15.005H145.9c4.144 0 7.502-3.359 7.502-7.503s-3.358-7.502-7.502-7.502h-14.831V77.039h40.732v10.225a7.502 7.502 0 1 0 15.004 0V69.536a7.503 7.503 0 0 0-7.503-7.502z" fill="rgba(255, 255, 255, 1)" stroke="none"/>
</svg>
</g></svg></g></g>
<!-- /image 01442 -->
</defs><rect x="0" y="0" width="100" height="100" fill="rgba(230, 232, 249, 1)"></rect><use xlink:href="#transformed-32698" transform="translate(-100, -100)"></use><use xlink:href="#transformed-32698" transform="translate(0, -100)"></use><use xlink:href="#transformed-32698" transform="translate(100, -100)"></use><use xlink:href="#transformed-32698" transform="translate(-100, 0)"></use><use xlink:href="#transformed-32698" transform="translate(0, 0)"></use><use xlink:href="#transformed-32698" transform="translate(100, 0)"></use><use xlink:href="#transformed-32698" transform="translate(-100, 100)"></use><use xlink:href="#transformed-32698" transform="translate(0, 100)"></use><use xlink:href="#transformed-32698" transform="translate(100, 100)"></use><use xlink:href="#transformed-27299" transform="translate(-100, -100)"></use><use xlink:href="#transformed-27299" transform="translate(0, -100)"></use><use xlink:href="#transformed-27299" transform="translate(100, -100)"></use><use xlink:href="#transformed-27299" transform="translate(-100, 0)"></use><use xlink:href="#transformed-27299" transform="translate(0, 0)"></use><use xlink:href="#transformed-27299" transform="translate(100, 0)"></use><use xlink:href="#transformed-27299" transform="translate(-100, 100)"></use><use xlink:href="#transformed-27299" transform="translate(0, 100)"></use><use xlink:href="#transformed-27299" transform="translate(100, 100)"></use><use xlink:href="#transformed-01442" transform="translate(-100, -100)"></use><use xlink:href="#transformed-01442" transform="translate(0, -100)"></use><use xlink:href="#transformed-01442" transform="translate(100, -100)"></use><use xlink:href="#transformed-01442" transform="translate(-100, 0)"></use><use xlink:href="#transformed-01442" transform="translate(0, 0)"></use><use xlink:href="#transformed-01442" transform="translate(100, 0)"></use><use xlink:href="#transformed-01442" transform="translate(-100, 100)"></use><use xlink:href="#transformed-01442" transform="translate(0, 100)"></use><use xlink:href="#transformed-01442" transform="translate(100, 100)"></use></svg>