<svg version="1.1"
      xmlns="http://www.w3.org/2000/svg"
      xmlns:xlink="http://www.w3.org/1999/xlink"  id="snapshot-38543" width="100" height="100" viewBox="0 0 100 100"><desc>This image was made on Patterninja.com</desc><defs>
<!-- image 34156 -->
<g id="transformed-34156" data-image="34156" transform="translate(-10, -9.5) rotate(4, 10, 9.5)"><g><svg version="1.1" width="20px" height="19px" viewBox="0 0 20 19"><g id="original-34156"><svg xmlns="http://www.w3.org/2000/svg" viewBox="0 0 470 470" xmlns:xlink="http://www.w3.org/1999/xlink" version="1.1" preserveAspectRatio="xMidYMid meet">
  <path d="M468.992 231.244c-23.328-40.325-56.873-74.146-97.008-97.806-39.208-23.112-83.824-35.886-129.484-37.149V45c0-4.143-3.357-7.5-7.5-7.5a7.5 7.5 0 0 0-7.5 7.5v51.289c-45.66 1.263-90.276 14.037-129.484 37.149-40.135 23.66-73.68 57.48-97.008 97.806a7.502 7.502 0 0 0 0 7.512c23.328 40.325 56.873 74.146 97.008 97.806 39.208 23.113 83.825 35.886 129.484 37.149V425a7.5 7.5 0 0 0 7.5 7.5c4.143 0 7.5-3.357 7.5-7.5v-51.289c45.66-1.263 90.276-14.037 129.484-37.149 40.135-23.66 73.68-57.48 97.008-97.806a7.502 7.502 0 0 0 0-7.512zM242.5 242.5h54.534c-3.423 28.476-26.058 51.111-54.534 54.534V242.5zm-15 54.534c-28.476-3.423-51.111-26.058-54.534-54.534H227.5v54.534zM172.966 227.5c3.423-28.476 26.058-51.111 54.534-54.534V227.5h-54.534zm54.534-69.631c-36.758 3.547-66.083 32.873-69.631 69.631h-45.133c3.739-61.585 53.179-111.025 114.764-114.764v45.133zM157.869 242.5c3.547 36.757 32.873 66.083 69.631 69.631v45.133c-61.585-3.739-111.025-53.179-114.764-114.764h45.133zm84.631 69.631c36.757-3.547 66.083-32.873 69.631-69.631h45.133c-3.739 61.585-53.179 111.025-114.764 114.764v-45.133zm69.628-84.631a77.185 77.185 0 0 0-11.87-34.282 7.498 7.498 0 0 0-10.362-2.263 7.5 7.5 0 0 0-2.263 10.362 62.218 62.218 0 0 1 9.409 26.183H242.5v-54.541a62.216 62.216 0 0 1 26.183 9.408 7.5 7.5 0 1 0 8.099-12.625 77.173 77.173 0 0 0-34.282-11.87v-45.136c61.585 3.739 111.025 53.179 114.764 114.764h-45.136zM16.208 235c31.409-52.208 80.246-90.824 136.496-110.086-31.619 23.697-52.732 60.677-54.997 102.586H45c-4.142 0-7.5 3.357-7.5 7.5s3.358 7.5 7.5 7.5h52.707c2.264 41.909 23.378 78.889 54.997 102.586C96.454 325.824 47.617 287.208 16.208 235zm301.088 110.086c31.619-23.697 52.733-60.677 54.997-102.586H425c4.143 0 7.5-3.357 7.5-7.5s-3.357-7.5-7.5-7.5h-52.707c-2.264-41.909-23.378-78.889-54.997-102.586 56.25 19.262 105.087 57.878 136.496 110.086-31.409 52.208-80.246 90.825-136.496 110.086z" fill="rgba(255, 255, 255, 1)" stroke="none"/>
  <path d="M75 127.5a7.5 7.5 0 0 0 7.5-7.5V82.5H120c4.142 0 7.5-3.357 7.5-7.5s-3.358-7.5-7.5-7.5H75a7.5 7.5 0 0 0-7.5 7.5v45a7.5 7.5 0 0 0 7.5 7.5z" fill="rgba(255, 255, 255, 1)" stroke="none"/>
  <path d="M350 82.5h37.5V120c0 4.143 3.357 7.5 7.5 7.5s7.5-3.357 7.5-7.5V75c0-4.143-3.357-7.5-7.5-7.5h-45c-4.143 0-7.5 3.357-7.5 7.5s3.357 7.5 7.5 7.5z" fill="rgba(255, 255, 255, 1)" stroke="none"/>
  <path d="M120 387.5H82.5V350c0-4.143-3.358-7.5-7.5-7.5s-7.5 3.357-7.5 7.5v45a7.5 7.5 0 0 0 7.5 7.5h45c4.142 0 7.5-3.357 7.5-7.5s-3.358-7.5-7.5-7.5z" fill="rgba(255, 255, 255, 1)" stroke="none"/>
  <path d="M395 342.5a7.499 7.499 0 0 0-7.5 7.5v37.5H350c-4.143 0-7.5 3.357-7.5 7.5s3.357 7.5 7.5 7.5h45c4.143 0 7.5-3.357 7.5-7.5v-45c0-4.143-3.357-7.5-7.5-7.5z" fill="rgba(255, 255, 255, 1)" stroke="none"/>
</svg>
</g></svg></g></g>
<!-- /image 34156 -->

<!-- image 65631 -->
<g id="transformed-65631" data-image="65631" transform="translate(39, 58) rotate(0, 10, 10)"><g><svg version="1.1" width="20px" height="20px" viewBox="0 0 20 20"><g id="original-65631"><svg xmlns="http://www.w3.org/2000/svg" viewBox="0 0 487.867 487.867" xmlns:xlink="http://www.w3.org/1999/xlink" version="1.1" preserveAspectRatio="xMidYMid meet">
  <path d="M486.005 89.187a5.003 5.003 0 0 0-4.199-.994l-15.66 3.401V60.503a5 5 0 0 0-6.813-4.66l-25.77 10.021V38.782a4.998 4.998 0 0 0-7.493-4.334L243.934 139.201 61.797 34.448a5 5 0 0 0-7.493 4.334v27.082l-25.77-10.021a5.002 5.002 0 0 0-6.813 4.66v31.091l-15.66-3.401A5 5 0 0 0 0 93.079v304.116a5 5 0 0 0 3.938 4.886l238.934 51.89.03.005c.027.006.055.008.082.013.314.06.632.096.949.096s.636-.035.949-.096l.082-.013.03-.005 238.934-51.89a5 5 0 0 0 3.938-4.886V93.079a4.993 4.993 0 0 0-1.861-3.892zm-29.859 4.579l-151.163 32.829 151.163-58.782v25.953zm-32.583-24.013l-119.861 46.61 119.861-68.937v22.327zM64.304 47.426l119.861 68.937-119.861-46.61V47.426zM31.722 67.812l151.163 58.782L31.722 93.766V67.812zm446.145 325.352l-228.934 49.718v-10.854a5 5 0 1 0-10 0v10.854L10 393.164V99.282L238.934 149v253.009a5 5 0 1 0 10 0V149l228.934-49.718v293.882zM274.908 265.233a5 5 0 0 0 4.168 1.022l170.666-35.145a5.001 5.001 0 0 0 3.991-4.897v-85.335a4.998 4.998 0 0 0-6.009-4.897l-170.666 35.145a5.001 5.001 0 0 0-3.991 4.897v85.335c0 1.503.676 2.926 1.841 3.875zm8.159-85.135l160.666-33.085v75.125l-160.666 33.085v-75.125z" fill="rgba(255, 255, 255, 1)" stroke="none"/>
</svg>
</g></svg></g></g>
<!-- /image 65631 -->

<!-- image 04121 -->
<g id="transformed-04121" data-image="04121" transform="translate(59, 11.5) rotate(24, 10, 9.5)"><g><svg version="1.1" width="20px" height="19px" viewBox="0 0 20 19"><g id="original-04121"><svg xmlns="http://www.w3.org/2000/svg" viewBox="0 0 511.031 511.031" xmlns:xlink="http://www.w3.org/1999/xlink" version="1.1" preserveAspectRatio="xMidYMid meet">
  <path d="M479.804 389.848c-10.718-15.699-25.664-26.598-43.22-31.516a7.474 7.474 0 0 0-.646-.151L361.652 344.3l-24.997-33.11a145.792 145.792 0 0 0 3.899-4.63c22.02-27.328 34.649-63.492 34.649-99.218v-32.144c23.486-74.5 14.799-137.362 7.176-154.688-.011-.025-.025-.048-.037-.073a7.354 7.354 0 0 0-.218-.435c-.043-.081-.084-.164-.13-.243a7.536 7.536 0 0 0-.229-.36c-.061-.093-.121-.188-.186-.277-.067-.092-.14-.179-.211-.268-.085-.106-.169-.214-.259-.315-.059-.066-.123-.128-.185-.193-.108-.112-.215-.225-.329-.33-.057-.053-.119-.101-.178-.152a7.902 7.902 0 0 0-.375-.31c-.068-.052-.141-.098-.211-.148-.124-.087-.247-.175-.375-.254-.094-.058-.192-.109-.289-.163-.109-.061-.217-.125-.329-.18-.122-.061-.249-.113-.375-.167-.092-.039-.182-.082-.276-.118-.141-.054-.285-.098-.429-.144-.085-.027-.168-.057-.254-.081-.141-.039-.285-.068-.428-.099-.096-.021-.19-.044-.287-.061-.127-.022-.255-.035-.383-.051-.119-.014-.238-.031-.358-.039-.105-.007-.212-.008-.318-.011-.147-.004-.293-.008-.441-.004-.088.003-.176.011-.264.017-.165.011-.33.024-.495.046-.026.003-.052.003-.079.007-20.146 2.878-44.476-2.007-70.233-7.179-43.089-8.653-87.614-17.569-122.302 7.311a7.487 7.487 0 0 0-1.725-.207c-35.433 0-60.18 29.402-60.18 71.5 0 32.791 13.838 94.085 15.747 102.381v17.366c0 35.717 12.671 71.895 34.765 99.256a145.741 145.741 0 0 0 3.886 4.605l-25.035 33.16-74.286 13.882a7.561 7.561 0 0 0-.646.151c-17.557 4.918-32.502 15.817-43.22 31.516-9.809 14.368-15.211 31.708-15.211 48.825v43.841c0 15.724 14.131 28.516 31.5 28.516h416c17.369 0 31.5-12.792 31.5-28.516v-43.841c.004-17.115-5.398-34.454-15.207-48.823zm-330.142-30.341l44.342 65.453c-16.945-13.92-36.301-34.077-56.239-63.23l11.897-2.223zm105.853 20.812l-31.058-34.508c10.074 3.437 20.522 5.22 31.137 5.22 10.54 0 20.912-1.758 30.914-5.148l-30.993 34.436zm0 20.842l18.917 15.239c-9.585 5.034-16.402 6.912-18.912 7.486-2.546-.581-9.358-2.463-18.922-7.486l18.917-15.239zm-36.183 29.15l4.663-3.757c17.899 10.501 29.918 12.323 30.46 12.401a7.539 7.539 0 0 0 2.122 0c.543-.078 12.561-1.9 30.46-12.401l4.663 3.757a15.44 15.44 0 0 0 12.095 4.145c.322-.031.635-.094.952-.144-24.573 17.246-42.039 20.769-45.259 21.295l-3.972.649-3.972-.649c-3.22-.526-20.686-4.049-45.259-21.295.317.05.63.113.952.144a15.442 15.442 0 0 0 12.095-4.145zm142.037-70.804l11.897 2.223c-19.939 29.153-39.295 49.311-56.241 63.231l44.344-65.454zm-58.631 59.799c-.04.059-.132.195-.366.217-.24.021-.351-.095-.401-.144a7.248 7.248 0 0 0-.598-.537l-34.983-28.183 60.619-67.354 21.486 28.461-45.757 67.54zm.777-251.275c-14.809 0-27.733 8.196-34.495 20.286a23.361 23.361 0 0 0-13.505-4.286c-5.024 0-9.681 1.59-13.505 4.286-6.761-12.09-19.686-20.286-34.495-20.286-16.281 0-30.29 9.903-36.328 24h-20.194c2-27.934 16.563-62.395 21.582-73.561 55.501-6.559 99.713-.047 127.269 6.69 24.343 5.951 40.242 13.087 45.82 15.809l14.54 34.595v16.468h-20.361c-6.038-14.099-20.047-24.001-36.328-24.001zm24.5 39.5c0 13.509-10.991 24.5-24.5 24.5s-24.5-10.991-24.5-24.5 10.991-24.5 24.5-24.5 24.5 10.99 24.5 24.5zm-120.5-24.5c13.509 0 24.5 10.991 24.5 24.5s-10.991 24.5-24.5 24.5-24.5-10.991-24.5-24.5 10.991-24.5 24.5-24.5zm-72.5-95.5c0-39.03 22.691-56.5 45.18-56.5.777 0 1.526-.118 2.231-.337a7.481 7.481 0 0 0 6.737-1.19c29.551-22.447 71.52-14.021 112.105-5.87 21.21 4.259 41.496 8.333 60.207 8.333a115 115 0 0 0 8.921-.349c5.019 17.726 9.903 63.49-4.07 119.798l-7.897-18.79a7.496 7.496 0 0 0-3.288-3.659c-2.946-1.627-73.475-39.683-188.583-24.874l-.045.008c-.164.022-.326.055-.488.088-.085.017-.173.03-.257.05-.124.03-.246.07-.369.106-.117.034-.235.064-.349.103-.039.014-.077.032-.116.046a7.427 7.427 0 0 0-1.538.778 7.45 7.45 0 0 0-2.06 2.023c-.061.089-.126.175-.183.267-.05.08-.093.166-.14.248-.079.138-.158.275-.228.417l-.022.04c-.636 1.316-10.175 21.226-17.281 45.173-4.105-21.514-8.467-48.48-8.467-65.909zm15.747 119.747v-.247h17.266c-.002.167-.013.332-.013.5 0 21.78 17.72 39.5 39.5 39.5s39.5-17.72 39.5-39.5c0-4.687 3.813-8.5 8.5-8.5 4.687 0 8.5 3.813 8.5 8.5 0 21.78 17.72 39.5 39.5 39.5s39.5-17.72 39.5-39.5c0-.168-.011-.333-.013-.5h17.202v.311c0 32.364-11.419 65.097-31.33 89.807-20.204 25.074-46.229 38.882-73.28 38.882-27.064 0-53.13-13.822-73.396-38.92-19.978-24.742-31.436-57.485-31.436-89.833zm33.261 116.028l60.619 67.354-34.983 28.183a7.248 7.248 0 0 0-.598.537c-.05.049-.165.165-.401.144-.234-.022-.327-.159-.367-.217l-45.756-67.539 21.486-28.462zm-105.84 49.558l43.836-8.191c.209.659.508 1.301.912 1.905 25.296 37.812 53.02 66.429 82.402 85.057 22.912 14.525 39.311 18.043 43.791 18.776l5.182.847a7.544 7.544 0 0 0 2.418 0l5.182-.847c4.48-.732 20.878-4.25 43.791-18.776 29.382-18.628 57.106-47.245 82.402-85.057a7.485 7.485 0 0 0 .912-1.905l43.836 8.191a60.234 60.234 0 0 1 20.401 10.328l-24.291 24.291c-13.504 13.504-20.942 31.459-20.942 50.558v37.99h-305v-37.99c0-19.099-7.438-37.054-20.942-50.558l-24.291-24.291a60.235 60.235 0 0 1 20.401-10.328zM31.015 482.515v-43.841c0-15.106 5.458-31.838 16.073-44.963l24.378 24.378c10.671 10.671 16.548 24.86 16.548 39.952v37.99h-40.5c-9.097 0-16.499-6.064-16.499-13.516zm449 0c0 7.452-7.402 13.516-16.5 13.516h-40.5v-37.99c0-15.092 5.877-29.28 16.548-39.952l24.378-24.378c10.615 13.125 16.073 29.857 16.073 44.963v43.841z" fill="rgba(255, 255, 255, 1)" stroke="none"/>
  <path d="M207.515 223.031c8.547 0 15.5-6.953 15.5-15.5a7.5 7.5 0 0 0-15 0 .5.5 0 0 1-.5.5 7.5 7.5 0 0 0 0 15z" fill="rgba(255, 255, 255, 1)" stroke="none"/>
  <path d="M296.015 215.531a7.5 7.5 0 0 0 7.5 7.5c8.547 0 15.5-6.953 15.5-15.5a7.5 7.5 0 0 0-15 0 .5.5 0 0 1-.5.5 7.5 7.5 0 0 0-7.5 7.5z" fill="rgba(255, 255, 255, 1)" stroke="none"/>
</svg>
</g></svg></g></g>
<!-- /image 04121 -->
</defs><rect x="0" y="0" width="100" height="100" fill="rgba(230, 232, 249, 0)"></rect><use xlink:href="#transformed-34156" transform="translate(-100, -100)"></use><use xlink:href="#transformed-34156" transform="translate(0, -100)"></use><use xlink:href="#transformed-34156" transform="translate(100, -100)"></use><use xlink:href="#transformed-34156" transform="translate(-100, 0)"></use><use xlink:href="#transformed-34156" transform="translate(0, 0)"></use><use xlink:href="#transformed-34156" transform="translate(100, 0)"></use><use xlink:href="#transformed-34156" transform="translate(-100, 100)"></use><use xlink:href="#transformed-34156" transform="translate(0, 100)"></use><use xlink:href="#transformed-34156" transform="translate(100, 100)"></use><use xlink:href="#transformed-65631" transform="translate(-100, -100)"></use><use xlink:href="#transformed-65631" transform="translate(0, -100)"></use><use xlink:href="#transformed-65631" transform="translate(100, -100)"></use><use xlink:href="#transformed-65631" transform="translate(-100, 0)"></use><use xlink:href="#transformed-65631" transform="translate(0, 0)"></use><use xlink:href="#transformed-65631" transform="translate(100, 0)"></use><use xlink:href="#transformed-65631" transform="translate(-100, 100)"></use><use xlink:href="#transformed-65631" transform="translate(0, 100)"></use><use xlink:href="#transformed-65631" transform="translate(100, 100)"></use><use xlink:href="#transformed-04121" transform="translate(-100, -100)"></use><use xlink:href="#transformed-04121" transform="translate(0, -100)"></use><use xlink:href="#transformed-04121" transform="translate(100, -100)"></use><use xlink:href="#transformed-04121" transform="translate(-100, 0)"></use><use xlink:href="#transformed-04121" transform="translate(0, 0)"></use><use xlink:href="#transformed-04121" transform="translate(100, 0)"></use><use xlink:href="#transformed-04121" transform="translate(-100, 100)"></use><use xlink:href="#transformed-04121" transform="translate(0, 100)"></use><use xlink:href="#transformed-04121" transform="translate(100, 100)"></use></svg>