<svg version="1.1"
      xmlns="http://www.w3.org/2000/svg"
      xmlns:xlink="http://www.w3.org/1999/xlink"  id="snapshot-26992" width="100" height="100" viewBox="0 0 100 100"><desc>This image was made on Patterninja.com</desc><defs>
<!-- image 95784 -->
<g id="transformed-95784" data-image="95784" transform="translate(86, -1) rotate(345, 10, 10)"><g><svg version="1.1" width="20px" height="20px" viewBox="0 0 20 20"><g id="original-95784"><svg xmlns="http://www.w3.org/2000/svg" viewBox="0 0 512.001 512.001" xmlns:xlink="http://www.w3.org/1999/xlink" version="1.1" preserveAspectRatio="xMidYMid meet">
  <path d="M509.071 194.93L496 181.86V76.411C496 34.282 461.726.008 419.597.008c-17.334 0-33.33 5.811-46.164 15.575-56.567-27.773-126.989-18.172-173.972 28.81-50.315 50.316-57.75 127.511-22.326 185.784l-57.292 57.292H95.641c-5.522 0-10 4.477-10 10v18.346H67.294c-5.522 0-10 4.477-10 10v18.346H38.949c-5.522 0-10 4.477-10 10v18.346H10.604a10.003 10.003 0 0 0-7.071 2.929l-.604.604A9.993 9.993 0 0 0 0 383.109v64.886c0 5.523 4.478 10 10 10h66.095c2.652 0 5.195-1.054 7.071-2.929l110.309-110.309c3.905-3.905 3.905-10.237 0-14.143-3.906-3.905-10.236-3.905-14.143 0L71.952 437.996H20v-45.492h18.95c5.522 0 10-4.477 10-10v-18.346h18.346c5.522 0 10-4.477 10-10v-18.346h18.347c5.522 0 10-4.477 10-10v-18.346h18.346c2.652 0 5.195-1.054 7.071-2.929l57.765-57.764a152.462 152.462 0 0 0 10.642 11.817c27.056 27.056 62.548 42.607 100.543 44.215v167.187c0 23.158 18.841 41.999 41.999 41.999h127.997c23.158 0 41.999-18.841 41.999-41.999V202a10.028 10.028 0 0 0-2.934-7.07zM419.596 20.007C450.697 20.007 476 45.309 476 76.41v85.449l-17.982-17.982c-.088-.088-.183-.163-.273-.247-1.861-36.125-16.552-71.707-44.083-99.24a151.814 151.814 0 0 0-21.004-17.525 56.081 56.081 0 0 1 26.938-6.858zm-56.405 84.808V82.74a24.075 24.075 0 0 1 7.188 4.934c4.579 4.579 7.102 10.666 7.102 17.141s-2.522 12.563-7.102 17.142c-9.45 9.452-24.829 9.453-34.281 0-9.452-9.452-9.452-24.831 0-34.282a24.074 24.074 0 0 1 7.094-4.89v22.031c0 5.523 4.478 10 10 10s9.999-4.479 9.999-10.001zM306.56 282.892c-33.66-.003-67.332-12.818-92.958-38.443-51.255-51.256-51.255-134.658.001-185.915 24.83-24.83 57.844-38.505 92.959-38.505 18.141 0 35.716 3.659 51.897 10.61a76.076 76.076 0 0 0-13.783 30.788 43.983 43.983 0 0 0-22.72 12.104c-17.249 17.25-17.249 45.316 0 62.566 8.626 8.625 19.953 12.937 31.283 12.937 11.327 0 22.658-4.313 31.282-12.937 8.356-8.356 12.959-19.467 12.959-31.283 0-11.817-4.603-22.927-12.959-31.283a43.943 43.943 0 0 0-19.512-11.341c2.149-8.244 6.126-15.753 11.463-22.082a132.491 132.491 0 0 1 23.046 18.427c24.83 24.83 38.505 57.843 38.505 92.958s-13.675 68.128-38.505 92.958c-25.631 25.631-59.289 38.444-92.958 38.441zM492 469.995c0 12.131-9.869 22-21.999 22H342.004c-12.131 0-22-9.869-22-22V302.359c35.384-3.092 68.242-18.352 93.658-43.767 24.603-24.603 38.946-55.635 43.05-87.737L492 206.142v263.853z" fill="rgba(255, 255, 255, 1)" stroke="none"/>
  <path d="M255.645 100.578c3.907-3.905 3.907-10.237.001-14.142-3.906-3.905-10.236-3.905-14.143 0-35.872 35.873-35.872 94.242 0 130.114 1.953 1.953 4.512 2.929 7.071 2.929s5.118-.977 7.071-2.929c3.905-3.905 3.905-10.237 0-14.142-28.074-28.075-28.074-73.756 0-101.83z" fill="rgba(255, 255, 255, 1)" stroke="none"/>
  <path d="M287.437 221.012l-.172-.048c-5.315-1.469-10.804 1.658-12.275 6.977-1.473 5.315 1.657 10.825 6.97 12.307.913.259 1.831.382 2.735.382 4.352 0 8.355-2.863 9.61-7.255 1.518-5.311-1.557-10.846-6.868-12.363z" fill="rgba(255, 255, 255, 1)" stroke="none"/>
  <path d="M448.501 437.996h-84.998c-5.522 0-10 4.477-10 10s4.478 10 10 10h84.998c5.522 0 10-4.477 10-10s-4.478-10-10-10z" fill="rgba(255, 255, 255, 1)" stroke="none"/>
  <path d="M219.116 304.97c-1.859-1.86-4.439-2.93-7.069-2.93s-5.21 1.07-7.07 2.93c-1.86 1.86-2.93 4.44-2.93 7.07s1.069 5.21 2.93 7.07a10.077 10.077 0 0 0 7.07 2.93c2.64 0 5.21-1.07 7.069-2.93 1.87-1.86 2.931-4.44 2.931-7.07s-1.061-5.21-2.931-7.07z" fill="rgba(255, 255, 255, 1)" stroke="none"/>
</svg>
</g></svg></g></g>
<!-- /image 95784 -->

<!-- image 21203 -->
<g id="transformed-21203" data-image="21203" transform="translate(62.5, 56) rotate(189, 9.5, 10)"><g><svg version="1.1" width="19px" height="20px" viewBox="0 0 19 20"><g id="original-21203"><svg xmlns="http://www.w3.org/2000/svg" viewBox="0 0 510.652 510.652" xmlns:xlink="http://www.w3.org/1999/xlink" version="1.1" preserveAspectRatio="xMidYMid meet">
  <path d="M510.558 247.232c-.528-4.327-3.75-12.125-19.453-15.749l-173.318-38.616-38.629-173.374C275.547 3.847 267.749.624 263.422.096c-4.33-.527-12.672.725-19.929 15.019L4.262 482.262C-2.713 496 .159 503.22 3.797 506.857c2.015 2.015 5.128 3.794 9.844 3.794 3.798 0 8.636-1.155 14.774-4.271l467.101-239.207c14.318-7.269 15.57-15.614 15.042-19.941zM256.855 21.929c2.117-4.171 3.836-5.903 4.704-6.579.68.862 1.927 2.945 2.97 7.461l38.757 173.95L24.61 475.436 256.855 21.929zm231.847 231.88L35.216 486.044l278.677-278.677 173.894 38.744c4.556 1.052 6.651 2.303 7.516 2.983-.677.87-2.414 2.59-6.601 4.715z" fill="rgba(255, 255, 255, 1)" stroke="none"/>
</svg>
</g></svg></g></g>
<!-- /image 21203 -->

<!-- image 02203 -->
<g id="transformed-02203" data-image="02203" transform="translate(41, 11.5) rotate(0, 10, 9.5)"><g><svg version="1.1" width="20px" height="19px" viewBox="0 0 20 19"><g id="original-02203"><svg xmlns="http://www.w3.org/2000/svg" viewBox="0 0 512 512" xmlns:xlink="http://www.w3.org/1999/xlink" version="1.1" preserveAspectRatio="xMidYMid meet">
  <path d="M114.019 361.012H74.313c-5.77 0-10.449 4.679-10.449 10.449v39.706c0 5.77 4.679 10.449 10.449 10.449h39.706c5.771 0 10.449-4.678 10.449-10.449v-39.706c0-5.77-4.679-10.449-10.449-10.449zm-10.449 39.706H84.762V381.91h18.808v18.808z" fill="rgba(255, 255, 255, 1)" stroke="none"/>
  <path d="M141.246 257.534h-.137c-5.77 0-10.449 4.679-10.449 10.449s4.679 10.449 10.449 10.449h.137c5.77 0 10.449-4.679 10.449-10.449s-4.679-10.449-10.449-10.449z" fill="rgba(255, 255, 255, 1)" stroke="none"/>
  <path d="M366.64 257.535h-.138c-5.77 0-10.449 4.679-10.449 10.449s4.679 10.449 10.449 10.449h.138c5.77 0 10.449-4.679 10.449-10.449s-4.679-10.449-10.449-10.449z" fill="rgba(255, 255, 255, 1)" stroke="none"/>
  <path d="M437.687 361.012h-39.706c-5.77 0-10.449 4.679-10.449 10.449v39.706c0 5.77 4.679 10.449 10.449 10.449h39.706c5.77 0 10.449-4.678 10.449-10.449v-39.706c0-5.77-4.679-10.449-10.449-10.449zm-10.449 39.706H408.43V381.91h18.808v18.808z" fill="rgba(255, 255, 255, 1)" stroke="none"/>
  <path d="M122.031 81.721c-8.455-14.653-24.353-24.082-41.583-24.082-17.228 0-33.125 9.43-41.582 24.082C17.153 83.4 0 101.64 0 123.821c0 5.77 4.678 10.449 10.449 10.449 5.77 0 10.449-4.679 10.449-10.449 0-11.76 9.531-21.328 21.246-21.328.705 0 1.434.039 2.228.117 4.696.48 9.118-2.264 10.8-6.671 3.973-10.408 14.131-17.402 25.276-17.402 11.147 0 21.304 6.992 25.277 17.402 1.682 4.406 6.114 7.154 10.801 6.671.782-.077 1.53-.117 2.225-.117 7.938 0 14.873 4.391 18.521 10.88H61.569c-5.77 0-10.449 4.679-10.449 10.449s4.679 10.449 10.449 10.449h88.881c5.77 0 10.449-4.678 10.448-10.449 0-22.181-17.155-40.419-38.867-42.101z" fill="rgba(255, 255, 255, 1)" stroke="none"/>
  <path d="M255.999 397.073c-5.77 0-10.449 4.679-10.449 10.449v.138c0 5.77 4.679 10.449 10.449 10.449 5.771 0 10.449-4.679 10.449-10.449v-.138c0-5.77-4.679-10.449-10.449-10.449z" fill="rgba(255, 255, 255, 1)" stroke="none"/>
  <path d="M501.551 468.637h-15.673V313.992h15.673a10.448 10.448 0 0 0 9.098-15.587l-38.602-68.355a10.448 10.448 0 0 0-9.098-5.311H336.607v-70.726c0-2.924-1.225-5.714-3.377-7.691l-66.781-61.394V78.87h52.245a10.448 10.448 0 0 0 8.049-17.111l-9.178-11.091 9.178-11.089a10.45 10.45 0 0 0-8.049-17.112H256c-5.77 0-10.449 4.679-10.449 10.449v52.013l-66.779 61.394a10.442 10.442 0 0 0-3.377 7.692v70.726H40.986a10.448 10.448 0 0 0-9.54 6.187L.909 299.281a10.449 10.449 0 0 0 9.54 14.711h15.673v154.645H10.449C4.678 468.637 0 473.316 0 479.086s4.678 10.449 10.449 10.449h491.102c5.77 0 10.449-4.679 10.449-10.449s-4.678-10.449-10.449-10.449zM266.449 43.363h30.031l-.53.641a10.445 10.445 0 0 0 0 13.325l.531.642h-30.032V43.363zM256 103.708l43.353 39.857h-86.705L256 103.708zm-59.709 60.755h119.417v92.997l-17.913-11.516v-31.451c0-22.909-18.75-41.547-41.796-41.547s-41.796 18.638-41.796 41.547v31.451l-17.913 11.515v-92.996zm80.607 50.03v18.017l-6.36-4.089c-8.83-5.67-20.244-5.67-29.081.003l-6.355 4.086v-18.017c0-11.385 9.375-20.649 20.898-20.649s20.898 9.263 20.898 20.649zm-24.146 31.515a6.028 6.028 0 0 1 6.491-.003l120.477 77.448-6.485 10.087-111.585-71.731c-1.72-1.107-3.685-1.659-5.65-1.659s-3.93.553-5.65 1.659L138.767 333.54l-6.485-10.087 120.47-77.445zM26.561 293.094l6.549-14.661h74.194c5.77 0 10.449-4.679 10.449-10.449s-4.679-10.449-10.449-10.449H42.447l5.315-11.898h127.631v25.256l-34.534 22.201H26.561zM47.02 468.637V313.992h62.516a10.435 10.435 0 0 0-1.906 4.102 10.455 10.455 0 0 0 1.42 7.869l17.785 27.667c3.121 4.855 9.587 6.26 14.439 3.14l.036-.023v111.89H47.02zm233.277 0h-13.848v-27.174c0-5.77-4.679-10.449-10.449-10.449s-10.449 4.679-10.449 10.449v27.174h-13.848v-83.341h48.594v83.341zm69.493 0h-48.595v-93.79c0-5.77-4.679-10.449-10.449-10.449h-69.492c-5.77 0-10.449 4.679-10.449 10.449v93.79H162.21V343.323L256 283.029l93.79 60.294v125.314zm115.19 0h-94.292v-111.89l.036.023a10.403 10.403 0 0 0 5.639 1.66c3.437 0 6.803-1.694 8.8-4.8l17.785-27.667a10.446 10.446 0 0 0 1.42-7.869 10.422 10.422 0 0 0-1.906-4.102h62.517v154.645zm10.449-175.543H371.14l-34.535-22.201v-25.256H456.85l6.719 11.897h-63.124c-5.77 0-10.449 4.679-10.449 10.449s4.679 10.449 10.449 10.449h74.927l8.28 14.662h-8.223z" fill="rgba(255, 255, 255, 1)" stroke="none"/>
</svg>
</g></svg></g></g>
<!-- /image 02203 -->
</defs><rect x="0" y="0" width="100" height="100" fill="rgba(230, 232, 249, 0)"></rect><use xlink:href="#transformed-95784" transform="translate(-100, -100)"></use><use xlink:href="#transformed-95784" transform="translate(0, -100)"></use><use xlink:href="#transformed-95784" transform="translate(100, -100)"></use><use xlink:href="#transformed-95784" transform="translate(-100, 0)"></use><use xlink:href="#transformed-95784" transform="translate(0, 0)"></use><use xlink:href="#transformed-95784" transform="translate(100, 0)"></use><use xlink:href="#transformed-95784" transform="translate(-100, 100)"></use><use xlink:href="#transformed-95784" transform="translate(0, 100)"></use><use xlink:href="#transformed-95784" transform="translate(100, 100)"></use><use xlink:href="#transformed-21203" transform="translate(-100, -100)"></use><use xlink:href="#transformed-21203" transform="translate(0, -100)"></use><use xlink:href="#transformed-21203" transform="translate(100, -100)"></use><use xlink:href="#transformed-21203" transform="translate(-100, 0)"></use><use xlink:href="#transformed-21203" transform="translate(0, 0)"></use><use xlink:href="#transformed-21203" transform="translate(100, 0)"></use><use xlink:href="#transformed-21203" transform="translate(-100, 100)"></use><use xlink:href="#transformed-21203" transform="translate(0, 100)"></use><use xlink:href="#transformed-21203" transform="translate(100, 100)"></use><use xlink:href="#transformed-02203" transform="translate(-100, -100)"></use><use xlink:href="#transformed-02203" transform="translate(0, -100)"></use><use xlink:href="#transformed-02203" transform="translate(100, -100)"></use><use xlink:href="#transformed-02203" transform="translate(-100, 0)"></use><use xlink:href="#transformed-02203" transform="translate(0, 0)"></use><use xlink:href="#transformed-02203" transform="translate(100, 0)"></use><use xlink:href="#transformed-02203" transform="translate(-100, 100)"></use><use xlink:href="#transformed-02203" transform="translate(0, 100)"></use><use xlink:href="#transformed-02203" transform="translate(100, 100)"></use></svg>